<svg xmlns="http://www.w3.org/2000/svg" fill-rule="evenodd" viewBox="0 0 1920 468" clip-rule="evenodd"><g transform="translate(-30)"><path fill="url(#a)" d="M1950 100L30 0v468h1920V100z"/><path fill="#19193c" d="M30 100L1950 0v468H30V100z"/><path fill="url(#b)" d="M30 100L1950 0v468H30V100z"/><clipPath id="c"><path d="M30 100L1950 0v468H30V100z"/></clipPath><path fill="#fff" fill-opacity=".02" d="M1695 234v-.08h-1l.3-.18-25.43-44-11.92 20.64-13.63 23.57H1590l-12.68-21.92-38.04 21.92h-2l.3-.18-25.43-44-11.9 20.64-13.6 23.55h-53.34l-12.66-21.92-38.03 21.92h-1.94l.3-.18-25.44-44-11.9 20.64-13.64 23.58h-53.33l-12.62-21.92L1226 234l-.33.18 25.43 44 25.55-44.18h53.33l12.64 21.9 38.04-21.9h1.95l-.3.18 25.44 44 25.54-44.18h53.34l12.62 21.9 38.03-21.9h2l-.34.18 25.45 44 25.54-44.18h53.34l12.6 21.9 38.04-21.9h1v1l-.18-.34-38.34 22.07.06.1 12.6 21.82h25.83v1h-25.82l-12.67 21.92 38.34 22 .18-.3v2l-25.26 43.7h25.26v1h-25.26l25.23 43.63v2l-.18-.3-38.32 22.08.06.1 12.6 21.83h25.83v1h-25.82l-12.67 21.93 38.34 22 .18-.3v2l-25.26 43.68h25.23v1h-25.26l25.27 43.7v1.96l-.18-.3-38.32 22.08.06.1 12.6 21.83h25.83v1h-25.82l-12.67 21.9 38.34 22.12.18-.33v1.86l-25.26 43.7H1695v.1h25.82l12.67-21.92-38.32-22.08-.18.3v-1.95l25.26-43.67H1695v-1h25.26L1695 596.3v-1.96l.18.3 38.3-22.06-12.66-21.92H1695v-1h25.82l12.67-21.86-38.32-22.1-.18.3v-2l25.26-43.66H1695v-1h25.26L1695 415.68v-2l.18.27 38.3-22.07-12.66-21.92H1695v-1h25.82l12.67-21.9-38.32-22.08-.18.38v-2l25.26-43.68H1695v-1h25.26L1695 235v-1zm1 0l-.33.18 25.43 44 25.55-44.18h53.33l12.64 21.9 38.04-21.9h1.95l-.3.18 25.44 44 25.54-44.18h53.34l12.62 21.9 38.03-21.9h2l-.34.18 25.45 44 25.54-44.18h53.33l12.62 21.9 38.03-21.9h1v1l-.18-.34-38.34 22.07.06.1 12.6 21.82h25.83v1h-25.82l-12.67 21.92 38.34 22 .18-.3v2l-25.26 43.7h25.26v1h-25.26l25.23 43.63v2l-.18-.3-38.32 22.08.06.1 12.6 21.83h25.83v1h-25.82l-12.67 21.93 38.34 22 .18-.3v2l-25.26 43.68h25.23v1h-25.26l25.27 43.7v1.96l-.18-.3-38.32 22.08.06.1 12.6 21.83h25.83v1h-25.82l-12.67 21.9 38.34 22.12.18-.33v1.86l-25.26 43.7H2165v1h-25.26l25.26 43.7v1h-1l.3-.2-25.43-43.98-11.92 20.63-13.63 23.57H2060l-12.68-21.92-38.04 21.92h-2l.3-.18-25.43-44-11.9 20.64-13.6 23.55h-53.34l-12.66-21.92-38.03 21.92h-1.94l.3-.18-25.44-44-11.9 20.64-13.64 23.58h-53.33l-12.62-21.92L1696 776h-1v-.08h-1l.3-.18-25.43-44-11.92 20.64-13.63 23.57H1590l-12.68-21.92-38.04 21.92h-2l.3-.18-25.43-44-11.9 20.64-13.6 23.55h-53.34l-12.66-21.92-38.03 21.92h-1.94l.3-.18-25.44-44-11.9 20.64-13.64 23.58h-53.33l-12.62-21.92L1226 776h-1v-.08h-1l.3-.18-25.43-44-11.92 20.64-13.63 23.57H1120l-12.68-21.92-38.04 21.92h-2l.3-.18-25.43-44-11.9 20.64-13.6 23.55H963.3l-12.66-21.92-38.03 21.92h-1.94l.3-.18-25.44-44-11.9 20.64L859.97 776h-53.34l-12.6-21.92L756 776h-1v-.08h-1l.3-.18-25.43-44-11.92 20.64-13.63 23.57H650l-12.68-21.92-38.04 21.92h-2l.3-.18-25.43-44-11.9 20.64-13.6 23.55H493.3l-12.66-21.92-38.03 21.92h-1.94l.3-.18-25.44-44-11.9 20.64L389.97 776h-53.34l-12.6-21.92L286 776h-1v-.08h-1l.3-.18-25.43-44-11.92 20.64-13.63 23.57H180l-12.68-21.92-38.04 21.92h-2l.3-.18-25.43-44-11.9 20.64-13.6 23.55H23.3l-12.66-21.92-38.03 21.92h-1.94l.3-.18-25.44-44-11.9 20.64L-80.03 776h-53.33l-12.62-21.92L-184 776h-1v-1l.18.3 38.3-22.06-12.66-21.92H-185v-1h25.82l12.67-21.9-38.32-22.1-.18.3v-1.95l25.26-43.67H-185v-1h25.26L-185 596.3v-1.96l.18.3 38.3-22.06-12.66-21.92H-185v-1h25.82l12.67-21.86-38.32-22.1-.18.3v-2l25.26-43.66H-185v-1h25.26L-185 415.68v-2l.18.27 38.3-22.07-12.66-21.92H-185v-1h25.82l12.67-21.9-38.32-22.08-.18.38v-2l25.26-43.68H-185v-1h25.26L-185 235v-2l.18.3 38.3-22.06-12.66-21.92H-185v-1h25.82l12.67-21.9-38.32-22.1-.18.3v-1.94L-159.74 99H-185v-1h25.26L-185 54.3v-1.96l.18.3 38.3-22.06-12.66-21.92H-185v-1h25.82l12.67-21.86-38.32-22.1-.18.3v-1.98l25.26-43.68H-185v-1h25.26L-185-126.32v-2l.18.27 38.3-22.07-12.66-21.92H-185v-1h25.82l12.67-21.9-38.32-22.1-.18.4v-2l25.26-43.68H-185v-1h25.26L-185-307v-1h1l-.33.18 25.43 44 25.55-44.18h53.33l12.64 21.9 38.04-21.9h1.95l-.3.18 25.44 44L23.28-308h53.34l12.62 21.9 38.03-21.9h2l-.34.18 25.45 44L179.92-308h53.34l12.6 21.9L283.9-308h1v1l-.18-.34-38.34 22.07.06.1 12.6 21.82h25.83v1h-25.82l-12.67 21.92 38.34 22 .18-.3v2l-25.26 43.7h25.26v1h-25.26l25.23 43.63v2l-.18-.3-38.32 22.08.06.1 12.6 21.83h25.83v1h-25.82l-12.67 21.93 38.34 22 .18-.3v2L259.64 7.6h25.23v1H259.6l25.27 43.7v1.96l-.18-.3-38.32 22.08.06.1 12.6 21.83h25.83v1h-25.82l-12.67 21.9L284.72 143l.18-.32v1.84l-25.26 43.7H285v.1h25.82l12.67-21.9-38.32-22.1-.18.3v-1.94L310.26 99H285v-1h25.26L285 54.3v-1.96l.18.3 38.3-22.06-12.66-21.92H285v-1h25.82L323.5-14.2l-38.32-22.1-.18.3v-1.98l25.26-43.68H285v-1h25.26L285-126.32v-2l.18.27 38.3-22.07-12.66-21.92H285v-1h25.82l12.67-21.9-38.32-22.1-.18.4v-2l25.26-43.68H285v-1h25.26L285-307v-1h1l-.33.18 25.43 44L336.64-308H390l12.64 21.9 38.04-21.9h1.95l-.3.18 25.44 44L493.28-308h53.34l12.62 21.9 38.03-21.9h2l-.34.18 25.45 44L649.92-308h53.34l12.6 21.9L753.9-308h1v1l-.18-.34-38.34 22.07.06.1 12.6 21.82h25.83v1h-25.82l-12.67 21.92 38.34 22 .18-.3v2l-25.26 43.7h25.26v1h-25.26l25.23 43.63v2l-.18-.3-38.32 22.08.06.1 12.6 21.83h25.83v1h-25.82l-12.67 21.93 38.34 22 .18-.3v2L729.64 7.6h25.23v1H729.6l25.27 43.7v1.96l-.18-.3-38.32 22.08.06.1 12.6 21.83h25.83v1h-25.82l-12.67 21.9L754.72 143l.18-.32v1.84l-25.26 43.7H755v.1h25.82l12.67-21.9-38.32-22.1-.18.3v-1.94L780.26 99H755v-1h25.26L755 54.3v-1.96l.18.3 38.3-22.06-12.66-21.92H755v-1h25.82L793.5-14.2l-38.32-22.1-.18.3v-1.98l25.26-43.68H755v-1h25.26L755-126.32v-2l.18.27 38.3-22.07-12.66-21.92H755v-1h25.82l12.67-21.9-38.32-22.1-.18.4v-2l25.26-43.68H755v-1h25.26L755-307v-1h1l-.33.18 25.43 44L806.64-308H860l12.64 21.9 38.04-21.9h1.95l-.3.18 25.44 44L963.28-308h53.34l12.62 21.9 38.03-21.9h2l-.34.18 25.45 44 25.54-44.18h53.34l12.6 21.9 38.04-21.9h1v1l-.18-.34-38.34 22.07.06.1 12.6 21.82h25.83v1h-25.82l-12.67 21.92 38.34 22 .18-.3v2l-25.26 43.7h25.26v1h-25.26l25.23 43.63v2l-.18-.3-38.32 22.08.06.1 12.6 21.83h25.83v1h-25.82l-12.67 21.93 38.34 22 .18-.3v2L1199.64 7.6h25.23v1h-25.26l25.27 43.7v1.96l-.18-.3-38.32 22.08.06.1 12.6 21.83h25.83v1h-25.82l-12.67 21.9 38.34 22.12.18-.32v1.84l-25.26 43.7H1225v.1h25.82l12.67-21.9-38.32-22.1-.18.3v-1.94L1250.26 99H1225v-1h25.26L1225 54.3v-1.96l.18.3 38.3-22.06-12.66-21.92H1225v-1h25.82l12.67-21.86-38.32-22.1-.18.3v-1.98l25.26-43.68H1225v-1h25.26L1225-126.32v-2l.18.27 38.3-22.07-12.66-21.92H1225v-1h25.82l12.67-21.9-38.32-22.1-.18.4v-2l25.26-43.68H1225v-1h25.26L1225-307v-1h1l-.33.18 25.43 44 25.55-44.18h53.33l12.64 21.9 38.04-21.9h1.95l-.3.18 25.44 44 25.54-44.18h53.34l12.62 21.9 38.03-21.9h2l-.34.18 25.45 44 25.54-44.18h53.34l12.6 21.9 38.04-21.9h1v1l-.18-.34-38.34 22.07.06.1 12.6 21.82h25.83v1h-25.82l-12.67 21.92 38.34 22 .18-.3v2l-25.26 43.7h25.26v1h-25.26l25.23 43.63v2l-.18-.3-38.32 22.08.06.1 12.6 21.83h25.83v1h-25.82l-12.67 21.93 38.34 22 .18-.3v2L1669.64 7.6h25.23v1h-25.26l25.27 43.7v1.96l-.18-.3-38.32 22.08.06.1 12.6 21.83h25.83v1h-25.82l-12.67 21.9 38.34 22.12.18-.32v1.84l-25.26 43.7H1695v.1h25.82l12.67-21.9-38.32-22.1-.18.3v-1.94L1720.26 99H1695v-1h25.26L1695 54.3v-1.96l.18.3 38.3-22.06-12.66-21.92H1695v-1h25.82l12.67-21.86-38.32-22.1-.18.3v-1.98l25.26-43.68H1695v-1h25.26L1695-126.32v-2l.18.27 38.3-22.07-12.66-21.92H1695v-1h25.82l12.67-21.9-38.32-22.1-.18.4v-2l25.26-43.68H1695v-1h25.26L1695-307v-1h1l-.33.18 25.43 44 25.55-44.18h53.33l12.64 21.9 38.04-21.9h1.95l-.3.18 25.44 44 25.54-44.18h53.34l12.62 21.9 38.03-21.9h2l-.34.18 25.45 44 25.54-44.18h53.33l12.62 21.9 38.03-21.9h1v1l-.18-.34-38.34 22.07.06.1 12.6 21.82h25.83v1h-25.82l-12.67 21.92 38.34 22 .18-.3v2l-25.26 43.7h25.26v1h-25.26l25.23 43.63v2l-.18-.3-38.32 22.08.06.1 12.6 21.83h25.83v1h-25.82l-12.67 21.93 38.34 22 .18-.3v2L2139.64 7.6h25.23v1h-25.26l25.27 43.7v1.96l-.18-.3-38.32 22.08.06.1 12.6 21.83h25.83v1h-25.82l-12.67 21.9 38.34 22.12.18-.32v1.84l-25.26 43.7H2165v1h-25.26l25.26 43.7v1h-1l.3-.18-25.43-44-11.92 20.64-13.63 23.57H2060l-12.68-21.92-38.04 21.92h-2l.3-.18-25.43-44-11.9 20.64-13.6 23.55h-53.34l-12.66-21.92-38.03 21.92h-1.94l.3-.18-25.44-44-11.9 20.64-13.64 23.58h-53.33l-12.62-21.92L1696 234zm-1 541l.18.3 38.3-22.06-12.66-21.92H1695v-.1h-25.26l25.26 43.7v.08zm-470-541v-.08h-1l.3-.18-25.43-44-11.92 20.64-13.63 23.57H1120l-12.68-21.92-38.04 21.92h-2l.3-.18-25.43-44-11.9 20.64-13.6 23.55H963.3l-12.66-21.92-38.03 21.92h-1.94l.3-.18-25.44-44-11.9 20.64L859.97 234h-53.34l-12.6-21.92L756 234l-.33.18 25.43 44L806.64 234H860l12.64 21.9 38.04-21.9h1.95l-.3.18 25.44 44L963.28 234h53.34l12.62 21.9 38.03-21.9h2l-.34.18 25.45 44 25.54-44.18h53.34l12.6 21.9 38.04-21.9h1v1l-.18-.34-38.34 22.07.06.1 12.6 21.82h25.83v1h-25.82l-12.67 21.92 38.34 22 .18-.3v2l-25.26 43.7h25.26v1h-25.26l25.23 43.63v2l-.18-.3-38.32 22.08.06.1 12.6 21.83h25.83v1h-25.82l-12.67 21.93 38.34 22 .18-.3v2l-25.26 43.68h25.23v1h-25.26l25.27 43.7v1.96l-.18-.3-38.32 22.08.06.1 12.6 21.83h25.83v1h-25.82l-12.67 21.9 38.34 22.12.18-.33v1.86l-25.26 43.7H1225v.1h25.82l12.67-21.92-38.32-22.08-.18.3v-1.95l25.26-43.67H1225v-1h25.26L1225 596.3v-1.96l.18.3 38.3-22.06-12.66-21.92H1225v-1h25.82l12.67-21.86-38.32-22.1-.18.3v-2l25.26-43.66H1225v-1h25.26L1225 415.68v-2l.18.27 38.3-22.07-12.66-21.92H1225v-1h25.82l12.67-21.9-38.32-22.08-.18.38v-2l25.26-43.68H1225v-1h25.26L1225 235v-1zm0 541l.18.3 38.3-22.06-12.66-21.92H1225v-.1h-25.26l25.26 43.7v.08zM755 234v-.08h-1l.3-.18-25.43-44-11.92 20.64-13.63 23.57H650l-12.68-21.92-38.04 21.92h-2l.3-.18-25.43-44-11.9 20.64-13.6 23.55H493.3l-12.66-21.92-38.03 21.92h-1.94l.3-.18-25.44-44-11.9 20.64L389.97 234h-53.34l-12.6-21.92L286 234l-.33.18 25.43 44L336.64 234H390l12.64 21.9 38.04-21.9h1.95l-.3.18 25.44 44L493.28 234h53.34l12.62 21.9 38.03-21.9h2l-.34.18 25.45 44L649.92 234h53.34l12.6 21.9L753.9 234h1v1l-.18-.34-38.34 22.07.06.1 12.6 21.82h25.83v1h-25.82l-12.67 21.92 38.34 22 .18-.3v2l-25.26 43.7h25.26v1h-25.26l25.23 43.63v2l-.18-.3-38.32 22.08.06.1 12.6 21.83h25.83v1h-25.82l-12.67 21.93 38.34 22 .18-.3v2l-25.26 43.68h25.23v1H729.6l25.27 43.7v1.96l-.18-.3-38.32 22.08.06.1 12.6 21.83h25.83v1h-25.82l-12.67 21.9L754.72 685l.18-.33v1.86l-25.26 43.7H755v.1h25.82l12.67-21.92-38.32-22.08-.18.3v-1.95L780.26 641H755v-1h25.26L755 596.3v-1.96l.18.3 38.3-22.06-12.66-21.92H755v-1h25.82l12.67-21.86-38.32-22.1-.18.3v-2l25.26-43.66H755v-1h25.26L755 415.68v-2l.18.27 38.3-22.07-12.66-21.92H755v-1h25.82l12.67-21.9L755.17 325l-.18.38v-2l25.26-43.68H755v-1h25.26L755 235v-1zm0 541l.18.3 38.3-22.06-12.66-21.92H755v-.1h-25.26l25.26 43.7v.08zM285 234v-.08h-1l.3-.18-25.43-44-11.92 20.64-13.63 23.57H180l-12.68-21.92-38.04 21.92h-2l.3-.18-25.43-44-11.9 20.64-13.6 23.55H23.3l-12.66-21.92-38.03 21.92h-1.94l.3-.18-25.44-44-11.9 20.64L-80.03 234h-53.33l-12.62-21.92L-184 234l-.33.18 25.43 44 25.55-44.18h53.33l12.64 21.9 38.04-21.9h1.95l-.3.18 25.44 44L23.28 234h53.34l12.62 21.9 38.03-21.9h2l-.34.18 25.45 44L179.92 234h53.34l12.6 21.9L283.9 234h1v1l-.18-.34-38.34 22.07.06.1 12.6 21.82h25.83v1h-25.82l-12.67 21.92 38.34 22 .18-.3v2l-25.26 43.7h25.26v1h-25.26l25.23 43.63v2l-.18-.3-38.32 22.08.06.1 12.6 21.83h25.83v1h-25.82l-12.67 21.93 38.34 22 .18-.3v2l-25.26 43.68h25.23v1H259.6l25.27 43.7v1.96l-.18-.3-38.32 22.08.06.1 12.6 21.83h25.83v1h-25.82l-12.67 21.9L284.72 685l.18-.33v1.86l-25.26 43.7H285v.1h25.82l12.67-21.92-38.32-22.08-.18.3v-1.95L310.26 641H285v-1h25.26L285 596.3v-1.96l.18.3 38.3-22.06-12.66-21.92H285v-1h25.82l12.67-21.86-38.32-22.1-.18.3v-2l25.26-43.66H285v-1h25.26L285 415.68v-2l.18.27 38.3-22.07-12.66-21.92H285v-1h25.82l12.67-21.9L285.17 325l-.18.38v-2l25.26-43.68H285v-1h25.26L285 235v-1zm0 497.22h-25.26l25.26 43.7v.08l.18.3 38.3-22.06-12.66-21.92H285v-.1zm1410-542h-25.26l25.26 43.7v.08l.18.3 38.3-22.06-12.66-21.92H1695v-.1zM1225 233l.18.3 38.3-22.06-12.66-21.92H1225v-.1h-25.26l25.26 43.7v.08zm-470-43.78h-25.26l25.26 43.7v.08l.18.3 38.3-22.06-12.66-21.92H755v-.1zM285 233l.18.3 38.3-22.06-12.66-21.92H285v-.1h-25.26l25.26 43.7v.08zM180.8-307.5l-12.7 21.9 38.3 22.1 25.45-44H180.8zm-235 225.8l-12.7 21.93 38.32 22.07 25.44-44H-54.2zm0-1l51.15-.02-25.44-44-38.3 22.1v.1l12.6 21.83zm104.81.32l38.33 22.12 12.67-21.9-12.86-22.27-12.68-21.94-25.45 44zm37.84 22.93L50.17-81.5 24.72-37.53h51.05l12.66-21.93zM49.78-82.87l25.45-44h-51.1l-12.67 21.9 38.31 22.1zm-.5.84l-38.3-22.03L-1.7-82.23l2.25 3.88 23.3 40.3 25.43-43.98zm-37.3 25.45l-14.24-24.6-25.44 44 38.3 22.1 1.06-1.87 11.62-20.1-11.3-19.53zm-40.16 20.2l-25.4 44.04h51.04l12.7-21.9-38.34-22.13zm25.64 45l-51.04.04 25.44 44 38.3-22.1L-2.53 8.6zm.84-.5l12.67 21.95 38.3-22.1L23.85-36l-11 18.98L-1.7 8.12zm51.48.67L11.45 30.9 24.12 52.8h51.1l-25.45-44zm-25.1-45.36l25.4 44L88.4-14.63 75.74-36.55H24.7zm51.94-.48L102.16 7.1l25.44-43.98-38.3-22.1L76.6-37.05zm26.4 44.67l51.08.03 12.66-21.92-38.32-22.1-25.43 44zm63.74 22.9l-12.7-21.9H103l25.44 44 38.32-22.1zm-37.83-67.76l38.32 22.15 1.06-1.84 11.62-20.1-11.3-19.54-14.24-24.65-25.45 43.98zm-.84-.48l25.4-44.02h-51.06L89.78-59.8l38.3 22.1zm-25.66-45l51.13-.02-25.44-44-38.3 22.1v.1l12.6 21.83zm.57-89.35l25.44 44 38.28-22.08-12.66-21.92H103zm24.6 44.5l-25.45-43.98-11.9 20.62-13.63 23.53 12.67 21.9 38.3-22.08zm-38.52-23.3l12.53-21.64-12.66-21.9-38.3 22.1 25.43 43.98 13-22.52zm-13.86 23l-25.45-44-38.3 22.1 12.65 21.9h51.1zm-51.94.5l-12.67-21.9-38.3 22.1 25.44 43.98 25.54-44.2zm-51.47-.7l38.37-22.05-12.75-21.94h-51.04l25.43 44zm-.83.5l-25.45-44.02-11.9 20.62-13.64 23.57 12.67 21.9 38.32-22.08zm-38.53-23.3l12.53-21.64-12.67-21.9-38.3 22.1 25.43 43.98 13-22.52zm-.34 46.42l-12.68-21.9-25.44 43.98 38.3 22.1 12.68-21.92-12.86-22.26zm-.3 45l-38.3-22.07-25.45 43.98h51.1l12.66-21.92zm.85.48l-12.67 21.9 25.54 44.18 25.45-43.98-38.32-22.1zm12.3 67.08L-67.7-13.74-106 8.36l25.43 43.98 13-22.53 12.53-21.67zm-11.34 21.6L-80 53.27l12.67 21.9 38.32-22.08-25.45-44-11.9 20.63zm37.86 24.23l-38.23 22.06v.1l12.62 21.83H-3.1l-25.44-44zm.84-.5L-2.26 97.5l25.54-44.2L10.6 31.38l-38.3 22.1zm51.82.32l-12.65 21.9 38.3 22.1 25.46-44h-51.1zM50.62 8.3l25.45 44.04 13-22.53L101.6 8.14l-12.67-21.9L50.6 8.3zm39.62 21.45L76.6 53.3 89.3 75.2l38.3-22.1-25.43-43.98-11.9 20.63zm37.83 24.23l-38.2 22.06v.1l12.6 21.83h51.04l-25.43-44zm.85-.5l25.45 44.03 25.54-44.18-12.66-21.92-38.32 22.1zm39.18-22.57l12.7 21.9h51.04l-25.44-44-38.3 22.1zm-.5-.84L205.93 8l-25.44-44-11 19-14.54 25.14 12.67 21.92zM157.2-78.3l23.3 40.32 25.44-43.98-38.3-22.1-12.68 21.9 2.24 3.87zm-2.8-4.85l25.54-44.17-12.67-21.9-38.32 22.08 25.45 44zm13.72-66.6l12.7 21.9h51.04l-25.44-44-38.3 22.1zm-.5-.84l38.32-22.06-25.44-44-11 19-14.54 25.15 12.67 21.9zm-13.5-22.44l12.7-21.9-38.32-22.1-25.43 44h51.05zm-51.94-.48l25.44-43.97-38.3-22.1-12.68 21.92 25.54 44.16zm-26.38-44.63l12.7-21.9-38.32-22.1-25.43 44h51.05zm0 1l-51.1.03 25.45 43.98 38.3-22.1-12.65-21.9zm-26.5 44.5l-25.44-43.97-11 19-14.54 25.14 12.67 21.92 38.3-22.1zm-51.82-.4l12.7-21.86-38.3-22.13-25.45 44h51.06zm-51.94-.47l25.45-43.97-38.32-22.1-12.67 21.92 25.54 44.16zm-26.38-44.63l12.66-21.9-38.3-22.1-25.45 44h51.1zm0 1l-51.1-.03 25.46 44 38.3-22.06-12.66-21.9zm-.56 89.35l-25.44-44.04-38.32 22.1 12.72 21.94h51.04zm-51.04 1l-12.72 21.9 38.32 22.1 25.44-44h-51.04zm25.15 44.85l-38.37-22.1-12.66 21.88 2.25 3.88 23.34 40.33 25.43-43.98zm26.48 45.48l-51.13-.05 25.5 44.05 38.3-22.1-12.67-21.9zm-.56 89.35L-106.86 8.8l-38.32 22.1 12.76 21.98h51.04zm-51.04 1l-12.72 21.9 38.32 22.1 25.44-44h-51.04zm25.15 44.86l-38.4-22.18-12.66 21.92 2.25 3.9 23.38 40.34 25.43-43.98zm-24.68 44.42l51.08.02 12.67-21.92-38.3-22.1-25.45 44zm63.74 22.9l-12.7-21.93h-51.05l25.44 44 38.3-22.08zm-37.82-67.75l38.3 22.1 12.68-21.92-12.86-22.25-12.68-21.9-25.44 43.98zm51.83.67l-12.7 21.9 38.32 22.1 25.44-44H-54.2zm26.04 45.34l-25.43 44.02h51.06l12.7-21.9-38.32-22.1zm.48-.84l38.3 22.12 1.06-1.82 11.62-20.1L12 124.13-2.23 99.48l-25.44 43.98zm28.25-41.1l23.3 40.3 25.43-44L11 76.56-1.7 98.48l2.25 3.9zm24.14 40.8l51.1.02 12.66-21.92-38.3-22.1-25.45 44zm63.76 22.9l-12.7-21.9H24.7l25.45 43.98 38.3-22.1zM50.64 98.3l38.3 22.13 12.68-21.92-12.86-22.24-12.68-21.94-25.44 44zm51.82.67l-12.68 21.9 38.3 22.1 25.42-44h-51.04zm26.02 45.34l-25.43 44.02h51.05l12.7-21.9-38.32-22.1zm.5-.84l38.28 22.1 1.05-1.82 11.66-20.08-11.3-19.53-14.24-24.65-25.45 43.98zm28.24-41.1l23.3 40.3 25.44-44-38.3-22.1-12.68 21.92 2.24 3.9zm24.1 40.8h51.04l12.7-21.9-38.3-22.1-25.44 44zm63.75 22.9l-12.7-21.9H181.3l25.44 43.98 38.31-22.1zM206.4 97.8l25.4-44.02h-51.04L168.1 75.72l38.3 22.1zm.85-89.5l25.45 44.02 13.02-22.53 12.52-21.65-12.67-21.9-38.32 22.08zm-.5-.84l38.28-22.07-12.67-21.9h-51.04l25.44 43.98zM181.33-37.5h51.04l12.7-21.9-38.3-22.1-25.44 44zm25.08-45.35l25.4-44h-51.04l-12.66 21.9 38.3 22.1zm.85-89.5l25.45 44.03 13.02-22.52 12.52-21.68-12.67-21.9-38.32 22.08zm-.5-.83l38.28-22.1-12.67-21.9h-51.04l25.44 44zm-25.43-44.97h51.04l12.7-21.9-38.3-22.1-25.44 44zm-13.7-66.6l-12.68 21.92 2.24 3.88 23.3 40.28 25.44-43.98-38.3-22.1zm-13.24 22.9l-25.45 44 38.33 22.1 1.05-1.83 11.62-20.1-11.3-19.53-14.24-24.66zm-26.3 43.52l25.4-44.02h-51.04l-12.66 21.92 38.3 22.1zm0-88.98l-38.2 22.06v.1l12.6 21.82h51.05l-25.44-44zm-39.34 22.2L76.06-307 50.6-263l38.33 22.08 12.67-21.9-12.86-22.27zm-64.62-22.4l-12.65 21.88 38.3 22.1 25.46-44h-51.1zm-13.15 22.74L-1.7-262.83l2.25 3.88 23.3 40.28 25.43-43.98-38.3-22.1zm-13.23 22.9l-25.44 44 38.3 22.1 1.06-1.82 11.62-20.1-11.3-19.53-14.24-24.66zm-26.28 43.53l25.4-44.02H-54.2l-12.7 21.92 38.36 22.1zm0-88.98l-38.27 22.06v.1l12.65 21.82H-3.1l-25.44-44zm-39.36 22.2L-80.58-307l-25.44 44 38.3 22.08 12.68-21.9-12.86-22.27zm-64.6-22.4l-12.68 21.9 38.28 22.08 25.44-44h-51.04zm-13.17 22.74l-12.66 21.93 2.25 3.88 23.3 40.28 25.43-43.98-38.32-22.1zm-38.66 66.9l38.36 22.1 1-1.82 11.62-20.1-11.3-19.53-14.25-24.64-25.43 43.98zm26.02 45.35l12.63 21.9 38.33-22.06-25.43-44-11 19-14.54 25.15zm-26.03 45.34l25.43 44 25.55-44.18-12.62-21.9-38.36 22.08zm0 89.97l38.36 22.12 1-1.84 11.62-20.1-11.3-19.5-14.25-24.65-25.43 43.98zm26.02 45.36l12.63 21.9 38.33-22.05-25.43-43.97-11 19-14.54 25.13zm-26.03 45.34l25.43 44 25.55-44.18-12.62-21.92-38.36 22.1zm0 89.97l38.36 22.1 1-1.83 11.62-20.1-11.3-19.5-14.25-24.65-25.43 43.97zm26.02 45.35l12.63 21.9 38.3-22.1-25.42-44-11 19.05-14.5 25.15zm25.82 44.68l51.06-.04-25.44-44-38.32 22.12 12.7 21.92zm64.94-23l12.5-21.64-12.67-22-38.3 22.2 25.45 43.98 13-22.53zM-80 143.7l25.52 44.16 25.45-44-38.3-22.1L-80 143.7zm51.83 89.65l38.34-22.13-12.73-21.86H-53.6l25.43 44zm26.47-44.5l12.67 21.9 38.3-22.1-25.43-43.97-11 19.04-14.54 25.14zm25.82 44.7l51.1-.04-25.45-43.98-38.3 22.1 12.65 21.92zm64.96-23l12.52-21.7-12.67-21.98-38.3 22.22 25.44 43.98 13-22.53zm-12.46-66.83l25.54 44.14 25.44-44-38.3-22.05-12.68 21.92zm51.82 89.67l38.28-22.08-12.66-21.92H103l25.44 44zm26.5-44.54l12.67 21.9 38.32-22.1-25.44-43.98-11 19.04-14.54 25.14zm25.82 44.68l51.08-.03-25.44-43.98-38.3 22.1 12.66 21.92zm64.96-23l12.52-21.68-12.67-22-38.3 22.23 25.43 43.98 13.02-22.53zm38.52-66.66l-38.3-22.12-12.7 21.92 25.56 44.18 25.44-44zm-26.02-45.35l-12.85-22.3-12.7-21.86-25.44 44 38.32 22.08 12.67-21.92zm26.02-45.34L258.8 9.16 246.88 29.8l-13.63 23.57 12.67 21.9 38.32-22.08zm0-89.98l-38.3-22.13-12.7 21.9L258.8 7.2l25.44-43.98zm-26.02-45.34l-12.85-22.3-12.7-21.87-25.44 44 38.32 22.1 12.67-21.92zm26.02-45.35l-25.44-44-11.92 20.6-13.63 23.58 12.67 21.92 38.32-22.1zm0-89.97l-38.3-22.15-12.7 21.92 25.56 44.22 25.44-43.98zm-26.02-45.34l-12.85-22.3L232.7-307l-25.45 44 38.32 22.08 12.65-21.86zm392.6-44.7l-12.7 21.88 38.3 22.1 25.43-44H650.8zm-235 225.8L403.1-59.8l38.32 22.08 25.44-44H415.8zm0-1l51.13-.04-25.44-44-38.3 22.1v.1l12.6 21.83zm104.8.3l38.3 22.12 12.68-21.9-12.86-22.27-12.68-21.94-25.44 44zm37.82 22.93L520.16-81.5l-25.43 43.98h51.05l12.66-21.93zm-38.67-23.42l25.46-44h-51.1l-12.67 21.9 38.31 22.1zm-.5.84l-38.3-22.03-12.67 21.83 2.25 3.88 23.3 40.3 25.43-43.98zM482-56.58l-14.26-24.6-25.44 44 38.3 22.1 1.06-1.87 11.62-20.1-11.3-19.53zm-40.18 20.2l-25.4 44.04h51.04l12.7-21.9-38.34-22.13zm25.64 45l-51.03.04 25.43 44 38.3-22.1-12.7-21.95zm.84-.5l12.67 21.95 38.3-22.1L493.85-36l-11 18.98L468.3 8.12zm51.47.67l-38.3 22.1L494.1 52.8h51.1l-25.45-44zM494.7-36.57l25.4 44 38.3-22.08-12.66-21.91H494.7zm51.92-.48L572.16 7.1l25.44-43.98-38.3-22.1-12.68 21.91zm26.4 44.67l51.08.03 12.66-21.92-38.32-22.1-25.43 44zm63.74 22.9l-12.7-21.9H573l25.44 44 38.32-22.1zm-37.83-67.76l38.32 22.15 1.06-1.84 11.62-20.1-11.3-19.54-14.24-24.65-25.45 43.98zm-.84-.48l25.38-44.02h-51.04L559.78-59.8l38.3 22.1zm-25.66-45l51.13-.02-25.44-44-38.3 22.1v.1l12.6 21.83zm.57-89.35l25.44 44 38.28-22.08-12.66-21.92H573zm24.6 44.5l-25.45-43.98-11.9 20.62-13.63 23.53 12.67 21.9 38.3-22.08zm-38.52-23.3l12.53-21.64-12.66-21.9-38.32 22.1 25.45 43.98 13-22.52zm-13.86 23l-25.45-44-38.3 22.1 12.65 21.9h51.1zm-51.94.5l-12.67-21.9-38.3 22.1 25.44 43.98 25.54-44.2zm-51.47-.7l38.37-22.05-12.75-21.94h-51.05l25.44 44zm-.83.5l-25.45-44.02-11.9 20.62-13.64 23.57 12.67 21.9 38.32-22.08zm-38.53-23.3l12.53-21.64-12.67-21.9-38.3 22.1 25.43 43.98 13-22.52zm-.34 46.42l-12.68-21.9-25.44 43.98 38.3 22.1 12.68-21.92-12.86-22.26zm-.3 45L363.5-81.5l-25.45 43.98h51.1l12.66-21.92zm.85.48l-12.67 21.9 25.54 44.18 25.45-43.98-38.32-22.1zm12.3 67.08L402.3-13.74 364 8.36l25.43 43.98 13-22.53 12.53-21.67zm-11.34 21.6L390 53.27l12.67 21.9 38.32-22.08-25.45-44-11.9 20.63zm37.86 24.23l-38.23 22.06v.1l12.62 21.83h51.05l-25.44-44zm.84-.5l25.44 44.03 25.54-44.2-12.67-21.92-38.3 22.1zm51.82.32l-12.65 21.9 38.3 22.1 25.46-44h-51.1zm26.5-45.47l25.45 44.04 13-22.53L571.6 8.14l-12.67-21.9-38.3 22.08zm39.62 21.45L546.6 53.3l12.68 21.9 38.3-22.1-25.43-43.98-11.9 20.63zm37.83 24.23l-38.2 22.06v.1l12.6 21.83h51.04l-25.43-44zm.85-.5l25.45 44.03 25.54-44.18-12.66-21.92-38.32 22.1zm39.18-22.57l12.7 21.9h51.04l-25.44-44-38.3 22.1zm-.5-.84L675.93 8l-25.44-44-11 19-14.54 25.14 12.67 21.92zM627.2-78.3l23.3 40.32 25.44-43.98-38.3-22.1-12.68 21.9 2.24 3.87zm-2.8-4.85l25.54-44.17-12.67-21.9-38.32 22.08 25.45 44zm13.72-66.6l12.7 21.9h51.04l-25.44-44-38.3 22.1zm-.5-.84l38.32-22.06-25.44-44-11 19-14.54 25.15 12.67 21.9zm-13.5-22.44l12.7-21.9-38.32-22.1-25.43 44h51.05zm-51.94-.48l25.44-43.97-38.3-22.1-12.68 21.92 25.54 44.16zm-26.38-44.63l12.7-21.9-38.32-22.1-25.43 44h51.05zm0 1l-51.1.03 25.44 43.98 38.32-22.1-12.66-21.9zm-26.5 44.5l-25.44-43.97-11 19-14.54 25.14 12.67 21.92 38.3-22.1zm-51.82-.4l12.7-21.86-38.3-22.13-25.44 44h51.04zm-51.94-.47l25.45-43.97-38.32-22.1-12.67 21.92 25.54 44.16zm-26.38-44.63l12.66-21.9-38.3-22.1-25.45 44h51.1zm0 1l-51.1-.03 25.46 44 38.3-22.06-12.66-21.9zm-.56 89.35l-25.44-44.04-38.31 22.1 12.7 21.94h51.05zm-51.04 1l-12.72 21.9 38.32 22.1 25.44-44h-51.04zm25.15 44.85l-38.37-22.1-12.66 21.88 2.25 3.88 23.34 40.33 25.43-43.98zm26.48 45.48l-51.13-.05 25.5 44.05 38.3-22.1-12.67-21.9zm-.56 89.35L363.14 8.8l-38.31 22.1 12.75 21.98h51.04zm-51.04 1l-12.7 21.9 38.3 22.1 25.44-44h-51.04zm25.15 44.86l-38.4-22.18-12.66 21.92 2.25 3.9 23.38 40.34 25.43-43.98zm-24.68 44.42l51.08.02 12.67-21.92-38.3-22.1-25.45 44zm63.74 22.9l-12.7-21.93h-51.05l25.44 44 38.3-22.08zM363.97 98.3l38.3 22.1 12.68-21.92-12.86-22.25-12.68-21.9-25.44 43.98zm51.83.67l-12.7 21.9 38.32 22.1 25.44-44H415.8zm26.04 45.34l-25.42 44.02h51.04l12.7-21.9-38.32-22.1zm.48-.84l38.3 22.12 1.06-1.82 11.62-20.1-11.3-19.53-14.24-24.65-25.44 43.98zm28.25-41.1l23.3 40.3 25.43-44-38.3-22.1-12.68 21.92 2.25 3.9zm24.14 40.8l51.1.02 12.66-21.92-38.32-22.1-25.43 44zm63.76 22.9l-12.7-21.9H494.7l25.44 43.98 38.32-22.1zM520.63 98.3l38.32 22.13 12.67-21.92-12.86-22.24-12.68-21.94-25.45 44zm51.83.67l-12.68 21.9 38.3 22.1 25.42-44h-51.04zm26.02 45.34l-25.43 44.02h51.05l12.7-21.9-38.32-22.1zm.5-.84l38.28 22.1 1.05-1.82 11.66-20.08-11.3-19.53-14.24-24.65-25.45 43.98zm28.24-41.1l23.3 40.3 25.44-44-38.3-22.1-12.68 21.92 2.24 3.9zm24.1 40.8h51.04l12.72-21.9-38.32-22.1-25.44 44zm63.75 22.9l-12.7-21.9H651.3l25.44 43.98 38.32-22.1zM676.4 97.8l25.4-44.02h-51.04L638.1 75.72l38.3 22.1zm.85-89.5l25.45 44.02 13.02-22.53 12.52-21.65-12.67-21.9-38.32 22.08zm-.5-.84l38.28-22.07-12.67-21.9h-51.04l25.44 43.98zM651.33-37.5h51.04l12.72-21.9-38.32-22.1-25.44 44zm25.08-45.35l25.4-44h-51.04l-12.66 21.9 38.3 22.1zm.85-89.5l25.45 44.03 13.02-22.52 12.52-21.68-12.67-21.9-38.32 22.08zm-.5-.83l38.28-22.1-12.67-21.9h-51.04l25.44 44zm-25.43-44.97h51.04l12.72-21.9-38.32-22.1-25.44 44zm-13.7-66.6l-12.68 21.92 2.24 3.88 23.3 40.28 25.44-43.98-38.3-22.1zm-13.24 22.9l-25.45 44 38.33 22.1 1.05-1.83 11.62-20.1-11.3-19.53-14.24-24.66zm-26.3 43.52l25.4-44.02h-51.04l-12.66 21.92 38.3 22.1zm0-88.98l-38.2 22.06v.1l12.6 21.82h51.05l-25.44-44zm-39.34 22.2L546.06-307l-25.44 44 38.3 22.08 12.68-21.9-12.86-22.27zm-64.62-22.4l-12.65 21.88 38.3 22.1 25.46-44h-51.1zm-13.15 22.74l-12.67 21.93 2.25 3.88 23.3 40.28 25.43-43.98-38.3-22.1zm-13.23 22.9l-25.44 44 38.3 22.1 1.06-1.82 11.62-20.1-11.3-19.53-14.24-24.66zm-26.28 43.53l25.4-44.02H415.8l-12.7 21.92 38.36 22.1zm0-88.98l-38.27 22.06v.1l12.65 21.82h51.05l-25.44-44zm-39.36 22.2L389.42-307l-25.44 44 38.3 22.08 12.68-21.9-12.86-22.27zm-64.6-22.4l-12.68 21.9 38.28 22.08 25.44-44H337.5zm-13.17 22.74l-12.66 21.93 2.25 3.88 23.3 40.28 25.43-43.98-38.32-22.1zm-38.66 66.9l38.36 22.1 1-1.82 11.62-20.1-11.3-19.53-14.25-24.64-25.43 43.98zm26.02 45.35l12.63 21.9 38.33-22.06-25.43-44-11 19-14.54 25.15zm-26.03 45.34l25.43 44 25.54-44.18-12.6-21.9-38.37 22.08zm0 89.97l38.36 22.12 1-1.84 11.62-20.1-11.3-19.5-14.25-24.65-25.43 43.98zM311.7 8.17l12.63 21.9 38.33-22.05-25.43-43.97-11 19-14.54 25.13zM285.66 53.5l25.43 44 25.54-44.18-12.6-21.92-38.37 22.1zm0 89.97l38.36 22.1 1-1.83 11.62-20.1-11.3-19.5L311.1 99.5l-25.43 43.97zm26.02 45.35l12.63 21.9 38.3-22.1-25.42-44-11 19.05-14.5 25.15zm25.82 44.68l51.06-.04-25.44-44-38.31 22.12 12.7 21.92zm64.94-23l12.5-21.64-12.67-22-38.3 22.2 25.45 43.98 13-22.53zM390 143.7l25.52 44.16 25.45-44-38.3-22.1L390 143.7zm51.83 89.65l38.34-22.13-12.73-21.86H416.4l25.43 44zm26.47-44.5l12.67 21.9 38.3-22.1-25.43-43.97-11 19.04-14.54 25.14zm25.82 44.7l51.1-.04-25.45-43.98-38.3 22.1 12.65 21.92zm64.96-23l12.52-21.7-12.67-21.98-38.3 22.22 25.44 43.98 13-22.53zm-12.46-66.83l25.54 44.14 25.44-44-38.3-22.05-12.68 21.92zm51.82 89.67l38.28-22.08-12.66-21.92H573l25.44 44zm26.5-44.54l12.67 21.9 38.32-22.1-25.44-43.98-11 19.04-14.54 25.14zm25.82 44.68l51.08-.03-25.44-43.98-38.3 22.1 12.66 21.92zm64.96-23l12.52-21.68-12.67-22-38.3 22.23 25.43 43.98 13.02-22.53zm38.52-66.66l-38.3-22.12-12.7 21.92 25.56 44.18 25.44-44zm-26.02-45.35l-12.85-22.3-12.7-21.86-25.44 44 38.32 22.08 12.67-21.92zm26.02-45.34L728.8 9.16 716.88 29.8l-13.63 23.57 12.67 21.9 38.32-22.08zm0-89.98l-38.3-22.13-12.7 21.9L728.8 7.2l25.44-43.98zm-26.02-45.34l-12.85-22.3-12.7-21.87-25.44 44 38.32 22.1 12.67-21.92zm26.02-45.35l-25.44-44-11.92 20.6-13.63 23.58 12.67 21.92 38.32-22.1zm0-89.97l-38.3-22.15-12.7 21.92 25.56 44.22 25.44-43.98zm-26.02-45.34l-12.85-22.3L702.7-307l-25.45 44 38.32 22.08 12.65-21.86zm392.6-44.7l-12.7 21.88 38.3 22.1 25.43-44h-51.04zm-235 225.8L873.1-59.8l38.32 22.08 25.44-44H885.8zm0-1l51.13-.04-25.44-44-38.3 22.1v.1l12.6 21.83zm104.8.3l38.3 22.12 12.68-21.9-12.86-22.27-12.68-21.94-25.44 44zm37.82 22.93L990.16-81.5l-25.43 43.98h51.05l12.66-21.93zm-38.67-23.42l25.46-44h-51.1l-12.67 21.9 38.3 22.1zm-.5.84l-38.3-22.03-12.67 21.83 2.25 3.88 23.3 40.3 25.43-43.98zM952-56.58l-14.26-24.6-25.44 44 38.3 22.1 1.06-1.87 11.62-20.1-11.3-19.53zm-40.18 20.2l-25.4 44.04h51.04l12.7-21.9-38.34-22.13zm25.64 45l-51.04.04 25.44 44 38.3-22.1-12.7-21.95zm.84-.5l12.67 21.95 38.3-22.1L963.85-36l-11 18.98L938.3 8.12zm51.48.67l-38.32 22.1 12.66 21.88h51.1l-25.45-44zm-25.1-45.36l25.4 44 38.32-22.08-12.66-21.91H964.7zm51.94-.48l25.54 44.16 25.44-43.98-38.3-22.1-12.68 21.91zm26.4 44.67l51.08.03 12.66-21.92-38.32-22.1-25.43 44zm63.74 22.9l-12.7-21.9H1043l25.44 44 38.32-22.1zm-37.83-67.76l38.32 22.15 1.06-1.84 11.62-20.1-11.3-19.54-14.24-24.65-25.45 43.98zm-.84-.48l25.38-44.02h-51.04l-12.66 21.92 38.3 22.1zm-25.66-45l51.13-.02-25.44-44-38.3 22.1v.1l12.6 21.83zm.57-89.35l25.44 44 38.28-22.08-12.66-21.92H1043zm24.6 44.5l-25.45-43.98-11.9 20.62-13.63 23.53 12.67 21.9 38.3-22.08zm-38.52-23.3l12.53-21.64-12.66-21.9-38.32 22.1 25.45 43.98 13-22.52zm-13.86 23l-25.45-44-38.3 22.1 12.65 21.9h51.1zm-51.94.5l-12.67-21.9-38.3 22.1 25.44 43.98 25.54-44.2zm-51.47-.7l38.37-22.05-12.75-21.94h-51.04l25.43 44zm-.83.5l-25.45-44.02-11.9 20.62-13.64 23.57 12.67 21.9 38.32-22.08zm-38.53-23.3l12.53-21.64-12.67-21.9-38.3 22.1 25.43 43.98 13-22.52zm-.34 46.42l-12.68-21.9-25.44 43.98 38.3 22.1 12.68-21.92-12.86-22.26zm-.3 45L833.5-81.5l-25.45 43.98h51.1l12.66-21.92zm.85.48l-12.67 21.9 25.54 44.18 25.45-43.98-38.32-22.1zm12.3 67.08L872.3-13.74 834 8.36l25.43 43.98 13-22.53 12.53-21.67zm-11.34 21.6L860 53.27l12.67 21.9 38.32-22.08-25.45-44-11.9 20.63zm37.86 24.23l-38.23 22.06v.1l12.62 21.83h51.05l-25.44-44zm.84-.5l25.44 44.03 25.54-44.2-12.67-21.92-38.3 22.1zm51.82.32l-12.65 21.9 38.3 22.1 25.46-44h-51.1zm26.5-45.47l25.45 44.04 13-22.53 12.53-21.67-12.67-21.9L990.6 8.3zm39.62 21.45L1016.6 53.3l12.68 21.9 38.3-22.1-25.43-43.98-11.9 20.63zm37.83 24.23l-38.2 22.06v.1l12.6 21.83h51.05l-25.45-44zm.85-.5l25.45 44.03 25.54-44.18-12.66-21.92-38.32 22.1zm39.18-22.57l12.7 21.9h51.04l-25.44-44-38.3 22.1zm-.5-.84L1145.93 8l-25.44-44-11 19-14.54 25.14 12.67 21.92zM1097.2-78.3l23.3 40.32 25.44-43.98-38.3-22.1-12.68 21.9 2.24 3.87zm-2.8-4.85l25.54-44.17-12.67-21.9-38.32 22.08 25.45 44zm13.72-66.6l12.7 21.9h51.04l-25.44-44-38.3 22.1zm-.5-.84l38.32-22.06-25.44-44-11 19-14.54 25.15 12.67 21.9zm-13.5-22.44l12.7-21.9-38.32-22.1-25.43 44h51.05zm-51.94-.48l25.44-43.97-38.3-22.1-12.68 21.92 25.54 44.16zm-26.38-44.63l12.7-21.9-38.32-22.1-25.43 44h51.05zm0 1l-51.1.03 25.45 43.98 38.3-22.1-12.65-21.9zm-26.5 44.5l-25.44-43.97-11 19-14.54 25.14 12.67 21.92 38.3-22.1zm-51.82-.4l12.7-21.86-38.3-22.13-25.45 44h51.06zm-51.94-.47l25.45-43.97-38.32-22.1-12.67 21.92 25.54 44.16zm-26.38-44.63l12.66-21.9-38.3-22.1-25.45 44h51.1zm0 1l-51.1-.03 25.46 44 38.3-22.06-12.66-21.9zm-.56 89.35l-25.44-44.04-38.3 22.1 12.7 21.94h51.04zm-51.04 1l-12.7 21.9 38.3 22.1 25.44-44h-51.04zm25.15 44.85l-38.37-22.1-12.66 21.88 2.25 3.88 23.34 40.33 25.43-43.98zm26.48 45.48l-51.13-.05 25.5 44.05 38.3-22.1-12.67-21.9zm-.56 89.35L833.14 8.8l-38.3 22.1 12.74 21.98h51.04zm-51.04 1l-12.72 21.9 38.32 22.1 25.44-44h-51.04zm25.15 44.86l-38.4-22.18-12.66 21.92 2.25 3.9 23.38 40.34 25.43-43.98zm-24.68 44.42l51.08.02 12.67-21.92-38.3-22.1-25.45 44zm63.74 22.9l-12.7-21.93h-51.05l25.44 44 38.3-22.08zM833.97 98.3l38.3 22.1 12.68-21.92-12.86-22.25-12.68-21.9-25.44 43.98zm51.83.67l-12.7 21.9 38.32 22.1 25.44-44H885.8zm26.04 45.34l-25.43 44.02h51.06l12.7-21.9-38.32-22.1zm.48-.84l38.3 22.12 1.06-1.82 11.62-20.1-11.3-19.53-14.24-24.65-25.44 43.98zm28.25-41.1l23.3 40.3 25.43-44-38.3-22.1-12.68 21.92 2.25 3.9zm24.14 40.8l51.1.02 12.66-21.92-38.32-22.1-25.43 44zm63.76 22.9l-12.7-21.9H964.7l25.44 43.98 38.32-22.1zM990.63 98.3l38.32 22.13 12.67-21.92-12.86-22.24-12.68-21.94-25.45 44zm51.83.67l-12.68 21.9 38.3 22.1 25.43-44h-51.04zm26.02 45.34l-25.43 44.02h51.05l12.7-21.9-38.32-22.1zm.5-.84l38.28 22.1 1.05-1.82 11.66-20.08-11.3-19.53-14.24-24.65-25.45 43.98zm28.24-41.1l23.3 40.3 25.44-44-38.3-22.1-12.68 21.92 2.24 3.9zm24.1 40.8h51.04l12.7-21.9-38.3-22.1-25.44 44zm63.75 22.9l-12.7-21.9h-51.05l25.44 43.98 38.3-22.1zM1146.4 97.8l25.4-44.02h-51.04l-12.66 21.92 38.3 22.1zm.85-89.5l25.45 44.02 13.02-22.53 12.52-21.65-12.67-21.9-38.32 22.08zm-.5-.84l38.3-22.07-12.7-21.9h-51.03l25.44 43.98zm-25.43-44.98h51.04l12.7-21.9-38.3-22.1-25.44 44zm25.08-45.35l25.4-44h-51.04l-12.66 21.9 38.3 22.1zm.85-89.5l25.45 44.03 13.02-22.52 12.52-21.68-12.67-21.9-38.32 22.08zm-.5-.83l38.3-22.1-12.7-21.9h-51.03l25.44 44zm-25.43-44.97h51.04l12.7-21.9-38.3-22.1-25.44 44zm-13.7-66.6l-12.68 21.92 2.24 3.88 23.3 40.28 25.44-43.98-38.3-22.1zm-13.24 22.9l-25.45 44 38.33 22.1 1.05-1.83 11.62-20.1-11.3-19.53-14.24-24.66zm-26.3 43.52l25.4-44.02h-51.04l-12.66 21.92 38.3 22.1zm0-88.98l-38.2 22.06v.1l12.6 21.82h51.06l-25.45-44zm-39.34 22.2l-12.68-21.9-25.44 44 38.3 22.08 12.68-21.9-12.86-22.27zm-64.62-22.4l-12.65 21.88 38.3 22.1 25.46-44h-51.1zm-13.15 22.74l-12.67 21.93 2.25 3.88 23.3 40.28 25.43-43.98-38.3-22.1zm-13.23 22.9l-25.44 44 38.3 22.1 1.06-1.82 11.62-20.1-11.3-19.53-14.24-24.66zm-26.28 43.53l25.4-44.02H885.8l-12.7 21.92 38.36 22.1zm0-88.98l-38.27 22.06v.1l12.65 21.82h51.05l-25.44-44zm-39.36 22.2L859.42-307l-25.44 44 38.3 22.08 12.68-21.9-12.86-22.27zm-64.6-22.4l-12.67 21.9 38.27 22.08 25.44-44H807.5zm-13.17 22.74l-12.66 21.93 2.25 3.88 23.3 40.28 25.43-43.98-38.32-22.1zm-38.66 66.9l38.36 22.1 1-1.82 11.62-20.1-11.3-19.53-14.25-24.64-25.43 43.98zm26.02 45.35l12.63 21.9 38.33-22.06-25.43-44-11 19-14.54 25.15zm-26.03 45.34l25.43 44 25.54-44.18-12.6-21.9-38.37 22.08zm0 89.97l38.36 22.12 1-1.84 11.62-20.1-11.3-19.5-14.25-24.65-25.43 43.98zM781.7 8.17l12.63 21.9 38.33-22.05-25.43-43.97-11 19-14.54 25.13zM755.66 53.5l25.43 44 25.54-44.18-12.6-21.92-38.37 22.1zm0 89.97l38.36 22.1 1-1.83 11.62-20.1-11.3-19.5L781.1 99.5l-25.43 43.97zm26.02 45.35l12.63 21.9 38.3-22.1-25.42-44-11 19.05-14.5 25.15zm25.82 44.68l51.06-.04-25.44-44-38.3 22.12 12.68 21.92zm64.94-23l12.5-21.64-12.67-22-38.3 22.2 25.45 43.98 13-22.53zM860 143.7l25.52 44.16 25.45-44-38.3-22.1L860 143.7zm51.83 89.65l38.34-22.13-12.73-21.86H886.4l25.43 44zm26.47-44.5l12.67 21.9 38.3-22.1-25.43-43.97-11 19.04-14.54 25.14zm25.82 44.7l51.1-.04-25.45-43.98-38.3 22.1 12.65 21.92zm64.96-23l12.52-21.7-12.67-21.98-38.3 22.22 25.44 43.98 13-22.53zm-12.46-66.83l25.54 44.14 25.44-44-38.3-22.05-12.68 21.92zm51.82 89.67l38.28-22.08-12.66-21.92H1043l25.44 44zm26.5-44.54l12.67 21.9 38.32-22.1-25.44-43.98-11 19.04-14.54 25.14zm25.82 44.68l51.08-.03-25.44-43.98-38.3 22.1 12.66 21.92zm64.96-23l12.52-21.68-12.67-22-38.3 22.23 25.43 43.98 13.02-22.53zm38.52-66.66l-38.3-22.12-12.68 21.92 25.54 44.18 25.44-44zm-26.02-45.35l-12.84-22.3-12.7-21.86-25.45 44 38.32 22.08 12.67-21.92zm26.02-45.34L1198.8 9.16l-11.92 20.63-13.62 23.57 12.66 21.9 38.32-22.08zm0-89.98l-38.3-22.13-12.68 21.9 25.54 44.2 25.44-43.98zm-26.02-45.34l-12.84-22.3-12.7-21.87-25.45 44 38.32 22.1 12.67-21.92zm26.02-45.35l-25.44-44-11.92 20.6-13.62 23.58 12.66 21.92 38.32-22.1zm0-89.97l-38.3-22.15-12.68 21.92 25.54 44.22 25.44-43.98zm-26.02-45.34l-12.84-22.3-12.7-21.92-25.43 44 38.32 22.08 12.65-21.86zm392.6-44.7l-12.7 21.88 38.3 22.1 25.43-44h-51.04zm-235 225.8l-12.72 21.9 38.32 22.08 25.44-44h-51.05zm0-1l51.13-.04-25.44-44-38.3 22.1v.1l12.6 21.83zm104.8.3l38.3 22.12 12.68-21.9-12.86-22.27-12.68-21.94-25.44 44zm37.82 22.93l-38.27-22.06-25.44 43.98h51.05l12.66-21.93zm-38.67-23.42l25.46-44h-51.1l-12.67 21.9 38.3 22.1zm-.5.84l-38.3-22.03-12.67 21.83 2.25 3.88 23.3 40.3 25.43-43.98zM1422-56.58l-14.26-24.6-25.44 44 38.3 22.1 1.06-1.87 11.62-20.1-11.3-19.53zm-40.18 20.2l-25.4 44.04h51.04l12.7-21.9-38.34-22.13zm25.64 45l-51.04.04 25.44 44 38.3-22.1-12.7-21.95zm.84-.5l12.67 21.95 38.3-22.1L1433.85-36l-11 18.98-14.54 25.14zm51.47.67l-38.3 22.1 12.65 21.88h51.1l-25.45-44zm-25.08-45.36l25.4 44 38.3-22.08-12.66-21.91h-51.05zm51.92-.48l25.54 44.16 25.44-43.98-38.3-22.1-12.68 21.91zm26.4 44.67l51.08.03 12.66-21.92-38.32-22.1-25.43 44zm63.74 22.9l-12.7-21.9H1513l25.44 44 38.32-22.1zm-37.83-67.76l38.32 22.15 1.06-1.84 11.62-20.1-11.3-19.54-14.24-24.65-25.45 43.98zm-.84-.48l25.38-44.02h-51.04l-12.66 21.92 38.3 22.1zm-25.66-45l51.13-.02-25.44-44-38.3 22.1v.1l12.6 21.83zm.57-89.35l25.44 44 38.28-22.08-12.66-21.92H1513zm24.6 44.5l-25.45-43.98-11.9 20.62-13.63 23.53 12.67 21.9 38.3-22.08zm-38.52-23.3l12.53-21.64-12.66-21.9-38.3 22.1 25.43 43.98 13-22.52zm-13.86 23l-25.45-44-38.3 22.1 12.65 21.9h51.1zm-51.94.5l-12.67-21.9-38.3 22.1 25.44 43.98 25.54-44.2zm-51.47-.7l38.37-22.05-12.75-21.94h-51.05l25.44 44zm-.83.5l-25.45-44.02-11.9 20.62-13.64 23.57 12.67 21.9 38.32-22.08zm-38.53-23.3l12.53-21.64-12.67-21.9-38.3 22.1 25.43 43.98 13-22.52zm-.34 46.42l-12.68-21.9-25.44 43.98 38.3 22.1 12.68-21.92-12.86-22.26zm-.3 45l-38.3-22.07-25.45 43.98h51.1l12.66-21.92zm.85.48l-12.67 21.9 25.54 44.18 25.45-43.98-38.32-22.1zm12.3 67.08l-12.65-21.87-38.3 22.1 25.43 43.98 13-22.53 12.53-21.67zm-11.34 21.6L1330 53.27l12.67 21.9 38.32-22.08-25.45-44-11.9 20.63zm37.86 24.23l-38.23 22.06v.1l12.62 21.83h51.05l-25.44-44zm.84-.5l25.44 44.03 25.54-44.2-12.67-21.92-38.3 22.1zm51.82.32l-12.65 21.9 38.3 22.1 25.46-44h-51.1zm26.5-45.47l25.45 44.04 13-22.53 12.53-21.67-12.67-21.9-38.3 22.08zm39.62 21.45L1486.6 53.3l12.68 21.9 38.3-22.1-25.43-43.98-11.9 20.63zm37.83 24.23l-38.2 22.06v.1l12.6 21.83h51.05l-25.45-44zm.85-.5l25.45 44.03 25.54-44.18-12.66-21.92-38.32 22.1zm39.18-22.57l12.7 21.9h51.04l-25.44-44-38.3 22.1zm-.5-.84L1615.93 8l-25.44-44-11 19-14.54 25.14 12.67 21.92zM1567.2-78.3l23.3 40.32 25.44-43.98-38.3-22.1-12.68 21.9 2.24 3.87zm-2.8-4.85l25.54-44.17-12.67-21.9-38.32 22.08 25.45 44zm13.72-66.6l12.7 21.9h51.04l-25.44-44-38.3 22.1zm-.5-.84l38.32-22.06-25.44-44-11 19-14.54 25.15 12.67 21.9zm-13.5-22.44l12.7-21.9-38.32-22.1-25.43 44h51.05zm-51.94-.48l25.44-43.97-38.3-22.1-12.68 21.92 25.54 44.16zm-26.38-44.63l12.7-21.9-38.3-22.1-25.45 44h51.05zm0 1l-51.1.03 25.45 43.98 38.3-22.1-12.65-21.9zm-26.5 44.5l-25.44-43.97-11 19-14.54 25.14 12.67 21.92 38.3-22.1zm-51.82-.4l12.7-21.86-38.3-22.13-25.45 44h51.06zm-51.94-.47l25.45-43.97-38.32-22.1-12.67 21.92 25.54 44.16zm-26.38-44.63l12.66-21.9-38.3-22.1-25.45 44h51.1zm0 1l-51.1-.03 25.46 44 38.3-22.06-12.66-21.9zm-.56 89.35l-25.44-44.04-38.32 22.1 12.72 21.94h51.04zm-51.04 1l-12.72 21.9 38.32 22.1 25.44-44h-51.04zm25.15 44.85l-38.37-22.1-12.66 21.88 2.25 3.88 23.34 40.33 25.43-43.98zm26.48 45.48l-51.13-.05 25.5 44.05 38.3-22.1-12.67-21.9zm-.56 89.35L1303.14 8.8l-38.32 22.1 12.76 21.98h51.04zm-51.04 1l-12.72 21.9 38.32 22.1 25.44-44h-51.04zm25.15 44.86l-38.4-22.18-12.66 21.92 2.25 3.9 23.38 40.34 25.43-43.98zm-24.68 44.42l51.08.02 12.67-21.92-38.3-22.1-25.45 44zm63.74 22.9l-12.7-21.93h-51.05l25.44 44 38.3-22.08zm-37.82-67.75l38.3 22.1 12.68-21.92-12.86-22.25-12.68-21.9-25.44 43.98zm51.83.67l-12.7 21.9 38.32 22.1 25.44-44h-51.05zm26.04 45.34l-25.43 44.02h51.06l12.7-21.9-38.32-22.1zm.48-.84l38.3 22.12 1.06-1.82 11.62-20.1-11.3-19.53-14.24-24.65-25.44 43.98zm28.25-41.1l23.3 40.3 25.43-44-38.3-22.1-12.68 21.92 2.25 3.9zm24.14 40.8l51.1.02 12.66-21.92-38.3-22.1-25.45 44zm63.76 22.9l-12.7-21.9h-51.05l25.45 43.98 38.3-22.1zm-37.82-67.75l38.3 22.13 12.68-21.92-12.86-22.24-12.68-21.94-25.44 44zm51.82.67l-12.68 21.9 38.3 22.1 25.43-44h-51.04zm26.02 45.34l-25.43 44.02h51.05l12.7-21.9-38.32-22.1zm.5-.84l38.28 22.1 1.05-1.82 11.66-20.08-11.3-19.53-14.24-24.65-25.45 43.98zm28.24-41.1l23.3 40.3 25.44-44-38.3-22.1-12.68 21.92 2.24 3.9zm24.1 40.8h51.04l12.7-21.9-38.3-22.1-25.44 44zm63.75 22.9l-12.7-21.9h-51.05l25.44 43.98 38.3-22.1zM1616.4 97.8l25.4-44.02h-51.04l-12.66 21.92 38.3 22.1zm.85-89.5l25.45 44.02 13.02-22.53 12.52-21.65-12.67-21.9-38.32 22.08zm-.5-.84l38.3-22.07-12.7-21.9h-51.03l25.44 43.98zm-25.43-44.98h51.04l12.7-21.9-38.3-22.1-25.44 44zm25.08-45.35l25.4-44h-51.04l-12.66 21.9 38.3 22.1zm.85-89.5l25.45 44.03 13.02-22.52 12.52-21.68-12.67-21.9-38.32 22.08zm-.5-.83l38.3-22.1-12.7-21.9h-51.03l25.44 44zm-25.43-44.97h51.04l12.7-21.9-38.3-22.1-25.44 44zm-13.7-66.6l-12.68 21.92 2.24 3.88 23.3 40.28 25.44-43.98-38.3-22.1zm-13.24 22.9l-25.45 44 38.33 22.1 1.05-1.83 11.62-20.1-11.3-19.53-14.24-24.66zm-26.3 43.52l25.4-44.02h-51.04l-12.66 21.92 38.3 22.1zm0-88.98l-38.2 22.06v.1l12.6 21.82h51.06l-25.45-44zm-39.34 22.2l-12.68-21.9-25.44 44 38.3 22.08 12.68-21.9-12.86-22.27zm-64.62-22.4l-12.65 21.88 38.3 22.1 25.46-44h-51.1zm-13.15 22.74l-12.67 21.93 2.25 3.88 23.3 40.28 25.43-43.98-38.3-22.1zm-13.23 22.9l-25.44 44 38.3 22.1 1.06-1.82 11.62-20.1-11.3-19.53-14.24-24.66zm-26.28 43.53l25.4-44.02h-51.05l-12.7 21.92 38.36 22.1zm0-88.98l-38.27 22.06v.1l12.65 21.82h51.05l-25.44-44zm-39.36 22.2l-12.68-21.9-25.44 44 38.3 22.08 12.68-21.9-12.86-22.27zm-64.6-22.4l-12.68 21.9 38.28 22.08 25.44-44h-51.04zm-13.17 22.74l-12.66 21.93 2.25 3.88 23.3 40.28 25.43-43.98-38.32-22.1zm-38.66 66.9l38.36 22.1 1-1.82 11.62-20.1-11.3-19.53-14.25-24.64-25.43 43.98zm26.02 45.35l12.63 21.9 38.33-22.06-25.43-44-11 19-14.54 25.15zm-26.03 45.34l25.43 44 25.55-44.18-12.62-21.9-38.36 22.08zm0 89.97l38.36 22.12 1-1.84 11.62-20.1-11.3-19.5-14.25-24.65-25.43 43.98zm26.02 45.36l12.63 21.9 38.33-22.05-25.43-43.97-11 19-14.54 25.13zm-26.03 45.34l25.43 44 25.55-44.18-12.62-21.92-38.36 22.1zm0 89.97l38.36 22.1 1-1.83 11.62-20.1-11.3-19.5-14.25-24.65-25.43 43.97zm26.02 45.35l12.63 21.9 38.3-22.1-25.42-44-11 19.05-14.5 25.15zm25.82 44.68l51.06-.04-25.44-44-38.32 22.12 12.7 21.92zm64.94-23l12.5-21.64-12.67-22-38.3 22.2 25.45 43.98 13-22.53zM1330 143.7l25.52 44.16 25.45-44-38.3-22.1L1330 143.7zm51.83 89.65l38.34-22.13-12.73-21.86h-51.05l25.43 44zm26.47-44.5l12.67 21.9 38.3-22.1-25.43-43.97-11 19.04-14.54 25.14zm25.82 44.7l51.1-.04-25.45-43.98-38.3 22.1 12.65 21.92zm64.96-23l12.52-21.7-12.67-21.98-38.3 22.22 25.44 43.98 13-22.53zm-12.46-66.83l25.54 44.14 25.44-44-38.3-22.05-12.68 21.92zm51.82 89.67l38.28-22.08-12.66-21.92H1513l25.44 44zm26.5-44.54l12.67 21.9 38.32-22.1-25.44-43.98-11 19.04-14.54 25.14zm25.82 44.68l51.08-.03-25.44-43.98-38.3 22.1 12.66 21.92zm64.96-23l12.52-21.68-12.67-22-38.3 22.23 25.43 43.98 13.02-22.53zm38.52-66.66l-38.3-22.12-12.68 21.92 25.54 44.18 25.44-44zm-26.02-45.35l-12.84-22.3-12.7-21.86-25.45 44 38.32 22.08 12.67-21.92zm26.02-45.34L1668.8 9.16l-11.92 20.63-13.62 23.57 12.66 21.9 38.32-22.08zm0-89.98l-38.3-22.13-12.68 21.9 25.54 44.2 25.44-43.98zm-26.02-45.34l-12.84-22.3-12.7-21.87-25.45 44 38.32 22.1 12.67-21.92zm26.02-45.35l-25.44-44-11.92 20.6-13.62 23.58 12.66 21.92 38.32-22.1zm0-89.97l-38.3-22.15-12.68 21.92 25.54 44.22 25.44-43.98zm-26.02-45.34l-12.84-22.3-12.7-21.92-25.43 44 38.32 22.08 12.65-21.86zm392.6-44.7l-12.7 21.88 38.3 22.1 25.43-44h-51.04zm-235 225.8l-12.72 21.9 38.32 22.08 25.44-44h-51.05zm0-1l51.13-.04-25.44-44-38.3 22.1v.1l12.6 21.83zm104.8.3l38.3 22.12 12.68-21.9-12.86-22.27-12.68-21.94-25.44 44zm37.82 22.93l-38.27-22.06-25.44 43.98h51.05l12.66-21.93zm-38.67-23.42l25.46-44h-51.1l-12.67 21.9 38.3 22.1zm-.5.84l-38.3-22.03-12.67 21.83 2.25 3.88 23.3 40.3 25.43-43.98zM1892-56.58l-14.26-24.6-25.44 44 38.3 22.1 1.06-1.87 11.62-20.1-11.3-19.53zm-40.18 20.2l-25.4 44.04h51.04l12.7-21.9-38.34-22.13zm25.64 45l-51.04.04 25.44 44 38.3-22.1-12.7-21.95zm.84-.5l12.67 21.95 38.3-22.1L1903.85-36l-11 18.98-14.54 25.14zm51.47.67l-38.3 22.1 12.65 21.88h51.1l-25.45-44zm-25.08-45.36l25.4 44 38.3-22.08-12.66-21.91h-51.05zm51.92-.48l25.54 44.16 25.44-43.98-38.3-22.1-12.68 21.91zm26.4 44.67l51.08.03 12.66-21.92-38.32-22.1-25.43 44zm63.74 22.9l-12.7-21.9H1983l25.44 44 38.32-22.1zm-37.83-67.76l38.32 22.15 1.06-1.84 11.62-20.1-11.3-19.54-14.24-24.65-25.45 43.98zm-.84-.48l25.4-44.02h-51.06l-12.66 21.92 38.3 22.1zm-25.66-45l51.13-.02-25.44-44-38.3 22.1v.1l12.6 21.83zm.57-89.35l25.44 44 38.28-22.08-12.66-21.92H1983zm24.6 44.5l-25.45-43.98-11.9 20.62-13.63 23.53 12.67 21.9 38.3-22.08zm-38.52-23.3l12.53-21.64-12.66-21.9-38.3 22.1 25.43 43.98 13-22.52zm-13.86 23l-25.45-44-38.3 22.1 12.65 21.9h51.1zm-51.94.5l-12.67-21.9-38.3 22.1 25.44 43.98 25.54-44.2zm-51.47-.7l38.37-22.05-12.75-21.94h-51.05l25.44 44zm-.83.5l-25.45-44.02-11.9 20.62-13.64 23.57 12.67 21.9 38.32-22.08zm-38.53-23.3l12.53-21.64-12.67-21.9-38.3 22.1 25.43 43.98 13-22.52zm-.34 46.42l-12.68-21.9-25.44 43.98 38.3 22.1 12.68-21.92-12.86-22.26zm-.3 45l-38.3-22.07-25.45 43.98h51.1l12.66-21.92zm.85.48l-12.67 21.9 25.54 44.18 25.45-43.98-38.32-22.1zm12.3 67.08l-12.65-21.87-38.3 22.1 25.43 43.98 13-22.53 12.53-21.67zm-11.34 21.6L1800 53.27l12.67 21.9 38.32-22.08-25.45-44-11.9 20.63zm37.86 24.23l-38.23 22.06v.1l12.62 21.83h51.05l-25.44-44zm.84-.5l25.44 44.03 25.54-44.2-12.67-21.92-38.3 22.1zm51.82.32l-12.65 21.9 38.3 22.1 25.46-44h-51.1zm26.5-45.47l25.45 44.04 13-22.53 12.53-21.67-12.67-21.9-38.3 22.08zm39.62 21.45L1956.6 53.3l12.68 21.9 38.3-22.1-25.43-43.98-11.9 20.63zm37.83 24.23l-38.2 22.06v.1l12.6 21.83h51.04l-25.43-44zm.85-.5l25.45 44.03 25.54-44.18-12.66-21.92-38.32 22.1zm39.18-22.57l12.7 21.9h51.04l-25.44-44-38.3 22.1zm-.5-.84L2085.93 8l-25.44-44-11 19-14.54 25.14 12.67 21.92zM2037.2-78.3l23.3 40.32 25.44-43.98-38.3-22.1-12.68 21.9 2.24 3.87zm-2.8-4.85l25.54-44.17-12.67-21.9-38.32 22.08 25.45 44zm13.72-66.6l12.7 21.9h51.04l-25.44-44-38.3 22.1zm-.5-.84l38.32-22.06-25.44-44-11 19-14.54 25.15 12.67 21.9zm-13.5-22.44l12.7-21.9-38.32-22.1-25.43 44h51.05zm-51.94-.48l25.44-43.97-38.3-22.1-12.68 21.92 25.54 44.16zm-26.38-44.63l12.7-21.9-38.3-22.1-25.45 44h51.05zm0 1l-51.1.03 25.44 43.98 38.32-22.1-12.66-21.9zm-26.5 44.5l-25.44-43.97-11 19-14.54 25.14 12.67 21.92 38.3-22.1zm-51.82-.4l12.7-21.86-38.3-22.13-25.45 44h51.06zm-51.94-.47l25.45-43.97-38.32-22.1-12.67 21.92 25.54 44.16zm-26.38-44.63l12.66-21.9-38.3-22.1-25.45 44h51.1zm0 1l-51.1-.03 25.46 44 38.3-22.06-12.66-21.9zm-.56 89.35l-25.44-44.04-38.32 22.1 12.72 21.94h51.04zm-51.04 1l-12.72 21.9 38.32 22.1 25.44-44h-51.04zm25.15 44.85l-38.37-22.1-12.66 21.88 2.25 3.88 23.34 40.33 25.43-43.98zm26.48 45.48l-51.13-.05 25.5 44.05 38.3-22.1-12.67-21.9zm-.56 89.35L1773.14 8.8l-38.32 22.1 12.76 21.98h51.04zm-51.04 1l-12.72 21.9 38.32 22.1 25.44-44h-51.04zm25.15 44.86l-38.4-22.18-12.66 21.92 2.25 3.9 23.38 40.34 25.43-43.98zm-24.68 44.42l51.08.02 12.67-21.92-38.3-22.1-25.45 44zm63.74 22.9l-12.7-21.93h-51.05l25.44 44 38.3-22.08zm-37.82-67.75l38.3 22.1 12.68-21.92-12.86-22.25-12.68-21.9-25.44 43.98zm51.83.67l-12.7 21.9 38.32 22.1 25.44-44h-51.05zm26.04 45.34l-25.43 44.02h51.06l12.7-21.9-38.32-22.1zm.48-.84l38.3 22.12 1.06-1.82 11.62-20.1-11.3-19.53-14.24-24.65-25.44 43.98zm28.25-41.1l23.3 40.3 25.43-44-38.3-22.1-12.68 21.92 2.25 3.9zm24.14 40.8l51.1.02 12.66-21.92-38.3-22.1-25.45 44zm63.76 22.9l-12.7-21.9h-51.05l25.45 43.98 38.3-22.1zm-37.82-67.75l38.3 22.13 12.68-21.92-12.86-22.24-12.68-21.94-25.44 44zm51.82.67l-12.68 21.9 38.3 22.1 25.42-44h-51.04zm26.02 45.34l-25.43 44.02h51.05l12.7-21.9-38.32-22.1zm.5-.84l38.28 22.1 1.05-1.82 11.66-20.08-11.3-19.53-14.24-24.65-25.45 43.98zm28.24-41.1l23.3 40.3 25.44-44-38.3-22.1-12.68 21.92 2.24 3.9zm24.1 40.8h51.04l12.7-21.9-38.3-22.1-25.44 44zm63.75 22.9l-12.7-21.9h-51.05l25.44 43.98 38.3-22.1zM2086.4 97.8l25.4-44.02h-51.04l-12.66 21.92 38.3 22.1zm.85-89.5l25.45 44.02 13.02-22.53 12.52-21.65-12.67-21.9-38.32 22.08zm-.5-.84l38.28-22.07-12.67-21.9h-51.04l25.44 43.98zm-25.43-44.98h51.04l12.7-21.9-38.3-22.1-25.44 44zm25.08-45.35l25.4-44h-51.04l-12.66 21.9 38.3 22.1zm.85-89.5l25.45 44.03 13.02-22.52 12.52-21.68-12.67-21.9-38.32 22.08zm-.5-.83l38.28-22.1-12.67-21.9h-51.04l25.44 44zm-25.43-44.97h51.04l12.7-21.9-38.3-22.1-25.44 44zm-13.7-66.6l-12.68 21.92 2.24 3.88 23.3 40.28 25.44-43.98-38.3-22.1zm-13.24 22.9l-25.45 44 38.33 22.1 1.05-1.83 11.62-20.1-11.3-19.53-14.24-24.66zm-26.3 43.52l25.4-44.02h-51.04l-12.66 21.92 38.3 22.1zm0-88.98l-38.2 22.06v.1l12.6 21.82h51.05l-25.44-44zm-39.34 22.2l-12.68-21.9-25.44 44 38.3 22.08 12.68-21.9-12.86-22.27zm-64.62-22.4l-12.65 21.88 38.3 22.1 25.46-44h-51.1zm-13.15 22.74l-12.67 21.93 2.25 3.88 23.3 40.28 25.43-43.98-38.3-22.1zm-13.23 22.9l-25.44 44 38.3 22.1 1.06-1.82 11.62-20.1-11.3-19.53-14.24-24.66zm-26.28 43.53l25.4-44.02h-51.05l-12.7 21.92 38.36 22.1zm0-88.98l-38.27 22.06v.1l12.65 21.82h51.05l-25.44-44zm-39.36 22.2l-12.68-21.9-25.44 44 38.3 22.08 12.68-21.9-12.86-22.27zm-64.6-22.4l-12.68 21.9 38.28 22.08 25.44-44h-51.04zm-13.17 22.74l-12.66 21.93 2.25 3.88 23.3 40.28 25.43-43.98-38.32-22.1zm-38.66 66.9l38.36 22.1 1-1.82 11.62-20.1-11.3-19.53-14.25-24.64-25.43 43.98zm26.02 45.35l12.63 21.9 38.33-22.06-25.43-44-11 19-14.54 25.15zm-26.03 45.34l25.43 44 25.55-44.18-12.62-21.9-38.36 22.08zm0 89.97l38.36 22.12 1-1.84 11.62-20.1-11.3-19.5-14.25-24.65-25.43 43.98zm26.02 45.36l12.63 21.9 38.33-22.05-25.43-43.97-11 19-14.54 25.13zm-26.03 45.34l25.43 44 25.55-44.18-12.62-21.92-38.36 22.1zm0 89.97l38.36 22.1 1-1.83 11.62-20.1-11.3-19.5-14.25-24.65-25.43 43.97zm26.02 45.35l12.63 21.9 38.3-22.1-25.42-44-11 19.05-14.5 25.15zm25.82 44.68l51.06-.04-25.44-44-38.32 22.12 12.7 21.92zm64.94-23l12.5-21.64-12.67-22-38.3 22.2 25.45 43.98 13-22.53zM1800 143.7l25.52 44.16 25.45-44-38.3-22.1L1800 143.7zm51.83 89.65l38.34-22.13-12.73-21.86h-51.05l25.43 44zm26.47-44.5l12.67 21.9 38.3-22.1-25.43-43.97-11 19.04-14.54 25.14zm25.82 44.7l51.1-.04-25.45-43.98-38.3 22.1 12.65 21.92zm64.96-23l12.52-21.7-12.67-21.98-38.3 22.22 25.44 43.98 13-22.53zm-12.46-66.83l25.54 44.14 25.44-44-38.3-22.05-12.68 21.92zm51.82 89.67l38.28-22.08-12.66-21.92H1983l25.44 44zm26.5-44.54l12.67 21.9 38.32-22.1-25.44-43.98-11 19.04-14.54 25.14zm25.82 44.68l51.08-.03-25.44-43.98-38.3 22.1 12.66 21.92zm64.96-23l12.52-21.68-12.67-22-38.3 22.23 25.43 43.98 13.02-22.53zm38.52-66.66l-38.3-22.12-12.7 21.92 25.56 44.18 25.44-44zm-26.02-45.35l-12.84-22.3-12.7-21.86-25.45 44 38.32 22.08 12.67-21.92zm26.02-45.34L2138.8 9.16l-11.92 20.63-13.63 23.57 12.67 21.9 38.32-22.08zm0-89.98l-38.3-22.13-12.7 21.9 25.56 44.2 25.44-43.98zm-26.02-45.34l-12.84-22.3-12.7-21.87-25.45 44 38.32 22.1 12.67-21.92zm26.02-45.35l-25.44-44-11.92 20.6-13.63 23.58 12.67 21.92 38.32-22.1zm0-89.97l-38.3-22.15-12.7 21.92 25.56 44.22 25.44-43.98zm-26.02-45.34l-12.84-22.3-12.7-21.92-25.43 44 38.32 22.08 12.65-21.86zm-1957.4 497.3l-12.7 21.88 38.3 22.1 25.43-44H180.8zm-235 225.8l-12.72 21.9 38.32 22.07 25.44-44H-54.2zm0-1l51.13-.04-25.44-44-38.3 22.1v.1l12.6 21.83zm104.8.3l38.3 22.12 12.68-21.9-12.86-22.27-12.68-21.94-25.45 44zm37.82 22.93L50.17 460.5l-25.44 43.98h51.05l12.66-21.93zm-38.66-23.42l25.45-44h-51.1l-12.67 21.9 38.31 22.1zm-.5.84l-38.3-22.03-12.68 21.83 2.25 3.88 23.3 40.3 25.43-43.98zm-37.3 25.45l-14.24-24.6-25.44 44 38.3 22.1 1.06-1.87 11.62-20.1-11.3-19.53zm-40.16 20.2l-25.4 44.04h51.04l12.7-21.9-38.34-22.13zm25.64 45l-51.04.04 25.44 44 38.3-22.1-12.7-21.95zm.84-.5l12.67 21.95 38.3-22.1-25.43-44-11 19-14.54 25.15zm51.48.67l-38.32 22.1 12.66 21.88h51.1l-25.45-44zm-25.1-45.35l25.4 44 38.32-22.1-12.66-21.9H24.7zm51.94-.5l25.54 44.17 25.44-44-38.3-22.08-12.68 21.9zm26.4 44.68l51.08.03 12.66-21.92-38.32-22.1-25.43 44zm63.74 22.9l-12.7-21.9H103l25.44 44 38.32-22.1zm-37.83-67.75l38.32 22.14 1.06-1.84 11.62-20.1-11.3-19.54-14.24-24.65-25.45 43.97zm-.84-.48l25.4-44.02h-51.06L89.78 482.2l38.3 22.1zm-25.66-45l51.13-.02-25.44-44-38.3 22.1v.1l12.6 21.83zm.57-89.35l25.44 44 38.28-22.08-12.66-21.92H103zm24.6 44.5l-25.45-43.98-11.9 20.62-13.63 23.53 12.67 21.9 38.3-22.08zm-38.52-23.3l12.53-21.64-12.66-21.9-38.3 22.1 25.43 43.98 13-22.52zm-13.86 23l-25.45-44-38.3 22.1 12.65 21.9h51.1zm-51.94.5l-12.67-21.9-38.3 22.1 25.44 43.98 25.54-44.2zm-51.47-.7l38.37-22.05-12.75-21.94h-51.04l25.43 44zm-.83.5l-25.45-44.02-11.9 20.62-13.64 23.57 12.67 21.9 38.32-22.08zm-38.53-23.3l12.53-21.64-12.67-21.9-38.3 22.1 25.43 43.98 13-22.52zm-.34 46.42l-12.68-21.9-25.44 43.98 38.3 22.1 12.68-21.92-12.86-22.26zm-.3 45l-38.3-22.07-25.45 44h51.1l12.66-21.94zm.85.48l-12.67 21.88 25.54 44.2 25.45-44-38.32-22.08zm12.3 67.08l-12.65-21.87-38.3 22.1 25.43 43.98 13-22.53 12.53-21.67zm-11.34 21.6L-80 595.27l12.67 21.9 38.32-22.08-25.45-44-11.9 20.63zm37.86 24.23l-38.23 22.06v.1l12.62 21.83H-3.1l-25.44-44zm.84-.5l25.44 44.03 25.54-44.2-12.67-21.92-38.3 22.1zm51.82.32l-12.65 21.9 38.3 22.1 25.46-44h-51.1zm26.5-45.47l25.45 44.04 13-22.53 12.53-21.67-12.67-21.9L50.6 550.3zm39.62 21.45L76.6 595.3l12.68 21.9 38.3-22.1-25.43-43.98-11.9 20.63zm37.83 24.23l-38.2 22.06v.1l12.6 21.83h51.04l-25.43-44zm.85-.5l25.45 44.03 25.54-44.18-12.66-21.92-38.32 22.1zm39.18-22.57l12.7 21.9h51.04l-25.44-44-38.3 22.1zm-.5-.84L205.93 550l-25.44-44-11 19-14.54 25.14 12.67 21.92zM157.2 463.7l23.3 40.32 25.44-43.98-38.3-22.1-12.68 21.9 2.24 3.87zm-2.8-4.85l25.54-44.17-12.67-21.9-38.32 22.08 25.45 44zm13.72-66.6l12.7 21.9h51.04l-25.44-44-38.3 22.1zm-.5-.84l38.32-22.06-25.44-43.98-11 19-14.54 25.13 12.67 21.9zm-13.5-22.44l12.7-21.9L128.48 325l-25.43 43.98h51.05zm-51.94-.48l25.44-43.98-38.3-22.1-12.68 21.93 25.54 44.15zm-26.38-44.63l12.7-21.9-38.32-22.1-25.43 44h51.05zm0 1l-51.1.02 25.45 44 38.3-22.1-12.65-21.92zm-26.5 44.5l-25.44-43.97-11 19-14.54 25.14 12.67 21.92 38.3-22.1zm-51.82-.4l12.7-21.86-38.3-22.13-25.45 44h51.06zm-51.94-.47l25.45-43.98-38.32-22.1-12.67 21.93 25.54 44.15zm-26.38-44.63l12.66-21.9-38.3-22.1-25.45 44h51.1zm0 1l-51.1-.04 25.46 44.03 38.3-22.07-12.66-21.9zm-.56 89.35l-25.44-44.04-38.32 22.1 12.72 21.94h51.04zm-51.04 1l-12.72 21.9 38.32 22.1 25.44-44h-51.04zm25.15 44.85l-38.37-22.1-12.66 21.88 2.25 3.88 23.34 40.34 25.43-44zm26.48 45.47l-51.13-.04 25.5 44.05 38.3-22.1-12.67-21.9zm-.56 89.36l-25.48-44.07-38.32 22.1 12.76 21.98h51.04zm-51.04 1l-12.72 21.9 38.32 22.1 25.44-44h-51.04zm25.15 44.86l-38.4-22.18-12.66 21.92 2.25 3.9 23.38 40.35 25.43-44zm-24.68 44.4l51.08.03 12.67-21.9-38.3-22.1-25.45 44zm63.74 22.9l-12.7-21.9h-51.05l25.44 44 38.3-22.1zm-37.82-67.73l38.3 22.1 12.68-21.92-12.86-22.25-12.68-21.9-25.44 43.98zm51.83.67l-12.7 21.9 38.32 22.1 25.44-44H-54.2zm26.04 45.35l-25.43 44h51.06l12.7-21.9-38.32-22.1zm.48-.86l38.3 22.12 1.06-1.82 11.62-20.1L12 666.13l-14.24-24.65-25.44 44zm28.25-41.1l23.3 40.28 25.43-43.98-38.3-22.1-12.68 21.92 2.25 3.9zm24.14 40.8h51.1l12.66-21.9-38.3-22.1-25.45 44zm63.76 22.9l-12.7-21.9H24.7l25.45 43.98 38.3-22.1zM50.64 640.3l38.3 22.13 12.68-21.92-12.86-22.24-12.68-21.94-25.44 44zm51.82.67l-12.68 21.9 38.3 22.1 25.42-44h-51.04zm26.02 45.35l-25.43 44h51.05l12.7-21.9-38.32-22.1zm.5-.86l38.28 22.1 1.05-1.82 11.66-20.08-11.3-19.53-14.24-24.65-25.45 44zm28.24-41.1l23.3 40.28 25.44-43.98-38.3-22.1-12.68 21.92 2.24 3.9zm24.1 40.8h51.04l12.7-21.9-38.3-22.1-25.44 44zm63.75 22.9l-12.7-21.9H181.3l25.44 43.98 38.31-22.1zM206.4 639.8l25.4-44.02h-51.04l-12.66 21.92 38.3 22.1zm.85-89.5l25.45 44.02 13.02-22.53 12.52-21.65-12.67-21.9-38.32 22.08zm-.5-.84l38.28-22.07-12.67-21.9h-51.04l25.44 43.98zm-25.43-45l51.04.02 12.7-21.9-38.3-22.1-25.44 44zm25.08-45.33l25.4-44h-51.04l-12.66 21.9 38.3 22.1zm.85-89.5l25.45 44.03 13.02-22.52 12.52-21.68-12.67-21.9-38.32 22.08zm-.5-.83l38.28-22.1-12.67-21.9h-51.04l25.44 44zm-25.43-44.97h51.04l12.7-21.9-38.3-22.1-25.44 44zm-13.7-66.6l-12.68 21.92 2.24 3.88 23.3 40.28 25.44-43.98-38.3-22.1zm-13.24 22.9l-25.45 44 38.33 22.1 1.05-1.83 11.62-20.1-11.3-19.53-14.24-24.66zm-26.3 43.52l25.4-44.02h-51.04l-12.66 21.92 38.3 22.1zm0-88.98l-38.2 22.06v.1l12.6 21.82h51.05l-25.44-44zm-39.34 22.2L76.06 235 50.6 279l38.33 22.08 12.67-21.9-12.86-22.27zm-64.62-22.4l-12.65 21.88 38.3 22.1 25.46-44h-51.1zm-13.15 22.74L-1.7 279.17l2.25 3.88 23.3 40.28 25.43-43.98-38.3-22.1zm-13.23 22.9l-25.44 44 38.3 22.1 1.06-1.82 11.62-20.1-11.3-19.53-14.24-24.66zm-26.28 43.53l25.4-44.02H-54.2l-12.7 21.92 38.36 22.1zm0-88.98l-38.27 22.06v.1l12.65 21.82H-3.1l-25.44-44zm-39.36 22.2L-80.58 235l-25.44 44 38.3 22.08 12.68-21.9-12.86-22.27zm-64.6-22.4l-12.68 21.9 38.28 22.08 25.44-44h-51.04zm-13.17 22.74l-12.66 21.93 2.25 3.88 23.3 40.28 25.43-43.98-38.32-22.1zm-38.66 66.9l38.36 22.1 1-1.82 11.62-20.1-11.3-19.53-14.25-24.64-25.43 43.98zm26.02 45.35l12.63 21.9 38.33-22.06-25.43-43.98-11 19-14.54 25.13zm-26.03 45.34l25.43 44 25.55-44.18-12.62-21.9-38.36 22.08zm0 89.98l38.36 22.1 1-1.84 11.62-20.1-11.3-19.5-14.25-24.65-25.43 44zm26.02 45.34l12.63 21.9 38.33-22.05-25.43-43.98-11 19-14.54 25.14zm-26.03 45.34l25.43 44 25.55-44.18-12.62-21.92-38.36 22.1zm0 89.98l38.36 22.08 1-1.82 11.62-20.1-11.3-19.5-14.25-24.65-25.43 43.98zm26.02 45.34l12.63 21.9 38.3-22.1-25.42-44-11 19.05-14.5 25.15zm25.82 44.68l51.06-.04-25.44-44-38.32 22.12 12.7 21.92zm64.94-23l12.5-21.64-12.67-22-38.3 22.2 25.45 43.98 13-22.53zM-80 685.7l25.52 44.18 25.45-44-38.3-22.1L-80 685.7zm51.83 89.67l38.34-22.13-12.73-21.86H-53.6l25.43 44zm26.47-44.5l12.67 21.9 38.3-22.1-25.43-43.98-11 19.05-14.54 25.14zm25.82 44.7l51.1-.04-25.45-43.98-38.3 22.1 12.65 21.92zm64.96-23l12.52-21.7-12.67-21.98-38.3 22.22 25.44 43.98 13-22.53zm-12.46-66.82l25.54 44.13 25.44-44-38.3-22.05-12.68 21.93zm51.82 89.66l38.28-22.08-12.66-21.92H103l25.44 44zm26.5-44.54l12.67 21.9 38.32-22.1-25.44-44-11 19.06-14.54 25.14zm25.82 44.68l51.08-.03-25.44-43.98-38.3 22.1 12.66 21.92zm64.96-23l12.52-21.68-12.67-22-38.3 22.23 25.43 43.98 13.02-22.53zm38.52-66.66l-38.3-22.12-12.7 21.9 25.56 44.2 25.44-44zm-26.02-45.35l-12.85-22.3-12.7-21.86-25.44 44 38.32 22.08 12.67-21.92zm26.02-45.34l-25.44-44.03-11.92 20.63-13.63 23.57 12.67 21.9 38.32-22.08zm0-90l-38.3-22.1-12.7 21.9 25.56 44.2 25.44-44zm-26.02-45.32l-12.85-22.3-12.7-21.87-25.44 44 38.32 22.1 12.67-21.92zm26.02-45.35l-25.44-44-11.92 20.6-13.63 23.58 12.67 21.92 38.32-22.1zm0-89.97l-38.3-22.15-12.7 21.93 25.56 44.2 25.44-43.97zm-26.02-45.34l-12.85-22.3L232.7 235l-25.45 44 38.32 22.08 12.65-21.86zm392.6-44.7l-12.7 21.88 38.3 22.1 25.43-44H650.8zm-235 225.8l-12.72 21.9 38.32 22.07 25.44-44H415.8zm0-1l51.13-.04-25.44-44-38.3 22.1v.1l12.6 21.83zm104.8.3l38.3 22.12 12.68-21.9-12.86-22.27-12.68-21.94-25.44 44zm37.82 22.93l-38.28-22.06-25.43 43.98h51.05l12.66-21.93zm-38.67-23.42l25.46-44h-51.1l-12.67 21.9 38.31 22.1zm-.5.84l-38.3-22.03-12.67 21.83 2.25 3.88 23.3 40.3 25.43-43.98zM482 485.42l-14.26-24.6-25.44 44 38.3 22.1 1.06-1.87 11.62-20.1-11.3-19.53zm-40.18 20.2l-25.4 44.04h51.04l12.7-21.9-38.34-22.13zm25.64 45l-51.03.04 25.43 44 38.3-22.1-12.7-21.95zm.84-.5l12.67 21.95 38.3-22.1-25.43-44-11 19-14.54 25.15zm51.47.67l-38.3 22.1 12.65 21.88h51.1l-25.45-44zm-25.08-45.35l25.4 44 38.3-22.1-12.66-21.9H494.7zm51.92-.5l25.54 44.17 25.44-44-38.3-22.08-12.68 21.9zm26.4 44.68l51.08.03 12.66-21.92-38.32-22.1-25.43 44zm63.74 22.9l-12.7-21.9H573l25.44 44 38.32-22.1zm-37.83-67.75l38.32 22.14 1.06-1.84 11.62-20.1-11.3-19.54-14.24-24.65-25.45 43.97zm-.84-.48l25.38-44.02h-51.04l-12.66 21.92 38.3 22.1zm-25.66-45l51.13-.02-25.44-44-38.3 22.1v.1l12.6 21.83zm.57-89.35l25.44 44 38.28-22.08-12.66-21.92H573zm24.6 44.5l-25.45-43.98-11.9 20.62-13.63 23.53 12.67 21.9 38.3-22.08zm-38.52-23.3l12.53-21.64-12.66-21.9-38.32 22.1 25.45 43.98 13-22.52zm-13.86 23l-25.45-44-38.3 22.1 12.65 21.9h51.1zm-51.94.5l-12.67-21.9-38.3 22.1 25.44 43.98 25.54-44.2zm-51.47-.7l38.37-22.05-12.75-21.94h-51.05l25.44 44zm-.83.5l-25.45-44.02-11.9 20.62-13.64 23.57 12.67 21.9 38.32-22.08zm-38.53-23.3l12.53-21.64-12.67-21.9-38.3 22.1 25.43 43.98 13-22.52zm-.34 46.42l-12.68-21.9-25.44 43.98 38.3 22.1 12.68-21.92-12.86-22.26zm-.3 45l-38.3-22.07-25.45 44h51.1l12.66-21.94zm.85.48l-12.67 21.88 25.54 44.2 25.45-44-38.32-22.08zm12.3 67.08l-12.65-21.87-38.3 22.1 25.43 43.98 13-22.53 12.53-21.67zm-11.34 21.6L390 595.27l12.67 21.9 38.32-22.08-25.45-44-11.9 20.63zm37.86 24.23l-38.23 22.06v.1l12.62 21.83h51.05l-25.44-44zm.84-.5l25.44 44.03 25.54-44.2-12.67-21.92-38.3 22.1zm51.82.32l-12.65 21.9 38.3 22.1 25.46-44h-51.1zm26.5-45.47l25.45 44.04 13-22.53 12.53-21.67-12.67-21.9-38.3 22.08zm39.62 21.45L546.6 595.3l12.68 21.9 38.3-22.1-25.43-43.98-11.9 20.63zm37.83 24.23l-38.2 22.06v.1l12.6 21.83h51.04l-25.43-44zm.85-.5l25.45 44.03 25.54-44.18-12.66-21.92-38.32 22.1zm39.18-22.57l12.7 21.9h51.04l-25.44-44-38.3 22.1zm-.5-.84L675.93 550l-25.44-44-11 19-14.54 25.14 12.67 21.92zM627.2 463.7l23.3 40.32 25.44-43.98-38.3-22.1-12.68 21.9 2.24 3.87zm-2.8-4.85l25.54-44.17-12.67-21.9-38.32 22.08 25.45 44zm13.72-66.6l12.7 21.9h51.04l-25.44-44-38.3 22.1zm-.5-.84l38.32-22.06-25.44-43.98-11 19-14.54 25.13 12.67 21.9zm-13.5-22.44l12.7-21.9L598.48 325l-25.43 43.98h51.05zm-51.94-.48l25.44-43.98-38.3-22.1-12.68 21.93 25.54 44.15zm-26.38-44.63l12.7-21.9-38.32-22.1-25.43 44h51.05zm0 1l-51.1.02 25.44 44 38.32-22.1-12.66-21.92zm-26.5 44.5l-25.44-43.97-11 19-14.54 25.14 12.67 21.92 38.3-22.1zm-51.82-.4l12.7-21.86-38.3-22.13-25.44 44h51.04zm-51.94-.47l25.45-43.98-38.32-22.1-12.67 21.93 25.54 44.15zm-26.38-44.63l12.66-21.9-38.3-22.1-25.45 44h51.1zm0 1l-51.1-.04 25.46 44.03 38.3-22.07-12.66-21.9zm-.56 89.35l-25.44-44.04-38.31 22.1 12.7 21.94h51.05zm-51.04 1l-12.72 21.9 38.32 22.1 25.44-44h-51.04zm25.15 44.85l-38.37-22.1-12.66 21.88 2.25 3.88 23.34 40.34 25.43-44zm26.48 45.47l-51.13-.04 25.5 44.05 38.3-22.1-12.67-21.9zm-.56 89.36l-25.48-44.07-38.31 22.1 12.75 21.98h51.04zm-51.04 1l-12.7 21.9 38.3 22.1 25.44-44h-51.04zm25.15 44.86l-38.4-22.18-12.66 21.92 2.25 3.9 23.38 40.35 25.43-44zm-24.68 44.4l51.08.03 12.67-21.9-38.3-22.1-25.45 44zm63.74 22.9l-12.7-21.9h-51.05l25.44 44 38.3-22.1zm-37.82-67.73l38.3 22.1 12.68-21.92-12.86-22.25-12.68-21.9-25.44 43.98zm51.83.67l-12.7 21.9 38.32 22.1 25.44-44H415.8zm26.04 45.35l-25.42 44h51.04l12.7-21.9-38.32-22.1zm.48-.86l38.3 22.12 1.06-1.82 11.62-20.1-11.3-19.53-14.24-24.65-25.44 44zm28.25-41.1l23.3 40.28 25.43-43.98-38.3-22.1-12.68 21.92 2.25 3.9zm24.14 40.8h51.1l12.66-21.9-38.32-22.1-25.43 44zm63.76 22.9l-12.7-21.9H494.7l25.44 43.98 38.32-22.1zm-37.83-67.75l38.32 22.13 12.67-21.92-12.86-22.24-12.68-21.94-25.45 44zm51.83.67l-12.68 21.9 38.3 22.1 25.42-44h-51.04zm26.02 45.35l-25.43 44h51.05l12.7-21.9-38.32-22.1zm.5-.86l38.28 22.1 1.05-1.82 11.66-20.08-11.3-19.53-14.24-24.65-25.45 44zm28.24-41.1l23.3 40.28 25.44-43.98-38.3-22.1-12.68 21.92 2.24 3.9zm24.1 40.8h51.04l12.72-21.9-38.32-22.1-25.44 44zm63.75 22.9l-12.7-21.9H651.3l25.44 43.98 38.32-22.1zM676.4 639.8l25.4-44.02h-51.04l-12.66 21.92 38.3 22.1zm.85-89.5l25.45 44.02 13.02-22.53 12.52-21.65-12.67-21.9-38.32 22.08zm-.5-.84l38.28-22.07-12.67-21.9h-51.04l25.44 43.98zm-25.43-45l51.04.02 12.72-21.9-38.32-22.1-25.44 44zm25.08-45.33l25.4-44h-51.04l-12.66 21.9 38.3 22.1zm.85-89.5l25.45 44.03 13.02-22.52 12.52-21.68-12.67-21.9-38.32 22.08zm-.5-.83l38.28-22.1-12.67-21.9h-51.04l25.44 44zm-25.43-44.97h51.04l12.72-21.9-38.32-22.1-25.44 44zm-13.7-66.6l-12.68 21.92 2.24 3.88 23.3 40.28 25.44-43.98-38.3-22.1zm-13.24 22.9l-25.45 44 38.33 22.1 1.05-1.83 11.62-20.1-11.3-19.53-14.24-24.66zm-26.3 43.52l25.4-44.02h-51.04l-12.66 21.92 38.3 22.1zm0-88.98l-38.2 22.06v.1l12.6 21.82h51.05l-25.44-44zm-39.34 22.2L546.06 235l-25.44 44 38.3 22.08 12.68-21.9-12.86-22.27zm-64.62-22.4l-12.65 21.88 38.3 22.1 25.46-44h-51.1zm-13.15 22.74l-12.67 21.93 2.25 3.88 23.3 40.28 25.43-43.98-38.3-22.1zm-13.23 22.9l-25.44 44 38.3 22.1 1.06-1.82 11.62-20.1-11.3-19.53-14.24-24.66zm-26.28 43.53l25.4-44.02H415.8l-12.7 21.92 38.36 22.1zm0-88.98l-38.27 22.06v.1l12.65 21.82h51.05l-25.44-44zm-39.36 22.2L389.42 235l-25.44 44 38.3 22.08 12.68-21.9-12.86-22.27zm-64.6-22.4l-12.68 21.9 38.28 22.08 25.44-44H337.5zm-13.17 22.74l-12.66 21.93 2.25 3.88 23.3 40.28 25.43-43.98-38.32-22.1zm-38.66 66.9l38.36 22.1 1-1.82 11.62-20.1-11.3-19.53-14.25-24.64-25.43 43.98zm26.02 45.35l12.63 21.9 38.33-22.06-25.43-43.98-11 19-14.54 25.13zm-26.03 45.34l25.43 44 25.54-44.18-12.6-21.9-38.37 22.08zm0 89.98l38.36 22.1 1-1.84 11.62-20.1-11.3-19.5-14.25-24.65-25.43 44zm26.02 45.34l12.63 21.9 38.33-22.05-25.43-43.98-11 19-14.54 25.14zm-26.03 45.34l25.43 44 25.54-44.18-12.6-21.92-38.37 22.1zm0 89.98l38.36 22.08 1-1.82 11.62-20.1-11.3-19.5-14.25-24.65-25.43 43.98zm26.02 45.34l12.63 21.9 38.3-22.1-25.42-44-11 19.05-14.5 25.15zm25.82 44.68l51.06-.04-25.44-44-38.31 22.12 12.7 21.92zm64.94-23l12.5-21.64-12.67-22-38.3 22.2 25.45 43.98 13-22.53zM390 685.7l25.52 44.18 25.45-44-38.3-22.1L390 685.7zm51.83 89.67l38.34-22.13-12.73-21.86H416.4l25.43 44zm26.47-44.5l12.67 21.9 38.3-22.1-25.43-43.98-11 19.05-14.54 25.14zm25.82 44.7l51.1-.04-25.45-43.98-38.3 22.1 12.65 21.92zm64.96-23l12.52-21.7-12.67-21.98-38.3 22.22 25.44 43.98 13-22.53zm-12.46-66.82l25.54 44.13 25.44-44-38.3-22.05-12.68 21.93zm51.82 89.66l38.28-22.08-12.66-21.92H573l25.44 44zm26.5-44.54l12.67 21.9 38.32-22.1-25.44-44-11 19.06-14.54 25.14zm25.82 44.68l51.08-.03-25.44-43.98-38.3 22.1 12.66 21.92zm64.96-23l12.52-21.68-12.67-22-38.3 22.23 25.43 43.98 13.02-22.53zm38.52-66.66l-38.3-22.12-12.7 21.9 25.56 44.2 25.44-44zm-26.02-45.35l-12.85-22.3-12.7-21.86-25.44 44 38.32 22.08 12.67-21.92zm26.02-45.34l-25.44-44.03-11.92 20.63-13.63 23.57 12.67 21.9 38.32-22.08zm0-90l-38.3-22.1-12.7 21.9 25.56 44.2 25.44-44zm-26.02-45.32l-12.85-22.3-12.7-21.87-25.44 44 38.32 22.1 12.67-21.92zm26.02-45.35l-25.44-44-11.92 20.6-13.63 23.58 12.67 21.92 38.32-22.1zm0-89.97l-38.3-22.15-12.7 21.93 25.56 44.2 25.44-43.97zm-26.02-45.34l-12.85-22.3L702.7 235l-25.45 44 38.32 22.08 12.65-21.86zm392.6-44.7l-12.7 21.88 38.3 22.1 25.43-44h-51.04zm-235 225.8l-12.72 21.9 38.32 22.07 25.44-44H885.8zm0-1l51.13-.04-25.44-44-38.3 22.1v.1l12.6 21.83zm104.8.3l38.3 22.12 12.68-21.9-12.86-22.27-12.68-21.94-25.44 44zm37.82 22.93l-38.28-22.06-25.43 43.98h51.05l12.66-21.93zm-38.67-23.42l25.46-44h-51.1l-12.67 21.9 38.3 22.1zm-.5.84l-38.3-22.03-12.67 21.83 2.25 3.88 23.3 40.3 25.43-43.98zM952 485.42l-14.26-24.6-25.44 44 38.3 22.1 1.06-1.87 11.62-20.1-11.3-19.53zm-40.18 20.2l-25.4 44.04h51.04l12.7-21.9-38.34-22.13zm25.64 45l-51.04.04 25.44 44 38.3-22.1-12.7-21.95zm.84-.5l12.67 21.95 38.3-22.1-25.43-44-11 19-14.54 25.15zm51.48.67l-38.32 22.1 12.66 21.88h51.1l-25.45-44zm-25.1-45.35l25.4 44 38.32-22.1-12.66-21.9H964.7zm51.94-.5l25.54 44.17 25.44-44-38.3-22.08-12.68 21.9zm26.4 44.68l51.08.03 12.66-21.92-38.32-22.1-25.43 44zm63.74 22.9l-12.7-21.9H1043l25.44 44 38.32-22.1zm-37.83-67.75l38.32 22.14 1.06-1.84 11.62-20.1-11.3-19.54-14.24-24.65-25.45 43.97zm-.84-.48l25.38-44.02h-51.04l-12.66 21.92 38.3 22.1zm-25.66-45l51.13-.02-25.44-44-38.3 22.1v.1l12.6 21.83zm.57-89.35l25.44 44 38.28-22.08-12.66-21.92H1043zm24.6 44.5l-25.45-43.98-11.9 20.62-13.63 23.53 12.67 21.9 38.3-22.08zm-38.52-23.3l12.53-21.64-12.66-21.9-38.32 22.1 25.45 43.98 13-22.52zm-13.86 23l-25.45-44-38.3 22.1 12.65 21.9h51.1zm-51.94.5l-12.67-21.9-38.3 22.1 25.44 43.98 25.54-44.2zm-51.47-.7l38.37-22.05-12.75-21.94h-51.04l25.43 44zm-.83.5l-25.45-44.02-11.9 20.62-13.64 23.57 12.67 21.9 38.32-22.08zm-38.53-23.3l12.53-21.64-12.67-21.9-38.3 22.1 25.43 43.98 13-22.52zm-.34 46.42l-12.68-21.9-25.44 43.98 38.3 22.1 12.68-21.92-12.86-22.26zm-.3 45l-38.3-22.07-25.45 44h51.1l12.66-21.94zm.85.48l-12.67 21.88 25.54 44.2 25.45-44-38.32-22.08zm12.3 67.08l-12.65-21.87-38.3 22.1 25.43 43.98 13-22.53 12.53-21.67zm-11.34 21.6L860 595.27l12.67 21.9 38.32-22.08-25.45-44-11.9 20.63zm37.86 24.23l-38.23 22.06v.1l12.62 21.83h51.05l-25.44-44zm.84-.5l25.44 44.03 25.54-44.2-12.67-21.92-38.3 22.1zm51.82.32l-12.65 21.9 38.3 22.1 25.46-44h-51.1zm26.5-45.47l25.45 44.04 13-22.53 12.53-21.67-12.67-21.9-38.32 22.08zm39.62 21.45l-13.63 23.54 12.68 21.9 38.3-22.1-25.43-43.98-11.9 20.63zm37.83 24.23l-38.2 22.06v.1l12.6 21.83h51.05l-25.45-44zm.85-.5l25.45 44.03 25.54-44.18-12.66-21.92-38.32 22.1zm39.18-22.57l12.7 21.9h51.04l-25.44-44-38.3 22.1zm-.5-.84l38.32-22.07-25.44-44-11 19-14.54 25.14 12.67 21.92zM1097.2 463.7l23.3 40.32 25.44-43.98-38.3-22.1-12.68 21.9 2.24 3.87zm-2.8-4.85l25.54-44.17-12.67-21.9-38.32 22.08 25.45 44zm13.72-66.6l12.7 21.9h51.04l-25.44-44-38.3 22.1zm-.5-.84l38.32-22.06-25.44-43.98-11 19-14.54 25.13 12.67 21.9zm-13.5-22.44l12.7-21.9-38.32-22.08-25.43 43.98h51.05zm-51.94-.48l25.44-43.98-38.3-22.1-12.68 21.93 25.54 44.15zm-26.38-44.63l12.7-21.9-38.32-22.1-25.43 44h51.05zm0 1l-51.1.02 25.45 44 38.3-22.1-12.65-21.92zm-26.5 44.5l-25.44-43.97-11 19-14.54 25.14 12.67 21.92 38.3-22.1zm-51.82-.4l12.7-21.86-38.3-22.13-25.45 44h51.06zm-51.94-.47l25.45-43.98-38.32-22.1-12.67 21.93 25.54 44.15zm-26.38-44.63l12.66-21.9-38.3-22.1-25.45 44h51.1zm0 1l-51.1-.04 25.46 44.03 38.3-22.07-12.66-21.9zm-.56 89.35l-25.44-44.04-38.3 22.1 12.7 21.94h51.04zm-51.04 1l-12.7 21.9 38.3 22.1 25.44-44h-51.04zm25.15 44.85l-38.37-22.1-12.66 21.88 2.25 3.88 23.34 40.34 25.43-44zm26.48 45.47l-51.13-.04 25.5 44.05 38.3-22.1-12.67-21.9zm-.56 89.36l-25.48-44.07-38.3 22.1 12.74 21.98h51.04zm-51.04 1l-12.72 21.9 38.32 22.1 25.44-44h-51.04zm25.15 44.86l-38.4-22.18-12.66 21.92 2.25 3.9 23.38 40.35 25.43-44zm-24.68 44.4l51.08.03 12.67-21.9-38.3-22.1-25.45 44zm63.74 22.9l-12.7-21.9h-51.05l25.44 44 38.3-22.1zm-37.82-67.73l38.3 22.1 12.68-21.92-12.86-22.25-12.68-21.9-25.44 43.98zm51.83.67l-12.7 21.9 38.32 22.1 25.44-44H885.8zm26.04 45.35l-25.43 44h51.06l12.7-21.9-38.32-22.1zm.48-.86l38.3 22.12 1.06-1.82 11.62-20.1-11.3-19.53-14.24-24.65-25.44 44zm28.25-41.1l23.3 40.28 25.43-43.98-38.3-22.1-12.68 21.92 2.25 3.9zm24.14 40.8h51.1l12.66-21.9-38.32-22.1-25.43 44zm63.76 22.9l-12.7-21.9H964.7l25.44 43.98 38.32-22.1zm-37.83-67.75l38.32 22.13 12.67-21.92-12.86-22.24-12.68-21.94-25.45 44zm51.83.67l-12.68 21.9 38.3 22.1 25.43-44h-51.04zm26.02 45.35l-25.43 44h51.05l12.7-21.9-38.32-22.1zm.5-.86l38.28 22.1 1.05-1.82 11.66-20.08-11.3-19.53-14.24-24.65-25.45 44zm28.24-41.1l23.3 40.28 25.44-43.98-38.3-22.1-12.68 21.92 2.24 3.9zm24.1 40.8h51.04l12.7-21.9-38.3-22.1-25.44 44zm63.75 22.9l-12.7-21.9h-51.05l25.44 43.98 38.3-22.1zm-38.67-68.24l25.4-44.02h-51.04l-12.66 21.92 38.3 22.1zm.85-89.5l25.45 44.02 13.02-22.53 12.52-21.65-12.67-21.9-38.32 22.08zm-.5-.84l38.3-22.07-12.7-21.9h-51.03l25.44 43.98zm-25.43-45l51.04.02 12.7-21.9-38.3-22.1-25.44 44zm25.08-45.33l25.4-44h-51.04l-12.66 21.9 38.3 22.1zm.85-89.5l25.45 44.03 13.02-22.52 12.52-21.68-12.67-21.9-38.32 22.08zm-.5-.83l38.3-22.1-12.7-21.9h-51.03l25.44 44zm-25.43-44.97h51.04l12.7-21.9-38.3-22.1-25.44 44zm-13.7-66.6l-12.68 21.92 2.24 3.88 23.3 40.28 25.44-43.98-38.3-22.1zm-13.24 22.9l-25.45 44 38.33 22.1 1.05-1.83 11.62-20.1-11.3-19.53-14.24-24.66zm-26.3 43.52l25.4-44.02h-51.04l-12.66 21.92 38.3 22.1zm0-88.98l-38.2 22.06v.1l12.6 21.82h51.06l-25.45-44zm-39.34 22.2l-12.68-21.9-25.44 44 38.3 22.08 12.68-21.9-12.86-22.27zm-64.62-22.4l-12.65 21.88 38.3 22.1 25.46-44h-51.1zm-13.15 22.74l-12.67 21.93 2.25 3.88 23.3 40.28 25.43-43.98-38.3-22.1zm-13.23 22.9l-25.44 44 38.3 22.1 1.06-1.82 11.62-20.1-11.3-19.53-14.24-24.66zm-26.28 43.53l25.4-44.02H885.8l-12.7 21.92 38.36 22.1zm0-88.98l-38.27 22.06v.1l12.65 21.82h51.05l-25.44-44zm-39.36 22.2L859.42 235l-25.44 44 38.3 22.08 12.68-21.9-12.86-22.27zm-64.6-22.4l-12.67 21.9 38.27 22.08 25.44-44H807.5zm-13.17 22.74l-12.66 21.93 2.25 3.88 23.3 40.28 25.43-43.98-38.32-22.1zm-38.66 66.9l38.36 22.1 1-1.82 11.62-20.1-11.3-19.53-14.25-24.64-25.43 43.98zm26.02 45.35l12.63 21.9 38.33-22.06-25.43-43.98-11 19-14.54 25.13zm-26.03 45.34l25.43 44 25.54-44.18-12.6-21.9-38.37 22.08zm0 89.98l38.36 22.1 1-1.84 11.62-20.1-11.3-19.5-14.25-24.65-25.43 44zm26.02 45.34l12.63 21.9 38.33-22.05-25.43-43.98-11 19-14.54 25.14zm-26.03 45.34l25.43 44 25.54-44.18-12.6-21.92-38.37 22.1zm0 89.98l38.36 22.08 1-1.82 11.62-20.1-11.3-19.5-14.25-24.65-25.43 43.98zm26.02 45.34l12.63 21.9 38.3-22.1-25.42-44-11 19.05-14.5 25.15zm25.82 44.68l51.06-.04-25.44-44-38.3 22.12 12.68 21.92zm64.94-23l12.5-21.64-12.67-22-38.3 22.2 25.45 43.98 13-22.53zM860 685.7l25.52 44.18 25.45-44-38.3-22.1L860 685.7zm51.83 89.67l38.34-22.13-12.73-21.86H886.4l25.43 44zm26.47-44.5l12.67 21.9 38.3-22.1-25.43-43.98-11 19.05-14.54 25.14zm25.82 44.7l51.1-.04-25.45-43.98-38.3 22.1 12.65 21.92zm64.96-23l12.52-21.7-12.67-21.98-38.3 22.22 25.44 43.98 13-22.53zm-12.46-66.82l25.54 44.13 25.44-44-38.3-22.05-12.68 21.93zm51.82 89.66l38.28-22.08-12.66-21.92H1043l25.44 44zm26.5-44.54l12.67 21.9 38.32-22.1-25.44-44-11 19.06-14.54 25.14zm25.82 44.68l51.08-.03-25.44-43.98-38.3 22.1 12.66 21.92zm64.96-23l12.52-21.68-12.67-22-38.3 22.23 25.43 43.98 13.02-22.53zm38.52-66.66l-38.3-22.12-12.68 21.9 25.54 44.2 25.44-44zm-26.02-45.35l-12.84-22.3-12.7-21.86-25.45 44 38.32 22.08 12.67-21.92zm26.02-45.34l-25.44-44.03-11.92 20.63-13.62 23.57 12.66 21.9 38.32-22.08zm0-90l-38.3-22.1-12.68 21.9 25.54 44.2 25.44-44zm-26.02-45.32l-12.84-22.3-12.7-21.87-25.45 44 38.32 22.1 12.67-21.92zm26.02-45.35l-25.44-44-11.92 20.6-13.62 23.58 12.66 21.92 38.32-22.1zm0-89.97l-38.3-22.15-12.68 21.93 25.54 44.2 25.44-43.97zm-26.02-45.34l-12.84-22.3-12.7-21.92-25.43 44 38.32 22.08 12.65-21.86zm392.6-44.7l-12.7 21.88 38.3 22.1 25.43-44h-51.04zm-235 225.8l-12.72 21.9 38.32 22.07 25.44-44h-51.05zm0-1l51.13-.04-25.44-44-38.3 22.1v.1l12.6 21.83zm104.8.3l38.3 22.12 12.68-21.9-12.86-22.27-12.68-21.94-25.44 44zm37.82 22.93l-38.27-22.06-25.44 43.98h51.05l12.66-21.93zm-38.67-23.42l25.46-44h-51.1l-12.67 21.9 38.3 22.1zm-.5.84l-38.3-22.03-12.67 21.83 2.25 3.88 23.3 40.3 25.43-43.98zM1422 485.42l-14.26-24.6-25.44 44 38.3 22.1 1.06-1.87 11.62-20.1-11.3-19.53zm-40.18 20.2l-25.4 44.04h51.04l12.7-21.9-38.34-22.13zm25.64 45l-51.04.04 25.44 44 38.3-22.1-12.7-21.95zm.84-.5l12.67 21.95 38.3-22.1-25.43-44-11 19-14.54 25.15zm51.47.67l-38.3 22.1 12.65 21.88h51.1l-25.45-44zm-25.08-45.35l25.4 44 38.3-22.1-12.66-21.9h-51.05zm51.92-.5l25.54 44.17 25.44-44-38.3-22.08-12.68 21.9zm26.4 44.68l51.08.03 12.66-21.92-38.32-22.1-25.43 44zm63.74 22.9l-12.7-21.9H1513l25.44 44 38.32-22.1zm-37.83-67.75l38.32 22.14 1.06-1.84 11.62-20.1-11.3-19.54-14.24-24.65-25.45 43.97zm-.84-.48l25.38-44.02h-51.04l-12.66 21.92 38.3 22.1zm-25.66-45l51.13-.02-25.44-44-38.3 22.1v.1l12.6 21.83zm.57-89.35l25.44 44 38.28-22.08-12.66-21.92H1513zm24.6 44.5l-25.45-43.98-11.9 20.62-13.63 23.53 12.67 21.9 38.3-22.08zm-38.52-23.3l12.53-21.64-12.66-21.9-38.3 22.1 25.43 43.98 13-22.52zm-13.86 23l-25.45-44-38.3 22.1 12.65 21.9h51.1zm-51.94.5l-12.67-21.9-38.3 22.1 25.44 43.98 25.54-44.2zm-51.47-.7l38.37-22.05-12.75-21.94h-51.05l25.44 44zm-.83.5l-25.45-44.02-11.9 20.62-13.64 23.57 12.67 21.9 38.32-22.08zm-38.53-23.3l12.53-21.64-12.67-21.9-38.3 22.1 25.43 43.98 13-22.52zm-.34 46.42l-12.68-21.9-25.44 43.98 38.3 22.1 12.68-21.92-12.86-22.26zm-.3 45l-38.3-22.07-25.45 44h51.1l12.66-21.94zm.85.48l-12.67 21.88 25.54 44.2 25.45-44-38.32-22.08zm12.3 67.08l-12.65-21.87-38.3 22.1 25.43 43.98 13-22.53 12.53-21.67zm-11.34 21.6L1330 595.27l12.67 21.9 38.32-22.08-25.45-44-11.9 20.63zm37.86 24.23l-38.23 22.06v.1l12.62 21.83h51.05l-25.44-44zm.84-.5l25.44 44.03 25.54-44.2-12.67-21.92-38.3 22.1zm51.82.32l-12.65 21.9 38.3 22.1 25.46-44h-51.1zm26.5-45.47l25.45 44.04 13-22.53 12.53-21.67-12.67-21.9-38.3 22.08zm39.62 21.45l-13.63 23.54 12.68 21.9 38.3-22.1-25.43-43.98-11.9 20.63zm37.83 24.23l-38.2 22.06v.1l12.6 21.83h51.05l-25.45-44zm.85-.5l25.45 44.03 25.54-44.18-12.66-21.92-38.32 22.1zm39.18-22.57l12.7 21.9h51.04l-25.44-44-38.3 22.1zm-.5-.84l38.32-22.07-25.44-44-11 19-14.54 25.14 12.67 21.92zM1567.2 463.7l23.3 40.32 25.44-43.98-38.3-22.1-12.68 21.9 2.24 3.87zm-2.8-4.85l25.54-44.17-12.67-21.9-38.32 22.08 25.45 44zm13.72-66.6l12.7 21.9h51.04l-25.44-44-38.3 22.1zm-.5-.84l38.32-22.06-25.44-43.98-11 19-14.54 25.13 12.67 21.9zm-13.5-22.44l12.7-21.9-38.32-22.08-25.43 43.98h51.05zm-51.94-.48l25.44-43.98-38.3-22.1-12.68 21.93 25.54 44.15zm-26.38-44.63l12.7-21.9-38.3-22.1-25.45 44h51.05zm0 1l-51.1.02 25.45 44 38.3-22.1-12.65-21.92zm-26.5 44.5l-25.44-43.97-11 19-14.54 25.14 12.67 21.92 38.3-22.1zm-51.82-.4l12.7-21.86-38.3-22.13-25.45 44h51.06zm-51.94-.47l25.45-43.98-38.32-22.1-12.67 21.93 25.54 44.15zm-26.38-44.63l12.66-21.9-38.3-22.1-25.45 44h51.1zm0 1l-51.1-.04 25.46 44.03 38.3-22.07-12.66-21.9zm-.56 89.35l-25.44-44.04-38.32 22.1 12.72 21.94h51.04zm-51.04 1l-12.72 21.9 38.32 22.1 25.44-44h-51.04zm25.15 44.85l-38.37-22.1-12.66 21.88 2.25 3.88 23.34 40.34 25.43-44zm26.48 45.47l-51.13-.04 25.5 44.05 38.3-22.1-12.67-21.9zm-.56 89.36l-25.48-44.07-38.32 22.1 12.76 21.98h51.04zm-51.04 1l-12.72 21.9 38.32 22.1 25.44-44h-51.04zm25.15 44.86l-38.4-22.18-12.66 21.92 2.25 3.9 23.38 40.35 25.43-44zm-24.68 44.4l51.08.03 12.67-21.9-38.3-22.1-25.45 44zm63.74 22.9l-12.7-21.9h-51.05l25.44 44 38.3-22.1zm-37.82-67.73l38.3 22.1 12.68-21.92-12.86-22.25-12.68-21.9-25.44 43.98zm51.83.67l-12.7 21.9 38.32 22.1 25.44-44h-51.05zm26.04 45.35l-25.43 44h51.06l12.7-21.9-38.32-22.1zm.48-.86l38.3 22.12 1.06-1.82 11.62-20.1-11.3-19.53-14.24-24.65-25.44 44zm28.25-41.1l23.3 40.28 25.43-43.98-38.3-22.1-12.68 21.92 2.25 3.9zm24.14 40.8h51.1l12.66-21.9-38.3-22.1-25.45 44zm63.76 22.9l-12.7-21.9h-51.05l25.45 43.98 38.3-22.1zm-37.82-67.75l38.3 22.13 12.68-21.92-12.86-22.24-12.68-21.94-25.44 44zm51.82.67l-12.68 21.9 38.3 22.1 25.43-44h-51.04zm26.02 45.35l-25.43 44h51.05l12.7-21.9-38.32-22.1zm.5-.86l38.28 22.1 1.05-1.82 11.66-20.08-11.3-19.53-14.24-24.65-25.45 44zm28.24-41.1l23.3 40.28 25.44-43.98-38.3-22.1-12.68 21.92 2.24 3.9zm24.1 40.8h51.04l12.7-21.9-38.3-22.1-25.44 44zm63.75 22.9l-12.7-21.9h-51.05l25.44 43.98 38.3-22.1zm-38.67-68.24l25.4-44.02h-51.04l-12.66 21.92 38.3 22.1zm.85-89.5l25.45 44.02 13.02-22.53 12.52-21.65-12.67-21.9-38.32 22.08zm-.5-.84l38.3-22.07-12.7-21.9h-51.03l25.44 43.98zm-25.43-45l51.04.02 12.7-21.9-38.3-22.1-25.44 44zm25.08-45.33l25.4-44h-51.04l-12.66 21.9 38.3 22.1zm.85-89.5l25.45 44.03 13.02-22.52 12.52-21.68-12.67-21.9-38.32 22.08zm-.5-.83l38.3-22.1-12.7-21.9h-51.03l25.44 44zm-25.43-44.97h51.04l12.7-21.9-38.3-22.1-25.44 44zm-13.7-66.6l-12.68 21.92 2.24 3.88 23.3 40.28 25.44-43.98-38.3-22.1zm-13.24 22.9l-25.45 44 38.33 22.1 1.05-1.83 11.62-20.1-11.3-19.53-14.24-24.66zm-26.3 43.52l25.4-44.02h-51.04l-12.66 21.92 38.3 22.1zm0-88.98l-38.2 22.06v.1l12.6 21.82h51.06l-25.45-44zm-39.34 22.2l-12.68-21.9-25.44 44 38.3 22.08 12.68-21.9-12.86-22.27zm-64.62-22.4l-12.65 21.88 38.3 22.1 25.46-44h-51.1zm-13.15 22.74l-12.67 21.93 2.25 3.88 23.3 40.28 25.43-43.98-38.3-22.1zm-13.23 22.9l-25.44 44 38.3 22.1 1.06-1.82 11.62-20.1-11.3-19.53-14.24-24.66zm-26.28 43.53l25.4-44.02h-51.05l-12.7 21.92 38.36 22.1zm0-88.98l-38.27 22.06v.1l12.65 21.82h51.05l-25.44-44zm-39.36 22.2l-12.68-21.9-25.44 44 38.3 22.08 12.68-21.9-12.86-22.27zm-64.6-22.4l-12.68 21.9 38.28 22.08 25.44-44h-51.04zm-13.17 22.74l-12.66 21.93 2.25 3.88 23.3 40.28 25.43-43.98-38.32-22.1zm-38.66 66.9l38.36 22.1 1-1.82 11.62-20.1-11.3-19.53-14.25-24.64-25.43 43.98zm26.02 45.35l12.63 21.9 38.33-22.06-25.43-43.98-11 19-14.54 25.13zm-26.03 45.34l25.43 44 25.55-44.18-12.62-21.9-38.36 22.08zm0 89.98l38.36 22.1 1-1.84 11.62-20.1-11.3-19.5-14.25-24.65-25.43 44zm26.02 45.34l12.63 21.9 38.33-22.05-25.43-43.98-11 19-14.54 25.14zm-26.03 45.34l25.43 44 25.55-44.18-12.62-21.92-38.36 22.1zm0 89.98l38.36 22.08 1-1.82 11.62-20.1-11.3-19.5-14.25-24.65-25.43 43.98zm26.02 45.34l12.63 21.9 38.3-22.1-25.42-44-11 19.05-14.5 25.15zm25.82 44.68l51.06-.04-25.44-44-38.32 22.12 12.7 21.92zm64.94-23l12.5-21.64-12.67-22-38.3 22.2 25.45 43.98 13-22.53zM1330 685.7l25.52 44.18 25.45-44-38.3-22.1L1330 685.7zm51.83 89.67l38.34-22.13-12.73-21.86h-51.05l25.43 44zm26.47-44.5l12.67 21.9 38.3-22.1-25.43-43.98-11 19.05-14.54 25.14zm25.82 44.7l51.1-.04-25.45-43.98-38.3 22.1 12.65 21.92zm64.96-23l12.52-21.7-12.67-21.98-38.3 22.22 25.44 43.98 13-22.53zm-12.46-66.82l25.54 44.13 25.44-44-38.3-22.05-12.68 21.93zm51.82 89.66l38.28-22.08-12.66-21.92H1513l25.44 44zm26.5-44.54l12.67 21.9 38.32-22.1-25.44-44-11 19.06-14.54 25.14zm25.82 44.68l51.08-.03-25.44-43.98-38.3 22.1 12.66 21.92zm64.96-23l12.52-21.68-12.67-22-38.3 22.23 25.43 43.98 13.02-22.53zm38.52-66.66l-38.3-22.12-12.68 21.9 25.54 44.2 25.44-44zm-26.02-45.35l-12.84-22.3-12.7-21.86-25.45 44 38.32 22.08 12.67-21.92zm26.02-45.34l-25.44-44.03-11.92 20.63-13.62 23.57 12.66 21.9 38.32-22.08zm0-90l-38.3-22.1-12.68 21.9 25.54 44.2 25.44-44zm-26.02-45.32l-12.84-22.3-12.7-21.87-25.45 44 38.32 22.1 12.67-21.92zm26.02-45.35l-25.44-44-11.92 20.6-13.62 23.58 12.66 21.92 38.32-22.1zm0-89.97l-38.3-22.15-12.68 21.93 25.54 44.2 25.44-43.97zm-26.02-45.34l-12.84-22.3-12.7-21.92-25.43 44 38.32 22.08 12.65-21.86zm392.6-44.7l-12.7 21.88 38.3 22.1 25.43-44h-51.04zm-235 225.8l-12.72 21.9 38.32 22.07 25.44-44h-51.05zm0-1l51.13-.04-25.44-44-38.3 22.1v.1l12.6 21.83zm104.8.3l38.3 22.12 12.68-21.9-12.86-22.27-12.68-21.94-25.44 44zm37.82 22.93l-38.27-22.06-25.44 43.98h51.05l12.66-21.93zm-38.67-23.42l25.46-44h-51.1l-12.67 21.9 38.3 22.1zm-.5.84l-38.3-22.03-12.67 21.83 2.25 3.88 23.3 40.3 25.43-43.98zM1892 485.42l-14.26-24.6-25.44 44 38.3 22.1 1.06-1.87 11.62-20.1-11.3-19.53zm-40.18 20.2l-25.4 44.04h51.04l12.7-21.9-38.34-22.13zm25.64 45l-51.04.04 25.44 44 38.3-22.1-12.7-21.95zm.84-.5l12.67 21.95 38.3-22.1-25.43-44-11 19-14.54 25.15zm51.47.67l-38.3 22.1 12.65 21.88h51.1l-25.45-44zm-25.08-45.35l25.4 44 38.3-22.1-12.66-21.9h-51.05zm51.92-.5l25.54 44.17 25.44-44-38.3-22.08-12.68 21.9zm26.4 44.68l51.08.03 12.66-21.92-38.32-22.1-25.43 44zm63.74 22.9l-12.7-21.9H1983l25.44 44 38.32-22.1zm-37.83-67.75l38.32 22.14 1.06-1.84 11.62-20.1-11.3-19.54-14.24-24.65-25.45 43.97zm-.84-.48l25.4-44.02h-51.06l-12.66 21.92 38.3 22.1zm-25.66-45l51.13-.02-25.44-44-38.3 22.1v.1l12.6 21.83zm.57-89.35l25.44 44 38.28-22.08-12.66-21.92H1983zm24.6 44.5l-25.45-43.98-11.9 20.62-13.63 23.53 12.67 21.9 38.3-22.08zm-38.52-23.3l12.53-21.64-12.66-21.9-38.3 22.1 25.43 43.98 13-22.52zm-13.86 23l-25.45-44-38.3 22.1 12.65 21.9h51.1zm-51.94.5l-12.67-21.9-38.3 22.1 25.44 43.98 25.54-44.2zm-51.47-.7l38.37-22.05-12.75-21.94h-51.05l25.44 44zm-.83.5l-25.45-44.02-11.9 20.62-13.64 23.57 12.67 21.9 38.32-22.08zm-38.53-23.3l12.53-21.64-12.67-21.9-38.3 22.1 25.43 43.98 13-22.52zm-.34 46.42l-12.68-21.9-25.44 43.98 38.3 22.1 12.68-21.92-12.86-22.26zm-.3 45l-38.3-22.07-25.45 44h51.1l12.66-21.94zm.85.48l-12.67 21.88 25.54 44.2 25.45-44-38.32-22.08zm12.3 67.08l-12.65-21.87-38.3 22.1 25.43 43.98 13-22.53 12.53-21.67zm-11.34 21.6L1800 595.27l12.67 21.9 38.32-22.08-25.45-44-11.9 20.63zm37.86 24.23l-38.23 22.06v.1l12.62 21.83h51.05l-25.44-44zm.84-.5l25.44 44.03 25.54-44.2-12.67-21.92-38.3 22.1zm51.82.32l-12.65 21.9 38.3 22.1 25.46-44h-51.1zm26.5-45.47l25.45 44.04 13-22.53 12.53-21.67-12.67-21.9-38.3 22.08zm39.62 21.45l-13.63 23.54 12.68 21.9 38.3-22.1-25.43-43.98-11.9 20.63zm37.83 24.23l-38.2 22.06v.1l12.6 21.83h51.04l-25.43-44zm.85-.5l25.45 44.03 25.54-44.18-12.66-21.92-38.32 22.1zm39.18-22.57l12.7 21.9h51.04l-25.44-44-38.3 22.1zm-.5-.84l38.32-22.07-25.44-44-11 19-14.54 25.14 12.67 21.92zM2037.2 463.7l23.3 40.32 25.44-43.98-38.3-22.1-12.68 21.9 2.24 3.87zm-2.8-4.85l25.54-44.17-12.67-21.9-38.32 22.08 25.45 44zm13.72-66.6l12.7 21.9h51.04l-25.44-44-38.3 22.1zm-.5-.84l38.32-22.06-25.44-43.98-11 19-14.54 25.13 12.67 21.9zm-13.5-22.44l12.7-21.9-38.32-22.08-25.43 43.98h51.05zm-51.94-.48l25.44-43.98-38.3-22.1-12.68 21.93 25.54 44.15zm-26.38-44.63l12.7-21.9-38.3-22.1-25.45 44h51.05zm0 1l-51.1.02 25.44 44 38.32-22.1-12.66-21.92zm-26.5 44.5l-25.44-43.97-11 19-14.54 25.14 12.67 21.92 38.3-22.1zm-51.82-.4l12.7-21.86-38.3-22.13-25.45 44h51.06zm-51.94-.47l25.45-43.98-38.32-22.1-12.67 21.93 25.54 44.15zm-26.38-44.63l12.66-21.9-38.3-22.1-25.45 44h51.1zm0 1l-51.1-.04 25.46 44.03 38.3-22.07-12.66-21.9zm-.56 89.35l-25.44-44.04-38.32 22.1 12.72 21.94h51.04zm-51.04 1l-12.72 21.9 38.32 22.1 25.44-44h-51.04zm25.15 44.85l-38.37-22.1-12.66 21.88 2.25 3.88 23.34 40.34 25.43-44zm26.48 45.47l-51.13-.04 25.5 44.05 38.3-22.1-12.67-21.9zm-.56 89.36l-25.48-44.07-38.32 22.1 12.76 21.98h51.04zm-51.04 1l-12.72 21.9 38.32 22.1 25.44-44h-51.04zm25.15 44.86l-38.4-22.18-12.66 21.92 2.25 3.9 23.38 40.35 25.43-44zm-24.68 44.4l51.08.03 12.67-21.9-38.3-22.1-25.45 44zm63.74 22.9l-12.7-21.9h-51.05l25.44 44 38.3-22.1zm-37.82-67.73l38.3 22.1 12.68-21.92-12.86-22.25-12.68-21.9-25.44 43.98zm51.83.67l-12.7 21.9 38.32 22.1 25.44-44h-51.05zm26.04 45.35l-25.43 44h51.06l12.7-21.9-38.32-22.1zm.48-.86l38.3 22.12 1.06-1.82 11.62-20.1-11.3-19.53-14.24-24.65-25.44 44zm28.25-41.1l23.3 40.28 25.43-43.98-38.3-22.1-12.68 21.92 2.25 3.9zm24.14 40.8h51.1l12.66-21.9-38.3-22.1-25.45 44zm63.76 22.9l-12.7-21.9h-51.05l25.45 43.98 38.3-22.1zm-37.82-67.75l38.3 22.13 12.68-21.92-12.86-22.24-12.68-21.94-25.44 44zm51.82.67l-12.68 21.9 38.3 22.1 25.42-44h-51.04zm26.02 45.35l-25.43 44h51.05l12.7-21.9-38.32-22.1zm.5-.86l38.28 22.1 1.05-1.82 11.66-20.08-11.3-19.53-14.24-24.65-25.45 44zm28.24-41.1l23.3 40.28 25.44-43.98-38.3-22.1-12.68 21.92 2.24 3.9zm24.1 40.8h51.04l12.7-21.9-38.3-22.1-25.44 44zm63.75 22.9l-12.7-21.9h-51.05l25.44 43.98 38.3-22.1zm-38.67-68.24l25.4-44.02h-51.04l-12.66 21.92 38.3 22.1zm.85-89.5l25.45 44.02 13.02-22.53 12.52-21.65-12.67-21.9-38.32 22.08zm-.5-.84l38.28-22.07-12.67-21.9h-51.04l25.44 43.98zm-25.43-45l51.04.02 12.7-21.9-38.3-22.1-25.44 44zm25.08-45.33l25.4-44h-51.04l-12.66 21.9 38.3 22.1zm.85-89.5l25.45 44.03 13.02-22.52 12.52-21.68-12.67-21.9-38.32 22.08zm-.5-.83l38.28-22.1-12.67-21.9h-51.04l25.44 44zm-25.43-44.97h51.04l12.7-21.9-38.3-22.1-25.44 44zm-13.7-66.6l-12.68 21.92 2.24 3.88 23.3 40.28 25.44-43.98-38.3-22.1zm-13.24 22.9l-25.45 44 38.33 22.1 1.05-1.83 11.62-20.1-11.3-19.53-14.24-24.66zm-26.3 43.52l25.4-44.02h-51.04l-12.66 21.92 38.3 22.1zm0-88.98l-38.2 22.06v.1l12.6 21.82h51.05l-25.44-44zm-39.34 22.2l-12.68-21.9-25.44 44 38.3 22.08 12.68-21.9-12.86-22.27zm-64.62-22.4l-12.65 21.88 38.3 22.1 25.46-44h-51.1zm-13.15 22.74l-12.67 21.93 2.25 3.88 23.3 40.28 25.43-43.98-38.3-22.1zm-13.23 22.9l-25.44 44 38.3 22.1 1.06-1.82 11.62-20.1-11.3-19.53-14.24-24.66zm-26.28 43.53l25.4-44.02h-51.05l-12.7 21.92 38.36 22.1zm0-88.98l-38.27 22.06v.1l12.65 21.82h51.05l-25.44-44zm-39.36 22.2l-12.68-21.9-25.44 44 38.3 22.08 12.68-21.9-12.86-22.27zm-64.6-22.4l-12.68 21.9 38.28 22.08 25.44-44h-51.04zm-13.17 22.74l-12.66 21.93 2.25 3.88 23.3 40.28 25.43-43.98-38.32-22.1zm-38.66 66.9l38.36 22.1 1-1.82 11.62-20.1-11.3-19.53-14.25-24.64-25.43 43.98zm26.02 45.35l12.63 21.9 38.33-22.06-25.43-43.98-11 19-14.54 25.13zm-26.03 45.34l25.43 44 25.55-44.18-12.62-21.9-38.36 22.08zm0 89.98l38.36 22.1 1-1.84 11.62-20.1-11.3-19.5-14.25-24.65-25.43 44zm26.02 45.34l12.63 21.9 38.33-22.05-25.43-43.98-11 19-14.54 25.14zm-26.03 45.34l25.43 44 25.55-44.18-12.62-21.92-38.36 22.1zm0 89.98l38.36 22.08 1-1.82 11.62-20.1-11.3-19.5-14.25-24.65-25.43 43.98zm26.02 45.34l12.63 21.9 38.3-22.1-25.42-44-11 19.05-14.5 25.15zm25.82 44.68l51.06-.04-25.44-44-38.32 22.12 12.7 21.92zm64.94-23l12.5-21.64-12.67-22-38.3 22.2 25.45 43.98 13-22.53zM1800 685.7l25.52 44.18 25.45-44-38.3-22.1L1800 685.7zm51.83 89.67l38.34-22.13-12.73-21.86h-51.05l25.43 44zm26.47-44.5l12.67 21.9 38.3-22.1-25.43-43.98-11 19.05-14.54 25.14zm25.82 44.7l51.1-.04-25.45-43.98-38.3 22.1 12.65 21.92zm64.96-23l12.52-21.7-12.67-21.98-38.3 22.22 25.44 43.98 13-22.53zm-12.46-66.82l25.54 44.13 25.44-44-38.3-22.05-12.68 21.93zm51.82 89.66l38.28-22.08-12.66-21.92H1983l25.44 44zm26.5-44.54l12.67 21.9 38.32-22.1-25.44-44-11 19.06-14.54 25.14zm25.82 44.68l51.08-.03-25.44-43.98-38.3 22.1 12.66 21.92zm64.96-23l12.52-21.68-12.67-22-38.3 22.23 25.43 43.98 13.02-22.53zm38.52-66.66l-38.3-22.12-12.7 21.9 25.56 44.2 25.44-44zm-26.02-45.35l-12.84-22.3-12.7-21.86-25.45 44 38.32 22.08 12.67-21.92zm26.02-45.34l-25.44-44.03-11.92 20.63-13.63 23.57 12.67 21.9 38.32-22.08zm0-90l-38.3-22.1-12.7 21.9 25.56 44.2 25.44-44zm-26.02-45.32l-12.84-22.3-12.7-21.87-25.45 44 38.32 22.1 12.67-21.92zm26.02-45.35l-25.44-44-11.92 20.6-13.63 23.58 12.67 21.92 38.32-22.1zm0-89.97l-38.3-22.15-12.7 21.93 25.56 44.2 25.44-43.97zm-26.02-45.34l-12.84-22.3-12.7-21.92-25.43 44 38.32 22.08 12.65-21.86z" clip-path="url(#c)"/></g><defs><linearGradient id="a" x2="1" gradientUnits="userSpaceOnUse" gradientTransform="matrix(-2022.16 242.788 -242.788 -2022.16 1950 0)"><stop offset="0" stop-color="#f02828"/><stop offset=".49" stop-color="#f02828"/><stop offset="1" stop-color="#ff5a23"/></linearGradient><linearGradient id="b" x2="1" gradientUnits="userSpaceOnUse" gradientTransform="matrix(131.661 399.453 -399.453 131.661 368 134)"><stop offset="0" stop-color="#f02d28" stop-opacity=".4"/><stop offset="1" stop-color="#201e37" stop-opacity="0"/></linearGradient></defs></svg>