<svg xmlns="http://www.w3.org/2000/svg" fill-rule="evenodd" viewBox="0 0 1920 800" clip-rule="evenodd"><g transform="translate(-174 -142)"><path fill="url(#a)" d="M2094 242L174 142v700l1920 100V242z"/><path fill="#19193c" d="M174 242l1920-100v700L174 942V242z"/><path fill="url(#b)" d="M174 242l1920-100v700L174 942V242z"/><path fill="url(#c)" d="M174 242l1920-100v700L174 942V242z"/><clipPath id="d"><path d="M174 242l1920-100v700L174 942V242z"/></clipPath><path fill="#fff" fill-opacity=".02" d="M1880 542v-.08h-1l.3-.18-25.43-44-11.92 20.64-13.63 23.57H1775l-12.68-21.92-38.04 21.92h-2l.3-.18-25.43-44-11.9 20.64-13.6 23.55h-53.34l-12.66-21.92-38.03 21.92h-1.94l.3-.18-25.44-44-11.9 20.64-13.64 23.58h-53.33l-12.62-21.92L1411 542l-.33.18 25.43 44 25.55-44.18h53.33l12.64 21.9 38.04-21.9h1.95l-.3.18 25.44 44 25.54-44.18h53.34l12.62 21.9 38.03-21.9h2l-.34.18 25.45 44 25.54-44.18h53.34l12.6 21.9 38.04-21.9h1v1l-.18-.34-38.34 22.07.06.1 12.6 21.82h25.83v1h-25.82l-12.67 21.92 38.34 22 .18-.3v2l-25.26 43.7h25.26v1h-25.26l25.23 43.63v2l-.18-.3-38.32 22.08.06.1 12.6 21.83h25.83v1h-25.82l-12.67 21.93 38.34 22 .18-.3v2l-25.26 43.68h25.23v1h-25.26l25.27 43.7v1.96l-.18-.3-38.32 22.08.06.1 12.6 21.83h25.83v1h-25.82l-12.67 21.9 38.34 22.12.18-.33v1.86l-25.26 43.7H1880v.1h25.82l12.67-21.92-38.32-22.08-.18.3v-1.95l25.26-43.67H1880v-1h25.26L1880 904.3v-1.96l.18.3 38.3-22.06-12.66-21.92H1880v-1h25.82l12.67-21.86-38.32-22.1-.18.3v-2l25.26-43.66H1880v-1h25.26L1880 723.68v-2l.18.27 38.3-22.07-12.66-21.92H1880v-1h25.82l12.67-21.9-38.32-22.08-.18.38v-2l25.26-43.68H1880v-1h25.26L1880 543v-1zm1 0l-.33.18 25.43 44 25.55-44.18h53.33l12.64 21.9 38.04-21.9h1.95l-.3.18 25.44 44 25.54-44.18h53.34l12.62 21.9 38.03-21.9h2l-.34.18 25.45 44 25.54-44.18h53.33l12.62 21.9 38.03-21.9h1v1l-.18-.34-38.34 22.07.06.1 12.6 21.82h25.83v1h-25.82l-12.67 21.92 38.34 22 .18-.3v2l-25.26 43.7h25.26v1h-25.26l25.23 43.63v2l-.18-.3-38.32 22.08.06.1 12.6 21.83h25.83v1h-25.82l-12.67 21.93 38.34 22 .18-.3v2l-25.26 43.68h25.23v1h-25.26l25.27 43.7v1.96l-.18-.3-38.32 22.08.06.1 12.6 21.83h25.83v1h-25.82l-12.67 21.9 38.34 22.12.18-.33v1.86l-25.26 43.7H2350v1h-25.26l25.26 43.7v1h-1l.3-.2-25.43-43.98-11.92 20.63-13.63 23.57H2245l-12.68-21.92-38.04 21.92h-2l.3-.18-25.43-44-11.9 20.64-13.6 23.55h-53.34l-12.66-21.92-38.03 21.92h-1.94l.3-.18-25.44-44-11.9 20.64-13.64 23.58h-53.33l-12.62-21.92L1881 1084h-1v-.08h-1l.3-.18-25.43-44-11.92 20.64-13.63 23.57H1775l-12.68-21.92-38.04 21.92h-2l.3-.18-25.43-44-11.9 20.64-13.6 23.55h-53.34l-12.66-21.92-38.03 21.92h-1.94l.3-.18-25.44-44-11.9 20.64-13.64 23.58h-53.33l-12.62-21.92L1411 1084h-1v-.08h-1l.3-.18-25.43-44-11.92 20.64-13.63 23.57H1305l-12.68-21.92-38.04 21.92h-2l.3-.18-25.43-44-11.9 20.64-13.6 23.55h-53.34l-12.66-21.92-38.03 21.92h-1.94l.3-.18-25.44-44-11.9 20.64-13.64 23.58h-53.34l-12.6-21.92L941 1084h-1v-.08h-1l.3-.18-25.43-44-11.92 20.64-13.63 23.57H835l-12.68-21.92-38.04 21.92h-2l.3-.18-25.43-44-11.9 20.64-13.6 23.55H678.3l-12.66-21.92-38.03 21.92h-1.94l.3-.18-25.44-44-11.9 20.64-13.64 23.58h-53.34l-12.6-21.92L471 1084h-1v-.08h-1l.3-.18-25.43-44-11.92 20.64-13.63 23.57H365l-12.68-21.92-38.04 21.92h-2l.3-.18-25.43-44-11.9 20.64-13.6 23.55H208.3l-12.66-21.92-38.03 21.92h-1.94l.3-.18-25.44-44-11.9 20.64-13.64 23.58H51.64l-12.6-21.92L1 1084H0v-1l.18.3 38.3-22.06-12.66-21.92H0v-1h25.82l12.67-21.9L.17 994.3l-.18.3v-1.95L25.26 949H0v-1h25.26L0 904.3v-1.96l.18.3 38.3-22.06-12.66-21.92H0v-1h25.82L38.5 835.8.17 813.7 0 814v-2l25.26-43.66H0v-1h25.26L0 723.68v-2l.18.27 38.3-22.07-12.66-21.92H0v-1h25.82l12.67-21.9L.17 633l-.18.38v-2l25.26-43.68H0v-1h25.26L0 543v-2l.18.3 38.3-22.06-12.66-21.92H0v-1h25.82l12.67-21.9L.17 452.3l-.18.3v-1.94L25.26 407H0v-1h25.26L0 362.3v-1.96l.18.3 38.3-22.06-12.66-21.92H0v-1h25.82L38.5 293.8.17 271.7 0 272v-2l25.26-43.66H0v-1h25.26L0 181.68v-2l.18.27 38.3-22.07-12.66-21.92H0v-1h25.82l12.67-21.9L.17 90.97l-.18.4v-2l25.26-43.68H0v-1h25.26L0 1V0h1L.67.18l25.43 44L51.65 0h53.33l12.64 21.9L155.66 0h1.95l-.3.18 25.44 44L208.28 0h53.34l12.62 21.9L312.27 0h2l-.34.18 25.45 44L364.92 0h53.33l12.62 21.9L468.9 0h1v1l-.18-.34-38.34 22.07.06.1 12.6 21.82h25.83v1h-25.82l-12.67 21.92 38.34 22 .18-.3v2l-25.26 43.7h25.26v1h-25.26l25.23 43.63v2l-.18-.3-38.32 22.08.06.1 12.6 21.83h25.83v1h-25.82l-12.67 21.93 38.34 22 .18-.3v2l-25.26 43.68h25.23v1H444.6l25.27 43.7v1.96l-.18-.3-38.32 22.08.06.1 12.6 21.83h25.83v1h-25.82l-12.67 21.9L469.72 451l.18-.32v1.84l-25.26 43.7H470v.1h25.82l12.67-21.9-38.32-22.1-.18.3v-1.94L495.26 407H470v-1h25.26L470 362.3v-1.96l.18.3 38.3-22.06-12.66-21.92H470v-1h25.82l12.67-21.86-38.32-22.1-.18.3v-2l25.26-43.66H470v-1h25.26L470 181.68v-2l.18.27 38.3-22.07-12.66-21.92H470v-1h25.82l12.67-21.9-38.32-22.1-.18.4v-2l25.26-43.68H470v-1h25.26L470 1V0h1l-.33.18 25.43 44L521.64 0H575l12.64 21.9L625.66 0h1.95l-.3.18 25.44 44L678.28 0h53.34l12.62 21.9L782.27 0h2l-.34.18 25.45 44L834.92 0h53.34l12.6 21.9L938.9 0h1v1l-.18-.34-38.34 22.07.06.1 12.6 21.82h25.83v1h-25.82l-12.67 21.92 38.34 22 .18-.3v2l-25.26 43.7h25.26v1h-25.26l25.23 43.63v2l-.18-.3-38.32 22.08.06.1 12.6 21.83h25.83v1h-25.82l-12.67 21.93 38.34 22 .18-.3v2l-25.26 43.68h25.23v1H914.6l25.27 43.7v1.96l-.18-.3-38.32 22.08.06.1 12.6 21.83h25.83v1h-25.82l-12.67 21.9L939.72 451l.18-.32v1.84l-25.26 43.7H940v.1h25.82l12.67-21.9-38.32-22.1-.18.3v-1.94L965.26 407H940v-1h25.26L940 362.3v-1.96l.18.3 38.3-22.06-12.66-21.92H940v-1h25.82l12.67-21.86-38.32-22.1-.18.3v-2l25.26-43.66H940v-1h25.26L940 181.68v-2l.18.27 38.3-22.07-12.66-21.92H940v-1h25.82l12.67-21.9-38.32-22.1-.18.4v-2l25.26-43.68H940v-1h25.26L940 1V0h1l-.33.18 25.43 44L991.64 0h53.34l12.64 21.9L1095.66 0h1.95l-.3.18 25.44 44L1148.28 0h53.34l12.62 21.9L1252.27 0h2l-.34.18 25.45 44L1304.92 0h53.34l12.6 21.9L1408.9 0h1v1l-.18-.34-38.34 22.07.06.1 12.6 21.82h25.83v1h-25.82l-12.67 21.92 38.34 22 .18-.3v2l-25.26 43.7h25.26v1h-25.26l25.23 43.63v2l-.18-.3-38.32 22.08.06.1 12.6 21.83h25.83v1h-25.82l-12.67 21.93 38.34 22 .18-.3v2l-25.26 43.68h25.23v1h-25.26l25.27 43.7v1.96l-.18-.3-38.32 22.08.06.1 12.6 21.83h25.83v1h-25.82l-12.67 21.9 38.34 22.12.18-.32v1.84l-25.26 43.7H1410v.1h25.82l12.67-21.9-38.32-22.1-.18.3v-1.94l25.26-43.68H1410v-1h25.26L1410 362.3v-1.96l.18.3 38.3-22.06-12.66-21.92H1410v-1h25.82l12.67-21.86-38.32-22.1-.18.3v-2l25.26-43.66H1410v-1h25.26L1410 181.68v-2l.18.27 38.3-22.07-12.66-21.92H1410v-1h25.82l12.67-21.9-38.32-22.1-.18.4v-2l25.26-43.68H1410v-1h25.26L1410 1V0h1l-.33.18 25.43 44L1461.65 0h53.33l12.64 21.9L1565.66 0h1.95l-.3.18 25.44 44L1618.28 0h53.34l12.62 21.9L1722.27 0h2l-.34.18 25.45 44L1774.92 0h53.34l12.6 21.9L1878.9 0h1v1l-.18-.34-38.34 22.07.06.1 12.6 21.82h25.83v1h-25.82l-12.67 21.92 38.34 22 .18-.3v2l-25.26 43.7h25.26v1h-25.26l25.23 43.63v2l-.18-.3-38.32 22.08.06.1 12.6 21.83h25.83v1h-25.82l-12.67 21.93 38.34 22 .18-.3v2l-25.26 43.68h25.23v1h-25.26l25.27 43.7v1.96l-.18-.3-38.32 22.08.06.1 12.6 21.83h25.83v1h-25.82l-12.67 21.9 38.34 22.12.18-.32v1.84l-25.26 43.7H1880v.1h25.82l12.67-21.9-38.32-22.1-.18.3v-1.94l25.26-43.68H1880v-1h25.26L1880 362.3v-1.96l.18.3 38.3-22.06-12.66-21.92H1880v-1h25.82l12.67-21.86-38.32-22.1-.18.3v-2l25.26-43.66H1880v-1h25.26L1880 181.68v-2l.18.27 38.3-22.07-12.66-21.92H1880v-1h25.82l12.67-21.9-38.32-22.1-.18.4v-2l25.26-43.68H1880v-1h25.26L1880 1V0h1l-.33.18 25.43 44L1931.65 0h53.33l12.64 21.9L2035.66 0h1.95l-.3.18 25.44 44L2088.28 0h53.34l12.62 21.9L2192.27 0h2l-.34.18 25.45 44L2244.92 0h53.33l12.62 21.9L2348.9 0h1v1l-.18-.34-38.34 22.07.06.1 12.6 21.82h25.83v1h-25.82l-12.67 21.92 38.34 22 .18-.3v2l-25.26 43.7h25.26v1h-25.26l25.23 43.63v2l-.18-.3-38.32 22.08.06.1 12.6 21.83h25.83v1h-25.82l-12.67 21.93 38.34 22 .18-.3v2l-25.26 43.68h25.23v1h-25.26l25.27 43.7v1.96l-.18-.3-38.32 22.08.06.1 12.6 21.83h25.83v1h-25.82l-12.67 21.9 38.34 22.12.18-.32v1.84l-25.26 43.7H2350v1h-25.26l25.26 43.7v1h-1l.3-.18-25.43-44-11.92 20.64-13.63 23.57H2245l-12.68-21.92-38.04 21.92h-2l.3-.18-25.43-44-11.9 20.64-13.6 23.55h-53.34l-12.66-21.92-38.03 21.92h-1.94l.3-.18-25.44-44-11.9 20.64-13.64 23.58h-53.33l-12.62-21.92L1881 542zm-1 541l.18.3 38.3-22.06-12.66-21.92H1880v-.1h-25.26l25.26 43.7v.08zm-470-541v-.08h-1l.3-.18-25.43-44-11.92 20.64-13.63 23.57H1305l-12.68-21.92-38.04 21.92h-2l.3-.18-25.43-44-11.9 20.64-13.6 23.55h-53.34l-12.66-21.92-38.03 21.92h-1.94l.3-.18-25.44-44-11.9 20.64-13.64 23.58h-53.34l-12.6-21.92L941 542l-.33.18 25.43 44L991.64 542h53.34l12.64 21.9 38.04-21.9h1.95l-.3.18 25.44 44 25.54-44.18h53.34l12.62 21.9 38.03-21.9h2l-.34.18 25.45 44 25.54-44.18h53.34l12.6 21.9 38.04-21.9h1v1l-.18-.34-38.34 22.07.06.1 12.6 21.82h25.83v1h-25.82l-12.67 21.92 38.34 22 .18-.3v2l-25.26 43.7h25.26v1h-25.26l25.23 43.63v2l-.18-.3-38.32 22.08.06.1 12.6 21.83h25.83v1h-25.82l-12.67 21.93 38.34 22 .18-.3v2l-25.26 43.68h25.23v1h-25.26l25.27 43.7v1.96l-.18-.3-38.32 22.08.06.1 12.6 21.83h25.83v1h-25.82l-12.67 21.9 38.34 22.12.18-.33v1.86l-25.26 43.7H1410v.1h25.82l12.67-21.92-38.32-22.08-.18.3v-1.95l25.26-43.67H1410v-1h25.26L1410 904.3v-1.96l.18.3 38.3-22.06-12.66-21.92H1410v-1h25.82l12.67-21.86-38.32-22.1-.18.3v-2l25.26-43.66H1410v-1h25.26L1410 723.68v-2l.18.27 38.3-22.07-12.66-21.92H1410v-1h25.82l12.67-21.9-38.32-22.08-.18.38v-2l25.26-43.68H1410v-1h25.26L1410 543v-1zm0 541l.18.3 38.3-22.06-12.66-21.92H1410v-.1h-25.26l25.26 43.7v.08zM940 542v-.08h-1l.3-.18-25.43-44-11.92 20.64-13.63 23.57H835l-12.68-21.92-38.04 21.92h-2l.3-.18-25.43-44-11.9 20.64-13.6 23.55H678.3l-12.66-21.92-38.03 21.92h-1.94l.3-.18-25.44-44-11.9 20.64L574.97 542h-53.34l-12.6-21.92L471 542l-.33.18 25.43 44L521.64 542H575l12.64 21.9 38.04-21.9h1.95l-.3.18 25.44 44L678.28 542h53.34l12.62 21.9 38.03-21.9h2l-.34.18 25.45 44L834.92 542h53.34l12.6 21.9L938.9 542h1v1l-.18-.34-38.34 22.07.06.1 12.6 21.82h25.83v1h-25.82l-12.67 21.92 38.34 22 .18-.3v2l-25.26 43.7h25.26v1h-25.26l25.23 43.63v2l-.18-.3-38.32 22.08.06.1 12.6 21.83h25.83v1h-25.82l-12.67 21.93 38.34 22 .18-.3v2l-25.26 43.68h25.23v1H914.6l25.27 43.7v1.96l-.18-.3-38.32 22.08.06.1 12.6 21.83h25.83v1h-25.82l-12.67 21.9L939.72 993l.18-.33v1.86l-25.26 43.7H940v.1h25.82l12.67-21.92-38.32-22.08-.18.3v-1.95L965.26 949H940v-1h25.26L940 904.3v-1.96l.18.3 38.3-22.06-12.66-21.92H940v-1h25.82l12.67-21.86-38.32-22.1-.18.3v-2l25.26-43.66H940v-1h25.26L940 723.68v-2l.18.27 38.3-22.07-12.66-21.92H940v-1h25.82l12.67-21.9L940.17 633l-.18.38v-2l25.26-43.68H940v-1h25.26L940 543v-1zm0 541l.18.3 38.3-22.06-12.66-21.92H940v-.1h-25.26l25.26 43.7v.08zM470 542v-.08h-1l.3-.18-25.43-44-11.92 20.64-13.63 23.57H365l-12.68-21.92-38.04 21.92h-2l.3-.18-25.43-44-11.9 20.64-13.6 23.55H208.3l-12.66-21.92-38.03 21.92h-1.94l.3-.18-25.44-44-11.9 20.64L104.97 542H51.64l-12.6-21.92L1 542l-.33.18 25.43 44L51.65 542h53.33l12.64 21.9 38.04-21.9h1.95l-.3.18 25.44 44L208.28 542h53.34l12.62 21.9 38.03-21.9h2l-.34.18 25.45 44L364.92 542h53.33l12.62 21.9L468.9 542h1v1l-.18-.34-38.34 22.07.06.1 12.6 21.82h25.83v1h-25.82l-12.67 21.92 38.34 22 .18-.3v2l-25.26 43.7h25.26v1h-25.26l25.23 43.63v2l-.18-.3-38.32 22.08.06.1 12.6 21.83h25.83v1h-25.82l-12.67 21.93 38.34 22 .18-.3v2l-25.26 43.68h25.23v1H444.6l25.27 43.7v1.96l-.18-.3-38.32 22.08.06.1 12.6 21.83h25.83v1h-25.82l-12.67 21.9L469.72 993l.18-.33v1.86l-25.26 43.7H470v.1h25.82l12.67-21.92-38.32-22.08-.18.3v-1.95L495.26 949H470v-1h25.26L470 904.3v-1.96l.18.3 38.3-22.06-12.66-21.92H470v-1h25.82l12.67-21.86-38.32-22.1-.18.3v-2l25.26-43.66H470v-1h25.26L470 723.68v-2l.18.27 38.3-22.07-12.66-21.92H470v-1h25.82l12.67-21.9L470.17 633l-.18.38v-2l25.26-43.68H470v-1h25.26L470 543v-1zm0 497.22h-25.26l25.26 43.7v.08l.18.3 38.3-22.06-12.66-21.92H470v-.1zm1410-542h-25.26l25.26 43.7v.08l.18.3 38.3-22.06-12.66-21.92H1880v-.1zM1410 541l.18.3 38.3-22.06-12.66-21.92H1410v-.1h-25.26l25.26 43.7v.08zm-470-43.78h-25.26l25.26 43.7v.08l.18.3 38.3-22.06-12.66-21.92H940v-.1zM470 541l.18.3 38.3-22.06-12.66-21.92H470v-.1h-25.26l25.26 43.7v.08zM365.8.5l-12.7 21.9 38.3 22.1 25.45-44H365.8zm-235 225.8l-12.7 21.93 38.32 22.07 25.44-44H130.8zm0-1l51.15-.02-25.44-44-38.3 22.1v.1l12.6 21.83zm104.81.32l38.33 22.12 12.67-21.9-12.86-22.27-12.68-21.94-25.44 44zm37.84 22.93l-38.28-22.06-25.43 43.98h51.05l12.66-21.93zm-38.66-23.42l25.45-44h-51.1l-12.67 21.9 38.31 22.1zm-.5.84l-38.3-22.03-12.68 21.83 2.25 3.88 23.3 40.3 25.43-43.98zm-37.3 25.45l-14.24-24.6-25.44 44 38.3 22.1 1.06-1.87 11.62-20.1-11.3-19.53zm-40.16 20.2l-25.4 44.04h51.04l12.7-21.9-38.34-22.13zm25.64 45l-51.03.04 25.43 44 38.3-22.1-12.7-21.95zm.84-.5l12.67 21.95 38.3-22.1-25.43-44-11 19-14.54 25.15zm51.47.67l-38.3 22.1 12.65 21.88h51.1l-25.45-44zm-25.08-45.36l25.4 44 38.3-22.08-12.66-21.92H209.7zm51.92-.5l25.54 44.18 25.44-44-38.3-22.08-12.68 21.9zm26.4 44.7l51.08.02 12.66-21.92-38.32-22.1-25.43 44zm63.74 22.9l-12.7-21.9H288l25.44 43.98 38.32-22.1zm-37.83-67.77l38.32 22.15 1.06-1.84 11.62-20.1-11.3-19.54-14.24-24.65-25.45 43.97zm-.84-.47l25.38-44.02h-51.04l-12.66 21.92 38.3 22.1zm-25.66-45l51.13-.02-25.44-44-38.3 22.1v.1l12.6 21.83zm.57-89.35l25.44 44 38.28-22.08-12.66-21.92H288zm24.6 44.5l-25.45-43.98-11.9 20.62-13.63 23.53 12.67 21.9 38.3-22.08zm-38.52-23.3l12.53-21.64-12.66-21.9-38.3 22.1 25.43 43.98 13-22.52zm-13.86 23l-25.45-44-38.3 22.1 12.65 21.9h51.1zm-51.94.5l-12.67-21.9-38.3 22.1 25.44 43.98 25.54-44.2zm-51.47-.7l38.37-22.05-12.75-21.94h-51.04l25.43 44zm-.83.5l-25.45-44.02-11.9 20.62-13.64 23.57 12.67 21.9 38.32-22.08zm-38.53-23.3l12.53-21.64-12.67-21.9L79 135.7l25.43 43.98 13-22.52zm-.34 46.42l-12.68-21.9-25.44 43.98 38.3 22.1 12.68-21.92-12.86-22.26zm-.3 45L78.5 226.5l-25.45 44h51.1l12.66-21.94zm.85.48l-12.67 21.88 25.54 44.2 25.45-44-38.32-22.08zm12.3 67.08l-12.65-21.87-38.3 22.1 25.43 43.98 13-22.53 12.53-21.67zm-11.34 21.6L105 361.27l12.67 21.9 38.32-22.08-25.45-44-11.9 20.63zm37.86 24.23l-38.23 22.06v.1l12.62 21.83h51.05l-25.44-44zm.84-.5l25.44 44.03 25.54-44.2-12.67-21.92-38.3 22.1zm51.82.32l-12.65 21.9 38.31 22.1 25.45-44h-51.1zm26.5-45.47l25.45 44.04 13-22.53 12.53-21.67-12.67-21.9-38.31 22.08zm39.62 21.45L261.6 361.3l12.68 21.9 38.3-22.1-25.43-43.98-11.9 20.63zm37.83 24.23l-38.2 22.06v.1l12.6 21.83h51.04l-25.43-44zm.85-.5l25.45 44.03 25.54-44.18-12.66-21.92-38.32 22.1zm39.18-22.57l12.7 21.9h51.04l-25.44-44-38.3 22.1zm-.5-.84L390.93 316l-25.44-44-11 19-14.54 25.14 12.67 21.92zM342.2 229.7l23.3 40.32 25.44-43.98-38.3-22.1-12.68 21.9 2.24 3.87zm-2.8-4.85l25.54-44.17-12.67-21.9-38.32 22.08 25.45 44zm13.72-66.6l12.7 21.9h51.04l-25.44-44-38.3 22.1zm-.5-.84l38.32-22.06-25.44-43.98-11 19-14.54 25.13 12.67 21.9zm-13.5-22.44l12.7-21.9-38.32-22.1-25.43 44h51.05zm-51.94-.48L312.6 90.5l-38.3-22.1-12.68 21.92 25.54 44.16zm-26.38-44.63l12.7-21.9-38.32-22.1-25.43 44h51.05zm0 1l-51.1.03 25.44 43.98 38.32-22.1-12.66-21.92zm-26.5 44.5l-25.44-43.96-11 18.98-14.54 25.14 12.67 21.92 38.3-22.1zm-51.82-.4l12.7-21.86-38.3-22.13-25.45 44h51.06zm-51.94-.47l25.45-43.97-38.32-22.1-12.67 21.92 25.54 44.16zm-26.38-44.63l12.66-21.9-38.3-22.1-25.45 44h51.1zm0 1l-51.1-.03 25.46 44 38.3-22.06-12.66-21.92zm-.56 89.35l-25.44-44.04-38.31 22.1 12.7 21.94h51.05zm-51.04 1l-12.7 21.9 38.3 22.1 25.44-44H52.54zm25.15 44.85l-38.37-22.1-12.66 21.88 2.24 3.88 23.36 40.34 25.43-44zm26.48 45.47l-51.13-.04 25.5 44.05 38.3-22.1-12.67-21.9zm-.56 89.36L78.14 316.8l-38.31 22.1 12.75 21.98h51.04zm-51.04 1l-12.7 21.9 38.3 22.1 25.44-44H52.58zm25.15 44.86l-38.4-22.18-12.66 21.92 2.24 3.9 23.4 40.35 25.43-44zm-24.68 44.4l51.08.04 12.67-21.92-38.3-22.1-25.45 44zm63.74 22.9l-12.7-21.9H53.04l25.44 44 38.3-22.1zm-37.82-67.73l38.3 22.1 12.68-21.92-12.86-22.25-12.68-21.9-25.44 43.98zm51.83.67l-12.7 21.9 38.32 22.08 25.44-43.98H130.8zm26.04 45.34l-25.43 44.02h51.06l12.7-21.9-38.32-22.1zm.48-.84l38.3 22.12 1.06-1.82 11.62-20.1-11.3-19.53-14.24-24.65-25.44 43.98zm28.25-41.1l23.3 40.28 25.43-43.98-38.3-22.1-12.68 21.92 2.25 3.9zm24.14 40.8h51.1l12.66-21.9-38.3-22.1-25.45 44zm63.76 22.9l-12.7-21.9H209.7l25.45 43.98 38.3-22.1zm-37.82-67.75l38.3 22.13 12.68-21.92-12.86-22.24-12.68-21.94-25.44 44zm51.82.67l-12.68 21.9 38.3 22.08 25.43-43.98h-51.04zm26.02 45.34l-25.43 44.02h51.05l12.7-21.9-38.32-22.1zm.5-.84l38.28 22.1 1.05-1.82 11.66-20.07-11.3-19.54-14.24-24.65-25.45 43.98zm28.24-41.1l23.3 40.28 25.44-43.98-38.3-22.1-12.68 21.92 2.24 3.9zm24.1 40.8h51.04l12.7-21.9-38.3-22.1-25.44 44zm63.75 22.9l-12.7-21.9H366.3l25.44 43.98 38.31-22.1zM391.4 405.8l25.4-44.02h-51.04l-12.66 21.92 38.3 22.1zm.85-89.5l25.45 44.02 13.02-22.53 12.52-21.65-12.67-21.9-38.32 22.08zm-.5-.84l38.3-22.07-12.7-21.9h-51.03l25.44 43.98zm-25.43-45l51.04.02 12.7-21.9-38.3-22.1-25.44 44zm25.08-45.33l25.4-44h-51.04l-12.66 21.9 38.3 22.1zm.85-89.5l25.45 44.03 13.02-22.52 12.52-21.68-12.67-21.9-38.32 22.08zm-.5-.83l38.3-22.1-12.7-21.9h-51.03l25.44 44zm-25.43-44.97h51.04l12.7-21.9-38.3-22.1-25.44 44zm-13.7-66.6l-12.68 21.92 2.24 3.88 23.3 40.28 25.44-43.98-38.3-22.1zm-13.24 22.9l-25.45 44 38.33 22.1 1.05-1.83 11.62-20.1-11.3-19.53-14.24-24.66zm-26.3 43.52l25.4-44.02h-51.04l-12.66 21.92 38.3 22.1zm0-88.98l-38.2 22.06v.1l12.6 21.82h51.06L313.1.68zm-39.34 22.2L261.06 1l-25.44 44 38.3 22.08 12.68-21.9-12.86-22.27zM209.12.5l-12.65 21.88 38.31 22.1 25.45-44h-51.1zm-13.15 22.74L183.3 45.17l2.25 3.88 23.3 40.28 25.43-43.98-38.3-22.1zm-13.23 22.9l-25.44 44 38.3 22.1 1.06-1.82 11.62-20.1-11.3-19.53-14.24-24.66zm-26.28 43.53l25.4-44.02H130.8l-12.7 21.92 38.36 22.1zm0-88.98L118.2 22.75v.1l12.65 21.82h51.05l-25.44-44zM117.1 22.9L104.42 1 78.98 45l38.3 22.08 12.68-21.9L117.1 22.9zM52.5.5L39.83 22.4 78.1 44.48l25.44-44H52.5zM39.33 23.23L26.67 45.17l2.24 3.88 23.32 40.28 25.43-43.98-38.32-22.1zM.67 90.14l38.36 22.1 1-1.82 11.62-20.1-11.3-19.53L26.1 46.15.67 90.14zM26.7 135.5l12.63 21.9 38.33-22.06-25.43-43.98-11 19-14.54 25.13zM.66 180.83l25.43 44 25.55-44.18-12.62-21.9L.67 180.83zm0 89.97l38.36 22.12 1-1.84 11.62-20.1-11.3-19.5-14.25-24.65L.67 270.8zm26.02 45.36l12.63 21.9 38.33-22.05-25.43-43.98-11 19-14.54 25.14zM.66 361.5l25.43 44 25.55-44.18-12.62-21.92L.67 361.5zm0 89.98l38.36 22.08 1-1.82 11.62-20.1-11.3-19.5L26.1 407.5.67 451.47zm26.02 45.34l12.63 21.9 38.3-22.1-25.42-44-11 19.05-14.5 25.15zM52.5 541.5l51.06-.04-25.44-44-38.31 22.12 12.7 21.92zm64.94-23l12.5-21.64-12.67-22-38.3 22.2 25.45 43.98 13-22.53zM105 451.7l25.52 44.16 25.45-44-38.3-22.1L105 451.7zm51.83 89.65l38.34-22.13-12.73-21.86H131.4l25.43 44zm26.47-44.5l12.67 21.9 38.3-22.1-25.43-43.97-11 19.04-14.54 25.14zm25.82 44.7l51.1-.04-25.45-43.98-38.3 22.1 12.65 21.92zm64.96-23l12.52-21.7-12.67-21.98-38.3 22.22 25.44 43.98 13-22.53zm-12.46-66.82l25.54 44.13 25.44-44-38.3-22.05-12.68 21.93zm51.82 89.66l38.28-22.08-12.66-21.92H288l25.44 44zm26.5-44.54l12.67 21.9 38.32-22.1-25.44-44-11 19.06-14.54 25.14zm25.82 44.68l51.08-.03-25.44-43.98-38.3 22.1 12.66 21.92zm64.96-23l12.52-21.68-12.67-22-38.3 22.23 25.43 43.98 13.02-22.53zm38.52-66.66l-38.3-22.12-12.7 21.92 25.56 44.18 25.44-44zm-26.02-45.35l-12.85-22.3-12.7-21.86-25.44 44 38.32 22.08 12.67-21.92zm26.02-45.34l-25.44-44.03-11.92 20.63-13.63 23.57 12.67 21.9 38.32-22.08zm0-90l-38.3-22.1-12.7 21.9 25.56 44.2 25.44-44zm-26.02-45.32l-12.85-22.3-12.7-21.87-25.44 44 38.32 22.1 12.67-21.92zm26.02-45.35l-25.44-44-11.92 20.6-13.63 23.58 12.67 21.92 38.32-22.1zm0-89.97l-38.3-22.15-12.7 21.92 25.56 44.22 25.44-43.98zm-26.02-45.34l-12.85-22.3L417.7 1l-25.45 44 38.32 22.08 12.65-21.86zM835.82.52L823.1 22.4l38.3 22.1 25.43-44H835.8zm-235 225.8l-12.72 21.9 38.32 22.08 25.44-44H600.8zm0-1l51.13-.04-25.44-44-38.3 22.1v.1l12.6 21.83zm104.8.3l38.3 22.12 12.68-21.9-12.86-22.27-12.68-21.94-25.44 44zm37.82 22.93l-38.28-22.06-25.43 43.98h51.05l12.66-21.93zm-38.67-23.42l25.46-44h-51.1l-12.67 21.9 38.3 22.1zm-.5.84l-38.3-22.03-12.67 21.83 2.25 3.88 23.3 40.3 25.43-43.98zM667 251.42l-14.26-24.6-25.44 44 38.3 22.1 1.06-1.87 11.62-20.1-11.3-19.53zm-40.18 20.2l-25.4 44.04h51.04l12.7-21.9-38.34-22.13zm25.64 45l-51.04.04 25.44 44 38.3-22.1-12.7-21.95zm.84-.5l12.67 21.95 38.3-22.1-25.43-44-11 19-14.54 25.15zm51.48.67l-38.32 22.1 12.66 21.88h51.1l-25.45-44zm-25.1-45.36l25.4 44 38.32-22.08-12.66-21.92H679.7zm51.94-.5l25.54 44.18 25.44-44-38.3-22.08-12.68 21.9zm26.4 44.7l51.08.02 12.66-21.92-38.32-22.1-25.43 44zm63.74 22.9l-12.7-21.9H758l25.44 43.98 38.32-22.1zm-37.83-67.77l38.32 22.15 1.06-1.84 11.62-20.1-11.3-19.54-14.24-24.65-25.45 43.97zm-.84-.47l25.38-44.02h-51.04l-12.66 21.92 38.3 22.1zm-25.66-45l51.13-.02-25.44-44-38.3 22.1v.1l12.6 21.83zm.57-89.35l25.44 44 38.28-22.08-12.66-21.92H758zm24.6 44.5l-25.45-43.98-11.9 20.62-13.63 23.53 12.67 21.9 38.3-22.08zm-38.52-23.3l12.53-21.64-12.66-21.9-38.32 22.1 25.45 43.98 13-22.52zm-13.86 23l-25.45-44-38.3 22.1 12.65 21.9h51.1zm-51.94.5l-12.67-21.9-38.3 22.1 25.44 43.98 25.54-44.2zm-51.47-.7l38.37-22.05-12.75-21.94h-51.04l25.43 44zm-.83.5l-25.45-44.02-11.9 20.62-13.64 23.57 12.67 21.9 38.32-22.08zm-38.53-23.3l12.53-21.64-12.67-21.9-38.3 22.1 25.43 43.98 13-22.52zm-.34 46.42l-12.68-21.9-25.44 43.98 38.3 22.1 12.68-21.92-12.86-22.26zm-.3 45l-38.3-22.07-25.45 44h51.1l12.66-21.94zm.85.48l-12.67 21.88 25.54 44.2 25.45-44-38.32-22.08zm12.3 67.08l-12.65-21.87-38.3 22.1 25.43 43.98 13-22.53 12.53-21.67zm-11.34 21.6L575 361.27l12.67 21.9 38.32-22.08-25.45-44-11.9 20.63zm37.86 24.23l-38.23 22.06v.1l12.62 21.83h51.05l-25.44-44zm.84-.5l25.44 44.03 25.54-44.2-12.67-21.92-38.3 22.1zm51.82.32l-12.65 21.9 38.3 22.1 25.46-44h-51.1zm26.5-45.47l25.45 44.04 13-22.53 12.53-21.67-12.67-21.9-38.3 22.08zm39.62 21.45L731.6 361.3l12.68 21.9 38.3-22.1-25.43-43.98-11.9 20.63zm37.83 24.23l-38.2 22.06v.1l12.6 21.83h51.04l-25.43-44zm.85-.5l25.45 44.03 25.54-44.18-12.66-21.92-38.32 22.1zm39.18-22.57l12.7 21.9h51.04l-25.44-44-38.3 22.1zm-.5-.84L860.93 316l-25.44-44-11 19-14.54 25.14 12.67 21.92zM812.2 229.7l23.3 40.32 25.44-43.98-38.3-22.1-12.68 21.9 2.24 3.87zm-2.8-4.85l25.54-44.17-12.67-21.9-38.32 22.08 25.45 44zm13.72-66.6l12.7 21.9h51.04l-25.44-44-38.3 22.1zm-.5-.84l38.32-22.06-25.44-43.98-11 19-14.54 25.13 12.67 21.9zm-13.5-22.44l12.7-21.9-38.32-22.1-25.43 44h51.05zm-51.94-.48L782.6 90.5l-38.3-22.1-12.68 21.92 25.54 44.16zm-26.38-44.63l12.7-21.9-38.32-22.1-25.43 44h51.05zm0 1l-51.1.03 25.45 43.98 38.3-22.1-12.65-21.92zm-26.5 44.5l-25.44-43.96-11 18.98-14.54 25.14 12.67 21.92 38.3-22.1zm-51.82-.4l12.7-21.86-38.3-22.13-25.45 44h51.06zm-51.94-.47l25.45-43.97-38.32-22.1-12.67 21.92 25.54 44.16zm-26.38-44.63l12.66-21.9-38.3-22.1-25.45 44h51.1zm0 1l-51.1-.03 25.46 44 38.3-22.06-12.66-21.92zm-.56 89.35l-25.44-44.04-38.31 22.1 12.7 21.94h51.05zm-51.04 1l-12.7 21.9 38.3 22.1 25.44-44h-51.04zm25.15 44.85l-38.37-22.1-12.66 21.88 2.25 3.88 23.34 40.34 25.43-44zm26.48 45.47l-51.13-.04 25.5 44.05 38.3-22.1-12.67-21.9zm-.56 89.36l-25.48-44.07-38.31 22.1 12.75 21.98h51.04zm-51.04 1l-12.72 21.9 38.32 22.1 25.44-44h-51.04zm25.15 44.86l-38.4-22.18-12.66 21.92 2.25 3.9 23.38 40.35 25.43-44zm-24.68 44.4l51.08.04 12.67-21.92-38.3-22.1-25.45 44zm63.74 22.9l-12.7-21.9h-51.05l25.44 44 38.3-22.1zm-37.82-67.73l38.3 22.1 12.68-21.92-12.86-22.25-12.68-21.9-25.44 43.98zm51.83.67l-12.7 21.9 38.32 22.08 25.44-43.98H600.8zm26.04 45.34l-25.43 44.02h51.06l12.7-21.9-38.32-22.1zm.48-.84l38.3 22.12 1.06-1.82 11.62-20.1-11.3-19.53-14.24-24.65-25.44 43.98zm28.25-41.1l23.3 40.28 25.43-43.98-38.3-22.1-12.68 21.92 2.25 3.9zm24.14 40.8h51.1l12.66-21.9-38.32-22.1-25.43 44zm63.76 22.9l-12.7-21.9H679.7l25.44 43.98 38.32-22.1zm-37.83-67.75l38.32 22.13 12.67-21.92-12.86-22.24-12.68-21.94-25.45 44zm51.83.67l-12.68 21.9 38.3 22.08 25.42-43.98h-51.04zm26.02 45.34l-25.43 44.02h51.05l12.7-21.9-38.32-22.1zm.5-.84l38.28 22.1 1.05-1.82 11.66-20.07-11.3-19.54-14.24-24.65-25.45 43.98zm28.24-41.1l23.3 40.28 25.44-43.98-38.3-22.1-12.68 21.92 2.24 3.9zm24.1 40.8h51.04l12.72-21.9-38.32-22.1-25.44 44zm63.75 22.9l-12.7-21.9H836.3l25.44 43.98 38.32-22.1zM861.4 405.8l25.4-44.02h-51.04l-12.66 21.92 38.3 22.1zm.85-89.5l25.45 44.02 13.02-22.53 12.52-21.65-12.67-21.9-38.32 22.08zm-.5-.84l38.28-22.07-12.67-21.9h-51.04l25.44 43.98zm-25.43-45l51.04.02 12.72-21.9-38.32-22.1-25.44 44zm25.08-45.33l25.4-44h-51.04l-12.66 21.9 38.3 22.1zm.85-89.5l25.45 44.03 13.02-22.52 12.52-21.68-12.67-21.9-38.32 22.08zm-.5-.83l38.28-22.1-12.67-21.9h-51.04l25.44 44zm-25.43-44.97h51.04l12.72-21.9-38.32-22.1-25.44 44zm-13.7-66.6l-12.68 21.92 2.24 3.88 23.3 40.28 25.44-43.98-38.3-22.1zm-13.24 22.9l-25.45 44 38.33 22.1 1.05-1.83 11.62-20.1-11.3-19.53-14.24-24.66zm-26.3 43.52l25.4-44.02h-51.04l-12.66 21.92 38.3 22.1zm0-88.98l-38.2 22.06v.1l12.6 21.82h51.05L783.1.68zm-39.34 22.2L731.06 1l-25.44 44 38.3 22.08 12.68-21.9-12.86-22.27zM679.12.5l-12.65 21.88 38.3 22.1 25.46-44h-51.1zm-13.15 22.74L653.3 45.17l2.25 3.88 23.3 40.28 25.43-43.98-38.3-22.1zm-13.23 22.9l-25.44 44 38.3 22.1 1.06-1.82 11.62-20.1-11.3-19.53-14.24-24.66zm-26.28 43.53l25.4-44.02H600.8l-12.7 21.92 38.36 22.1zm0-88.98L588.2 22.75v.1l12.65 21.82h51.05l-25.44-44zM587.1 22.9L574.42 1l-25.44 44 38.3 22.08 12.68-21.9L587.1 22.9zM522.5.5l-12.68 21.9 38.28 22.08 25.44-44H522.5zm-13.17 22.74l-12.66 21.93 2.25 3.88 23.3 40.28 25.43-43.98-38.32-22.1zm-38.66 66.9l38.36 22.1 1-1.82 11.62-20.1-11.3-19.53-14.25-24.64-25.43 43.98zm26.02 45.35l12.63 21.9 38.33-22.06-25.43-43.98-11 19-14.54 25.13zm-26.03 45.34l25.43 44 25.54-44.18-12.6-21.9-38.37 22.08zm0 89.97l38.36 22.12 1-1.84 11.62-20.1-11.3-19.5-14.25-24.65-25.43 43.98zm26.02 45.36l12.63 21.9 38.33-22.05-25.43-43.98-11 19-14.54 25.14zm-26.03 45.34l25.43 44 25.54-44.18-12.6-21.92-38.37 22.1zm0 89.98l38.36 22.08 1-1.82 11.62-20.1-11.3-19.5-14.25-24.65-25.43 43.98zm26.02 45.34l12.63 21.9 38.3-22.1-25.42-44-11 19.05-14.5 25.15zm25.82 44.68l51.06-.04-25.44-44-38.31 22.12 12.7 21.92zm64.94-23l12.5-21.64-12.67-22-38.3 22.2 25.45 43.98 13-22.53zM575 451.7l25.52 44.16 25.45-44-38.3-22.1L575 451.7zm51.83 89.65l38.34-22.13-12.73-21.86H601.4l25.43 44zm26.47-44.5l12.67 21.9 38.3-22.1-25.43-43.97-11 19.04-14.54 25.14zm25.82 44.7l51.1-.04-25.45-43.98-38.3 22.1 12.65 21.92zm64.96-23l12.52-21.7-12.67-21.98-38.3 22.22 25.44 43.98 13-22.53zm-12.46-66.82l25.54 44.13 25.44-44-38.3-22.05-12.68 21.93zm51.82 89.66l38.28-22.08-12.66-21.92H758l25.44 44zm26.5-44.54l12.67 21.9 38.32-22.1-25.44-44-11 19.06-14.54 25.14zm25.82 44.68l51.08-.03-25.44-43.98-38.3 22.1 12.66 21.92zm64.96-23l12.52-21.68-12.67-22-38.3 22.23 25.43 43.98 13.02-22.53zm38.52-66.66l-38.3-22.12-12.7 21.92 25.56 44.18 25.44-44zm-26.02-45.35l-12.85-22.3-12.7-21.86-25.44 44 38.32 22.08 12.67-21.92zm26.02-45.34l-25.44-44.03-11.92 20.63-13.63 23.57 12.67 21.9 38.32-22.08zm0-90l-38.3-22.1-12.7 21.9 25.56 44.2 25.44-44zm-26.02-45.32l-12.85-22.3-12.7-21.87-25.44 44 38.32 22.1 12.67-21.92zm26.02-45.35l-25.44-44-11.92 20.6-13.63 23.58 12.67 21.92 38.32-22.1zm0-89.97l-38.3-22.15-12.7 21.92 25.56 44.22 25.44-43.98zm-26.02-45.34l-12.85-22.3L887.7 1l-25.45 44 38.32 22.08 12.65-21.86zm392.6-44.7l-12.7 21.88 38.3 22.1 25.43-44h-51.04zm-235 225.8l-12.72 21.9 38.32 22.08 25.44-44h-51.05zm0-1l51.13-.04-25.44-44-38.3 22.1v.1l12.6 21.83zm104.8.3l38.3 22.12 12.68-21.9-12.86-22.27-12.68-21.94-25.44 44zm37.82 22.93l-38.27-22.06-25.44 43.98h51.05l12.66-21.93zm-38.67-23.42l25.46-44h-51.1l-12.67 21.9 38.3 22.1zm-.5.84l-38.3-22.03-12.67 21.83 2.25 3.88 23.3 40.3 25.43-43.98zM1137 251.42l-14.26-24.6-25.44 44 38.3 22.1 1.06-1.87 11.62-20.1-11.3-19.53zm-40.18 20.2l-25.4 44.04h51.04l12.7-21.9-38.34-22.13zm25.64 45l-51.04.04 25.44 44 38.3-22.1-12.7-21.95zm.84-.5l12.67 21.95 38.3-22.1-25.43-44-11 19-14.54 25.15zm51.47.67l-38.3 22.1 12.65 21.88h51.1l-25.45-44zm-25.08-45.36l25.4 44 38.3-22.08-12.66-21.92h-51.05zm51.92-.5l25.54 44.18 25.44-44-38.3-22.08-12.68 21.9zm26.4 44.7l51.08.02 12.66-21.92-38.32-22.1-25.43 44zm63.74 22.9l-12.7-21.9H1228l25.44 43.98 38.32-22.1zm-37.83-67.77l38.32 22.15 1.06-1.84 11.62-20.1-11.3-19.54-14.24-24.65-25.45 43.97zm-.84-.47l25.38-44.02h-51.04l-12.66 21.92 38.3 22.1zm-25.66-45l51.13-.02-25.44-44-38.3 22.1v.1l12.6 21.83zm.57-89.35l25.44 44 38.28-22.08-12.66-21.92H1228zm24.6 44.5l-25.45-43.98-11.9 20.62-13.63 23.53 12.67 21.9 38.3-22.08zm-38.52-23.3l12.53-21.64-12.66-21.9-38.3 22.1 25.43 43.98 13-22.52zm-13.86 23l-25.45-44-38.3 22.1 12.65 21.9h51.1zm-51.94.5l-12.67-21.9-38.3 22.1 25.44 43.98 25.54-44.2zm-51.47-.7l38.37-22.05-12.75-21.94h-51.05l25.44 44zm-.83.5l-25.45-44.02-11.9 20.62-13.64 23.57 12.67 21.9 38.32-22.08zm-38.53-23.3l12.53-21.64-12.67-21.9-38.3 22.1 25.43 43.98 13-22.52zm-.34 46.42l-12.68-21.9-25.44 43.98 38.3 22.1 12.68-21.92-12.86-22.26zm-.3 45l-38.3-22.07-25.45 44h51.1l12.66-21.94zm.85.48l-12.67 21.88 25.54 44.2 25.45-44-38.32-22.08zm12.3 67.08l-12.65-21.87-38.3 22.1 25.43 43.98 13-22.53 12.53-21.67zm-11.34 21.6L1045 361.27l12.67 21.9 38.32-22.08-25.45-44-11.9 20.63zm37.86 24.23l-38.23 22.06v.1l12.62 21.83h51.05l-25.44-44zm.84-.5l25.44 44.03 25.54-44.2-12.67-21.92-38.3 22.1zm51.82.32l-12.65 21.9 38.3 22.1 25.46-44h-51.1zm26.5-45.47l25.45 44.04 13-22.53 12.53-21.67-12.67-21.9-38.3 22.08zm39.62 21.45l-13.63 23.54 12.68 21.9 38.3-22.1-25.43-43.98-11.9 20.63zm37.83 24.23l-38.2 22.06v.1l12.6 21.83h51.05l-25.45-44zm.85-.5l25.45 44.03 25.54-44.18-12.66-21.92-38.32 22.1zm39.18-22.57l12.7 21.9h51.04l-25.44-44-38.3 22.1zm-.5-.84l38.32-22.07-25.44-44-11 19-14.54 25.14 12.67 21.92zM1282.2 229.7l23.3 40.32 25.44-43.98-38.3-22.1-12.68 21.9 2.24 3.87zm-2.8-4.85l25.54-44.17-12.67-21.9-38.32 22.08 25.45 44zm13.72-66.6l12.7 21.9h51.04l-25.44-44-38.3 22.1zm-.5-.84l38.32-22.06-25.44-43.98-11 19-14.54 25.13 12.67 21.9zm-13.5-22.44l12.7-21.9-38.32-22.1-25.43 44h51.05zm-51.94-.48l25.44-43.97-38.3-22.1-12.68 21.92 25.54 44.16zm-26.38-44.63l12.7-21.9-38.3-22.1-25.45 44h51.05zm0 1l-51.1.03 25.45 43.98 38.3-22.1-12.65-21.92zm-26.5 44.5l-25.44-43.96-11 18.98-14.54 25.14 12.67 21.92 38.3-22.1zm-51.82-.4l12.7-21.86-38.3-22.13-25.45 44h51.06zm-51.94-.47l25.45-43.97-38.32-22.1-12.67 21.92 25.54 44.16zm-26.38-44.63l12.66-21.9-38.3-22.1-25.45 44h51.1zm0 1l-51.1-.03 25.46 44 38.3-22.06-12.66-21.92zm-.56 89.35l-25.44-44.04-38.3 22.1 12.7 21.94h51.04zm-51.04 1l-12.7 21.9 38.3 22.1 25.44-44h-51.04zm25.15 44.85l-38.37-22.1-12.66 21.88 2.25 3.88 23.34 40.34 25.43-44zm26.48 45.47l-51.13-.04 25.5 44.05 38.3-22.1-12.67-21.9zm-.56 89.36l-25.48-44.07-38.3 22.1 12.74 21.98h51.04zm-51.04 1l-12.72 21.9 38.32 22.1 25.44-44h-51.04zm25.15 44.86l-38.4-22.18-12.66 21.92 2.25 3.9 23.38 40.35 25.43-44zm-24.68 44.4l51.08.04 12.67-21.92-38.3-22.1-25.45 44zm63.74 22.9l-12.7-21.9h-51.05l25.44 44 38.3-22.1zm-37.82-67.73l38.3 22.1 12.68-21.92-12.86-22.25-12.68-21.9-25.44 43.98zm51.83.67l-12.7 21.9 38.32 22.08 25.44-43.98h-51.05zm26.04 45.34l-25.43 44.02h51.06l12.7-21.9-38.32-22.1zm.48-.84l38.3 22.12 1.06-1.82 11.62-20.1-11.3-19.53-14.24-24.65-25.44 43.98zm28.25-41.1l23.3 40.28 25.43-43.98-38.3-22.1-12.68 21.92 2.25 3.9zm24.14 40.8h51.1l12.66-21.9-38.3-22.1-25.45 44zm63.76 22.9l-12.7-21.9h-51.05l25.45 43.98 38.3-22.1zm-37.82-67.75l38.3 22.13 12.68-21.92-12.86-22.24-12.68-21.94-25.44 44zm51.82.67l-12.68 21.9 38.3 22.08 25.43-43.98h-51.04zm26.02 45.34l-25.43 44.02h51.05l12.7-21.9-38.32-22.1zm.5-.84l38.28 22.1 1.05-1.82 11.66-20.07-11.3-19.54-14.24-24.65-25.45 43.98zm28.24-41.1l23.3 40.28 25.44-43.98-38.3-22.1-12.68 21.92 2.24 3.9zm24.1 40.8h51.04l12.7-21.9-38.3-22.1-25.44 44zm63.75 22.9l-12.7-21.9h-51.05l25.44 43.98 38.3-22.1zm-38.67-68.24l25.4-44.02h-51.04l-12.66 21.92 38.3 22.1zm.85-89.5l25.45 44.02 13.02-22.53 12.52-21.65-12.67-21.9-38.32 22.08zm-.5-.84l38.3-22.07-12.7-21.9h-51.03l25.44 43.98zm-25.43-45l51.04.02 12.7-21.9-38.3-22.1-25.44 44zm25.08-45.33l25.4-44h-51.04l-12.66 21.9 38.3 22.1zm.85-89.5l25.45 44.03 13.02-22.52 12.52-21.68-12.67-21.9-38.32 22.08zm-.5-.83l38.3-22.1-12.7-21.9h-51.03l25.44 44zm-25.43-44.97h51.04l12.7-21.9-38.3-22.1-25.44 44zm-13.7-66.6l-12.68 21.92 2.24 3.88 23.3 40.28 25.44-43.98-38.3-22.1zm-13.24 22.9l-25.45 44 38.33 22.1 1.05-1.83 11.62-20.1-11.3-19.53-14.24-24.66zm-26.3 43.52l25.4-44.02h-51.04l-12.66 21.92 38.3 22.1zm0-88.98l-38.2 22.06v.1l12.6 21.82h51.06l-25.45-44zm-39.34 22.2L1201.06 1l-25.44 44 38.3 22.08 12.68-21.9-12.86-22.27zM1149.12.5l-12.65 21.88 38.3 22.1 25.46-44h-51.1zm-13.15 22.74l-12.67 21.93 2.25 3.88 23.3 40.28 25.43-43.98-38.3-22.1zm-13.23 22.9l-25.44 44 38.3 22.1 1.06-1.82 11.62-20.1-11.3-19.53-14.24-24.66zm-26.28 43.53l25.4-44.02h-51.05l-12.7 21.92 38.36 22.1zm0-88.98l-38.27 22.06v.1l12.65 21.82h51.05l-25.44-44zm-39.36 22.2L1044.42 1l-25.44 44 38.3 22.08 12.68-21.9-12.86-22.27zM992.5.5l-12.67 21.9 38.27 22.08 25.44-44H992.5zm-13.17 22.74l-12.66 21.93 2.25 3.88 23.3 40.28 25.43-43.98-38.32-22.1zm-38.66 66.9l38.36 22.1 1-1.82 11.62-20.1-11.3-19.53-14.25-24.64-25.43 43.98zm26.02 45.35l12.63 21.9 38.33-22.06-25.43-43.98-11 19-14.54 25.13zm-26.03 45.34l25.43 44 25.54-44.18-12.6-21.9-38.37 22.08zm0 89.97l38.36 22.12 1-1.84 11.62-20.1-11.3-19.5-14.25-24.65-25.43 43.98zm26.02 45.36l12.63 21.9 38.33-22.05-25.43-43.98-11 19-14.54 25.14zm-26.03 45.34l25.43 44 25.54-44.18-12.6-21.92-38.37 22.1zm0 89.98l38.36 22.08 1-1.82 11.62-20.1-11.3-19.5-14.25-24.65-25.43 43.98zm26.02 45.34l12.63 21.9 38.3-22.1-25.42-44-11 19.05-14.5 25.15zm25.82 44.68l51.06-.04-25.44-44-38.3 22.12 12.68 21.92zm64.94-23l12.5-21.64-12.67-22-38.3 22.2 25.45 43.98 13-22.53zM1045 451.7l25.52 44.16 25.45-44-38.3-22.1L1045 451.7zm51.83 89.65l38.34-22.13-12.73-21.86h-51.05l25.43 44zm26.47-44.5l12.67 21.9 38.3-22.1-25.43-43.97-11 19.04-14.54 25.14zm25.82 44.7l51.1-.04-25.45-43.98-38.3 22.1 12.65 21.92zm64.96-23l12.52-21.7-12.67-21.98-38.3 22.22 25.44 43.98 13-22.53zm-12.46-66.82l25.54 44.13 25.44-44-38.3-22.05-12.68 21.93zm51.82 89.66l38.28-22.08-12.66-21.92H1228l25.44 44zm26.5-44.54l12.67 21.9 38.32-22.1-25.44-44-11 19.06-14.54 25.14zm25.82 44.68l51.08-.03-25.44-43.98-38.3 22.1 12.66 21.92zm64.96-23l12.52-21.68-12.67-22-38.3 22.23 25.43 43.98 13.02-22.53zm38.52-66.66l-38.3-22.12-12.68 21.92 25.54 44.18 25.44-44zm-26.02-45.35l-12.84-22.3-12.7-21.86-25.45 44 38.32 22.08 12.67-21.92zm26.02-45.34l-25.44-44.03-11.92 20.63-13.62 23.57 12.66 21.9 38.32-22.08zm0-90l-38.3-22.1-12.68 21.9 25.54 44.2 25.44-44zm-26.02-45.32l-12.84-22.3-12.7-21.87-25.45 44 38.32 22.1 12.67-21.92zm26.02-45.35l-25.44-44-11.92 20.6-13.62 23.58 12.66 21.92 38.32-22.1zm0-89.97l-38.3-22.15-12.68 21.92 25.54 44.22 25.44-43.98zm-26.02-45.34l-12.84-22.3L1357.68 1l-25.43 44 38.32 22.08 12.65-21.86zm392.6-44.7l-12.7 21.88 38.3 22.1 25.43-44h-51.04zm-235 225.8l-12.72 21.9 38.32 22.08 25.44-44h-51.05zm0-1l51.13-.04-25.44-44-38.3 22.1v.1l12.6 21.83zm104.8.3l38.3 22.12 12.68-21.9-12.86-22.27-12.68-21.94-25.44 44zm37.82 22.93l-38.27-22.06-25.44 43.98h51.05l12.66-21.93zm-38.67-23.42l25.46-44h-51.1l-12.67 21.9 38.3 22.1zm-.5.84l-38.3-22.03-12.67 21.83 2.25 3.88 23.3 40.3 25.43-43.98zM1607 251.42l-14.26-24.6-25.44 44 38.3 22.1 1.06-1.87 11.62-20.1-11.3-19.53zm-40.18 20.2l-25.4 44.04h51.04l12.7-21.9-38.34-22.13zm25.64 45l-51.04.04 25.44 44 38.3-22.1-12.7-21.95zm.84-.5l12.67 21.95 38.3-22.1-25.43-44-11 19-14.54 25.15zm51.47.67l-38.3 22.1 12.65 21.88h51.1l-25.45-44zm-25.08-45.36l25.4 44 38.3-22.08-12.66-21.92h-51.05zm51.92-.5l25.54 44.18 25.44-44-38.3-22.08-12.68 21.9zm26.4 44.7l51.08.02 12.66-21.92-38.32-22.1-25.43 44zm63.74 22.9l-12.7-21.9H1698l25.44 43.98 38.32-22.1zm-37.83-67.77l38.32 22.15 1.06-1.84 11.62-20.1-11.3-19.54-14.24-24.65-25.45 43.97zm-.84-.47l25.38-44.02h-51.04l-12.66 21.92 38.3 22.1zm-25.66-45l51.13-.02-25.44-44-38.3 22.1v.1l12.6 21.83zm.57-89.35l25.44 44 38.28-22.08-12.66-21.92H1698zm24.6 44.5l-25.45-43.98-11.9 20.62-13.63 23.53 12.67 21.9 38.3-22.08zm-38.52-23.3l12.53-21.64-12.66-21.9-38.3 22.1 25.43 43.98 13-22.52zm-13.86 23l-25.45-44-38.3 22.1 12.65 21.9h51.1zm-51.94.5l-12.67-21.9-38.3 22.1 25.44 43.98 25.54-44.2zm-51.47-.7l38.37-22.05-12.75-21.94h-51.05l25.44 44zm-.83.5l-25.45-44.02-11.9 20.62-13.64 23.57 12.67 21.9 38.32-22.08zm-38.53-23.3l12.53-21.64-12.67-21.9-38.3 22.1 25.43 43.98 13-22.52zm-.34 46.42l-12.68-21.9-25.44 43.98 38.3 22.1 12.68-21.92-12.86-22.26zm-.3 45l-38.3-22.07-25.45 44h51.1l12.66-21.94zm.85.48l-12.67 21.88 25.54 44.2 25.45-44-38.32-22.08zm12.3 67.08l-12.65-21.87-38.3 22.1 25.43 43.98 13-22.53 12.53-21.67zm-11.34 21.6L1515 361.27l12.67 21.9 38.32-22.08-25.45-44-11.9 20.63zm37.86 24.23l-38.23 22.06v.1l12.62 21.83h51.05l-25.44-44zm.84-.5l25.44 44.03 25.54-44.2-12.67-21.92-38.3 22.1zm51.82.32l-12.65 21.9 38.3 22.1 25.46-44h-51.1zm26.5-45.47l25.45 44.04 13-22.53 12.53-21.67-12.67-21.9-38.3 22.08zm39.62 21.45l-13.63 23.54 12.68 21.9 38.3-22.1-25.43-43.98-11.9 20.63zm37.83 24.23l-38.2 22.06v.1l12.6 21.83h51.05l-25.45-44zm.85-.5l25.45 44.03 25.54-44.18-12.66-21.92-38.32 22.1zm39.18-22.57l12.7 21.9h51.04l-25.44-44-38.3 22.1zm-.5-.84l38.32-22.07-25.44-44-11 19-14.54 25.14 12.67 21.92zM1752.2 229.7l23.3 40.32 25.44-43.98-38.3-22.1-12.68 21.9 2.24 3.87zm-2.8-4.85l25.54-44.17-12.67-21.9-38.32 22.08 25.45 44zm13.72-66.6l12.7 21.9h51.04l-25.44-44-38.3 22.1zm-.5-.84l38.32-22.06-25.44-43.98-11 19-14.54 25.13 12.67 21.9zm-13.5-22.44l12.7-21.9-38.32-22.1-25.43 44h51.05zm-51.94-.48l25.44-43.97-38.3-22.1-12.68 21.92 25.54 44.16zm-26.38-44.63l12.7-21.9-38.3-22.1-25.45 44h51.05zm0 1l-51.1.03 25.45 43.98 38.3-22.1-12.65-21.92zm-26.5 44.5l-25.44-43.96-11 18.98-14.54 25.14 12.67 21.92 38.3-22.1zm-51.82-.4l12.7-21.86-38.3-22.13-25.45 44h51.06zm-51.94-.47l25.45-43.97-38.32-22.1-12.67 21.92 25.54 44.16zm-26.38-44.63l12.66-21.9-38.3-22.1-25.45 44h51.1zm0 1l-51.1-.03 25.46 44 38.3-22.06-12.66-21.92zm-.56 89.35l-25.44-44.04-38.32 22.1 12.72 21.94h51.04zm-51.04 1l-12.72 21.9 38.32 22.1 25.44-44h-51.04zm25.15 44.85l-38.37-22.1-12.66 21.88 2.25 3.88 23.34 40.34 25.43-44zm26.48 45.47l-51.13-.04 25.5 44.05 38.3-22.1-12.67-21.9zm-.56 89.36l-25.48-44.07-38.32 22.1 12.76 21.98h51.04zm-51.04 1l-12.72 21.9 38.32 22.1 25.44-44h-51.04zm25.15 44.86l-38.4-22.18-12.66 21.92 2.25 3.9 23.38 40.35 25.43-44zm-24.68 44.4l51.08.04 12.67-21.92-38.3-22.1-25.45 44zm63.74 22.9l-12.7-21.9h-51.05l25.44 44 38.3-22.1zm-37.82-67.73l38.3 22.1 12.68-21.92-12.86-22.25-12.68-21.9-25.44 43.98zm51.83.67l-12.7 21.9 38.32 22.08 25.44-43.98h-51.05zm26.04 45.34l-25.43 44.02h51.06l12.7-21.9-38.32-22.1zm.48-.84l38.3 22.12 1.06-1.82 11.62-20.1-11.3-19.53-14.24-24.65-25.44 43.98zm28.25-41.1l23.3 40.28 25.43-43.98-38.3-22.1-12.68 21.92 2.25 3.9zm24.14 40.8h51.1l12.66-21.9-38.3-22.1-25.45 44zm63.76 22.9l-12.7-21.9h-51.05l25.45 43.98 38.3-22.1zm-37.82-67.75l38.3 22.13 12.68-21.92-12.86-22.24-12.68-21.94-25.44 44zm51.82.67l-12.68 21.9 38.3 22.08 25.43-43.98h-51.04zm26.02 45.34l-25.43 44.02h51.05l12.7-21.9-38.32-22.1zm.5-.84l38.28 22.1 1.05-1.82 11.66-20.07-11.3-19.54-14.24-24.65-25.45 43.98zm28.24-41.1l23.3 40.28 25.44-43.98-38.3-22.1-12.68 21.92 2.24 3.9zm24.1 40.8h51.04l12.7-21.9-38.3-22.1-25.44 44zm63.75 22.9l-12.7-21.9h-51.05l25.44 43.98 38.3-22.1zm-38.67-68.24l25.4-44.02h-51.04l-12.66 21.92 38.3 22.1zm.85-89.5l25.45 44.02 13.02-22.53 12.52-21.65-12.67-21.9-38.32 22.08zm-.5-.84l38.3-22.07-12.7-21.9h-51.03l25.44 43.98zm-25.43-45l51.04.02 12.7-21.9-38.3-22.1-25.44 44zm25.08-45.33l25.4-44h-51.04l-12.66 21.9 38.3 22.1zm.85-89.5l25.45 44.03 13.02-22.52 12.52-21.68-12.67-21.9-38.32 22.08zm-.5-.83l38.3-22.1-12.7-21.9h-51.03l25.44 44zm-25.43-44.97h51.04l12.7-21.9-38.3-22.1-25.44 44zm-13.7-66.6l-12.68 21.92 2.24 3.88 23.3 40.28 25.44-43.98-38.3-22.1zm-13.24 22.9l-25.45 44 38.33 22.1 1.05-1.83 11.62-20.1-11.3-19.53-14.24-24.66zm-26.3 43.52l25.4-44.02h-51.04l-12.66 21.92 38.3 22.1zm0-88.98l-38.2 22.06v.1l12.6 21.82h51.06l-25.45-44zm-39.34 22.2L1671.06 1l-25.44 44 38.3 22.08 12.68-21.9-12.86-22.27zM1619.12.5l-12.65 21.88 38.3 22.1 25.46-44h-51.1zm-13.15 22.74l-12.67 21.93 2.25 3.88 23.3 40.28 25.43-43.98-38.3-22.1zm-13.23 22.9l-25.44 44 38.3 22.1 1.06-1.82 11.62-20.1-11.3-19.53-14.24-24.66zm-26.28 43.53l25.4-44.02h-51.05l-12.7 21.92 38.36 22.1zm0-88.98l-38.27 22.06v.1l12.65 21.82h51.05l-25.44-44zm-39.36 22.2L1514.42 1l-25.44 44 38.3 22.08 12.68-21.9-12.86-22.27zM1462.5.5l-12.68 21.9 38.28 22.08 25.44-44h-51.04zm-13.17 22.74l-12.66 21.93 2.25 3.88 23.3 40.28 25.43-43.98-38.32-22.1zm-38.66 66.9l38.36 22.1 1-1.82 11.62-20.1-11.3-19.53-14.25-24.64-25.43 43.98zm26.02 45.35l12.63 21.9 38.33-22.06-25.43-43.98-11 19-14.54 25.13zm-26.03 45.34l25.43 44 25.55-44.18-12.62-21.9-38.36 22.08zm0 89.97l38.36 22.12 1-1.84 11.62-20.1-11.3-19.5-14.25-24.65-25.43 43.98zm26.02 45.36l12.63 21.9 38.33-22.05-25.43-43.98-11 19-14.54 25.14zm-26.03 45.34l25.43 44 25.55-44.18-12.62-21.92-38.36 22.1zm0 89.98l38.36 22.08 1-1.82 11.62-20.1-11.3-19.5-14.25-24.65-25.43 43.98zm26.02 45.34l12.63 21.9 38.3-22.1-25.42-44-11 19.05-14.5 25.15zm25.82 44.68l51.06-.04-25.44-44-38.32 22.12 12.7 21.92zm64.94-23l12.5-21.64-12.67-22-38.3 22.2 25.45 43.98 13-22.53zM1515 451.7l25.52 44.16 25.45-44-38.3-22.1L1515 451.7zm51.83 89.65l38.34-22.13-12.73-21.86h-51.05l25.43 44zm26.47-44.5l12.67 21.9 38.3-22.1-25.43-43.97-11 19.04-14.54 25.14zm25.82 44.7l51.1-.04-25.45-43.98-38.3 22.1 12.65 21.92zm64.96-23l12.52-21.7-12.67-21.98-38.3 22.22 25.44 43.98 13-22.53zm-12.46-66.82l25.54 44.13 25.44-44-38.3-22.05-12.68 21.93zm51.82 89.66l38.28-22.08-12.66-21.92H1698l25.44 44zm26.5-44.54l12.67 21.9 38.32-22.1-25.44-44-11 19.06-14.54 25.14zm25.82 44.68l51.08-.03-25.44-43.98-38.3 22.1 12.66 21.92zm64.96-23l12.52-21.68-12.67-22-38.3 22.23 25.43 43.98 13.02-22.53zm38.52-66.66l-38.3-22.12-12.68 21.92 25.54 44.18 25.44-44zm-26.02-45.35l-12.84-22.3-12.7-21.86-25.45 44 38.32 22.08 12.67-21.92zm26.02-45.34l-25.44-44.03-11.92 20.63-13.62 23.57 12.66 21.9 38.32-22.08zm0-90l-38.3-22.1-12.68 21.9 25.54 44.2 25.44-44zm-26.02-45.32l-12.84-22.3-12.7-21.87-25.45 44 38.32 22.1 12.67-21.92zm26.02-45.35l-25.44-44-11.92 20.6-13.62 23.58 12.66 21.92 38.32-22.1zm0-89.97l-38.3-22.15-12.68 21.92 25.54 44.22 25.44-43.98zm-26.02-45.34l-12.84-22.3L1827.68 1l-25.43 44 38.32 22.08 12.65-21.86zm392.6-44.7l-12.7 21.88 38.3 22.1 25.43-44h-51.04zm-235 225.8l-12.72 21.9 38.32 22.08 25.44-44h-51.05zm0-1l51.13-.04-25.44-44-38.3 22.1v.1l12.6 21.83zm104.8.3l38.3 22.12 12.68-21.9-12.86-22.27-12.68-21.94-25.44 44zm37.82 22.93l-38.27-22.06-25.44 43.98h51.05l12.66-21.93zm-38.67-23.42l25.46-44h-51.1l-12.67 21.9 38.3 22.1zm-.5.84l-38.3-22.03-12.67 21.83 2.25 3.88 23.3 40.3 25.43-43.98zM2077 251.42l-14.26-24.6-25.44 44 38.3 22.1 1.06-1.87 11.62-20.1-11.3-19.53zm-40.18 20.2l-25.4 44.04h51.04l12.7-21.9-38.34-22.13zm25.64 45l-51.04.04 25.44 44 38.3-22.1-12.7-21.95zm.84-.5l12.67 21.95 38.3-22.1-25.43-44-11 19-14.54 25.15zm51.47.67l-38.3 22.1 12.65 21.88h51.1l-25.45-44zm-25.08-45.36l25.4 44 38.3-22.08-12.66-21.92h-51.05zm51.92-.5l25.54 44.18 25.44-44-38.3-22.08-12.68 21.9zm26.4 44.7l51.08.02 12.66-21.92-38.32-22.1-25.43 44zm63.74 22.9l-12.7-21.9H2168l25.44 43.98 38.32-22.1zm-37.83-67.77l38.32 22.15 1.06-1.84 11.62-20.1-11.3-19.54-14.24-24.65-25.45 43.97zm-.84-.47l25.4-44.02h-51.06l-12.66 21.92 38.3 22.1zm-25.66-45l51.13-.02-25.44-44-38.3 22.1v.1l12.6 21.83zm.57-89.35l25.44 44 38.28-22.08-12.66-21.92H2168zm24.6 44.5l-25.45-43.98-11.9 20.62-13.63 23.53 12.67 21.9 38.3-22.08zm-38.52-23.3l12.53-21.64-12.66-21.9-38.3 22.1 25.43 43.98 13-22.52zm-13.86 23l-25.45-44-38.3 22.1 12.65 21.9h51.1zm-51.94.5l-12.67-21.9-38.3 22.1 25.44 43.98 25.54-44.2zm-51.47-.7l38.37-22.05-12.75-21.94h-51.05l25.44 44zm-.83.5l-25.45-44.02-11.9 20.62-13.64 23.57 12.67 21.9 38.32-22.08zm-38.53-23.3l12.53-21.64-12.67-21.9-38.3 22.1 25.43 43.98 13-22.52zm-.34 46.42l-12.68-21.9-25.44 43.98 38.3 22.1 12.68-21.92-12.86-22.26zm-.3 45l-38.3-22.07-25.45 44h51.1l12.66-21.94zm.85.48l-12.67 21.88 25.54 44.2 25.45-44-38.32-22.08zm12.3 67.08l-12.65-21.87-38.3 22.1 25.43 43.98 13-22.53 12.53-21.67zm-11.34 21.6L1985 361.27l12.67 21.9 38.32-22.08-25.45-44-11.9 20.63zm37.86 24.23l-38.23 22.06v.1l12.62 21.83h51.05l-25.44-44zm.84-.5l25.44 44.03 25.54-44.2-12.67-21.92-38.3 22.1zm51.82.32l-12.65 21.9 38.3 22.1 25.46-44h-51.1zm26.5-45.47l25.45 44.04 13-22.53 12.53-21.67-12.67-21.9-38.3 22.08zm39.62 21.45l-13.63 23.54 12.68 21.9 38.3-22.1-25.43-43.98-11.9 20.63zm37.83 24.23l-38.2 22.06v.1l12.6 21.83h51.04l-25.43-44zm.85-.5l25.45 44.03 25.54-44.18-12.66-21.92-38.32 22.1zm39.18-22.57l12.7 21.9h51.04l-25.44-44-38.3 22.1zm-.5-.84l38.32-22.07-25.44-44-11 19-14.54 25.14 12.67 21.92zM2222.2 229.7l23.3 40.32 25.44-43.98-38.3-22.1-12.68 21.9 2.24 3.87zm-2.8-4.85l25.54-44.17-12.67-21.9-38.32 22.08 25.45 44zm13.72-66.6l12.7 21.9h51.04l-25.44-44-38.3 22.1zm-.5-.84l38.32-22.06-25.44-43.98-11 19-14.54 25.13 12.67 21.9zm-13.5-22.44l12.7-21.9-38.32-22.1-25.43 44h51.05zm-51.94-.48l25.44-43.97-38.3-22.1-12.68 21.92 25.54 44.16zm-26.38-44.63l12.7-21.9-38.3-22.1-25.45 44h51.05zm0 1l-51.1.03 25.44 43.98 38.32-22.1-12.66-21.92zm-26.5 44.5l-25.44-43.96-11 18.98-14.54 25.14 12.67 21.92 38.3-22.1zm-51.82-.4l12.7-21.86-38.3-22.13-25.45 44h51.06zm-51.94-.47l25.45-43.97-38.32-22.1-12.67 21.92 25.54 44.16zm-26.38-44.63l12.66-21.9-38.3-22.1-25.45 44h51.1zm0 1l-51.1-.03 25.46 44 38.3-22.06-12.66-21.92zm-.56 89.35l-25.44-44.04-38.32 22.1 12.72 21.94h51.04zm-51.04 1l-12.72 21.9 38.32 22.1 25.44-44h-51.04zm25.15 44.85l-38.37-22.1-12.66 21.88 2.25 3.88 23.34 40.34 25.43-44zm26.48 45.47l-51.13-.04 25.5 44.05 38.3-22.1-12.67-21.9zm-.56 89.36l-25.48-44.07-38.32 22.1 12.76 21.98h51.04zm-51.04 1l-12.72 21.9 38.32 22.1 25.44-44h-51.04zm25.15 44.86l-38.4-22.18-12.66 21.92 2.25 3.9 23.38 40.35 25.43-44zm-24.68 44.4l51.08.04 12.67-21.92-38.3-22.1-25.45 44zm63.74 22.9l-12.7-21.9h-51.05l25.44 44 38.3-22.1zm-37.82-67.73l38.3 22.1 12.68-21.92-12.86-22.25-12.68-21.9-25.44 43.98zm51.83.67l-12.7 21.9 38.32 22.08 25.44-43.98h-51.05zm26.04 45.34l-25.43 44.02h51.06l12.7-21.9-38.32-22.1zm.48-.84l38.3 22.12 1.06-1.82 11.62-20.1-11.3-19.53-14.24-24.65-25.44 43.98zm28.25-41.1l23.3 40.28 25.43-43.98-38.3-22.1-12.68 21.92 2.25 3.9zm24.14 40.8h51.1l12.66-21.9-38.3-22.1-25.45 44zm63.76 22.9l-12.7-21.9h-51.05l25.45 43.98 38.3-22.1zm-37.82-67.75l38.3 22.13 12.68-21.92-12.86-22.24-12.68-21.94-25.44 44zm51.82.67l-12.68 21.9 38.3 22.08 25.42-43.98h-51.04zm26.02 45.34l-25.43 44.02h51.05l12.7-21.9-38.32-22.1zm.5-.84l38.28 22.1 1.05-1.82 11.66-20.07-11.3-19.54-14.24-24.65-25.45 43.98zm28.24-41.1l23.3 40.28 25.44-43.98-38.3-22.1-12.68 21.92 2.24 3.9zm24.1 40.8h51.04l12.7-21.9-38.3-22.1-25.44 44zm63.75 22.9l-12.7-21.9h-51.05l25.44 43.98 38.3-22.1zm-38.67-68.24l25.4-44.02h-51.04l-12.66 21.92 38.3 22.1zm.85-89.5l25.45 44.02 13.02-22.53 12.52-21.65-12.67-21.9-38.32 22.08zm-.5-.84l38.28-22.07-12.67-21.9h-51.04l25.44 43.98zm-25.43-45l51.04.02 12.7-21.9-38.3-22.1-25.44 44zm25.08-45.33l25.4-44h-51.04l-12.66 21.9 38.3 22.1zm.85-89.5l25.45 44.03 13.02-22.52 12.52-21.68-12.67-21.9-38.32 22.08zm-.5-.83l38.28-22.1-12.67-21.9h-51.04l25.44 44zm-25.43-44.97h51.04l12.7-21.9-38.3-22.1-25.44 44zm-13.7-66.6l-12.68 21.92 2.24 3.88 23.3 40.28 25.44-43.98-38.3-22.1zm-13.24 22.9l-25.45 44 38.33 22.1 1.05-1.83 11.62-20.1-11.3-19.53-14.24-24.66zm-26.3 43.52l25.4-44.02h-51.04l-12.66 21.92 38.3 22.1zm0-88.98l-38.2 22.06v.1l12.6 21.82h51.05l-25.44-44zm-39.34 22.2L2141.06 1l-25.44 44 38.3 22.08 12.68-21.9-12.86-22.27zM2089.12.5l-12.65 21.88 38.3 22.1 25.46-44h-51.1zm-13.15 22.74l-12.67 21.93 2.25 3.88 23.3 40.28 25.43-43.98-38.3-22.1zm-13.23 22.9l-25.44 44 38.3 22.1 1.06-1.82 11.62-20.1-11.3-19.53-14.24-24.66zm-26.28 43.53l25.4-44.02h-51.05l-12.7 21.92 38.36 22.1zm0-88.98l-38.27 22.06v.1l12.65 21.82h51.05l-25.44-44zm-39.36 22.2L1984.42 1l-25.44 44 38.3 22.08 12.68-21.9-12.86-22.27zM1932.5.5l-12.68 21.9 38.28 22.08 25.44-44h-51.04zm-13.17 22.74l-12.66 21.93 2.25 3.88 23.3 40.28 25.43-43.98-38.32-22.1zm-38.66 66.9l38.36 22.1 1-1.82 11.62-20.1-11.3-19.53-14.25-24.64-25.43 43.98zm26.02 45.35l12.63 21.9 38.33-22.06-25.43-43.98-11 19-14.54 25.13zm-26.03 45.34l25.43 44 25.55-44.18-12.62-21.9-38.36 22.08zm0 89.97l38.36 22.12 1-1.84 11.62-20.1-11.3-19.5-14.25-24.65-25.43 43.98zm26.02 45.36l12.63 21.9 38.33-22.05-25.43-43.98-11 19-14.54 25.14zm-26.03 45.34l25.43 44 25.55-44.18-12.62-21.92-38.36 22.1zm0 89.98l38.36 22.08 1-1.82 11.62-20.1-11.3-19.5-14.25-24.65-25.43 43.98zm26.02 45.34l12.63 21.9 38.3-22.1-25.42-44-11 19.05-14.5 25.15zm25.82 44.68l51.06-.04-25.44-44-38.32 22.12 12.7 21.92zm64.94-23l12.5-21.64-12.67-22-38.3 22.2 25.45 43.98 13-22.53zM1985 451.7l25.52 44.16 25.45-44-38.3-22.1L1985 451.7zm51.83 89.65l38.34-22.13-12.73-21.86h-51.05l25.43 44zm26.47-44.5l12.67 21.9 38.3-22.1-25.43-43.97-11 19.04-14.54 25.14zm25.82 44.7l51.1-.04-25.45-43.98-38.3 22.1 12.65 21.92zm64.96-23l12.52-21.7-12.67-21.98-38.3 22.22 25.44 43.98 13-22.53zm-12.46-66.82l25.54 44.13 25.44-44-38.3-22.05-12.68 21.93zm51.82 89.66l38.28-22.08-12.66-21.92H2168l25.44 44zm26.5-44.54l12.67 21.9 38.32-22.1-25.44-44-11 19.06-14.54 25.14zm25.82 44.68l51.08-.03-25.44-43.98-38.3 22.1 12.66 21.92zm64.96-23l12.52-21.68-12.67-22-38.3 22.23 25.43 43.98 13.02-22.53zm38.52-66.66l-38.3-22.12-12.7 21.92 25.56 44.18 25.44-44zm-26.02-45.35l-12.84-22.3-12.7-21.86-25.45 44 38.32 22.08 12.67-21.92zm26.02-45.34l-25.44-44.03-11.92 20.63-13.63 23.57 12.67 21.9 38.32-22.08zm0-90l-38.3-22.1-12.7 21.9 25.56 44.2 25.44-44zm-26.02-45.32l-12.84-22.3-12.7-21.87-25.45 44 38.32 22.1 12.67-21.92zm26.02-45.35l-25.44-44-11.92 20.6-13.63 23.58 12.67 21.92 38.32-22.1zm0-89.97l-38.3-22.15-12.7 21.92 25.56 44.22 25.44-43.98zm-26.02-45.34l-12.84-22.3L2297.68 1l-25.43 44 38.32 22.08 12.65-21.86zm-1957.4 497.3l-12.7 21.88 38.3 22.1 25.43-44H365.8zm-235 225.8l-12.72 21.9 38.32 22.07 25.44-44H130.8zm0-1l51.13-.04-25.44-44-38.3 22.1v.1l12.6 21.83zm104.8.3l38.3 22.12 12.68-21.9-12.86-22.27-12.68-21.94-25.44 44zm37.82 22.93l-38.28-22.06-25.43 43.98h51.05l12.66-21.93zm-38.66-23.42l25.45-44h-51.1l-12.67 21.9 38.31 22.1zm-.5.84l-38.3-22.03-12.68 21.83 2.25 3.88 23.3 40.3 25.43-43.98zm-37.3 25.45l-14.24-24.6-25.44 44 38.3 22.1 1.06-1.87 11.62-20.1-11.3-19.53zm-40.16 20.2l-25.4 44.04h51.04l12.7-21.9-38.34-22.13zm25.64 45l-51.03.04 25.43 44 38.3-22.1-12.7-21.95zm.84-.5l12.67 21.95 38.3-22.1-25.43-44-11 19-14.54 25.15zm51.47.67l-38.3 22.1 12.65 21.88h51.1l-25.45-44zm-25.08-45.35l25.4 44 38.3-22.1-12.66-21.9H209.7zm51.92-.5l25.54 44.17 25.44-44-38.3-22.08-12.68 21.92zm26.4 44.68l51.08.03 12.66-21.92-38.32-22.1-25.43 44zm63.74 22.9l-12.7-21.9H288l25.44 44 38.32-22.1zm-37.83-67.75l38.32 22.14 1.06-1.84 11.62-20.1-11.3-19.54-14.24-24.65-25.45 43.98zm-.84-.5l25.38-44h-51.04l-12.66 21.92 38.3 22.1zm-25.66-44.97l51.13-.02-25.44-44-38.3 22.1v.1l12.6 21.83zm.57-89.35l25.44 44 38.28-22.08-12.66-21.92H288zm24.6 44.5l-25.45-43.98-11.9 20.62-13.63 23.53 12.67 21.9 38.3-22.08zm-38.52-23.3l12.53-21.64-12.66-21.9-38.3 22.1 25.43 43.98 13-22.52zm-13.86 23l-25.45-44-38.3 22.1 12.65 21.9h51.1zm-51.94.5l-12.67-21.9-38.3 22.1 25.44 43.98 25.54-44.2zm-51.47-.7l38.37-22.05-12.75-21.94h-51.04l25.43 44zm-.83.5l-25.45-44.02-11.9 20.62-13.64 23.57 12.67 21.9 38.32-22.08zm-38.53-23.3l12.53-21.64-12.67-21.9L79 677.7l25.43 43.98 13-22.52zm-.34 46.42l-12.68-21.9-25.44 43.98 38.3 22.1 12.68-21.92-12.86-22.26zm-.3 45L78.5 768.5l-25.45 44h51.1l12.66-21.94zm.85.48l-12.67 21.88 25.54 44.2 25.45-44-38.32-22.08zm12.3 67.08l-12.65-21.87-38.3 22.1 25.43 43.98 13-22.53 12.53-21.67zm-11.34 21.6L105 903.27l12.67 21.9 38.32-22.08-25.45-44-11.9 20.63zm37.86 24.23l-38.23 22.06v.1l12.62 21.83h51.05l-25.44-44zm.84-.5l25.44 44.03 25.54-44.2-12.67-21.92-38.3 22.1zm51.82.32l-12.65 21.9 38.31 22.1 25.45-44h-51.1zm26.5-45.47l25.45 44.04 13-22.53 12.53-21.67-12.67-21.9-38.31 22.08zm39.62 21.45L261.6 903.3l12.68 21.9 38.3-22.1-25.43-43.98-11.9 20.63zm37.83 24.23l-38.2 22.06v.1l12.6 21.83h51.04l-25.43-44zm.85-.5l25.45 44.03 25.54-44.18-12.66-21.92-38.32 22.1zm39.18-22.57l12.7 21.9h51.04l-25.44-44-38.3 22.1zm-.5-.84L390.93 858l-25.44-44-11 19-14.54 25.14 12.67 21.92zM342.2 771.7l23.3 40.32 25.44-43.98-38.3-22.1-12.68 21.9 2.24 3.87zm-2.8-4.85l25.54-44.17-12.67-21.9-38.32 22.08 25.45 44zm13.72-66.6l12.7 21.9h51.04l-25.44-44-38.3 22.1zm-.5-.84l38.32-22.06-25.44-44-11 19-14.54 25.15 12.67 21.9zm-13.5-22.44l12.7-21.9L313.48 633l-25.43 43.98h51.05zm-51.94-.48l25.44-43.98-38.3-22.1-12.68 21.93 25.54 44.15zm-26.38-44.63l12.7-21.9-38.32-22.1-25.43 44h51.05zm0 1l-51.1.02 25.44 44 38.32-22.1-12.66-21.92zm-26.5 44.5l-25.44-43.97-11 19-14.54 25.14 12.67 21.92 38.3-22.1zm-51.82-.4l12.7-21.86-38.3-22.13-25.45 44h51.06zm-51.94-.47l25.45-43.98-38.32-22.1-12.67 21.93 25.54 44.15zm-26.38-44.63l12.66-21.9-38.3-22.1-25.45 44h51.1zm0 1l-51.1-.03 25.46 44 38.3-22.06-12.66-21.9zm-.56 89.35l-25.44-44.04-38.31 22.1 12.7 21.94h51.05zm-51.04 1l-12.7 21.9 38.3 22.1 25.44-44H52.54zm25.15 44.85l-38.37-22.1-12.66 21.88 2.24 3.88 23.36 40.33 25.43-43.98zm26.48 45.48l-51.13-.05 25.5 44.05 38.3-22.1-12.67-21.9zm-.56 89.35L78.14 858.8l-38.31 22.1 12.75 21.98h51.04zm-51.04 1l-12.7 21.9 38.3 22.1 25.44-44H52.58zm25.15 44.86l-38.4-22.18-12.66 21.92 2.24 3.9 23.4 40.35 25.43-44zm-24.68 44.4l51.08.03 12.67-21.9-38.3-22.1-25.45 44zm63.74 22.9l-12.7-21.9H53.04l25.44 44 38.3-22.1zm-37.82-67.73l38.3 22.1 12.68-21.92-12.86-22.25-12.68-21.9-25.44 43.98zm51.83.67l-12.7 21.9 38.32 22.1 25.44-44H130.8zm26.04 45.35l-25.43 44h51.06l12.7-21.9-38.32-22.1zm.48-.86l38.3 22.12 1.06-1.82 11.62-20.1-11.3-19.53-14.24-24.65-25.44 44zm28.25-41.1l23.3 40.28 25.43-43.98-38.3-22.1-12.68 21.92 2.25 3.9zm24.14 40.8h51.1l12.66-21.9-38.3-22.1-25.45 44zm63.76 22.9l-12.7-21.9H209.7l25.45 43.98 38.3-22.1zm-37.82-67.75l38.3 22.13 12.68-21.92-12.86-22.24-12.68-21.94-25.44 44zm51.82.67l-12.68 21.9 38.3 22.1 25.43-44h-51.04zm26.02 45.35l-25.43 44h51.05l12.7-21.9-38.32-22.1zm.5-.86l38.28 22.1 1.05-1.82 11.66-20.08-11.3-19.53-14.24-24.65-25.45 44zm28.24-41.1l23.3 40.28 25.44-43.98-38.3-22.1-12.68 21.92 2.24 3.9zm24.1 40.8h51.04l12.7-21.9-38.3-22.1-25.44 44zm63.75 22.9l-12.7-21.9H366.3l25.44 43.98 38.31-22.1zM391.4 947.8l25.4-44.02h-51.04l-12.66 21.92 38.3 22.1zm.85-89.5l25.45 44.02 13.02-22.53 12.52-21.65-12.67-21.9-38.32 22.08zm-.5-.84l38.3-22.07-12.7-21.9h-51.03l25.44 43.98zm-25.43-45l51.04.02 12.7-21.9-38.3-22.1-25.44 44zm25.08-45.33l25.4-44h-51.04l-12.66 21.9 38.3 22.1zm.85-89.5l25.45 44.03 13.02-22.52 12.52-21.68-12.67-21.9-38.32 22.08zm-.5-.83l38.3-22.1-12.7-21.9h-51.03l25.44 44zm-25.43-44.98h51.04l12.7-21.9-38.3-22.08-25.44 44zm-13.7-66.6l-12.68 21.93 2.24 3.88 23.3 40.3 25.44-44-38.3-22.1zm-13.24 22.9l-25.45 44 38.33 22.1 1.05-1.82 11.62-20.1-11.3-19.53-14.24-24.66zm-26.3 43.52l25.4-44h-51.04l-12.66 21.9 38.3 22.1zm0-88.97l-38.2 22.06v.1l12.6 21.82h51.06l-25.45-44zm-39.34 22.2L261.06 543l-25.44 44 38.3 22.08 12.68-21.9-12.86-22.27zm-64.62-22.4l-12.65 21.88 38.31 22.1 25.45-44h-51.1zm-13.15 22.74l-12.67 21.93 2.25 3.88 23.3 40.3 25.43-44-38.3-22.1zm-13.23 22.9l-25.44 44 38.3 22.1 1.06-1.82 11.62-20.1-11.3-19.53-14.24-24.66zm-26.28 43.52l25.4-44H130.8l-12.7 21.9 38.36 22.1zm0-88.97l-38.27 22.06v.1l12.65 21.82h51.05l-25.44-44zm-39.36 22.2L104.42 543l-25.44 44 38.3 22.08 12.68-21.9-12.86-22.27zm-64.6-22.4l-12.67 21.9 38.27 22.08 25.44-44H52.5zm-13.17 22.74l-12.66 21.93 2.24 3.88 23.32 40.3 25.43-44-38.32-22.1zM.67 632.14l38.36 22.1 1-1.82 11.62-20.1-11.3-19.53-14.25-24.64-25.43 44zM26.7 677.5l12.63 21.9 38.33-22.06-25.43-44-11 19-14.54 25.15zM.66 722.83l25.43 44 25.55-44.18-12.62-21.9L.67 722.83zm0 89.98l38.36 22.1 1-1.84 11.62-20.1-11.3-19.5-14.25-24.65-25.43 44zm26.02 45.34l12.63 21.9 38.33-22.05-25.43-43.98-11 19-14.54 25.14zM.66 903.5l25.43 44 25.55-44.18-12.62-21.92L.67 903.5zm0 89.98l38.36 22.08 1-1.82 11.62-20.1-11.3-19.5L26.1 949.5.67 993.47zm26.02 45.34l12.63 21.9 38.3-22.1-25.42-44-11 19.05-14.5 25.15zm25.82 44.68l51.06-.04-25.44-44-38.31 22.12 12.7 21.92zm64.94-23l12.5-21.64-12.67-22-38.3 22.2 25.45 43.98 13-22.53zM105 993.7l25.52 44.18 25.45-43.98-38.3-22.1-12.67 21.9zm51.83 89.67l38.34-22.13-12.73-21.86H131.4l25.43 44zm26.47-44.5l12.67 21.9 38.3-22.1-25.43-43.98-11 19.05-14.54 25.14zm25.82 44.7l51.1-.04-25.45-43.98-38.3 22.1 12.65 21.92zm64.96-23l12.52-21.7-12.67-21.98-38.3 22.22 25.44 43.98 13-22.53zm-12.46-66.82l25.54 44.13 25.44-43.98-38.3-22.07-12.68 21.93zm51.82 89.66l38.28-22.08-12.66-21.92H288l25.44 44zm26.5-44.54l12.67 21.9 38.32-22.1-25.44-44-11 19.06-14.54 25.14zm25.82 44.68l51.08-.03-25.44-43.98-38.3 22.1 12.66 21.92zm64.96-23l12.52-21.68-12.67-22-38.3 22.23 25.43 43.98 13.02-22.53zm38.52-66.66l-38.3-22.12-12.7 21.9 25.56 44.2 25.44-43.98zm-26.02-45.35l-12.85-22.3-12.7-21.86-25.44 44 38.32 22.08 12.67-21.92zm26.02-45.34l-25.44-44.03-11.92 20.63-13.63 23.57 12.67 21.9 38.32-22.08zm0-90l-38.3-22.1-12.7 21.9 25.56 44.2 25.44-44zm-26.02-45.32l-12.85-22.3-12.7-21.87-25.44 44 38.32 22.1 12.67-21.92zm26.02-45.35l-25.44-44-11.92 20.6-13.63 23.58 12.67 21.92 38.32-22.1zm0-89.98l-38.3-22.14-12.7 21.93 25.56 44.2 25.44-43.98zm-26.02-45.33l-12.85-22.3L417.7 543l-25.45 44 38.32 22.08 12.65-21.86zm392.6-44.7l-12.7 21.88 38.3 22.1 25.43-44H835.8zm-235 225.8l-12.72 21.9 38.32 22.07 25.44-44H600.8zm0-1l51.13-.04-25.44-44-38.3 22.1v.1l12.6 21.83zm104.8.3l38.3 22.12 12.68-21.9-12.86-22.27-12.68-21.94-25.44 44zm37.82 22.93l-38.28-22.06-25.43 43.98h51.05l12.66-21.93zm-38.67-23.42l25.46-44h-51.1l-12.67 21.9 38.3 22.1zm-.5.84l-38.3-22.03-12.67 21.83 2.25 3.88 23.3 40.3 25.43-43.98zM667 793.42l-14.26-24.6-25.44 44 38.3 22.1 1.06-1.87 11.62-20.1-11.3-19.53zm-40.18 20.2l-25.4 44.04h51.04l12.7-21.9-38.34-22.13zm25.64 45l-51.04.04 25.44 44 38.3-22.1-12.7-21.95zm.84-.5l12.67 21.95 38.3-22.1-25.43-44-11 19-14.54 25.15zm51.48.67l-38.32 22.1 12.66 21.88h51.1l-25.45-44zm-25.1-45.35l25.4 44 38.32-22.1-12.66-21.9H679.7zm51.94-.5l25.54 44.17 25.44-44-38.3-22.08-12.68 21.92zm26.4 44.68l51.08.03 12.66-21.92-38.32-22.1-25.43 44zm63.74 22.9l-12.7-21.9H758l25.44 44 38.32-22.1zm-37.83-67.75l38.32 22.14 1.06-1.84 11.62-20.1-11.3-19.54-14.24-24.65-25.45 43.98zm-.84-.5l25.38-44h-51.04l-12.66 21.92 38.3 22.1zm-25.66-44.97l51.13-.02-25.44-44-38.3 22.1v.1l12.6 21.83zm.57-89.35l25.44 44 38.28-22.08-12.66-21.92H758zm24.6 44.5l-25.45-43.98-11.9 20.62-13.63 23.53 12.67 21.9 38.3-22.08zm-38.52-23.3l12.53-21.64-12.66-21.9-38.32 22.1 25.45 43.98 13-22.52zm-13.86 23l-25.45-44-38.3 22.1 12.65 21.9h51.1zm-51.94.5l-12.67-21.9-38.3 22.1 25.44 43.98 25.54-44.2zm-51.47-.7l38.37-22.05-12.75-21.94h-51.04l25.43 44zm-.83.5l-25.45-44.02-11.9 20.62-13.64 23.57 12.67 21.9 38.32-22.08zm-38.53-23.3l12.53-21.64-12.67-21.9-38.3 22.1 25.43 43.98 13-22.52zm-.34 46.42l-12.68-21.9-25.44 43.98 38.3 22.1 12.68-21.92-12.86-22.26zm-.3 45l-38.3-22.07-25.45 44h51.1l12.66-21.94zm.85.48l-12.67 21.88 25.54 44.2 25.45-44-38.32-22.08zm12.3 67.08l-12.65-21.87-38.3 22.1 25.43 43.98 13-22.53 12.53-21.67zm-11.34 21.6L575 903.27l12.67 21.9 38.32-22.08-25.45-44-11.9 20.63zm37.86 24.23l-38.23 22.06v.1l12.62 21.83h51.05l-25.44-44zm.84-.5l25.44 44.03 25.54-44.2-12.67-21.92-38.3 22.1zm51.82.32l-12.65 21.9 38.3 22.1 25.46-44h-51.1zm26.5-45.47l25.45 44.04 13-22.53 12.53-21.67-12.67-21.9-38.3 22.08zm39.62 21.45L731.6 903.3l12.68 21.9 38.3-22.1-25.43-43.98-11.9 20.63zm37.83 24.23l-38.2 22.06v.1l12.6 21.83h51.04l-25.43-44zm.85-.5l25.45 44.03 25.54-44.18-12.66-21.92-38.32 22.1zm39.18-22.57l12.7 21.9h51.04l-25.44-44-38.3 22.1zm-.5-.84L860.93 858l-25.44-44-11 19-14.54 25.14 12.67 21.92zM812.2 771.7l23.3 40.32 25.44-43.98-38.3-22.1-12.68 21.9 2.24 3.87zm-2.8-4.85l25.54-44.17-12.67-21.9-38.32 22.08 25.45 44zm13.72-66.6l12.7 21.9h51.04l-25.44-44-38.3 22.1zm-.5-.84l38.32-22.06-25.44-44-11 19-14.54 25.15 12.67 21.9zm-13.5-22.44l12.7-21.9L783.48 633l-25.43 43.98h51.05zm-51.94-.48l25.44-43.98-38.3-22.1-12.68 21.93 25.54 44.15zm-26.38-44.63l12.7-21.9-38.32-22.1-25.43 44h51.05zm0 1l-51.1.02 25.45 44 38.3-22.1-12.65-21.92zm-26.5 44.5l-25.44-43.97-11 19-14.54 25.14 12.67 21.92 38.3-22.1zm-51.82-.4l12.7-21.86-38.3-22.13-25.45 44h51.06zm-51.94-.47l25.45-43.98-38.32-22.1-12.67 21.93 25.54 44.15zm-26.38-44.63l12.66-21.9-38.3-22.1-25.45 44h51.1zm0 1l-51.1-.03 25.46 44 38.3-22.06-12.66-21.9zm-.56 89.35l-25.44-44.04-38.31 22.1 12.7 21.94h51.05zm-51.04 1l-12.7 21.9 38.3 22.1 25.44-44h-51.04zm25.15 44.85l-38.37-22.1-12.66 21.88 2.25 3.88 23.34 40.33 25.43-43.98zm26.48 45.48l-51.13-.05 25.5 44.05 38.3-22.1-12.67-21.9zm-.56 89.35l-25.48-44.07-38.31 22.1 12.75 21.98h51.04zm-51.04 1l-12.72 21.9 38.32 22.1 25.44-44h-51.04zm25.15 44.86l-38.4-22.18-12.66 21.92 2.25 3.9 23.38 40.35 25.43-44zm-24.68 44.4l51.08.03 12.67-21.9-38.3-22.1-25.45 44zm63.74 22.9l-12.7-21.9h-51.05l25.44 44 38.3-22.1zm-37.82-67.73l38.3 22.1 12.68-21.92-12.86-22.25-12.68-21.9-25.44 43.98zm51.83.67l-12.7 21.9 38.32 22.1 25.44-44H600.8zm26.04 45.35l-25.43 44h51.06l12.7-21.9-38.32-22.1zm.48-.86l38.3 22.12 1.06-1.82 11.62-20.1-11.3-19.53-14.24-24.65-25.44 44zm28.25-41.1l23.3 40.28 25.43-43.98-38.3-22.1-12.68 21.92 2.25 3.9zm24.14 40.8h51.1l12.66-21.9-38.32-22.1-25.43 44zm63.76 22.9l-12.7-21.9H679.7l25.44 43.98 38.32-22.1zm-37.83-67.75l38.32 22.13 12.67-21.92-12.86-22.24-12.68-21.94-25.45 44zm51.83.67l-12.68 21.9 38.3 22.1 25.42-44h-51.04zm26.02 45.35l-25.43 44h51.05l12.7-21.9-38.32-22.1zm.5-.86l38.28 22.1 1.05-1.82 11.66-20.08-11.3-19.53-14.24-24.65-25.45 44zm28.24-41.1l23.3 40.28 25.44-43.98-38.3-22.1-12.68 21.92 2.24 3.9zm24.1 40.8h51.04l12.72-21.9-38.32-22.1-25.44 44zm63.75 22.9l-12.7-21.9H836.3l25.44 43.98 38.32-22.1zM861.4 947.8l25.4-44.02h-51.04l-12.66 21.92 38.3 22.1zm.85-89.5l25.45 44.02 13.02-22.53 12.52-21.65-12.67-21.9-38.32 22.08zm-.5-.84l38.28-22.07-12.67-21.9h-51.04l25.44 43.98zm-25.43-45l51.04.02 12.72-21.9-38.32-22.1-25.44 44zm25.08-45.33l25.4-44h-51.04l-12.66 21.9 38.3 22.1zm.85-89.5l25.45 44.03 13.02-22.52 12.52-21.68-12.67-21.9-38.32 22.08zm-.5-.83l38.28-22.1-12.67-21.9h-51.04l25.44 44zm-25.43-44.98h51.04l12.72-21.9-38.32-22.08-25.44 44zm-13.7-66.6l-12.68 21.93 2.24 3.88 23.3 40.3 25.44-44-38.3-22.1zm-13.24 22.9l-25.45 44 38.33 22.1 1.05-1.82 11.62-20.1-11.3-19.53-14.24-24.66zm-26.3 43.52l25.4-44h-51.04l-12.66 21.9 38.3 22.1zm0-88.97l-38.2 22.06v.1l12.6 21.82h51.05l-25.44-44zm-39.34 22.2L731.06 543l-25.44 44 38.3 22.08 12.68-21.9-12.86-22.27zm-64.62-22.4l-12.65 21.88 38.3 22.1 25.46-44h-51.1zm-13.15 22.74l-12.67 21.93 2.25 3.88 23.3 40.3 25.43-44-38.3-22.1zm-13.23 22.9l-25.44 44 38.3 22.1 1.06-1.82 11.62-20.1-11.3-19.53-14.24-24.66zm-26.28 43.52l25.4-44H600.8l-12.7 21.9 38.36 22.1zm0-88.97l-38.27 22.06v.1l12.65 21.82h51.05l-25.44-44zm-39.36 22.2L574.42 543l-25.44 44 38.3 22.08 12.68-21.9-12.86-22.27zm-64.6-22.4l-12.68 21.9 38.28 22.08 25.44-44H522.5zm-13.17 22.74l-12.66 21.93 2.25 3.88 23.3 40.3 25.43-44-38.32-22.1zm-38.66 66.9l38.36 22.1 1-1.82 11.62-20.1-11.3-19.53-14.25-24.64-25.43 44zm26.02 45.35l12.63 21.9 38.33-22.06-25.43-44-11 19-14.54 25.15zm-26.03 45.34l25.43 44 25.54-44.18-12.6-21.9-38.37 22.08zm0 89.98l38.36 22.1 1-1.84 11.62-20.1-11.3-19.5-14.25-24.65-25.43 44zm26.02 45.34l12.63 21.9 38.33-22.05-25.43-43.98-11 19-14.54 25.14zm-26.03 45.34l25.43 44 25.54-44.18-12.6-21.92-38.37 22.1zm0 89.98l38.36 22.08 1-1.82 11.62-20.1-11.3-19.5-14.25-24.65-25.43 43.98zm26.02 45.34l12.63 21.9 38.3-22.1-25.42-44-11 19.05-14.5 25.15zm25.82 44.68l51.06-.04-25.44-44-38.31 22.12 12.7 21.92zm64.94-23l12.5-21.64-12.67-22-38.3 22.2 25.45 43.98 13-22.53zM575 993.7l25.52 44.18 25.45-43.98-38.3-22.1-12.67 21.9zm51.83 89.67l38.34-22.13-12.73-21.86H601.4l25.43 44zm26.47-44.5l12.67 21.9 38.3-22.1-25.43-43.98-11 19.05-14.54 25.14zm25.82 44.7l51.1-.04-25.45-43.98-38.3 22.1 12.65 21.92zm64.96-23l12.52-21.7-12.67-21.98-38.3 22.22 25.44 43.98 13-22.53zm-12.46-66.82l25.54 44.13 25.44-43.98-38.3-22.07-12.68 21.93zm51.82 89.66l38.28-22.08-12.66-21.92H758l25.44 44zm26.5-44.54l12.67 21.9 38.32-22.1-25.44-44-11 19.06-14.54 25.14zm25.82 44.68l51.08-.03-25.44-43.98-38.3 22.1 12.66 21.92zm64.96-23l12.52-21.68-12.67-22-38.3 22.23 25.43 43.98 13.02-22.53zm38.52-66.66l-38.3-22.12-12.7 21.9 25.56 44.2 25.44-43.98zm-26.02-45.35l-12.85-22.3-12.7-21.86-25.44 44 38.32 22.08 12.67-21.92zm26.02-45.34l-25.44-44.03-11.92 20.63-13.63 23.57 12.67 21.9 38.32-22.08zm0-90l-38.3-22.1-12.7 21.9 25.56 44.2 25.44-44zm-26.02-45.32l-12.85-22.3-12.7-21.87-25.44 44 38.32 22.1 12.67-21.92zm26.02-45.35l-25.44-44-11.92 20.6-13.63 23.58 12.67 21.92 38.32-22.1zm0-89.98l-38.3-22.14-12.7 21.93 25.56 44.2 25.44-43.98zm-26.02-45.33l-12.85-22.3L887.7 543l-25.45 44 38.32 22.08 12.65-21.86zm392.6-44.7l-12.7 21.88 38.3 22.1 25.43-44h-51.04zm-235 225.8l-12.72 21.9 38.32 22.07 25.44-44h-51.05zm0-1l51.13-.04-25.44-44-38.3 22.1v.1l12.6 21.83zm104.8.3l38.3 22.12 12.68-21.9-12.86-22.27-12.68-21.94-25.44 44zm37.82 22.93l-38.27-22.06-25.44 43.98h51.05l12.66-21.93zm-38.67-23.42l25.46-44h-51.1l-12.67 21.9 38.3 22.1zm-.5.84l-38.3-22.03-12.67 21.83 2.25 3.88 23.3 40.3 25.43-43.98zM1137 793.42l-14.26-24.6-25.44 44 38.3 22.1 1.06-1.87 11.62-20.1-11.3-19.53zm-40.18 20.2l-25.4 44.04h51.04l12.7-21.9-38.34-22.13zm25.64 45l-51.04.04 25.44 44 38.3-22.1-12.7-21.95zm.84-.5l12.67 21.95 38.3-22.1-25.43-44-11 19-14.54 25.15zm51.47.67l-38.3 22.1 12.65 21.88h51.1l-25.45-44zm-25.08-45.35l25.4 44 38.3-22.1-12.66-21.9h-51.05zm51.92-.5l25.54 44.17 25.44-44-38.3-22.08-12.68 21.92zm26.4 44.68l51.08.03 12.66-21.92-38.32-22.1-25.43 44zm63.74 22.9l-12.7-21.9H1228l25.44 44 38.32-22.1zm-37.83-67.75l38.32 22.14 1.06-1.84 11.62-20.1-11.3-19.54-14.24-24.65-25.45 43.98zm-.84-.5l25.38-44h-51.04l-12.66 21.92 38.3 22.1zm-25.66-44.97l51.13-.02-25.44-44-38.3 22.1v.1l12.6 21.83zm.57-89.35l25.44 44 38.28-22.08-12.66-21.92H1228zm24.6 44.5l-25.45-43.98-11.9 20.62-13.63 23.53 12.67 21.9 38.3-22.08zm-38.52-23.3l12.53-21.64-12.66-21.9-38.3 22.1 25.43 43.98 13-22.52zm-13.86 23l-25.45-44-38.3 22.1 12.65 21.9h51.1zm-51.94.5l-12.67-21.9-38.3 22.1 25.44 43.98 25.54-44.2zm-51.47-.7l38.37-22.05-12.75-21.94h-51.05l25.44 44zm-.83.5l-25.45-44.02-11.9 20.62-13.64 23.57 12.67 21.9 38.32-22.08zm-38.53-23.3l12.53-21.64-12.67-21.9-38.3 22.1 25.43 43.98 13-22.52zm-.34 46.42l-12.68-21.9-25.44 43.98 38.3 22.1 12.68-21.92-12.86-22.26zm-.3 45l-38.3-22.07-25.45 44h51.1l12.66-21.94zm.85.48l-12.67 21.88 25.54 44.2 25.45-44-38.32-22.08zm12.3 67.08l-12.65-21.87-38.3 22.1 25.43 43.98 13-22.53 12.53-21.67zm-11.34 21.6L1045 903.27l12.67 21.9 38.32-22.08-25.45-44-11.9 20.63zm37.86 24.23l-38.23 22.06v.1l12.62 21.83h51.05l-25.44-44zm.84-.5l25.44 44.03 25.54-44.2-12.67-21.92-38.3 22.1zm51.82.32l-12.65 21.9 38.3 22.1 25.46-44h-51.1zm26.5-45.47l25.45 44.04 13-22.53 12.53-21.67-12.67-21.9-38.3 22.08zm39.62 21.45l-13.63 23.54 12.68 21.9 38.3-22.1-25.43-43.98-11.9 20.63zm37.83 24.23l-38.2 22.06v.1l12.6 21.83h51.05l-25.45-44zm.85-.5l25.45 44.03 25.54-44.18-12.66-21.92-38.32 22.1zm39.18-22.57l12.7 21.9h51.04l-25.44-44-38.3 22.1zm-.5-.84l38.32-22.07-25.44-44-11 19-14.54 25.14 12.67 21.92zM1282.2 771.7l23.3 40.32 25.44-43.98-38.3-22.1-12.68 21.9 2.24 3.87zm-2.8-4.85l25.54-44.17-12.67-21.9-38.32 22.08 25.45 44zm13.72-66.6l12.7 21.9h51.04l-25.44-44-38.3 22.1zm-.5-.84l38.32-22.06-25.44-44-11 19-14.54 25.15 12.67 21.9zm-13.5-22.44l12.7-21.9-38.32-22.08-25.43 43.98h51.05zm-51.94-.48l25.44-43.98-38.3-22.1-12.68 21.93 25.54 44.15zm-26.38-44.63l12.7-21.9-38.3-22.1-25.45 44h51.05zm0 1l-51.1.02 25.45 44 38.3-22.1-12.65-21.92zm-26.5 44.5l-25.44-43.97-11 19-14.54 25.14 12.67 21.92 38.3-22.1zm-51.82-.4l12.7-21.86-38.3-22.13-25.45 44h51.06zm-51.94-.47l25.45-43.98-38.32-22.1-12.67 21.93 25.54 44.15zm-26.38-44.63l12.66-21.9-38.3-22.1-25.45 44h51.1zm0 1l-51.1-.03 25.46 44 38.3-22.06-12.66-21.9zm-.56 89.35l-25.44-44.04-38.3 22.1 12.7 21.94h51.04zm-51.04 1l-12.7 21.9 38.3 22.1 25.44-44h-51.04zm25.15 44.85l-38.37-22.1-12.66 21.88 2.25 3.88 23.34 40.33 25.43-43.98zm26.48 45.48l-51.13-.05 25.5 44.05 38.3-22.1-12.67-21.9zm-.56 89.35l-25.48-44.07-38.3 22.1 12.74 21.98h51.04zm-51.04 1l-12.72 21.9 38.32 22.1 25.44-44h-51.04zm25.15 44.86l-38.4-22.18-12.66 21.92 2.25 3.9 23.38 40.35 25.43-44zm-24.68 44.4l51.08.03 12.67-21.9-38.3-22.1-25.45 44zm63.74 22.9l-12.7-21.9h-51.05l25.44 44 38.3-22.1zm-37.82-67.73l38.3 22.1 12.68-21.92-12.86-22.25-12.68-21.9-25.44 43.98zm51.83.67l-12.7 21.9 38.32 22.1 25.44-44h-51.05zm26.04 45.35l-25.43 44h51.06l12.7-21.9-38.32-22.1zm.48-.86l38.3 22.12 1.06-1.82 11.62-20.1-11.3-19.53-14.24-24.65-25.44 44zm28.25-41.1l23.3 40.28 25.43-43.98-38.3-22.1-12.68 21.92 2.25 3.9zm24.14 40.8h51.1l12.66-21.9-38.3-22.1-25.45 44zm63.76 22.9l-12.7-21.9h-51.05l25.45 43.98 38.3-22.1zm-37.82-67.75l38.3 22.13 12.68-21.92-12.86-22.24-12.68-21.94-25.44 44zm51.82.67l-12.68 21.9 38.3 22.1 25.43-44h-51.04zm26.02 45.35l-25.43 44h51.05l12.7-21.9-38.32-22.1zm.5-.86l38.28 22.1 1.05-1.82 11.66-20.08-11.3-19.53-14.24-24.65-25.45 44zm28.24-41.1l23.3 40.28 25.44-43.98-38.3-22.1-12.68 21.92 2.24 3.9zm24.1 40.8h51.04l12.7-21.9-38.3-22.1-25.44 44zm63.75 22.9l-12.7-21.9h-51.05l25.44 43.98 38.3-22.1zm-38.67-68.24l25.4-44.02h-51.04l-12.66 21.92 38.3 22.1zm.85-89.5l25.45 44.02 13.02-22.53 12.52-21.65-12.67-21.9-38.32 22.08zm-.5-.84l38.3-22.07-12.7-21.9h-51.03l25.44 43.98zm-25.43-45l51.04.02 12.7-21.9-38.3-22.1-25.44 44zm25.08-45.33l25.4-44h-51.04l-12.66 21.9 38.3 22.1zm.85-89.5l25.45 44.03 13.02-22.52 12.52-21.68-12.67-21.9-38.32 22.08zm-.5-.83l38.3-22.1-12.7-21.9h-51.03l25.44 44zm-25.43-44.98h51.04l12.7-21.9-38.3-22.08-25.44 44zm-13.7-66.6l-12.68 21.93 2.24 3.88 23.3 40.3 25.44-44-38.3-22.1zm-13.24 22.9l-25.45 44 38.33 22.1 1.05-1.82 11.62-20.1-11.3-19.53-14.24-24.66zm-26.3 43.52l25.4-44h-51.04l-12.66 21.9 38.3 22.1zm0-88.97l-38.2 22.06v.1l12.6 21.82h51.06l-25.45-44zm-39.34 22.2l-12.68-21.9-25.44 44 38.3 22.08 12.68-21.9-12.86-22.27zm-64.62-22.4l-12.65 21.88 38.3 22.1 25.46-44h-51.1zm-13.15 22.74l-12.67 21.93 2.25 3.88 23.3 40.3 25.43-44-38.3-22.1zm-13.23 22.9l-25.44 44 38.3 22.1 1.06-1.82 11.62-20.1-11.3-19.53-14.24-24.66zm-26.28 43.52l25.4-44h-51.05l-12.7 21.9 38.36 22.1zm0-88.97l-38.27 22.06v.1l12.65 21.82h51.05l-25.44-44zm-39.36 22.2l-12.68-21.9-25.44 44 38.3 22.08 12.68-21.9-12.86-22.27zm-64.6-22.4l-12.67 21.9 38.27 22.08 25.44-44H992.5zm-13.17 22.74l-12.66 21.93 2.25 3.88 23.3 40.3 25.43-44-38.32-22.1zm-38.66 66.9l38.36 22.1 1-1.82 11.62-20.1-11.3-19.53-14.25-24.64-25.43 44zm26.02 45.35l12.63 21.9 38.33-22.06-25.43-44-11 19-14.54 25.15zm-26.03 45.34l25.43 44 25.54-44.18-12.6-21.9-38.37 22.08zm0 89.98l38.36 22.1 1-1.84 11.62-20.1-11.3-19.5-14.25-24.65-25.43 44zm26.02 45.34l12.63 21.9 38.33-22.05-25.43-43.98-11 19-14.54 25.14zm-26.03 45.34l25.43 44 25.54-44.18-12.6-21.92-38.37 22.1zm0 89.98l38.36 22.08 1-1.82 11.62-20.1-11.3-19.5-14.25-24.65-25.43 43.98zm26.02 45.34l12.63 21.9 38.3-22.1-25.42-44-11 19.05-14.5 25.15zm25.82 44.68l51.06-.04-25.44-44-38.3 22.12 12.68 21.92zm64.94-23l12.5-21.64-12.67-22-38.3 22.2 25.45 43.98 13-22.53zM1045 993.7l25.52 44.18 25.45-43.98-38.3-22.1-12.67 21.9zm51.83 89.67l38.34-22.13-12.73-21.86h-51.05l25.43 44zm26.47-44.5l12.67 21.9 38.3-22.1-25.43-43.98-11 19.05-14.54 25.14zm25.82 44.7l51.1-.04-25.45-43.98-38.3 22.1 12.65 21.92zm64.96-23l12.52-21.7-12.67-21.98-38.3 22.22 25.44 43.98 13-22.53zm-12.46-66.82l25.54 44.13 25.44-43.98-38.3-22.07-12.68 21.93zm51.82 89.66l38.28-22.08-12.66-21.92H1228l25.44 44zm26.5-44.54l12.67 21.9 38.32-22.1-25.44-44-11 19.06-14.54 25.14zm25.82 44.68l51.08-.03-25.44-43.98-38.3 22.1 12.66 21.92zm64.96-23l12.52-21.68-12.67-22-38.3 22.23 25.43 43.98 13.02-22.53zm38.52-66.66l-38.3-22.12-12.68 21.9 25.54 44.2 25.44-43.98zm-26.02-45.35l-12.84-22.3-12.7-21.86-25.45 44 38.32 22.08 12.67-21.92zm26.02-45.34l-25.44-44.03-11.92 20.63-13.62 23.57 12.66 21.9 38.32-22.08zm0-90l-38.3-22.1-12.68 21.9 25.54 44.2 25.44-44zm-26.02-45.32l-12.84-22.3-12.7-21.87-25.45 44 38.32 22.1 12.67-21.92zm26.02-45.35l-25.44-44-11.92 20.6-13.62 23.58 12.66 21.92 38.32-22.1zm0-89.98l-38.3-22.14-12.68 21.93 25.54 44.2 25.44-43.98zm-26.02-45.33l-12.84-22.3-12.7-21.92-25.43 44 38.32 22.08 12.65-21.86zm392.6-44.7l-12.7 21.88 38.3 22.1 25.43-44h-51.04zm-235 225.8l-12.72 21.9 38.32 22.07 25.44-44h-51.05zm0-1l51.13-.04-25.44-44-38.3 22.1v.1l12.6 21.83zm104.8.3l38.3 22.12 12.68-21.9-12.86-22.27-12.68-21.94-25.44 44zm37.82 22.93l-38.27-22.06-25.44 43.98h51.05l12.66-21.93zm-38.67-23.42l25.46-44h-51.1l-12.67 21.9 38.3 22.1zm-.5.84l-38.3-22.03-12.67 21.83 2.25 3.88 23.3 40.3 25.43-43.98zM1607 793.42l-14.26-24.6-25.44 44 38.3 22.1 1.06-1.87 11.62-20.1-11.3-19.53zm-40.18 20.2l-25.4 44.04h51.04l12.7-21.9-38.34-22.13zm25.64 45l-51.04.04 25.44 44 38.3-22.1-12.7-21.95zm.84-.5l12.67 21.95 38.3-22.1-25.43-44-11 19-14.54 25.15zm51.47.67l-38.3 22.1 12.65 21.88h51.1l-25.45-44zm-25.08-45.35l25.4 44 38.3-22.1-12.66-21.9h-51.05zm51.92-.5l25.54 44.17 25.44-44-38.3-22.08-12.68 21.92zm26.4 44.68l51.08.03 12.66-21.92-38.32-22.1-25.43 44zm63.74 22.9l-12.7-21.9H1698l25.44 44 38.32-22.1zm-37.83-67.75l38.32 22.14 1.06-1.84 11.62-20.1-11.3-19.54-14.24-24.65-25.45 43.98zm-.84-.5l25.38-44h-51.04l-12.66 21.92 38.3 22.1zm-25.66-44.97l51.13-.02-25.44-44-38.3 22.1v.1l12.6 21.83zm.57-89.35l25.44 44 38.28-22.08-12.66-21.92H1698zm24.6 44.5l-25.45-43.98-11.9 20.62-13.63 23.53 12.67 21.9 38.3-22.08zm-38.52-23.3l12.53-21.64-12.66-21.9-38.3 22.1 25.43 43.98 13-22.52zm-13.86 23l-25.45-44-38.3 22.1 12.65 21.9h51.1zm-51.94.5l-12.67-21.9-38.3 22.1 25.44 43.98 25.54-44.2zm-51.47-.7l38.37-22.05-12.75-21.94h-51.05l25.44 44zm-.83.5l-25.45-44.02-11.9 20.62-13.64 23.57 12.67 21.9 38.32-22.08zm-38.53-23.3l12.53-21.64-12.67-21.9-38.3 22.1 25.43 43.98 13-22.52zm-.34 46.42l-12.68-21.9-25.44 43.98 38.3 22.1 12.68-21.92-12.86-22.26zm-.3 45l-38.3-22.07-25.45 44h51.1l12.66-21.94zm.85.48l-12.67 21.88 25.54 44.2 25.45-44-38.32-22.08zm12.3 67.08l-12.65-21.87-38.3 22.1 25.43 43.98 13-22.53 12.53-21.67zm-11.34 21.6L1515 903.27l12.67 21.9 38.32-22.08-25.45-44-11.9 20.63zm37.86 24.23l-38.23 22.06v.1l12.62 21.83h51.05l-25.44-44zm.84-.5l25.44 44.03 25.54-44.2-12.67-21.92-38.3 22.1zm51.82.32l-12.65 21.9 38.3 22.1 25.46-44h-51.1zm26.5-45.47l25.45 44.04 13-22.53 12.53-21.67-12.67-21.9-38.3 22.08zm39.62 21.45l-13.63 23.54 12.68 21.9 38.3-22.1-25.43-43.98-11.9 20.63zm37.83 24.23l-38.2 22.06v.1l12.6 21.83h51.05l-25.45-44zm.85-.5l25.45 44.03 25.54-44.18-12.66-21.92-38.32 22.1zm39.18-22.57l12.7 21.9h51.04l-25.44-44-38.3 22.1zm-.5-.84l38.32-22.07-25.44-44-11 19-14.54 25.14 12.67 21.92zM1752.2 771.7l23.3 40.32 25.44-43.98-38.3-22.1-12.68 21.9 2.24 3.87zm-2.8-4.85l25.54-44.17-12.67-21.9-38.32 22.08 25.45 44zm13.72-66.6l12.7 21.9h51.04l-25.44-44-38.3 22.1zm-.5-.84l38.32-22.06-25.44-44-11 19-14.54 25.15 12.67 21.9zm-13.5-22.44l12.7-21.9-38.32-22.08-25.43 43.98h51.05zm-51.94-.48l25.44-43.98-38.3-22.1-12.68 21.93 25.54 44.15zm-26.38-44.63l12.7-21.9-38.3-22.1-25.45 44h51.05zm0 1l-51.1.02 25.45 44 38.3-22.1-12.65-21.92zm-26.5 44.5l-25.44-43.97-11 19-14.54 25.14 12.67 21.92 38.3-22.1zm-51.82-.4l12.7-21.86-38.3-22.13-25.45 44h51.06zm-51.94-.47l25.45-43.98-38.32-22.1-12.67 21.93 25.54 44.15zm-26.38-44.63l12.66-21.9-38.3-22.1-25.45 44h51.1zm0 1l-51.1-.03 25.46 44 38.3-22.06-12.66-21.9zm-.56 89.35l-25.44-44.04-38.32 22.1 12.72 21.94h51.04zm-51.04 1l-12.72 21.9 38.32 22.1 25.44-44h-51.04zm25.15 44.85l-38.37-22.1-12.66 21.88 2.25 3.88 23.34 40.33 25.43-43.98zm26.48 45.48l-51.13-.05 25.5 44.05 38.3-22.1-12.67-21.9zm-.56 89.35l-25.48-44.07-38.32 22.1 12.76 21.98h51.04zm-51.04 1l-12.72 21.9 38.32 22.1 25.44-44h-51.04zm25.15 44.86l-38.4-22.18-12.66 21.92 2.25 3.9 23.38 40.35 25.43-44zm-24.68 44.4l51.08.03 12.67-21.9-38.3-22.1-25.45 44zm63.74 22.9l-12.7-21.9h-51.05l25.44 44 38.3-22.1zm-37.82-67.73l38.3 22.1 12.68-21.92-12.86-22.25-12.68-21.9-25.44 43.98zm51.83.67l-12.7 21.9 38.32 22.1 25.44-44h-51.05zm26.04 45.35l-25.43 44h51.06l12.7-21.9-38.32-22.1zm.48-.86l38.3 22.12 1.06-1.82 11.62-20.1-11.3-19.53-14.24-24.65-25.44 44zm28.25-41.1l23.3 40.28 25.43-43.98-38.3-22.1-12.68 21.92 2.25 3.9zm24.14 40.8h51.1l12.66-21.9-38.3-22.1-25.45 44zm63.76 22.9l-12.7-21.9h-51.05l25.45 43.98 38.3-22.1zm-37.82-67.75l38.3 22.13 12.68-21.92-12.86-22.24-12.68-21.94-25.44 44zm51.82.67l-12.68 21.9 38.3 22.1 25.43-44h-51.04zm26.02 45.35l-25.43 44h51.05l12.7-21.9-38.32-22.1zm.5-.86l38.28 22.1 1.05-1.82 11.66-20.08-11.3-19.53-14.24-24.65-25.45 44zm28.24-41.1l23.3 40.28 25.44-43.98-38.3-22.1-12.68 21.92 2.24 3.9zm24.1 40.8h51.04l12.7-21.9-38.3-22.1-25.44 44zm63.75 22.9l-12.7-21.9h-51.05l25.44 43.98 38.3-22.1zm-38.67-68.24l25.4-44.02h-51.04l-12.66 21.92 38.3 22.1zm.85-89.5l25.45 44.02 13.02-22.53 12.52-21.65-12.67-21.9-38.32 22.08zm-.5-.84l38.3-22.07-12.7-21.9h-51.03l25.44 43.98zm-25.43-45l51.04.02 12.7-21.9-38.3-22.1-25.44 44zm25.08-45.33l25.4-44h-51.04l-12.66 21.9 38.3 22.1zm.85-89.5l25.45 44.03 13.02-22.52 12.52-21.68-12.67-21.9-38.32 22.08zm-.5-.83l38.3-22.1-12.7-21.9h-51.03l25.44 44zm-25.43-44.98h51.04l12.7-21.9-38.3-22.08-25.44 44zm-13.7-66.6l-12.68 21.93 2.24 3.88 23.3 40.3 25.44-44-38.3-22.1zm-13.24 22.9l-25.45 44 38.33 22.1 1.05-1.82 11.62-20.1-11.3-19.53-14.24-24.66zm-26.3 43.52l25.4-44h-51.04l-12.66 21.9 38.3 22.1zm0-88.97l-38.2 22.06v.1l12.6 21.82h51.06l-25.45-44zm-39.34 22.2l-12.68-21.9-25.44 44 38.3 22.08 12.68-21.9-12.86-22.27zm-64.62-22.4l-12.65 21.88 38.3 22.1 25.46-44h-51.1zm-13.15 22.74l-12.67 21.93 2.25 3.88 23.3 40.3 25.43-44-38.3-22.1zm-13.23 22.9l-25.44 44 38.3 22.1 1.06-1.82 11.62-20.1-11.3-19.53-14.24-24.66zm-26.28 43.52l25.4-44h-51.05l-12.7 21.9 38.36 22.1zm0-88.97l-38.27 22.06v.1l12.65 21.82h51.05l-25.44-44zm-39.36 22.2l-12.68-21.9-25.44 44 38.3 22.08 12.68-21.9-12.86-22.27zm-64.6-22.4l-12.68 21.9 38.28 22.08 25.44-44h-51.04zm-13.17 22.74l-12.66 21.93 2.25 3.88 23.3 40.3 25.43-44-38.32-22.1zm-38.66 66.9l38.36 22.1 1-1.82 11.62-20.1-11.3-19.53-14.25-24.64-25.43 44zm26.02 45.35l12.63 21.9 38.33-22.06-25.43-44-11 19-14.54 25.15zm-26.03 45.34l25.43 44 25.55-44.18-12.62-21.9-38.36 22.08zm0 89.98l38.36 22.1 1-1.84 11.62-20.1-11.3-19.5-14.25-24.65-25.43 44zm26.02 45.34l12.63 21.9 38.33-22.05-25.43-43.98-11 19-14.54 25.14zm-26.03 45.34l25.43 44 25.55-44.18-12.62-21.92-38.36 22.1zm0 89.98l38.36 22.08 1-1.82 11.62-20.1-11.3-19.5-14.25-24.65-25.43 43.98zm26.02 45.34l12.63 21.9 38.3-22.1-25.42-44-11 19.05-14.5 25.15zm25.82 44.68l51.06-.04-25.44-44-38.32 22.12 12.7 21.92zm64.94-23l12.5-21.64-12.67-22-38.3 22.2 25.45 43.98 13-22.53zM1515 993.7l25.52 44.18 25.45-43.98-38.3-22.1-12.67 21.9zm51.83 89.67l38.34-22.13-12.73-21.86h-51.05l25.43 44zm26.47-44.5l12.67 21.9 38.3-22.1-25.43-43.98-11 19.05-14.54 25.14zm25.82 44.7l51.1-.04-25.45-43.98-38.3 22.1 12.65 21.92zm64.96-23l12.52-21.7-12.67-21.98-38.3 22.22 25.44 43.98 13-22.53zm-12.46-66.82l25.54 44.13 25.44-43.98-38.3-22.07-12.68 21.93zm51.82 89.66l38.28-22.08-12.66-21.92H1698l25.44 44zm26.5-44.54l12.67 21.9 38.32-22.1-25.44-44-11 19.06-14.54 25.14zm25.82 44.68l51.08-.03-25.44-43.98-38.3 22.1 12.66 21.92zm64.96-23l12.52-21.68-12.67-22-38.3 22.23 25.43 43.98 13.02-22.53zm38.52-66.66l-38.3-22.12-12.68 21.9 25.54 44.2 25.44-43.98zm-26.02-45.35l-12.84-22.3-12.7-21.86-25.45 44 38.32 22.08 12.67-21.92zm26.02-45.34l-25.44-44.03-11.92 20.63-13.62 23.57 12.66 21.9 38.32-22.08zm0-90l-38.3-22.1-12.68 21.9 25.54 44.2 25.44-44zm-26.02-45.32l-12.84-22.3-12.7-21.87-25.45 44 38.32 22.1 12.67-21.92zm26.02-45.35l-25.44-44-11.92 20.6-13.62 23.58 12.66 21.92 38.32-22.1zm0-89.98l-38.3-22.14-12.68 21.93 25.54 44.2 25.44-43.98zm-26.02-45.33l-12.84-22.3-12.7-21.92-25.43 44 38.32 22.08 12.65-21.86zm392.6-44.7l-12.7 21.88 38.3 22.1 25.43-44h-51.04zm-235 225.8l-12.72 21.9 38.32 22.07 25.44-44h-51.05zm0-1l51.13-.04-25.44-44-38.3 22.1v.1l12.6 21.83zm104.8.3l38.3 22.12 12.68-21.9-12.86-22.27-12.68-21.94-25.44 44zm37.82 22.93l-38.27-22.06-25.44 43.98h51.05l12.66-21.93zm-38.67-23.42l25.46-44h-51.1l-12.67 21.9 38.3 22.1zm-.5.84l-38.3-22.03-12.67 21.83 2.25 3.88 23.3 40.3 25.43-43.98zM2077 793.42l-14.26-24.6-25.44 44 38.3 22.1 1.06-1.87 11.62-20.1-11.3-19.53zm-40.18 20.2l-25.4 44.04h51.04l12.7-21.9-38.34-22.13zm25.64 45l-51.04.04 25.44 44 38.3-22.1-12.7-21.95zm.84-.5l12.67 21.95 38.3-22.1-25.43-44-11 19-14.54 25.15zm51.47.67l-38.3 22.1 12.65 21.88h51.1l-25.45-44zm-25.08-45.35l25.4 44 38.3-22.1-12.66-21.9h-51.05zm51.92-.5l25.54 44.17 25.44-44-38.3-22.08-12.68 21.92zm26.4 44.68l51.08.03 12.66-21.92-38.32-22.1-25.43 44zm63.74 22.9l-12.7-21.9H2168l25.44 44 38.32-22.1zm-37.83-67.75l38.32 22.14 1.06-1.84 11.62-20.1-11.3-19.54-14.24-24.65-25.45 43.98zm-.84-.5l25.4-44h-51.06l-12.66 21.92 38.3 22.1zm-25.66-44.97l51.13-.02-25.44-44-38.3 22.1v.1l12.6 21.83zm.57-89.35l25.44 44 38.28-22.08-12.66-21.92H2168zm24.6 44.5l-25.45-43.98-11.9 20.62-13.63 23.53 12.67 21.9 38.3-22.08zm-38.52-23.3l12.53-21.64-12.66-21.9-38.3 22.1 25.43 43.98 13-22.52zm-13.86 23l-25.45-44-38.3 22.1 12.65 21.9h51.1zm-51.94.5l-12.67-21.9-38.3 22.1 25.44 43.98 25.54-44.2zm-51.47-.7l38.37-22.05-12.75-21.94h-51.05l25.44 44zm-.83.5l-25.45-44.02-11.9 20.62-13.64 23.57 12.67 21.9 38.32-22.08zm-38.53-23.3l12.53-21.64-12.67-21.9-38.3 22.1 25.43 43.98 13-22.52zm-.34 46.42l-12.68-21.9-25.44 43.98 38.3 22.1 12.68-21.92-12.86-22.26zm-.3 45l-38.3-22.07-25.45 44h51.1l12.66-21.94zm.85.48l-12.67 21.88 25.54 44.2 25.45-44-38.32-22.08zm12.3 67.08l-12.65-21.87-38.3 22.1 25.43 43.98 13-22.53 12.53-21.67zm-11.34 21.6L1985 903.27l12.67 21.9 38.32-22.08-25.45-44-11.9 20.63zm37.86 24.23l-38.23 22.06v.1l12.62 21.83h51.05l-25.44-44zm.84-.5l25.44 44.03 25.54-44.2-12.67-21.92-38.3 22.1zm51.82.32l-12.65 21.9 38.3 22.1 25.46-44h-51.1zm26.5-45.47l25.45 44.04 13-22.53 12.53-21.67-12.67-21.9-38.3 22.08zm39.62 21.45l-13.63 23.54 12.68 21.9 38.3-22.1-25.43-43.98-11.9 20.63zm37.83 24.23l-38.2 22.06v.1l12.6 21.83h51.04l-25.43-44zm.85-.5l25.45 44.03 25.54-44.18-12.66-21.92-38.32 22.1zm39.18-22.57l12.7 21.9h51.04l-25.44-44-38.3 22.1zm-.5-.84l38.32-22.07-25.44-44-11 19-14.54 25.14 12.67 21.92zM2222.2 771.7l23.3 40.32 25.44-43.98-38.3-22.1-12.68 21.9 2.24 3.87zm-2.8-4.85l25.54-44.17-12.67-21.9-38.32 22.08 25.45 44zm13.72-66.6l12.7 21.9h51.04l-25.44-44-38.3 22.1zm-.5-.84l38.32-22.06-25.44-44-11 19-14.54 25.15 12.67 21.9zm-13.5-22.44l12.7-21.9-38.32-22.08-25.43 43.98h51.05zm-51.94-.48l25.44-43.98-38.3-22.1-12.68 21.93 25.54 44.15zm-26.38-44.63l12.7-21.9-38.3-22.1-25.45 44h51.05zm0 1l-51.1.02 25.44 44 38.32-22.1-12.66-21.92zm-26.5 44.5l-25.44-43.97-11 19-14.54 25.14 12.67 21.92 38.3-22.1zm-51.82-.4l12.7-21.86-38.3-22.13-25.45 44h51.06zm-51.94-.47l25.45-43.98-38.32-22.1-12.67 21.93 25.54 44.15zm-26.38-44.63l12.66-21.9-38.3-22.1-25.45 44h51.1zm0 1l-51.1-.03 25.46 44 38.3-22.06-12.66-21.9zm-.56 89.35l-25.44-44.04-38.32 22.1 12.72 21.94h51.04zm-51.04 1l-12.72 21.9 38.32 22.1 25.44-44h-51.04zm25.15 44.85l-38.37-22.1-12.66 21.88 2.25 3.88 23.34 40.33 25.43-43.98zm26.48 45.48l-51.13-.05 25.5 44.05 38.3-22.1-12.67-21.9zm-.56 89.35l-25.48-44.07-38.32 22.1 12.76 21.98h51.04zm-51.04 1l-12.72 21.9 38.32 22.1 25.44-44h-51.04zm25.15 44.86l-38.4-22.18-12.66 21.92 2.25 3.9 23.38 40.35 25.43-44zm-24.68 44.4l51.08.03 12.67-21.9-38.3-22.1-25.45 44zm63.74 22.9l-12.7-21.9h-51.05l25.44 44 38.3-22.1zm-37.82-67.73l38.3 22.1 12.68-21.92-12.86-22.25-12.68-21.9-25.44 43.98zm51.83.67l-12.7 21.9 38.32 22.1 25.44-44h-51.05zm26.04 45.35l-25.43 44h51.06l12.7-21.9-38.32-22.1zm.48-.86l38.3 22.12 1.06-1.82 11.62-20.1-11.3-19.53-14.24-24.65-25.44 44zm28.25-41.1l23.3 40.28 25.43-43.98-38.3-22.1-12.68 21.92 2.25 3.9zm24.14 40.8h51.1l12.66-21.9-38.3-22.1-25.45 44zm63.76 22.9l-12.7-21.9h-51.05l25.45 43.98 38.3-22.1zm-37.82-67.75l38.3 22.13 12.68-21.92-12.86-22.24-12.68-21.94-25.44 44zm51.82.67l-12.68 21.9 38.3 22.1 25.42-44h-51.04zm26.02 45.35l-25.43 44h51.05l12.7-21.9-38.32-22.1zm.5-.86l38.28 22.1 1.05-1.82 11.66-20.08-11.3-19.53-14.24-24.65-25.45 44zm28.24-41.1l23.3 40.28 25.44-43.98-38.3-22.1-12.68 21.92 2.24 3.9zm24.1 40.8h51.04l12.7-21.9-38.3-22.1-25.44 44zm63.75 22.9l-12.7-21.9h-51.05l25.44 43.98 38.3-22.1zm-38.67-68.24l25.4-44.02h-51.04l-12.66 21.92 38.3 22.1zm.85-89.5l25.45 44.02 13.02-22.53 12.52-21.65-12.67-21.9-38.32 22.08zm-.5-.84l38.28-22.07-12.67-21.9h-51.04l25.44 43.98zm-25.43-45l51.04.02 12.7-21.9-38.3-22.1-25.44 44zm25.08-45.33l25.4-44h-51.04l-12.66 21.9 38.3 22.1zm.85-89.5l25.45 44.03 13.02-22.52 12.52-21.68-12.67-21.9-38.32 22.08zm-.5-.83l38.28-22.1-12.67-21.9h-51.04l25.44 44zm-25.43-44.98h51.04l12.7-21.9-38.3-22.08-25.44 44zm-13.7-66.6l-12.68 21.93 2.24 3.88 23.3 40.3 25.44-44-38.3-22.1zm-13.24 22.9l-25.45 44 38.33 22.1 1.05-1.82 11.62-20.1-11.3-19.53-14.24-24.66zm-26.3 43.52l25.4-44h-51.04l-12.66 21.9 38.3 22.1zm0-88.97l-38.2 22.06v.1l12.6 21.82h51.05l-25.44-44zm-39.34 22.2l-12.68-21.9-25.44 44 38.3 22.08 12.68-21.9-12.86-22.27zm-64.62-22.4l-12.65 21.88 38.3 22.1 25.46-44h-51.1zm-13.15 22.74l-12.67 21.93 2.25 3.88 23.3 40.3 25.43-44-38.3-22.1zm-13.23 22.9l-25.44 44 38.3 22.1 1.06-1.82 11.62-20.1-11.3-19.53-14.24-24.66zm-26.28 43.52l25.4-44h-51.05l-12.7 21.9 38.36 22.1zm0-88.97l-38.27 22.06v.1l12.65 21.82h51.05l-25.44-44zm-39.36 22.2l-12.68-21.9-25.44 44 38.3 22.08 12.68-21.9-12.86-22.27zm-64.6-22.4l-12.68 21.9 38.28 22.08 25.44-44h-51.04zm-13.17 22.74l-12.66 21.93 2.25 3.88 23.3 40.3 25.43-44-38.32-22.1zm-38.66 66.9l38.36 22.1 1-1.82 11.62-20.1-11.3-19.53-14.25-24.64-25.43 44zm26.02 45.35l12.63 21.9 38.33-22.06-25.43-44-11 19-14.54 25.15zm-26.03 45.34l25.43 44 25.55-44.18-12.62-21.9-38.36 22.08zm0 89.98l38.36 22.1 1-1.84 11.62-20.1-11.3-19.5-14.25-24.65-25.43 44zm26.02 45.34l12.63 21.9 38.33-22.05-25.43-43.98-11 19-14.54 25.14zm-26.03 45.34l25.43 44 25.55-44.18-12.62-21.92-38.36 22.1zm0 89.98l38.36 22.08 1-1.82 11.62-20.1-11.3-19.5-14.25-24.65-25.43 43.98zm26.02 45.34l12.63 21.9 38.3-22.1-25.42-44-11 19.05-14.5 25.15zm25.82 44.68l51.06-.04-25.44-44-38.32 22.12 12.7 21.92zm64.94-23l12.5-21.64-12.67-22-38.3 22.2 25.45 43.98 13-22.53zM1985 993.7l25.52 44.18 25.45-43.98-38.3-22.1-12.67 21.9zm51.83 89.67l38.34-22.13-12.73-21.86h-51.05l25.43 44zm26.47-44.5l12.67 21.9 38.3-22.1-25.43-43.98-11 19.05-14.54 25.14zm25.82 44.7l51.1-.04-25.45-43.98-38.3 22.1 12.65 21.92zm64.96-23l12.52-21.7-12.67-21.98-38.3 22.22 25.44 43.98 13-22.53zm-12.46-66.82l25.54 44.13 25.44-43.98-38.3-22.07-12.68 21.93zm51.82 89.66l38.28-22.08-12.66-21.92H2168l25.44 44zm26.5-44.54l12.67 21.9 38.32-22.1-25.44-44-11 19.06-14.54 25.14zm25.82 44.68l51.08-.03-25.44-43.98-38.3 22.1 12.66 21.92zm64.96-23l12.52-21.68-12.67-22-38.3 22.23 25.43 43.98 13.02-22.53zm38.52-66.66l-38.3-22.12-12.7 21.9 25.56 44.2 25.44-43.98zm-26.02-45.35l-12.84-22.3-12.7-21.86-25.45 44 38.32 22.08 12.67-21.92zm26.02-45.34l-25.44-44.03-11.92 20.63-13.63 23.57 12.67 21.9 38.32-22.08zm0-90l-38.3-22.1-12.7 21.9 25.56 44.2 25.44-44zm-26.02-45.32l-12.84-22.3-12.7-21.87-25.45 44 38.32 22.1 12.67-21.92zm26.02-45.35l-25.44-44-11.92 20.6-13.63 23.58 12.67 21.92 38.32-22.1zm0-89.98l-38.3-22.14-12.7 21.93 25.56 44.2 25.44-43.98zm-26.02-45.33l-12.84-22.3-12.7-21.92-25.43 44 38.32 22.08 12.65-21.86z" clip-path="url(#d)"/></g><defs><linearGradient id="a" x2="1" gradientUnits="userSpaceOnUse" gradientTransform="matrix(-2022.16 242.788 -242.788 -2022.16 2094 142)"><stop offset="0" stop-color="#f02828"/><stop offset=".49" stop-color="#f02828"/><stop offset="1" stop-color="#ff5a23"/></linearGradient><linearGradient id="b" x2="1" gradientUnits="userSpaceOnUse" gradientTransform="matrix(-171.83 -478.314 478.314 -171.83 1822 761)"><stop offset="0" stop-color="#f02d28" stop-opacity=".4"/><stop offset="1" stop-color="#282037" stop-opacity="0"/></linearGradient><linearGradient id="c" x2="1" gradientUnits="userSpaceOnUse" gradientTransform="matrix(177.918 461.26 -461.26 177.918 506 273)"><stop offset="0" stop-color="#f02d28" stop-opacity=".4"/><stop offset="1" stop-color="#201e37" stop-opacity="0"/></linearGradient></defs></svg>