<svg xmlns="http://www.w3.org/2000/svg" fill-rule="evenodd" viewBox="0 0 1920 885" clip-rule="evenodd"><g transform="translate(-30)"><path fill="url(#a)" d="M30 100L1950 0v785L30 885V100z"/><path fill="#19193c" d="M1950 100L30 0v785l1920 100V100z"/><path fill="url(#b)" d="M1950 100L30 0v785l1920 100V100z"/><path fill="url(#c)" d="M1950 100L30 0v785l1920 100V100z"/><clipPath id="d"><path d="M1950 100L30 0v785l1920 100V100z"/></clipPath><path fill="#fff" fill-opacity=".02" d="M1695 442v-.08h-1l.3-.18-25.43-44-11.92 20.64-13.63 23.57H1590l-12.68-21.92-38.04 21.92h-2l.3-.18-25.43-44-11.9 20.64-13.6 23.55h-53.34l-12.66-21.92-38.03 21.92h-1.94l.3-.18-25.44-44-11.9 20.64-13.64 23.58h-53.33l-12.62-21.92L1226 442l-.33.18 25.43 44 25.55-44.18h53.33l12.64 21.9 38.04-21.9h1.95l-.3.18 25.44 44 25.54-44.18h53.34l12.62 21.9 38.03-21.9h2l-.34.18 25.45 44 25.54-44.18h53.34l12.6 21.9 38.04-21.9h1v1l-.18-.34-38.34 22.07.06.1 12.6 21.82h25.83v1h-25.82l-12.67 21.92 38.34 22 .18-.3v2l-25.26 43.7h25.26v1h-25.26l25.23 43.63v2l-.18-.3-38.32 22.08.06.1 12.6 21.83h25.83v1h-25.82l-12.67 21.93 38.34 22 .18-.3v2l-25.26 43.68h25.23v1h-25.26l25.27 43.7v1.96l-.18-.3-38.32 22.08.06.1 12.6 21.83h25.83v1h-25.82l-12.67 21.9 38.34 22.12.18-.33v1.86l-25.26 43.7H1695v.1h25.82l12.67-21.92-38.32-22.08-.18.3v-1.95l25.26-43.67H1695v-1h25.26L1695 804.3v-1.96l.18.3 38.3-22.06-12.66-21.92H1695v-1h25.82l12.67-21.86-38.32-22.1-.18.3v-2l25.26-43.66H1695v-1h25.26L1695 623.68v-2l.18.27 38.3-22.07-12.66-21.92H1695v-1h25.82l12.67-21.9-38.32-22.08-.18.38v-2l25.26-43.68H1695v-1h25.26L1695 443v-1zm1 0l-.33.18 25.43 44 25.55-44.18h53.33l12.64 21.9 38.04-21.9h1.95l-.3.18 25.44 44 25.54-44.18h53.34l12.62 21.9 38.03-21.9h2l-.34.18 25.45 44 25.54-44.18h53.33l12.62 21.9 38.03-21.9h1v1l-.18-.34-38.34 22.07.06.1 12.6 21.82h25.83v1h-25.82l-12.67 21.92 38.34 22 .18-.3v2l-25.26 43.7h25.26v1h-25.26l25.23 43.63v2l-.18-.3-38.32 22.08.06.1 12.6 21.83h25.83v1h-25.82l-12.67 21.93 38.34 22 .18-.3v2l-25.26 43.68h25.23v1h-25.26l25.27 43.7v1.96l-.18-.3-38.32 22.08.06.1 12.6 21.83h25.83v1h-25.82l-12.67 21.9 38.34 22.12.18-.33v1.86l-25.26 43.7H2165v1h-25.26l25.26 43.7v1h-1l.3-.2-25.43-43.98-11.92 20.63-13.63 23.57H2060l-12.68-21.92-38.04 21.92h-2l.3-.18-25.43-44-11.9 20.64-13.6 23.55h-53.34l-12.66-21.92-38.03 21.92h-1.94l.3-.18-25.44-44-11.9 20.64-13.64 23.58h-53.33l-12.62-21.92L1696 984h-1v-.08h-1l.3-.18-25.43-44-11.92 20.64-13.63 23.57H1590l-12.68-21.92-38.04 21.92h-2l.3-.18-25.43-44-11.9 20.64-13.6 23.55h-53.34l-12.66-21.92-38.03 21.92h-1.94l.3-.18-25.44-44-11.9 20.64-13.64 23.58h-53.33l-12.62-21.92L1226 984h-1v-.08h-1l.3-.18-25.43-44-11.92 20.64-13.63 23.57H1120l-12.68-21.92-38.04 21.92h-2l.3-.18-25.43-44-11.9 20.64-13.6 23.55H963.3l-12.66-21.92-38.03 21.92h-1.94l.3-.18-25.44-44-11.9 20.64L859.97 984h-53.34l-12.6-21.92L756 984h-1v-.08h-1l.3-.18-25.43-44-11.92 20.64-13.63 23.57H650l-12.68-21.92-38.04 21.92h-2l.3-.18-25.43-44-11.9 20.64-13.6 23.55H493.3l-12.66-21.92-38.03 21.92h-1.94l.3-.18-25.44-44-11.9 20.64L389.97 984h-53.34l-12.6-21.92L286 984h-1v-.08h-1l.3-.18-25.43-44-11.92 20.64-13.63 23.57H180l-12.68-21.92-38.04 21.92h-2l.3-.18-25.43-44-11.9 20.64-13.6 23.55H23.3l-12.66-21.92-38.03 21.92h-1.94l.3-.18-25.44-44-11.9 20.64L-80.03 984h-53.33l-12.62-21.92L-184 984h-1v-1l.18.3 38.3-22.06-12.66-21.92H-185v-1h25.82l12.67-21.9-38.32-22.1-.18.3v-1.95l25.26-43.67H-185v-1h25.26L-185 804.3v-1.96l.18.3 38.3-22.06-12.66-21.92H-185v-1h25.82l12.67-21.86-38.32-22.1-.18.3v-2l25.26-43.66H-185v-1h25.26L-185 623.68v-2l.18.27 38.3-22.07-12.66-21.92H-185v-1h25.82l12.67-21.9-38.32-22.08-.18.38v-2l25.26-43.68H-185v-1h25.26L-185 443v-2l.18.3 38.3-22.06-12.66-21.92H-185v-1h25.82l12.67-21.9-38.32-22.1-.18.3v-1.94l25.26-43.68H-185v-1h25.26L-185 262.3v-1.96l.18.3 38.3-22.06-12.66-21.92H-185v-1h25.82l12.67-21.86-38.32-22.1-.18.3v-2l25.26-43.66H-185v-1h25.26L-185 81.68v-2l.18.27 38.3-22.07-12.66-21.92H-185v-1h25.82l12.67-21.9-38.32-22.09-.18.38v-2l25.26-43.67H-185v-1h25.26L-185-99v-1h1l-.33.18 25.43 44 25.55-44.18h53.33l12.64 21.9 38.04-21.9h1.95l-.3.18 25.44 44L23.28-100h53.34l12.62 21.9 38.03-21.9h2l-.34.18 25.45 44L179.92-100h53.34l12.6 21.9L283.9-100h1v1l-.18-.34-38.34 22.07.06.1 12.6 21.82h25.83v1h-25.82l-12.67 21.92 38.34 22 .18-.3v2l-25.26 43.7h25.26v1h-25.26l25.23 43.63v2l-.18-.3-38.32 22.08.06.1 12.6 21.83h25.83v1h-25.82l-12.67 21.93 38.34 22 .18-.3v2l-25.26 43.68h25.23v1H259.6l25.27 43.7v1.96l-.18-.3-38.32 22.08.06.1 12.6 21.83h25.83v1h-25.82l-12.67 21.9L284.72 351l.18-.32v1.84l-25.26 43.7H285v.1h25.82l12.67-21.9-38.32-22.1-.18.3v-1.94L310.26 307H285v-1h25.26L285 262.3v-1.96l.18.3 38.3-22.06-12.66-21.92H285v-1h25.82l12.67-21.86-38.32-22.1-.18.3v-2l25.26-43.66H285v-1h25.26L285 81.68v-2l.18.27 38.3-22.07-12.66-21.92H285v-1h25.82l12.67-21.9-38.32-22.09-.18.38v-2l25.26-43.67H285v-1h25.26L285-99v-1h1l-.33.18 25.43 44L336.64-100H390l12.64 21.9 38.04-21.9h1.95l-.3.18 25.44 44L493.28-100h53.34l12.62 21.9 38.03-21.9h2l-.34.18 25.45 44L649.92-100h53.34l12.6 21.9L753.9-100h1v1l-.18-.34-38.34 22.07.06.1 12.6 21.82h25.83v1h-25.82l-12.67 21.92 38.34 22 .18-.3v2l-25.26 43.7h25.26v1h-25.26l25.23 43.63v2l-.18-.3-38.32 22.08.06.1 12.6 21.83h25.83v1h-25.82l-12.67 21.93 38.34 22 .18-.3v2l-25.26 43.68h25.23v1H729.6l25.27 43.7v1.96l-.18-.3-38.32 22.08.06.1 12.6 21.83h25.83v1h-25.82l-12.67 21.9L754.72 351l.18-.32v1.84l-25.26 43.7H755v.1h25.82l12.67-21.9-38.32-22.1-.18.3v-1.94L780.26 307H755v-1h25.26L755 262.3v-1.96l.18.3 38.3-22.06-12.66-21.92H755v-1h25.82l12.67-21.86-38.32-22.1-.18.3v-2l25.26-43.66H755v-1h25.26L755 81.68v-2l.18.27 38.3-22.07-12.66-21.92H755v-1h25.82l12.67-21.9-38.32-22.09-.18.38v-2l25.26-43.67H755v-1h25.26L755-99v-1h1l-.33.18 25.43 44L806.64-100H860l12.64 21.9 38.04-21.9h1.95l-.3.18 25.44 44L963.28-100h53.34l12.62 21.9 38.03-21.9h2l-.34.18 25.45 44 25.54-44.18h53.34l12.6 21.9 38.04-21.9h1v1l-.18-.34-38.34 22.07.06.1 12.6 21.82h25.83v1h-25.82l-12.67 21.92 38.34 22 .18-.3v2l-25.26 43.7h25.26v1h-25.26l25.23 43.63v2l-.18-.3-38.32 22.08.06.1 12.6 21.83h25.83v1h-25.82l-12.67 21.93 38.34 22 .18-.3v2l-25.26 43.68h25.23v1h-25.26l25.27 43.7v1.96l-.18-.3-38.32 22.08.06.1 12.6 21.83h25.83v1h-25.82l-12.67 21.9 38.34 22.12.18-.32v1.84l-25.26 43.7H1225v.1h25.82l12.67-21.9-38.32-22.1-.18.3v-1.94l25.26-43.68H1225v-1h25.26L1225 262.3v-1.96l.18.3 38.3-22.06-12.66-21.92H1225v-1h25.82l12.67-21.86-38.32-22.1-.18.3v-2l25.26-43.66H1225v-1h25.26L1225 81.68v-2l.18.27 38.3-22.07-12.66-21.92H1225v-1h25.82l12.67-21.9-38.32-22.09-.18.38v-2l25.26-43.67H1225v-1h25.26L1225-99v-1h1l-.33.18 25.43 44 25.55-44.18h53.33l12.64 21.9 38.04-21.9h1.95l-.3.18 25.44 44 25.54-44.18h53.34l12.62 21.9 38.03-21.9h2l-.34.18 25.45 44 25.54-44.18h53.34l12.6 21.9 38.04-21.9h1v1l-.18-.34-38.34 22.07.06.1 12.6 21.82h25.83v1h-25.82l-12.67 21.92 38.34 22 .18-.3v2l-25.26 43.7h25.26v1h-25.26l25.23 43.63v2l-.18-.3-38.32 22.08.06.1 12.6 21.83h25.83v1h-25.82l-12.67 21.93 38.34 22 .18-.3v2l-25.26 43.68h25.23v1h-25.26l25.27 43.7v1.96l-.18-.3-38.32 22.08.06.1 12.6 21.83h25.83v1h-25.82l-12.67 21.9 38.34 22.12.18-.32v1.84l-25.26 43.7H1695v.1h25.82l12.67-21.9-38.32-22.1-.18.3v-1.94l25.26-43.68H1695v-1h25.26L1695 262.3v-1.96l.18.3 38.3-22.06-12.66-21.92H1695v-1h25.82l12.67-21.86-38.32-22.1-.18.3v-2l25.26-43.66H1695v-1h25.26L1695 81.68v-2l.18.27 38.3-22.07-12.66-21.92H1695v-1h25.82l12.67-21.9-38.32-22.09-.18.38v-2l25.26-43.67H1695v-1h25.26L1695-99v-1h1l-.33.18 25.43 44 25.55-44.18h53.33l12.64 21.9 38.04-21.9h1.95l-.3.18 25.44 44 25.54-44.18h53.34l12.62 21.9 38.03-21.9h2l-.34.18 25.45 44 25.54-44.18h53.33l12.62 21.9 38.03-21.9h1v1l-.18-.34-38.34 22.07.06.1 12.6 21.82h25.83v1h-25.82l-12.67 21.92 38.34 22 .18-.3v2l-25.26 43.7h25.26v1h-25.26l25.23 43.63v2l-.18-.3-38.32 22.08.06.1 12.6 21.83h25.83v1h-25.82l-12.67 21.93 38.34 22 .18-.3v2l-25.26 43.68h25.23v1h-25.26l25.27 43.7v1.96l-.18-.3-38.32 22.08.06.1 12.6 21.83h25.83v1h-25.82l-12.67 21.9 38.34 22.12.18-.32v1.84l-25.26 43.7H2165v1h-25.26l25.26 43.7v1h-1l.3-.18-25.43-44-11.92 20.64-13.63 23.57H2060l-12.68-21.92-38.04 21.92h-2l.3-.18-25.43-44-11.9 20.64-13.6 23.55h-53.34l-12.66-21.92-38.03 21.92h-1.94l.3-.18-25.44-44-11.9 20.64-13.64 23.58h-53.33l-12.62-21.92L1696 442zm-1 541l.18.3 38.3-22.06-12.66-21.92H1695v-.1h-25.26l25.26 43.7v.08zm-470-541v-.08h-1l.3-.18-25.43-44-11.92 20.64-13.63 23.57H1120l-12.68-21.92-38.04 21.92h-2l.3-.18-25.43-44-11.9 20.64-13.6 23.55H963.3l-12.66-21.92-38.03 21.92h-1.94l.3-.18-25.44-44-11.9 20.64L859.97 442h-53.34l-12.6-21.92L756 442l-.33.18 25.43 44L806.64 442H860l12.64 21.9 38.04-21.9h1.95l-.3.18 25.44 44L963.28 442h53.34l12.62 21.9 38.03-21.9h2l-.34.18 25.45 44 25.54-44.18h53.34l12.6 21.9 38.04-21.9h1v1l-.18-.34-38.34 22.07.06.1 12.6 21.82h25.83v1h-25.82l-12.67 21.92 38.34 22 .18-.3v2l-25.26 43.7h25.26v1h-25.26l25.23 43.63v2l-.18-.3-38.32 22.08.06.1 12.6 21.83h25.83v1h-25.82l-12.67 21.93 38.34 22 .18-.3v2l-25.26 43.68h25.23v1h-25.26l25.27 43.7v1.96l-.18-.3-38.32 22.08.06.1 12.6 21.83h25.83v1h-25.82l-12.67 21.9 38.34 22.12.18-.33v1.86l-25.26 43.7H1225v.1h25.82l12.67-21.92-38.32-22.08-.18.3v-1.95l25.26-43.67H1225v-1h25.26L1225 804.3v-1.96l.18.3 38.3-22.06-12.66-21.92H1225v-1h25.82l12.67-21.86-38.32-22.1-.18.3v-2l25.26-43.66H1225v-1h25.26L1225 623.68v-2l.18.27 38.3-22.07-12.66-21.92H1225v-1h25.82l12.67-21.9-38.32-22.08-.18.38v-2l25.26-43.68H1225v-1h25.26L1225 443v-1zm0 541l.18.3 38.3-22.06-12.66-21.92H1225v-.1h-25.26l25.26 43.7v.08zM755 442v-.08h-1l.3-.18-25.43-44-11.92 20.64-13.63 23.57H650l-12.68-21.92-38.04 21.92h-2l.3-.18-25.43-44-11.9 20.64-13.6 23.55H493.3l-12.66-21.92-38.03 21.92h-1.94l.3-.18-25.44-44-11.9 20.64L389.97 442h-53.34l-12.6-21.92L286 442l-.33.18 25.43 44L336.64 442H390l12.64 21.9 38.04-21.9h1.95l-.3.18 25.44 44L493.28 442h53.34l12.62 21.9 38.03-21.9h2l-.34.18 25.45 44L649.92 442h53.34l12.6 21.9L753.9 442h1v1l-.18-.34-38.34 22.07.06.1 12.6 21.82h25.83v1h-25.82l-12.67 21.92 38.34 22 .18-.3v2l-25.26 43.7h25.26v1h-25.26l25.23 43.63v2l-.18-.3-38.32 22.08.06.1 12.6 21.83h25.83v1h-25.82l-12.67 21.93 38.34 22 .18-.3v2l-25.26 43.68h25.23v1H729.6l25.27 43.7v1.96l-.18-.3-38.32 22.08.06.1 12.6 21.83h25.83v1h-25.82l-12.67 21.9L754.72 893l.18-.33v1.86l-25.26 43.7H755v.1h25.82l12.67-21.92-38.32-22.08-.18.3v-1.95L780.26 849H755v-1h25.26L755 804.3v-1.96l.18.3 38.3-22.06-12.66-21.92H755v-1h25.82l12.67-21.86-38.32-22.1-.18.3v-2l25.26-43.66H755v-1h25.26L755 623.68v-2l.18.27 38.3-22.07-12.66-21.92H755v-1h25.82l12.67-21.9L755.17 533l-.18.38v-2l25.26-43.68H755v-1h25.26L755 443v-1zm0 541l.18.3 38.3-22.06-12.66-21.92H755v-.1h-25.26l25.26 43.7v.08zM285 442v-.08h-1l.3-.18-25.43-44-11.92 20.64-13.63 23.57H180l-12.68-21.92-38.04 21.92h-2l.3-.18-25.43-44-11.9 20.64-13.6 23.55H23.3l-12.66-21.92-38.03 21.92h-1.94l.3-.18-25.44-44-11.9 20.64L-80.03 442h-53.33l-12.62-21.92L-184 442l-.33.18 25.43 44 25.55-44.18h53.33l12.64 21.9 38.04-21.9h1.95l-.3.18 25.44 44L23.28 442h53.34l12.62 21.9 38.03-21.9h2l-.34.18 25.45 44L179.92 442h53.34l12.6 21.9L283.9 442h1v1l-.18-.34-38.34 22.07.06.1 12.6 21.82h25.83v1h-25.82l-12.67 21.92 38.34 22 .18-.3v2l-25.26 43.7h25.26v1h-25.26l25.23 43.63v2l-.18-.3-38.32 22.08.06.1 12.6 21.83h25.83v1h-25.82l-12.67 21.93 38.34 22 .18-.3v2l-25.26 43.68h25.23v1H259.6l25.27 43.7v1.96l-.18-.3-38.32 22.08.06.1 12.6 21.83h25.83v1h-25.82l-12.67 21.9L284.72 893l.18-.33v1.86l-25.26 43.7H285v.1h25.82l12.67-21.92-38.32-22.08-.18.3v-1.95L310.26 849H285v-1h25.26L285 804.3v-1.96l.18.3 38.3-22.06-12.66-21.92H285v-1h25.82l12.67-21.86-38.32-22.1-.18.3v-2l25.26-43.66H285v-1h25.26L285 623.68v-2l.18.27 38.3-22.07-12.66-21.92H285v-1h25.82l12.67-21.9L285.17 533l-.18.38v-2l25.26-43.68H285v-1h25.26L285 443v-1zm0 497.22h-25.26l25.26 43.7v.08l.18.3 38.3-22.06-12.66-21.92H285v-.1zm1410-542h-25.26l25.26 43.7v.08l.18.3 38.3-22.06-12.66-21.92H1695v-.1zM1225 441l.18.3 38.3-22.06-12.66-21.92H1225v-.1h-25.26l25.26 43.7v.08zm-470-43.78h-25.26l25.26 43.7v.08l.18.3 38.3-22.06-12.66-21.92H755v-.1zM285 441l.18.3 38.3-22.06-12.66-21.92H285v-.1h-25.26l25.26 43.7v.08zM180.8-99.5l-12.7 21.9 38.3 22.1 25.45-44H180.8zm-235 225.8l-12.7 21.93 38.32 22.06 25.44-44H-54.2zm0-1l51.15-.02-25.44-44-38.3 22.1v.1l12.6 21.83zm104.81.32l38.33 22.12 12.67-21.9-12.86-22.27-12.68-21.94-25.45 44zm37.84 22.93L50.17 126.5l-25.44 43.97h51.05l12.66-21.92zm-38.66-23.42l25.45-44h-51.1l-12.67 21.9 38.31 22.1zm-.5.84l-38.3-22.03-12.68 21.83 2.25 3.88 23.3 40.3 25.43-43.98zm-37.3 25.45l-14.24-24.6-25.44 44 38.3 22.1 1.06-1.87 11.62-20.1-11.3-19.53zm-40.16 20.2l-25.4 44.04h51.04l12.7-21.9-38.34-22.13zm25.64 45l-51.04.04 25.44 44 38.3-22.1-12.7-21.95zm.84-.5l12.67 21.95 38.3-22.1L23.85 172l-11 18.98-14.54 25.14zm51.48.67l-38.32 22.1 12.66 21.88h51.1l-25.45-44zm-25.1-45.36l25.4 44 38.32-22.08-12.66-21.92H24.7zm51.94-.48l25.54 44.16 25.44-44-38.3-22.08-12.68 21.92zm26.4 44.67l51.08.03 12.66-21.92-38.32-22.1-25.43 44zm63.74 22.9l-12.7-21.9H103l25.44 44 38.32-22.1zm-37.83-67.75l38.32 22.14 1.06-1.84 11.62-20.1-11.3-19.54-14.24-24.65-25.45 43.98zm-.84-.5l25.4-44h-51.06L89.78 148.2l38.3 22.1zm-25.66-44.97l51.13-.02-25.44-44-38.3 22.1v.1l12.6 21.83zm.57-89.35l25.44 44 38.28-22.08-12.66-21.92H103zm24.6 44.5l-25.45-43.98-11.9 20.62L76.6 80.62l12.67 21.9 38.3-22.08zm-38.52-23.3l12.53-21.64-12.66-21.9-38.3 22.1 25.43 43.98 13-22.52zm-13.86 23l-25.45-44-38.3 22.1 12.65 21.9h51.1zm-51.94.5L10.6 58.74l-38.3 22.1 25.44 43.98 25.54-44.2zm-51.47-.7L10.18 57.9-2.58 35.96h-51.04l25.43 44zm-.83.5l-25.45-44.02-11.9 20.62-13.64 23.57 12.67 21.9 38.32-22.08zm-38.53-23.3l12.53-21.64-12.67-21.9-38.3 22.1 25.43 43.98 13-22.52zm-.34 46.42l-12.68-21.9-25.44 43.98 38.3 22.1 12.68-21.92-12.86-22.26zm-.3 45l-38.3-22.07-25.45 44h51.1l12.66-21.94zm.85.48l-12.67 21.88 25.54 44.2 25.45-43.98-38.32-22.1zm12.3 67.08l-12.65-21.87-38.3 22.1 25.43 43.98 13-22.53 12.53-21.67zm-11.34 21.6L-80 261.27l12.67 21.9 38.32-22.08-25.45-44-11.9 20.63zm37.86 24.23l-38.23 22.06v.1l12.62 21.83H-3.1l-25.44-44zm.84-.5l25.44 44.03 25.54-44.2-12.67-21.92-38.3 22.1zm51.82.32l-12.65 21.9 38.3 22.1 25.46-44h-51.1zm26.5-45.47l25.45 44.04 13-22.53 12.53-21.67-12.67-21.9L50.6 216.3zm39.62 21.45L76.6 261.3l12.68 21.9 38.3-22.1-25.43-43.98-11.9 20.63zm37.83 24.23l-38.2 22.06v.1l12.6 21.83h51.04l-25.43-44zm.85-.5l25.45 44.03 25.54-44.18-12.66-21.92-38.32 22.1zm39.18-22.57l12.7 21.9h51.04l-25.44-44-38.3 22.1zm-.5-.84L205.93 216l-25.44-44-11 19-14.54 25.14 12.67 21.92zM157.2 129.7l23.3 40.33 25.44-44-38.3-22.1-12.68 21.9 2.24 3.88zm-2.8-4.85l25.54-44.17-12.67-21.9-38.32 22.08 25.45 44zm13.72-66.6l12.7 21.9h51.04l-25.44-44-38.3 22.1zm-.5-.84l38.32-22.06-25.44-43.98-11 19-14.54 25.13 12.67 21.9zm-13.5-22.44l12.7-21.9-38.32-22.09-25.43 44h51.05zm-51.94-.48L127.6-9.5 89.3-31.6 76.6-9.66l25.54 44.15zM75.78-10.15l12.7-21.9-38.32-22.1-25.43 44h51.05zm0 1l-51.1.03 25.45 43.98 38.3-22.1L75.8-9.15zm-26.5 44.5L23.84-8.63l-11 19L-1.7 35.52l12.67 21.92 38.3-22.1zm-51.82-.4l12.7-21.86-38.3-22.13-25.45 44h51.06zm-51.94-.47L-29.03-9.5l-38.32-22.1-12.67 21.93 25.54 44.15zm-26.38-44.63l12.66-21.9-38.3-22.1-25.45 44h51.1zm0 1l-51.1-.04 25.46 44.03 38.3-22.07-12.66-21.91zm-.56 89.35l-25.44-44.04-38.32 22.1 12.72 21.94h51.04zm-51.04 1l-12.72 21.9 38.32 22.1 25.44-44h-51.04zm25.15 44.85l-38.37-22.1-12.66 21.88 2.25 3.88 23.34 40.34 25.43-44zm26.48 45.48l-51.13-.06 25.5 44.06 38.3-22.1-12.67-21.9zm-.56 89.35l-25.48-44.07-38.32 22.1 12.76 21.98h51.04zm-51.04 1l-12.72 21.9 38.32 22.1 25.44-44h-51.04zm25.15 44.86l-38.4-22.18-12.66 21.92 2.25 3.9 23.38 40.35 25.43-44zm-24.68 44.4l51.08.04 12.67-21.92-38.3-22.1-25.45 44zm63.74 22.9l-12.7-21.9h-51.05l25.44 44 38.3-22.1zm-37.82-67.73l38.3 22.1 12.68-21.92-12.86-22.25-12.68-21.9-25.44 43.98zm51.83.67l-12.7 21.9 38.32 22.08 25.44-43.98H-54.2zm26.04 45.34l-25.43 44.02h51.06l12.7-21.9-38.32-22.1zm.48-.84l38.3 22.12 1.06-1.82 11.62-20.1L12 332.13l-14.24-24.65-25.44 43.98zm28.25-41.1l23.3 40.28 25.43-43.98-38.3-22.1-12.68 21.92 2.25 3.9zm24.14 40.8h51.1l12.66-21.9-38.3-22.1-25.45 44zm63.76 22.9l-12.7-21.9H24.7l25.45 43.98 38.3-22.1zM50.64 306.3l38.3 22.13 12.68-21.92-12.86-22.24-12.68-21.94-25.44 44zm51.82.67l-12.68 21.9 38.3 22.08 25.42-43.98h-51.04zm26.02 45.34l-25.43 44.02h51.05l12.7-21.9-38.32-22.1zm.5-.84l38.28 22.1 1.05-1.82 11.66-20.07-11.3-19.54-14.24-24.65-25.45 43.98zm28.24-41.1l23.3 40.28 25.44-43.98-38.3-22.1-12.68 21.92 2.24 3.9zm24.1 40.8h51.04l12.7-21.9-38.3-22.1-25.44 44zm63.75 22.9l-12.7-21.9H181.3l25.44 43.98 38.31-22.1zM206.4 305.8l25.4-44.02h-51.04l-12.66 21.92 38.3 22.1zm.85-89.5l25.45 44.02 13.02-22.53 12.52-21.65-12.67-21.9-38.32 22.08zm-.5-.84l38.28-22.07-12.67-21.9h-51.04l25.44 43.98zm-25.43-44.98h51.04l12.7-21.9-38.3-22.1-25.44 44zm25.08-45.35l25.4-44h-51.04l-12.66 21.9 38.3 22.1zm.85-89.5L232.7 79.7l13.02-22.52 12.52-21.68-12.67-21.9-38.32 22.08zm-.5-.83l38.28-22.1-12.67-21.9h-51.04l25.44 44zm-25.43-44.98h51.04l12.7-21.9-38.3-22.08-25.44 43.98zm-13.7-66.6l-12.68 21.93 2.24 3.88 23.3 40.3 25.44-44-38.3-22.1zm-13.24 22.9l-25.45 44 38.33 22.1 1.05-1.82 11.62-20.1-11.3-19.53-14.24-24.66zm-26.3 43.52l25.4-44h-51.04l-12.66 21.9 38.3 22.1zm0-88.97L89.9-77.25v.1l12.6 21.82h51.05l-25.44-44zM88.75-77.1L76.06-99 50.6-55l38.33 22.08 12.67-21.9L88.74-77.1zM24.12-99.5L11.47-77.63l38.3 22.1 25.46-44h-51.1zM10.97-76.77L-1.7-54.83l2.25 3.88 23.3 40.3 25.43-44-38.3-22.1zm-13.23 22.9l-25.44 44 38.3 22.1 1.06-1.82 11.62-20.1-11.3-19.53-14.24-24.66zm-26.28 43.52l25.4-44H-54.2l-12.7 21.9 38.36 22.1zm0-88.97L-66.8-77.25v.1l12.65 21.82H-3.1l-25.44-44zM-67.9-77.1L-80.58-99l-25.44 44 38.3 22.08 12.68-21.9L-67.9-77.1zm-64.6-22.4l-12.68 21.9 38.28 22.08 25.44-44h-51.04zm-13.17 22.74l-12.66 21.93 2.25 3.88 23.3 40.3 25.43-44-38.32-22.1zm-38.66 66.9l38.36 22.1 1-1.82 11.62-20.1-11.3-19.53-14.25-24.64-25.43 43.98zm26.02 45.35l12.63 21.9 38.33-22.06-25.43-43.98-11 19-14.54 25.13zm-26.03 45.34l25.43 44 25.55-44.18-12.62-21.9-38.36 22.08zm0 89.97l38.36 22.12 1-1.84 11.62-20.1-11.3-19.5-14.25-24.65-25.43 43.98zm26.02 45.36l12.63 21.9 38.33-22.05-25.43-43.97-11 19-14.54 25.13zm-26.03 45.34l25.43 44 25.55-44.18-12.62-21.92-38.36 22.1zm0 89.98l38.36 22.08 1-1.82 11.62-20.1-11.3-19.5-14.25-24.65-25.43 43.98zm26.02 45.34l12.63 21.9 38.3-22.1-25.42-44-11 19.05-14.5 25.15zm25.82 44.68l51.06-.04-25.44-44-38.32 22.12 12.7 21.92zm64.94-23l12.5-21.64-12.67-22-38.3 22.2 25.45 43.98 13-22.53zM-80 351.7l25.52 44.16 25.45-44-38.3-22.1L-80 351.7zm51.83 89.65l38.34-22.13-12.73-21.86H-53.6l25.43 44zm26.47-44.5l12.67 21.9 38.3-22.1-25.43-43.97-11 19.04-14.54 25.14zm25.82 44.7l51.1-.04-25.45-43.98-38.3 22.1 12.65 21.92zm64.96-23l12.52-21.7-12.67-21.98-38.3 22.22 25.44 43.98 13-22.53zm-12.46-66.82l25.54 44.13 25.44-44-38.3-22.05-12.68 21.93zm51.82 89.66l38.28-22.08-12.66-21.92H103l25.44 44zm26.5-44.54l12.67 21.9 38.32-22.1-25.44-44-11 19.06-14.54 25.14zm25.82 44.68l51.08-.03-25.44-43.98-38.3 22.1 12.66 21.92zm64.96-23l12.52-21.68-12.67-22-38.3 22.23 25.43 43.98 13.02-22.53zm38.52-66.67l-38.3-22.1-12.7 21.9 25.56 44.2 25.44-44zm-26.02-45.34l-12.85-22.3-12.7-21.86-25.44 44 38.32 22.08 12.67-21.92zm26.02-45.34l-25.44-44.03-11.92 20.63-13.63 23.57 12.67 21.9 38.32-22.08zm0-89.98l-38.3-22.13-12.7 21.9 25.56 44.2 25.44-43.98zm-26.02-45.34l-12.85-22.3-12.7-21.87-25.44 44 38.32 22.1 12.67-21.92zm26.02-45.35l-25.44-44-11.92 20.6-13.63 23.58 12.67 21.92 38.32-22.1zm0-89.97l-38.3-22.15-12.7 21.93 25.56 44.2 25.44-43.98zm-26.02-45.34l-12.85-22.3L232.7-99l-25.45 44 38.32 22.08 12.65-21.86zm392.6-44.7L638.1-77.6l38.3 22.1 25.43-44H650.8zm-235 225.8l-12.72 21.9 38.32 22.07 25.44-44H415.8zm0-1l51.13-.04-25.44-44-38.3 22.1v.1l12.6 21.83zm104.8.3l38.3 22.12 12.68-21.9-12.86-22.27-12.68-21.94-25.44 44zm37.82 22.93l-38.28-22.06-25.43 43.97h51.05l12.66-21.92zm-38.67-23.42l25.46-44h-51.1l-12.67 21.9 38.31 22.1zm-.5.84l-38.3-22.03-12.67 21.83 2.25 3.88 23.3 40.3 25.43-43.98zM482 151.42l-14.26-24.6-25.44 44 38.3 22.1 1.06-1.87 11.62-20.1-11.3-19.53zm-40.18 20.2l-25.4 44.04h51.04l12.7-21.9-38.34-22.13zm25.64 45l-51.03.04 25.43 44 38.3-22.1-12.7-21.95zm.84-.5l12.67 21.95 38.3-22.1L493.85 172l-11 18.98-14.54 25.14zm51.47.67l-38.3 22.1 12.65 21.88h51.1l-25.45-44zm-25.08-45.36l25.4 44 38.3-22.08-12.66-21.92H494.7zm51.92-.48l25.54 44.16 25.44-44-38.3-22.08-12.68 21.92zm26.4 44.67l51.08.03 12.66-21.92-38.32-22.1-25.43 44zm63.74 22.9l-12.7-21.9H573l25.44 44 38.32-22.1zm-37.83-67.75l38.32 22.14 1.06-1.84 11.62-20.1-11.3-19.54-14.24-24.65-25.45 43.98zm-.84-.5l25.38-44h-51.04l-12.66 21.92 38.3 22.1zm-25.66-44.97l51.13-.02-25.44-44-38.3 22.1v.1l12.6 21.83zm.57-89.35l25.44 44 38.28-22.08-12.66-21.92H573zm24.6 44.5l-25.45-43.98-11.9 20.62-13.63 23.53 12.67 21.9 38.3-22.08zm-38.52-23.3l12.53-21.64-12.66-21.9-38.32 22.1 25.45 43.98 13-22.52zm-13.86 23l-25.45-44-38.3 22.1 12.65 21.9h51.1zm-51.94.5l-12.67-21.9-38.3 22.1 25.44 43.98 25.54-44.2zm-51.47-.7l38.37-22.05-12.75-21.94h-51.05l25.44 44zm-.83.5l-25.45-44.02-11.9 20.62-13.64 23.57 12.67 21.9 38.32-22.08zm-38.53-23.3l12.53-21.64-12.67-21.9L364 35.7l25.43 43.98 13-22.52zm-.34 46.42l-12.68-21.9-25.44 43.98 38.3 22.1 12.68-21.92-12.86-22.26zm-.3 45l-38.3-22.07-25.45 44h51.1l12.66-21.94zm.85.48l-12.67 21.88 25.54 44.2 25.45-43.98-38.32-22.1zm12.3 67.08l-12.65-21.87-38.3 22.1 25.43 43.98 13-22.53 12.53-21.67zm-11.34 21.6L390 261.27l12.67 21.9 38.32-22.08-25.45-44-11.9 20.63zm37.86 24.23l-38.23 22.06v.1l12.62 21.83h51.05l-25.44-44zm.84-.5l25.44 44.03 25.54-44.2-12.67-21.92-38.3 22.1zm51.82.32l-12.65 21.9 38.3 22.1 25.46-44h-51.1zm26.5-45.47l25.45 44.04 13-22.53 12.53-21.67-12.67-21.9-38.3 22.08zm39.62 21.45L546.6 261.3l12.68 21.9 38.3-22.1-25.43-43.98-11.9 20.63zm37.83 24.23l-38.2 22.06v.1l12.6 21.83h51.04l-25.43-44zm.85-.5l25.45 44.03 25.54-44.18-12.66-21.92-38.32 22.1zm39.18-22.57l12.7 21.9h51.04l-25.44-44-38.3 22.1zm-.5-.84L675.93 216l-25.44-44-11 19-14.54 25.14 12.67 21.92zM627.2 129.7l23.3 40.33 25.44-44-38.3-22.1-12.68 21.9 2.24 3.88zm-2.8-4.85l25.54-44.17-12.67-21.9-38.32 22.08 25.45 44zm13.72-66.6l12.7 21.9h51.04l-25.44-44-38.3 22.1zm-.5-.84l38.32-22.06-25.44-43.98-11 19-14.54 25.13 12.67 21.9zm-13.5-22.44l12.7-21.9-38.32-22.09-25.43 44h51.05zm-51.94-.48L597.6-9.5l-38.3-22.1L546.6-9.66l25.54 44.15zm-26.38-44.63l12.7-21.9-38.32-22.1-25.43 44h51.05zm0 1l-51.1.03 25.44 43.98 38.32-22.1-12.66-21.91zm-26.5 44.5L493.84-8.63l-11 19-14.54 25.14 12.67 21.92 38.3-22.1zm-51.82-.4l12.7-21.86-38.3-22.13-25.44 44h51.04zm-51.94-.47L440.97-9.5l-38.32-22.1-12.67 21.93 25.54 44.15zm-26.38-44.63l12.66-21.9-38.3-22.1-25.45 44h51.1zm0 1l-51.1-.04 25.46 44.03 38.3-22.07-12.66-21.91zm-.56 89.35l-25.44-44.04-38.31 22.1 12.7 21.94h51.05zm-51.04 1l-12.72 21.9 38.32 22.1 25.44-44h-51.04zm25.15 44.85l-38.37-22.1-12.66 21.88 2.25 3.88 23.34 40.34 25.43-44zm26.48 45.48l-51.13-.06 25.5 44.06 38.3-22.1-12.67-21.9zm-.56 89.35l-25.48-44.07-38.31 22.1 12.75 21.98h51.04zm-51.04 1l-12.7 21.9 38.3 22.1 25.44-44h-51.04zm25.15 44.86l-38.4-22.18-12.66 21.92 2.25 3.9 23.38 40.35 25.43-44zm-24.68 44.4l51.08.04 12.67-21.92-38.3-22.1-25.45 44zm63.74 22.9l-12.7-21.9h-51.05l25.44 44 38.3-22.1zm-37.82-67.73l38.3 22.1 12.68-21.92-12.86-22.25-12.68-21.9-25.44 43.98zm51.83.67l-12.7 21.9 38.32 22.08 25.44-43.98H415.8zm26.04 45.34l-25.42 44.02h51.04l12.7-21.9-38.32-22.1zm.48-.84l38.3 22.12 1.06-1.82 11.62-20.1-11.3-19.53-14.24-24.65-25.44 43.98zm28.25-41.1l23.3 40.28 25.43-43.98-38.3-22.1-12.68 21.92 2.25 3.9zm24.14 40.8h51.1l12.66-21.9-38.32-22.1-25.43 44zm63.76 22.9l-12.7-21.9H494.7l25.44 43.98 38.32-22.1zm-37.83-67.75l38.32 22.13 12.67-21.92-12.86-22.24-12.68-21.94-25.45 44zm51.83.67l-12.68 21.9 38.3 22.08 25.42-43.98h-51.04zm26.02 45.34l-25.43 44.02h51.05l12.7-21.9-38.32-22.1zm.5-.84l38.28 22.1 1.05-1.82 11.66-20.07-11.3-19.54-14.24-24.65-25.45 43.98zm28.24-41.1l23.3 40.28 25.44-43.98-38.3-22.1-12.68 21.92 2.24 3.9zm24.1 40.8h51.04l12.72-21.9-38.32-22.1-25.44 44zm63.75 22.9l-12.7-21.9H651.3l25.44 43.98 38.32-22.1zM676.4 305.8l25.4-44.02h-51.04l-12.66 21.92 38.3 22.1zm.85-89.5l25.45 44.02 13.02-22.53 12.52-21.65-12.67-21.9-38.32 22.08zm-.5-.84l38.28-22.07-12.67-21.9h-51.04l25.44 43.98zm-25.43-44.98h51.04l12.72-21.9-38.32-22.1-25.44 44zm25.08-45.35l25.4-44h-51.04l-12.66 21.9 38.3 22.1zm.85-89.5L702.7 79.7l13.02-22.52 12.52-21.68-12.67-21.9-38.32 22.08zm-.5-.83l38.28-22.1-12.67-21.9h-51.04l25.44 44zm-25.43-44.98h51.04l12.72-21.9-38.32-22.08-25.44 43.98zm-13.7-66.6l-12.68 21.93 2.24 3.88 23.3 40.3 25.44-44-38.3-22.1zm-13.24 22.9l-25.45 44 38.33 22.1 1.05-1.82 11.62-20.1-11.3-19.53-14.24-24.66zm-26.3 43.52l25.4-44h-51.04l-12.66 21.9 38.3 22.1zm0-88.97l-38.2 22.06v.1l12.6 21.82h51.05l-25.44-44zm-39.34 22.2L546.06-99l-25.44 44 38.3 22.08 12.68-21.9-12.86-22.27zm-64.62-22.4l-12.65 21.88 38.3 22.1 25.46-44h-51.1zm-13.15 22.74L468.3-54.83l2.25 3.88 23.3 40.3 25.43-44-38.3-22.1zm-13.23 22.9l-25.44 44 38.3 22.1 1.06-1.82 11.62-20.1-11.3-19.53-14.24-24.66zm-26.28 43.52l25.4-44H415.8l-12.7 21.9 38.36 22.1zm0-88.97L403.2-77.25v.1l12.65 21.82h51.05l-25.44-44zM402.1-77.1L389.42-99l-25.44 44 38.3 22.08 12.68-21.9L402.1-77.1zm-64.6-22.4l-12.68 21.9 38.28 22.08 25.44-44H337.5zm-13.17 22.74l-12.66 21.93 2.25 3.88 23.3 40.3 25.43-44-38.32-22.1zm-38.66 66.9l38.36 22.1 1-1.82 11.62-20.1-11.3-19.53-14.25-24.64-25.43 43.98zM311.7 35.5l12.63 21.9 38.33-22.06-25.43-43.98-11 19-14.54 25.13zm-26.03 45.34l25.43 44 25.54-44.18-12.6-21.9-38.37 22.08zm0 89.97l38.36 22.12 1-1.84 11.62-20.1-11.3-19.5-14.25-24.65-25.43 43.98zm26.02 45.36l12.63 21.9 38.33-22.05-25.43-43.97-11 19-14.54 25.13zm-26.03 45.34l25.43 44 25.54-44.18-12.6-21.92-38.37 22.1zm0 89.98l38.36 22.08 1-1.82 11.62-20.1-11.3-19.5-14.25-24.65-25.43 43.98zm26.02 45.34l12.63 21.9 38.3-22.1-25.42-44-11 19.05-14.5 25.15zm25.82 44.68l51.06-.04-25.44-44-38.31 22.12 12.7 21.92zm64.94-23l12.5-21.64-12.67-22-38.3 22.2 25.45 43.98 13-22.53zM390 351.7l25.52 44.16 25.45-44-38.3-22.1L390 351.7zm51.83 89.65l38.34-22.13-12.73-21.86H416.4l25.43 44zm26.47-44.5l12.67 21.9 38.3-22.1-25.43-43.97-11 19.04-14.54 25.14zm25.82 44.7l51.1-.04-25.45-43.98-38.3 22.1 12.65 21.92zm64.96-23l12.52-21.7-12.67-21.98-38.3 22.22 25.44 43.98 13-22.53zm-12.46-66.82l25.54 44.13 25.44-44-38.3-22.05-12.68 21.93zm51.82 89.66l38.28-22.08-12.66-21.92H573l25.44 44zm26.5-44.54l12.67 21.9 38.32-22.1-25.44-44-11 19.06-14.54 25.14zm25.82 44.68l51.08-.03-25.44-43.98-38.3 22.1 12.66 21.92zm64.96-23l12.52-21.68-12.67-22-38.3 22.23 25.43 43.98 13.02-22.53zm38.52-66.67l-38.3-22.1-12.7 21.9 25.56 44.2 25.44-44zm-26.02-45.34l-12.85-22.3-12.7-21.86-25.44 44 38.32 22.08 12.67-21.92zm26.02-45.34l-25.44-44.03-11.92 20.63-13.63 23.57 12.67 21.9 38.32-22.08zm0-89.98l-38.3-22.13-12.7 21.9 25.56 44.2 25.44-43.98zm-26.02-45.34l-12.85-22.3-12.7-21.87-25.44 44 38.32 22.1 12.67-21.92zm26.02-45.35l-25.44-44-11.92 20.6-13.63 23.58 12.67 21.92 38.32-22.1zm0-89.97l-38.3-22.15-12.7 21.93 25.56 44.2 25.44-43.98zm-26.02-45.34l-12.85-22.3L702.7-99l-25.45 44 38.32 22.08 12.65-21.86zm392.6-44.7l-12.7 21.88 38.3 22.1 25.43-44h-51.04zm-235 225.8l-12.72 21.9 38.32 22.07 25.44-44H885.8zm0-1l51.13-.04-25.44-44-38.3 22.1v.1l12.6 21.83zm104.8.3l38.3 22.12 12.68-21.9-12.86-22.27-12.68-21.94-25.44 44zm37.82 22.93l-38.28-22.06-25.43 43.97h51.05l12.66-21.92zm-38.67-23.42l25.46-44h-51.1l-12.67 21.9 38.3 22.1zm-.5.84l-38.3-22.03-12.67 21.83 2.25 3.88 23.3 40.3 25.43-43.98zM952 151.42l-14.26-24.6-25.44 44 38.3 22.1 1.06-1.87 11.62-20.1-11.3-19.53zm-40.18 20.2l-25.4 44.04h51.04l12.7-21.9-38.34-22.13zm25.64 45l-51.04.04 25.44 44 38.3-22.1-12.7-21.95zm.84-.5l12.67 21.95 38.3-22.1L963.85 172l-11 18.98-14.54 25.14zm51.48.67l-38.32 22.1 12.66 21.88h51.1l-25.45-44zm-25.1-45.36l25.4 44 38.32-22.08-12.66-21.92H964.7zm51.94-.48l25.54 44.16 25.44-44-38.3-22.08-12.68 21.92zm26.4 44.67l51.08.03 12.66-21.92-38.32-22.1-25.43 44zm63.74 22.9l-12.7-21.9H1043l25.44 44 38.32-22.1zm-37.83-67.75l38.32 22.14 1.06-1.84 11.62-20.1-11.3-19.54-14.24-24.65-25.45 43.98zm-.84-.5l25.38-44h-51.04l-12.66 21.92 38.3 22.1zm-25.66-44.97l51.13-.02-25.44-44-38.3 22.1v.1l12.6 21.83zm.57-89.35l25.44 44 38.28-22.08-12.66-21.92H1043zm24.6 44.5l-25.45-43.98-11.9 20.62-13.63 23.53 12.67 21.9 38.3-22.08zm-38.52-23.3l12.53-21.64-12.66-21.9-38.32 22.1 25.45 43.98 13-22.52zm-13.86 23l-25.45-44-38.3 22.1 12.65 21.9h51.1zm-51.94.5l-12.67-21.9-38.3 22.1 25.44 43.98 25.54-44.2zm-51.47-.7l38.37-22.05-12.75-21.94h-51.04l25.43 44zm-.83.5l-25.45-44.02-11.9 20.62-13.64 23.57 12.67 21.9 38.32-22.08zm-38.53-23.3l12.53-21.64-12.67-21.9L834 35.7l25.43 43.98 13-22.52zm-.34 46.42l-12.68-21.9-25.44 43.98 38.3 22.1 12.68-21.92-12.86-22.26zm-.3 45l-38.3-22.07-25.45 44h51.1l12.66-21.94zm.85.48l-12.67 21.88 25.54 44.2 25.45-43.98-38.32-22.1zm12.3 67.08l-12.65-21.87-38.3 22.1 25.43 43.98 13-22.53 12.53-21.67zm-11.34 21.6L860 261.27l12.67 21.9 38.32-22.08-25.45-44-11.9 20.63zm37.86 24.23l-38.23 22.06v.1l12.62 21.83h51.05l-25.44-44zm.84-.5l25.44 44.03 25.54-44.2-12.67-21.92-38.3 22.1zm51.82.32l-12.65 21.9 38.3 22.1 25.46-44h-51.1zm26.5-45.47l25.45 44.04 13-22.53 12.53-21.67-12.67-21.9-38.32 22.08zm39.62 21.45l-13.63 23.54 12.68 21.9 38.3-22.1-25.43-43.98-11.9 20.63zm37.83 24.23l-38.2 22.06v.1l12.6 21.83h51.05l-25.45-44zm.85-.5l25.45 44.03 25.54-44.18-12.66-21.92-38.32 22.1zm39.18-22.57l12.7 21.9h51.04l-25.44-44-38.3 22.1zm-.5-.84l38.32-22.07-25.44-44-11 19-14.54 25.14 12.67 21.92zM1097.2 129.7l23.3 40.33 25.44-44-38.3-22.1-12.68 21.9 2.24 3.88zm-2.8-4.85l25.54-44.17-12.67-21.9-38.32 22.08 25.45 44zm13.72-66.6l12.7 21.9h51.04l-25.44-44-38.3 22.1zm-.5-.84l38.32-22.06-25.44-43.98-11 19-14.54 25.13 12.67 21.9zm-13.5-22.44l12.7-21.9-38.32-22.09-25.43 44h51.05zm-51.94-.48L1067.6-9.5l-38.3-22.1-12.68 21.93 25.54 44.15zm-26.38-44.63l12.7-21.9-38.32-22.1-25.43 44h51.05zm0 1l-51.1.03 25.45 43.98 38.3-22.1-12.65-21.91zm-26.5 44.5L963.84-8.63l-11 19-14.54 25.14 12.67 21.92 38.3-22.1zm-51.82-.4l12.7-21.86-38.3-22.13-25.45 44h51.06zm-51.94-.47L910.97-9.5l-38.32-22.1-12.67 21.93 25.54 44.15zm-26.38-44.63l12.66-21.9-38.3-22.1-25.45 44h51.1zm0 1l-51.1-.04 25.46 44.03 38.3-22.07-12.66-21.91zm-.56 89.35l-25.44-44.04-38.3 22.1 12.7 21.94h51.04zm-51.04 1l-12.7 21.9 38.3 22.1 25.44-44h-51.04zm25.15 44.85l-38.37-22.1-12.66 21.88 2.25 3.88 23.34 40.34 25.43-44zm26.48 45.48l-51.13-.06 25.5 44.06 38.3-22.1-12.67-21.9zm-.56 89.35l-25.48-44.07-38.3 22.1 12.74 21.98h51.04zm-51.04 1l-12.72 21.9 38.32 22.1 25.44-44h-51.04zm25.15 44.86l-38.4-22.18-12.66 21.92 2.25 3.9 23.38 40.35 25.43-44zm-24.68 44.4l51.08.04 12.67-21.92-38.3-22.1-25.45 44zm63.74 22.9l-12.7-21.9h-51.05l25.44 44 38.3-22.1zm-37.82-67.73l38.3 22.1 12.68-21.92-12.86-22.25-12.68-21.9-25.44 43.98zm51.83.67l-12.7 21.9 38.32 22.08 25.44-43.98H885.8zm26.04 45.34l-25.43 44.02h51.06l12.7-21.9-38.32-22.1zm.48-.84l38.3 22.12 1.06-1.82 11.62-20.1-11.3-19.53-14.24-24.65-25.44 43.98zm28.25-41.1l23.3 40.28 25.43-43.98-38.3-22.1-12.68 21.92 2.25 3.9zm24.14 40.8h51.1l12.66-21.9-38.32-22.1-25.43 44zm63.76 22.9l-12.7-21.9H964.7l25.44 43.98 38.32-22.1zm-37.83-67.75l38.32 22.13 12.67-21.92-12.86-22.24-12.68-21.94-25.45 44zm51.83.67l-12.68 21.9 38.3 22.08 25.43-43.98h-51.04zm26.02 45.34l-25.43 44.02h51.05l12.7-21.9-38.32-22.1zm.5-.84l38.28 22.1 1.05-1.82 11.66-20.07-11.3-19.54-14.24-24.65-25.45 43.98zm28.24-41.1l23.3 40.28 25.44-43.98-38.3-22.1-12.68 21.92 2.24 3.9zm24.1 40.8h51.04l12.7-21.9-38.3-22.1-25.44 44zm63.75 22.9l-12.7-21.9h-51.05l25.44 43.98 38.3-22.1zm-38.67-68.24l25.4-44.02h-51.04l-12.66 21.92 38.3 22.1zm.85-89.5l25.45 44.02 13.02-22.53 12.52-21.65-12.67-21.9-38.32 22.08zm-.5-.84l38.3-22.07-12.7-21.9h-51.03l25.44 43.98zm-25.43-44.98h51.04l12.7-21.9-38.3-22.1-25.44 44zm25.08-45.35l25.4-44h-51.04l-12.66 21.9 38.3 22.1zm.85-89.5l25.45 44.03 13.02-22.52 12.52-21.68-12.67-21.9-38.32 22.08zm-.5-.83l38.3-22.1-12.7-21.9h-51.03l25.44 44zm-25.43-44.98h51.04l12.7-21.9-38.3-22.08-25.44 43.98zm-13.7-66.6l-12.68 21.93 2.24 3.88 23.3 40.3 25.44-44-38.3-22.1zm-13.24 22.9l-25.45 44 38.33 22.1 1.05-1.82 11.62-20.1-11.3-19.53-14.24-24.66zm-26.3 43.52l25.4-44h-51.04l-12.66 21.9 38.3 22.1zm0-88.97l-38.2 22.06v.1l12.6 21.82h51.06l-25.45-44zm-39.34 22.2L1016.06-99l-25.44 44 38.3 22.08 12.68-21.9-12.86-22.27zm-64.62-22.4l-12.65 21.88 38.3 22.1 25.46-44h-51.1zm-13.15 22.74L938.3-54.83l2.25 3.88 23.3 40.3 25.43-44-38.3-22.1zm-13.23 22.9l-25.44 44 38.3 22.1 1.06-1.82 11.62-20.1-11.3-19.53-14.24-24.66zm-26.28 43.52l25.4-44H885.8l-12.7 21.9 38.36 22.1zm0-88.97L873.2-77.25v.1l12.65 21.82h51.05l-25.44-44zM872.1-77.1L859.42-99l-25.44 44 38.3 22.08 12.68-21.9L872.1-77.1zm-64.6-22.4l-12.67 21.9 38.27 22.08 25.44-44H807.5zm-13.17 22.74l-12.66 21.93 2.25 3.88 23.3 40.3 25.43-44-38.32-22.1zm-38.66 66.9l38.36 22.1 1-1.82 11.62-20.1-11.3-19.53-14.25-24.64-25.43 43.98zM781.7 35.5l12.63 21.9 38.33-22.06-25.43-43.98-11 19-14.54 25.13zm-26.03 45.34l25.43 44 25.54-44.18-12.6-21.9-38.37 22.08zm0 89.97l38.36 22.12 1-1.84 11.62-20.1-11.3-19.5-14.25-24.65-25.43 43.98zm26.02 45.36l12.63 21.9 38.33-22.05-25.43-43.97-11 19-14.54 25.13zm-26.03 45.34l25.43 44 25.54-44.18-12.6-21.92-38.37 22.1zm0 89.98l38.36 22.08 1-1.82 11.62-20.1-11.3-19.5-14.25-24.65-25.43 43.98zm26.02 45.34l12.63 21.9 38.3-22.1-25.42-44-11 19.05-14.5 25.15zm25.82 44.68l51.06-.04-25.44-44-38.3 22.12 12.68 21.92zm64.94-23l12.5-21.64-12.67-22-38.3 22.2 25.45 43.98 13-22.53zM860 351.7l25.52 44.16 25.45-44-38.3-22.1L860 351.7zm51.83 89.65l38.34-22.13-12.73-21.86H886.4l25.43 44zm26.47-44.5l12.67 21.9 38.3-22.1-25.43-43.97-11 19.04-14.54 25.14zm25.82 44.7l51.1-.04-25.45-43.98-38.3 22.1 12.65 21.92zm64.96-23l12.52-21.7-12.67-21.98-38.3 22.22 25.44 43.98 13-22.53zm-12.46-66.82l25.54 44.13 25.44-44-38.3-22.05-12.68 21.93zm51.82 89.66l38.28-22.08-12.66-21.92H1043l25.44 44zm26.5-44.54l12.67 21.9 38.32-22.1-25.44-44-11 19.06-14.54 25.14zm25.82 44.68l51.08-.03-25.44-43.98-38.3 22.1 12.66 21.92zm64.96-23l12.52-21.68-12.67-22-38.3 22.23 25.43 43.98 13.02-22.53zm38.52-66.67l-38.3-22.1-12.68 21.9 25.54 44.2 25.44-44zm-26.02-45.34l-12.84-22.3-12.7-21.86-25.45 44 38.32 22.08 12.67-21.92zm26.02-45.34l-25.44-44.03-11.92 20.63-13.62 23.57 12.66 21.9 38.32-22.08zm0-89.98l-38.3-22.13-12.68 21.9 25.54 44.2 25.44-43.98zm-26.02-45.34l-12.84-22.3-12.7-21.87-25.45 44 38.32 22.1 12.67-21.92zm26.02-45.35l-25.44-44-11.92 20.6-13.62 23.58 12.66 21.92 38.32-22.1zm0-89.97l-38.3-22.15-12.68 21.93 25.54 44.2 25.44-43.98zm-26.02-45.34l-12.84-22.3-12.7-21.92-25.43 44 38.32 22.08 12.65-21.86zm392.6-44.7l-12.7 21.88 38.3 22.1 25.43-44h-51.04zm-235 225.8l-12.72 21.9 38.32 22.07 25.44-44h-51.05zm0-1l51.13-.04-25.44-44-38.3 22.1v.1l12.6 21.83zm104.8.3l38.3 22.12 12.68-21.9-12.86-22.27-12.68-21.94-25.44 44zm37.82 22.93l-38.27-22.06-25.44 43.97h51.05l12.66-21.92zm-38.67-23.42l25.46-44h-51.1l-12.67 21.9 38.3 22.1zm-.5.84l-38.3-22.03-12.67 21.83 2.25 3.88 23.3 40.3 25.43-43.98zM1422 151.42l-14.26-24.6-25.44 44 38.3 22.1 1.06-1.87 11.62-20.1-11.3-19.53zm-40.18 20.2l-25.4 44.04h51.04l12.7-21.9-38.34-22.13zm25.64 45l-51.04.04 25.44 44 38.3-22.1-12.7-21.95zm.84-.5l12.67 21.95 38.3-22.1-25.43-43.98-11 18.98-14.54 25.14zm51.47.67l-38.3 22.1 12.65 21.88h51.1l-25.45-44zm-25.08-45.36l25.4 44 38.3-22.08-12.66-21.92h-51.05zm51.92-.48l25.54 44.16 25.44-44-38.3-22.08-12.68 21.92zm26.4 44.67l51.08.03 12.66-21.92-38.32-22.1-25.43 44zm63.74 22.9l-12.7-21.9H1513l25.44 44 38.32-22.1zm-37.83-67.75l38.32 22.14 1.06-1.84 11.62-20.1-11.3-19.54-14.24-24.65-25.45 43.98zm-.84-.5l25.38-44h-51.04l-12.66 21.92 38.3 22.1zm-25.66-44.97l51.13-.02-25.44-44-38.3 22.1v.1l12.6 21.83zm.57-89.35l25.44 44 38.28-22.08-12.66-21.92H1513zm24.6 44.5l-25.45-43.98-11.9 20.62-13.63 23.53 12.67 21.9 38.3-22.08zm-38.52-23.3l12.53-21.64-12.66-21.9-38.3 22.1 25.43 43.98 13-22.52zm-13.86 23l-25.45-44-38.3 22.1 12.65 21.9h51.1zm-51.94.5l-12.67-21.9-38.3 22.1 25.44 43.98 25.54-44.2zm-51.47-.7l38.37-22.05-12.75-21.94h-51.05l25.44 44zm-.83.5l-25.45-44.02-11.9 20.62-13.64 23.57 12.67 21.9 38.32-22.08zm-38.53-23.3l12.53-21.64-12.67-21.9-38.3 22.1 25.43 43.98 13-22.52zm-.34 46.42l-12.68-21.9-25.44 43.98 38.3 22.1 12.68-21.92-12.86-22.26zm-.3 45l-38.3-22.07-25.45 44h51.1l12.66-21.94zm.85.48l-12.67 21.88 25.54 44.2 25.45-43.98-38.32-22.1zm12.3 67.08l-12.65-21.87-38.3 22.1 25.43 43.98 13-22.53 12.53-21.67zm-11.34 21.6L1330 261.27l12.67 21.9 38.32-22.08-25.45-44-11.9 20.63zm37.86 24.23l-38.23 22.06v.1l12.62 21.83h51.05l-25.44-44zm.84-.5l25.44 44.03 25.54-44.2-12.67-21.92-38.3 22.1zm51.82.32l-12.65 21.9 38.3 22.1 25.46-44h-51.1zm26.5-45.47l25.45 44.04 13-22.53 12.53-21.67-12.67-21.9-38.3 22.08zm39.62 21.45l-13.63 23.54 12.68 21.9 38.3-22.1-25.43-43.98-11.9 20.63zm37.83 24.23l-38.2 22.06v.1l12.6 21.83h51.05l-25.45-44zm.85-.5l25.45 44.03 25.54-44.18-12.66-21.92-38.32 22.1zm39.18-22.57l12.7 21.9h51.04l-25.44-44-38.3 22.1zm-.5-.84l38.32-22.07-25.44-44-11 19-14.54 25.14 12.67 21.92zM1567.2 129.7l23.3 40.33 25.44-44-38.3-22.1-12.68 21.9 2.24 3.88zm-2.8-4.85l25.54-44.17-12.67-21.9-38.32 22.08 25.45 44zm13.72-66.6l12.7 21.9h51.04l-25.44-44-38.3 22.1zm-.5-.84l38.32-22.06-25.44-43.98-11 19-14.54 25.13 12.67 21.9zm-13.5-22.44l12.7-21.9-38.32-22.09-25.43 44h51.05zm-51.94-.48L1537.6-9.5l-38.3-22.1-12.68 21.93 25.54 44.15zm-26.38-44.63l12.7-21.9-38.3-22.1-25.45 44h51.05zm0 1l-51.1.03 25.45 43.98 38.3-22.1-12.65-21.91zm-26.5 44.5l-25.44-43.97-11 19-14.54 25.14 12.67 21.92 38.3-22.1zm-51.82-.4l12.7-21.86-38.3-22.13-25.45 44h51.06zm-51.94-.47l25.45-43.97-38.32-22.1-12.67 21.93 25.54 44.15zm-26.38-44.63l12.66-21.9-38.3-22.1-25.45 44h51.1zm0 1l-51.1-.04 25.46 44.03 38.3-22.07-12.66-21.91zm-.56 89.35l-25.44-44.04-38.32 22.1 12.72 21.94h51.04zm-51.04 1l-12.72 21.9 38.32 22.1 25.44-44h-51.04zm25.15 44.85l-38.37-22.1-12.66 21.88 2.25 3.88 23.34 40.34 25.43-44zm26.48 45.48l-51.13-.06 25.5 44.06 38.3-22.1-12.67-21.9zm-.56 89.35l-25.48-44.07-38.32 22.1 12.76 21.98h51.04zm-51.04 1l-12.72 21.9 38.32 22.1 25.44-44h-51.04zm25.15 44.86l-38.4-22.18-12.66 21.92 2.25 3.9 23.38 40.35 25.43-44zm-24.68 44.4l51.08.04 12.67-21.92-38.3-22.1-25.45 44zm63.74 22.9l-12.7-21.9h-51.05l25.44 44 38.3-22.1zm-37.82-67.73l38.3 22.1 12.68-21.92-12.86-22.25-12.68-21.9-25.44 43.98zm51.83.67l-12.7 21.9 38.32 22.08 25.44-43.98h-51.05zm26.04 45.34l-25.43 44.02h51.06l12.7-21.9-38.32-22.1zm.48-.84l38.3 22.12 1.06-1.82 11.62-20.1-11.3-19.53-14.24-24.65-25.44 43.98zm28.25-41.1l23.3 40.28 25.43-43.98-38.3-22.1-12.68 21.92 2.25 3.9zm24.14 40.8h51.1l12.66-21.9-38.3-22.1-25.45 44zm63.76 22.9l-12.7-21.9h-51.05l25.45 43.98 38.3-22.1zm-37.82-67.75l38.3 22.13 12.68-21.92-12.86-22.24-12.68-21.94-25.44 44zm51.82.67l-12.68 21.9 38.3 22.08 25.43-43.98h-51.04zm26.02 45.34l-25.43 44.02h51.05l12.7-21.9-38.32-22.1zm.5-.84l38.28 22.1 1.05-1.82 11.66-20.07-11.3-19.54-14.24-24.65-25.45 43.98zm28.24-41.1l23.3 40.28 25.44-43.98-38.3-22.1-12.68 21.92 2.24 3.9zm24.1 40.8h51.04l12.7-21.9-38.3-22.1-25.44 44zm63.75 22.9l-12.7-21.9h-51.05l25.44 43.98 38.3-22.1zm-38.67-68.24l25.4-44.02h-51.04l-12.66 21.92 38.3 22.1zm.85-89.5l25.45 44.02 13.02-22.53 12.52-21.65-12.67-21.9-38.32 22.08zm-.5-.84l38.3-22.07-12.7-21.9h-51.03l25.44 43.98zm-25.43-44.98h51.04l12.7-21.9-38.3-22.1-25.44 44zm25.08-45.35l25.4-44h-51.04l-12.66 21.9 38.3 22.1zm.85-89.5l25.45 44.03 13.02-22.52 12.52-21.68-12.67-21.9-38.32 22.08zm-.5-.83l38.3-22.1-12.7-21.9h-51.03l25.44 44zm-25.43-44.98h51.04l12.7-21.9-38.3-22.08-25.44 43.98zm-13.7-66.6l-12.68 21.93 2.24 3.88 23.3 40.3 25.44-44-38.3-22.1zm-13.24 22.9l-25.45 44 38.33 22.1 1.05-1.82 11.62-20.1-11.3-19.53-14.24-24.66zm-26.3 43.52l25.4-44h-51.04l-12.66 21.9 38.3 22.1zm0-88.97l-38.2 22.06v.1l12.6 21.82h51.06l-25.45-44zm-39.34 22.2L1486.06-99l-25.44 44 38.3 22.08 12.68-21.9-12.86-22.27zm-64.62-22.4l-12.65 21.88 38.3 22.1 25.46-44h-51.1zm-13.15 22.74l-12.67 21.93 2.25 3.88 23.3 40.3 25.43-44-38.3-22.1zm-13.23 22.9l-25.44 44 38.3 22.1 1.06-1.82 11.62-20.1-11.3-19.53-14.24-24.66zm-26.28 43.52l25.4-44h-51.05l-12.7 21.9 38.36 22.1zm0-88.97l-38.27 22.06v.1l12.65 21.82h51.05l-25.44-44zm-39.36 22.2L1329.42-99l-25.44 44 38.3 22.08 12.68-21.9-12.86-22.27zm-64.6-22.4l-12.68 21.9 38.28 22.08 25.44-44h-51.04zm-13.17 22.74l-12.66 21.93 2.25 3.88 23.3 40.3 25.43-44-38.32-22.1zm-38.66 66.9l38.36 22.1 1-1.82 11.62-20.1-11.3-19.53-14.25-24.64-25.43 43.98zm26.02 45.35l12.63 21.9 38.33-22.06-25.43-43.98-11 19-14.54 25.13zm-26.03 45.34l25.43 44 25.55-44.18-12.62-21.9-38.36 22.08zm0 89.97l38.36 22.12 1-1.84 11.62-20.1-11.3-19.5-14.25-24.65-25.43 43.98zm26.02 45.36l12.63 21.9 38.33-22.05-25.43-43.97-11 19-14.54 25.13zm-26.03 45.34l25.43 44 25.55-44.18-12.62-21.92-38.36 22.1zm0 89.98l38.36 22.08 1-1.82 11.62-20.1-11.3-19.5-14.25-24.65-25.43 43.98zm26.02 45.34l12.63 21.9 38.3-22.1-25.42-44-11 19.05-14.5 25.15zm25.82 44.68l51.06-.04-25.44-44-38.32 22.12 12.7 21.92zm64.94-23l12.5-21.64-12.67-22-38.3 22.2 25.45 43.98 13-22.53zM1330 351.7l25.52 44.16 25.45-44-38.3-22.1L1330 351.7zm51.83 89.65l38.34-22.13-12.73-21.86h-51.05l25.43 44zm26.47-44.5l12.67 21.9 38.3-22.1-25.43-43.97-11 19.04-14.54 25.14zm25.82 44.7l51.1-.04-25.45-43.98-38.3 22.1 12.65 21.92zm64.96-23l12.52-21.7-12.67-21.98-38.3 22.22 25.44 43.98 13-22.53zm-12.46-66.82l25.54 44.13 25.44-44-38.3-22.05-12.68 21.93zm51.82 89.66l38.28-22.08-12.66-21.92H1513l25.44 44zm26.5-44.54l12.67 21.9 38.32-22.1-25.44-44-11 19.06-14.54 25.14zm25.82 44.68l51.08-.03-25.44-43.98-38.3 22.1 12.66 21.92zm64.96-23l12.52-21.68-12.67-22-38.3 22.23 25.43 43.98 13.02-22.53zm38.52-66.67l-38.3-22.1-12.68 21.9 25.54 44.2 25.44-44zm-26.02-45.34l-12.84-22.3-12.7-21.86-25.45 44 38.32 22.08 12.67-21.92zm26.02-45.34l-25.44-44.03-11.92 20.63-13.62 23.57 12.66 21.9 38.32-22.08zm0-89.98l-38.3-22.13-12.68 21.9 25.54 44.2 25.44-43.98zm-26.02-45.34l-12.84-22.3-12.7-21.87-25.45 44 38.32 22.1 12.67-21.92zm26.02-45.35l-25.44-44-11.92 20.6-13.62 23.58 12.66 21.92 38.32-22.1zm0-89.97l-38.3-22.15-12.68 21.93 25.54 44.2 25.44-43.98zm-26.02-45.34l-12.84-22.3-12.7-21.92-25.43 44 38.32 22.08 12.65-21.86zm392.6-44.7l-12.7 21.88 38.3 22.1 25.43-44h-51.04zm-235 225.8l-12.72 21.9 38.32 22.07 25.44-44h-51.05zm0-1l51.13-.04-25.44-44-38.3 22.1v.1l12.6 21.83zm104.8.3l38.3 22.12 12.68-21.9-12.86-22.27-12.68-21.94-25.44 44zm37.82 22.93l-38.27-22.06-25.44 43.97h51.05l12.66-21.92zm-38.67-23.42l25.46-44h-51.1l-12.67 21.9 38.3 22.1zm-.5.84l-38.3-22.03-12.67 21.83 2.25 3.88 23.3 40.3 25.43-43.98zM1892 151.42l-14.26-24.6-25.44 44 38.3 22.1 1.06-1.87 11.62-20.1-11.3-19.53zm-40.18 20.2l-25.4 44.04h51.04l12.7-21.9-38.34-22.13zm25.64 45l-51.04.04 25.44 44 38.3-22.1-12.7-21.95zm.84-.5l12.67 21.95 38.3-22.1-25.43-43.98-11 18.98-14.54 25.14zm51.47.67l-38.3 22.1 12.65 21.88h51.1l-25.45-44zm-25.08-45.36l25.4 44 38.3-22.08-12.66-21.92h-51.05zm51.92-.48l25.54 44.16 25.44-44-38.3-22.08-12.68 21.92zm26.4 44.67l51.08.03 12.66-21.92-38.32-22.1-25.43 44zm63.74 22.9l-12.7-21.9H1983l25.44 44 38.32-22.1zm-37.83-67.75l38.32 22.14 1.06-1.84 11.62-20.1-11.3-19.54-14.24-24.65-25.45 43.98zm-.84-.5l25.4-44h-51.06l-12.66 21.92 38.3 22.1zm-25.66-44.97l51.13-.02-25.44-44-38.3 22.1v.1l12.6 21.83zm.57-89.35l25.44 44 38.28-22.08-12.66-21.92H1983zm24.6 44.5l-25.45-43.98-11.9 20.62-13.63 23.53 12.67 21.9 38.3-22.08zm-38.52-23.3l12.53-21.64-12.66-21.9-38.3 22.1 25.43 43.98 13-22.52zm-13.86 23l-25.45-44-38.3 22.1 12.65 21.9h51.1zm-51.94.5l-12.67-21.9-38.3 22.1 25.44 43.98 25.54-44.2zm-51.47-.7l38.37-22.05-12.75-21.94h-51.05l25.44 44zm-.83.5l-25.45-44.02-11.9 20.62-13.64 23.57 12.67 21.9 38.32-22.08zm-38.53-23.3l12.53-21.64-12.67-21.9-38.3 22.1 25.43 43.98 13-22.52zm-.34 46.42l-12.68-21.9-25.44 43.98 38.3 22.1 12.68-21.92-12.86-22.26zm-.3 45l-38.3-22.07-25.45 44h51.1l12.66-21.94zm.85.48l-12.67 21.88 25.54 44.2 25.45-43.98-38.32-22.1zm12.3 67.08l-12.65-21.87-38.3 22.1 25.43 43.98 13-22.53 12.53-21.67zm-11.34 21.6L1800 261.27l12.67 21.9 38.32-22.08-25.45-44-11.9 20.63zm37.86 24.23l-38.23 22.06v.1l12.62 21.83h51.05l-25.44-44zm.84-.5l25.44 44.03 25.54-44.2-12.67-21.92-38.3 22.1zm51.82.32l-12.65 21.9 38.3 22.1 25.46-44h-51.1zm26.5-45.47l25.45 44.04 13-22.53 12.53-21.67-12.67-21.9-38.3 22.08zm39.62 21.45l-13.63 23.54 12.68 21.9 38.3-22.1-25.43-43.98-11.9 20.63zm37.83 24.23l-38.2 22.06v.1l12.6 21.83h51.04l-25.43-44zm.85-.5l25.45 44.03 25.54-44.18-12.66-21.92-38.32 22.1zm39.18-22.57l12.7 21.9h51.04l-25.44-44-38.3 22.1zm-.5-.84l38.32-22.07-25.44-44-11 19-14.54 25.14 12.67 21.92zM2037.2 129.7l23.3 40.33 25.44-44-38.3-22.1-12.68 21.9 2.24 3.88zm-2.8-4.85l25.54-44.17-12.67-21.9-38.32 22.08 25.45 44zm13.72-66.6l12.7 21.9h51.04l-25.44-44-38.3 22.1zm-.5-.84l38.32-22.06-25.44-43.98-11 19-14.54 25.13 12.67 21.9zm-13.5-22.44l12.7-21.9-38.32-22.09-25.43 44h51.05zm-51.94-.48L2007.6-9.5l-38.3-22.1-12.68 21.93 25.54 44.15zm-26.38-44.63l12.7-21.9-38.3-22.1-25.45 44h51.05zm0 1l-51.1.03 25.44 43.98 38.32-22.1-12.66-21.91zm-26.5 44.5l-25.44-43.97-11 19-14.54 25.14 12.67 21.92 38.3-22.1zm-51.82-.4l12.7-21.86-38.3-22.13-25.45 44h51.06zm-51.94-.47l25.45-43.97-38.32-22.1-12.67 21.93 25.54 44.15zm-26.38-44.63l12.66-21.9-38.3-22.1-25.45 44h51.1zm0 1l-51.1-.04 25.46 44.03 38.3-22.07-12.66-21.91zm-.56 89.35l-25.44-44.04-38.32 22.1 12.72 21.94h51.04zm-51.04 1l-12.72 21.9 38.32 22.1 25.44-44h-51.04zm25.15 44.85l-38.37-22.1-12.66 21.88 2.25 3.88 23.34 40.34 25.43-44zm26.48 45.48l-51.13-.06 25.5 44.06 38.3-22.1-12.67-21.9zm-.56 89.35l-25.48-44.07-38.32 22.1 12.76 21.98h51.04zm-51.04 1l-12.72 21.9 38.32 22.1 25.44-44h-51.04zm25.15 44.86l-38.4-22.18-12.66 21.92 2.25 3.9 23.38 40.35 25.43-44zm-24.68 44.4l51.08.04 12.67-21.92-38.3-22.1-25.45 44zm63.74 22.9l-12.7-21.9h-51.05l25.44 44 38.3-22.1zm-37.82-67.73l38.3 22.1 12.68-21.92-12.86-22.25-12.68-21.9-25.44 43.98zm51.83.67l-12.7 21.9 38.32 22.08 25.44-43.98h-51.05zm26.04 45.34l-25.43 44.02h51.06l12.7-21.9-38.32-22.1zm.48-.84l38.3 22.12 1.06-1.82 11.62-20.1-11.3-19.53-14.24-24.65-25.44 43.98zm28.25-41.1l23.3 40.28 25.43-43.98-38.3-22.1-12.68 21.92 2.25 3.9zm24.14 40.8h51.1l12.66-21.9-38.3-22.1-25.45 44zm63.76 22.9l-12.7-21.9h-51.05l25.45 43.98 38.3-22.1zm-37.82-67.75l38.3 22.13 12.68-21.92-12.86-22.24-12.68-21.94-25.44 44zm51.82.67l-12.68 21.9 38.3 22.08 25.42-43.98h-51.04zm26.02 45.34l-25.43 44.02h51.05l12.7-21.9-38.32-22.1zm.5-.84l38.28 22.1 1.05-1.82 11.66-20.07-11.3-19.54-14.24-24.65-25.45 43.98zm28.24-41.1l23.3 40.28 25.44-43.98-38.3-22.1-12.68 21.92 2.24 3.9zm24.1 40.8h51.04l12.7-21.9-38.3-22.1-25.44 44zm63.75 22.9l-12.7-21.9h-51.05l25.44 43.98 38.3-22.1zm-38.67-68.24l25.4-44.02h-51.04l-12.66 21.92 38.3 22.1zm.85-89.5l25.45 44.02 13.02-22.53 12.52-21.65-12.67-21.9-38.32 22.08zm-.5-.84l38.28-22.07-12.67-21.9h-51.04l25.44 43.98zm-25.43-44.98h51.04l12.7-21.9-38.3-22.1-25.44 44zm25.08-45.35l25.4-44h-51.04l-12.66 21.9 38.3 22.1zm.85-89.5l25.45 44.03 13.02-22.52 12.52-21.68-12.67-21.9-38.32 22.08zm-.5-.83l38.28-22.1-12.67-21.9h-51.04l25.44 44zm-25.43-44.98h51.04l12.7-21.9-38.3-22.08-25.44 43.98zm-13.7-66.6l-12.68 21.93 2.24 3.88 23.3 40.3 25.44-44-38.3-22.1zm-13.24 22.9l-25.45 44 38.33 22.1 1.05-1.82 11.62-20.1-11.3-19.53-14.24-24.66zm-26.3 43.52l25.4-44h-51.04l-12.66 21.9 38.3 22.1zm0-88.97l-38.2 22.06v.1l12.6 21.82h51.05l-25.44-44zm-39.34 22.2L1956.06-99l-25.44 44 38.3 22.08 12.68-21.9-12.86-22.27zm-64.62-22.4l-12.65 21.88 38.3 22.1 25.46-44h-51.1zm-13.15 22.74l-12.67 21.93 2.25 3.88 23.3 40.3 25.43-44-38.3-22.1zm-13.23 22.9l-25.44 44 38.3 22.1 1.06-1.82 11.62-20.1-11.3-19.53-14.24-24.66zm-26.28 43.52l25.4-44h-51.05l-12.7 21.9 38.36 22.1zm0-88.97l-38.27 22.06v.1l12.65 21.82h51.05l-25.44-44zm-39.36 22.2L1799.42-99l-25.44 44 38.3 22.08 12.68-21.9-12.86-22.27zm-64.6-22.4l-12.68 21.9 38.28 22.08 25.44-44h-51.04zm-13.17 22.74l-12.66 21.93 2.25 3.88 23.3 40.3 25.43-44-38.32-22.1zm-38.66 66.9l38.36 22.1 1-1.82 11.62-20.1-11.3-19.53-14.25-24.64-25.43 43.98zm26.02 45.35l12.63 21.9 38.33-22.06-25.43-43.98-11 19-14.54 25.13zm-26.03 45.34l25.43 44 25.55-44.18-12.62-21.9-38.36 22.08zm0 89.97l38.36 22.12 1-1.84 11.62-20.1-11.3-19.5-14.25-24.65-25.43 43.98zm26.02 45.36l12.63 21.9 38.33-22.05-25.43-43.97-11 19-14.54 25.13zm-26.03 45.34l25.43 44 25.55-44.18-12.62-21.92-38.36 22.1zm0 89.98l38.36 22.08 1-1.82 11.62-20.1-11.3-19.5-14.25-24.65-25.43 43.98zm26.02 45.34l12.63 21.9 38.3-22.1-25.42-44-11 19.05-14.5 25.15zm25.82 44.68l51.06-.04-25.44-44-38.32 22.12 12.7 21.92zm64.94-23l12.5-21.64-12.67-22-38.3 22.2 25.45 43.98 13-22.53zM1800 351.7l25.52 44.16 25.45-44-38.3-22.1L1800 351.7zm51.83 89.65l38.34-22.13-12.73-21.86h-51.05l25.43 44zm26.47-44.5l12.67 21.9 38.3-22.1-25.43-43.97-11 19.04-14.54 25.14zm25.82 44.7l51.1-.04-25.45-43.98-38.3 22.1 12.65 21.92zm64.96-23l12.52-21.7-12.67-21.98-38.3 22.22 25.44 43.98 13-22.53zm-12.46-66.82l25.54 44.13 25.44-44-38.3-22.05-12.68 21.93zm51.82 89.66l38.28-22.08-12.66-21.92H1983l25.44 44zm26.5-44.54l12.67 21.9 38.32-22.1-25.44-44-11 19.06-14.54 25.14zm25.82 44.68l51.08-.03-25.44-43.98-38.3 22.1 12.66 21.92zm64.96-23l12.52-21.68-12.67-22-38.3 22.23 25.43 43.98 13.02-22.53zm38.52-66.67l-38.3-22.1-12.7 21.9 25.56 44.2 25.44-44zm-26.02-45.34l-12.84-22.3-12.7-21.86-25.45 44 38.32 22.08 12.67-21.92zm26.02-45.34l-25.44-44.03-11.92 20.63-13.63 23.57 12.67 21.9 38.32-22.08zm0-89.98l-38.3-22.13-12.7 21.9 25.56 44.2 25.44-43.98zm-26.02-45.34l-12.84-22.3-12.7-21.87-25.45 44 38.32 22.1 12.67-21.92zm26.02-45.35l-25.44-44-11.92 20.6-13.63 23.58 12.67 21.92 38.32-22.1zm0-89.97l-38.3-22.15-12.7 21.93 25.56 44.2 25.44-43.98zm-26.02-45.34l-12.84-22.3-12.7-21.92-25.43 44 38.32 22.08 12.65-21.86zm-1957.4 497.3l-12.7 21.88 38.3 22.1 25.43-44H180.8zm-235 225.8l-12.72 21.9 38.32 22.07 25.44-44H-54.2zm0-1l51.13-.04-25.44-44-38.3 22.1v.1l12.6 21.83zm104.8.3l38.3 22.12 12.68-21.9-12.86-22.27-12.68-21.94-25.45 44zm37.82 22.93L50.17 668.5l-25.44 43.98h51.05l12.66-21.93zm-38.66-23.42l25.45-44h-51.1l-12.67 21.9 38.31 22.1zm-.5.84l-38.3-22.03-12.68 21.83 2.25 3.88 23.3 40.3 25.43-43.98zm-37.3 25.45l-14.24-24.6-25.44 44 38.3 22.1 1.06-1.87 11.62-20.1-11.3-19.53zm-40.16 20.2l-25.4 44.04h51.04l12.7-21.9-38.34-22.13zm25.64 45l-51.04.04 25.44 44 38.3-22.1-12.7-21.95zm.84-.5l12.67 21.95 38.3-22.1-25.43-44-11 19-14.54 25.15zm51.48.67l-38.32 22.1 12.66 21.88h51.1l-25.45-44zm-25.1-45.35l25.4 44 38.32-22.1-12.66-21.9H24.7zm51.94-.5l25.54 44.17 25.44-44-38.3-22.08-12.68 21.92zm26.4 44.68l51.08.03 12.66-21.92-38.32-22.1-25.43 44zm63.74 22.9l-12.7-21.9H103l25.44 44 38.32-22.1zm-37.83-67.75l38.32 22.14 1.06-1.84 11.62-20.1-11.3-19.54-14.24-24.65-25.45 43.98zm-.84-.5l25.4-44h-51.06L89.78 690.2l38.3 22.1zm-25.66-44.97l51.13-.02-25.44-44-38.3 22.1v.1l12.6 21.83zm.57-89.35l25.44 44 38.28-22.08-12.66-21.92H103zm24.6 44.5l-25.45-43.98-11.9 20.62-13.63 23.53 12.67 21.9 38.3-22.08zm-38.52-23.3l12.53-21.64-12.66-21.9-38.3 22.1 25.43 43.98 13-22.52zm-13.86 23l-25.45-44-38.3 22.1 12.65 21.9h51.1zm-51.94.5l-12.67-21.9-38.3 22.1 25.44 43.98 25.54-44.2zm-51.47-.7l38.37-22.05-12.75-21.94h-51.04l25.43 44zm-.83.5l-25.45-44.02-11.9 20.62-13.64 23.57 12.67 21.9 38.32-22.08zm-38.53-23.3l12.53-21.64-12.67-21.9-38.3 22.1 25.43 43.98 13-22.52zm-.34 46.42l-12.68-21.9-25.44 43.98 38.3 22.1 12.68-21.92-12.86-22.26zm-.3 45l-38.3-22.07-25.45 44h51.1l12.66-21.94zm.85.48l-12.67 21.88 25.54 44.2 25.45-44-38.32-22.08zm12.3 67.08l-12.65-21.87-38.3 22.1 25.43 43.98 13-22.53 12.53-21.67zm-11.34 21.6L-80 803.27l12.67 21.9 38.32-22.08-25.45-44-11.9 20.63zm37.86 24.23l-38.23 22.06v.1l12.62 21.83H-3.1l-25.44-44zm.84-.5l25.44 44.03 25.54-44.2-12.67-21.92-38.3 22.1zm51.82.32l-12.65 21.9 38.3 22.1 25.46-44h-51.1zm26.5-45.47l25.45 44.04 13-22.53 12.53-21.67-12.67-21.9L50.6 758.3zm39.62 21.45L76.6 803.3l12.68 21.9 38.3-22.1-25.43-43.98-11.9 20.63zm37.83 24.23l-38.2 22.06v.1l12.6 21.83h51.04l-25.43-44zm.85-.5l25.45 44.03 25.54-44.18-12.66-21.92-38.32 22.1zm39.18-22.57l12.7 21.9h51.04l-25.44-44-38.3 22.1zm-.5-.84L205.93 758l-25.44-44-11 19-14.54 25.14 12.67 21.92zM157.2 671.7l23.3 40.32 25.44-43.98-38.3-22.1-12.68 21.9 2.24 3.87zm-2.8-4.85l25.54-44.17-12.67-21.9-38.32 22.08 25.45 44zm13.72-66.6l12.7 21.9h51.04l-25.44-44-38.3 22.1zm-.5-.84l38.32-22.06-25.44-44-11 19-14.54 25.15 12.67 21.9zm-13.5-22.44l12.7-21.9L128.48 533l-25.43 43.98h51.05zm-51.94-.48l25.44-43.98-38.3-22.1-12.68 21.93 25.54 44.15zm-26.38-44.63l12.7-21.9-38.32-22.1-25.43 44h51.05zm0 1l-51.1.02 25.45 44 38.3-22.1-12.65-21.92zm-26.5 44.5l-25.44-43.97-11 19-14.54 25.14 12.67 21.92 38.3-22.1zm-51.82-.4l12.7-21.86-38.3-22.13-25.45 44h51.06zm-51.94-.47l25.45-43.98-38.32-22.1-12.67 21.93 25.54 44.15zm-26.38-44.63l12.66-21.9-38.3-22.1-25.45 44h51.1zm0 1l-51.1-.03 25.46 44 38.3-22.06-12.66-21.9zm-.56 89.35l-25.44-44.04-38.32 22.1 12.72 21.94h51.04zm-51.04 1l-12.72 21.9 38.32 22.1 25.44-44h-51.04zm25.15 44.85l-38.37-22.1-12.66 21.88 2.25 3.88 23.34 40.33 25.43-43.98zm26.48 45.48l-51.13-.05 25.5 44.05 38.3-22.1-12.67-21.9zm-.56 89.35l-25.48-44.07-38.32 22.1 12.76 21.98h51.04zm-51.04 1l-12.72 21.9 38.32 22.1 25.44-44h-51.04zm25.15 44.86l-38.4-22.18-12.66 21.92 2.25 3.9 23.38 40.35 25.43-44zm-24.68 44.4l51.08.03 12.67-21.9-38.3-22.1-25.45 44zm63.74 22.9l-12.7-21.9h-51.05l25.44 44 38.3-22.1zm-37.82-67.73l38.3 22.1 12.68-21.92-12.86-22.25-12.68-21.9-25.44 43.98zm51.83.67l-12.7 21.9 38.32 22.1 25.44-44H-54.2zm26.04 45.35l-25.43 44h51.06l12.7-21.9-38.32-22.1zm.48-.86l38.3 22.12 1.06-1.82 11.62-20.1L12 874.13l-14.24-24.65-25.44 44zm28.25-41.1l23.3 40.28 25.43-43.98-38.3-22.1-12.68 21.92 2.25 3.9zm24.14 40.8h51.1l12.66-21.9-38.3-22.1-25.45 44zm63.76 22.9l-12.7-21.9H24.7l25.45 43.98 38.3-22.1zM50.64 848.3l38.3 22.13 12.68-21.92-12.86-22.24-12.68-21.94-25.44 44zm51.82.67l-12.68 21.9 38.3 22.1 25.42-44h-51.04zm26.02 45.35l-25.43 44h51.05l12.7-21.9-38.32-22.1zm.5-.86l38.28 22.1 1.05-1.82 11.66-20.08-11.3-19.53-14.24-24.65-25.45 44zm28.24-41.1l23.3 40.28 25.44-43.98-38.3-22.1-12.68 21.92 2.24 3.9zm24.1 40.8h51.04l12.7-21.9-38.3-22.1-25.44 44zm63.75 22.9l-12.7-21.9H181.3l25.44 43.98 38.31-22.1zM206.4 847.8l25.4-44.02h-51.04l-12.66 21.92 38.3 22.1zm.85-89.5l25.45 44.02 13.02-22.53 12.52-21.65-12.67-21.9-38.32 22.08zm-.5-.84l38.28-22.07-12.67-21.9h-51.04l25.44 43.98zm-25.43-45l51.04.02 12.7-21.9-38.3-22.1-25.44 44zm25.08-45.33l25.4-44h-51.04l-12.66 21.9 38.3 22.1zm.85-89.5l25.45 44.03 13.02-22.52 12.52-21.68-12.67-21.9-38.32 22.08zm-.5-.83l38.28-22.1-12.67-21.9h-51.04l25.44 44zm-25.43-44.98h51.04l12.7-21.9-38.3-22.08-25.44 44zm-13.7-66.6l-12.68 21.93 2.24 3.88 23.3 40.3 25.44-44-38.3-22.1zm-13.24 22.9l-25.45 44 38.33 22.1 1.05-1.82 11.62-20.1-11.3-19.53-14.24-24.66zm-26.3 43.52l25.4-44h-51.04l-12.66 21.9 38.3 22.1zm0-88.97l-38.2 22.06v.1l12.6 21.82h51.05l-25.44-44zm-39.34 22.2L76.06 443 50.6 487l38.33 22.08 12.67-21.9-12.86-22.27zm-64.62-22.4l-12.65 21.88 38.3 22.1 25.46-44h-51.1zm-13.15 22.74L-1.7 487.17l2.25 3.88 23.3 40.3 25.43-44-38.3-22.1zm-13.23 22.9l-25.44 44 38.3 22.1 1.06-1.82 11.62-20.1-11.3-19.53-14.24-24.66zm-26.28 43.52l25.4-44H-54.2l-12.7 21.9 38.36 22.1zm0-88.97l-38.27 22.06v.1l12.65 21.82H-3.1l-25.44-44zm-39.36 22.2L-80.58 443l-25.44 44 38.3 22.08 12.68-21.9-12.86-22.27zm-64.6-22.4l-12.68 21.9 38.28 22.08 25.44-44h-51.04zm-13.17 22.74l-12.66 21.93 2.25 3.88 23.3 40.3 25.43-44-38.32-22.1zm-38.66 66.9l38.36 22.1 1-1.82 11.62-20.1-11.3-19.53-14.25-24.64-25.43 43.98zm26.02 45.35l12.63 21.9 38.33-22.06-25.43-44-11 19-14.54 25.15zm-26.03 45.34l25.43 44 25.55-44.18-12.62-21.9-38.36 22.08zm0 89.98l38.36 22.1 1-1.84 11.62-20.1-11.3-19.5-14.25-24.65-25.43 44zm26.02 45.34l12.63 21.9 38.33-22.05-25.43-43.98-11 19-14.54 25.14zm-26.03 45.34l25.43 44 25.55-44.18-12.62-21.92-38.36 22.1zm0 89.98l38.36 22.08 1-1.82 11.62-20.1-11.3-19.5-14.25-24.65-25.43 43.98zm26.02 45.34l12.63 21.9 38.3-22.1-25.42-44-11 19.05-14.5 25.15zm25.82 44.68l51.06-.04-25.44-44-38.32 22.12 12.7 21.92zm64.94-23l12.5-21.64-12.67-22-38.3 22.2 25.45 43.98 13-22.53zM-80 893.7l25.52 44.18 25.45-44-38.3-22.1L-80 893.7zm51.83 89.67l38.34-22.13-12.73-21.86H-53.6l25.43 44zm26.47-44.5l12.67 21.9 38.3-22.1-25.43-43.98-11 19.05-14.54 25.14zm25.82 44.7l51.1-.04-25.45-43.98-38.3 22.1 12.65 21.92zm64.96-23l12.52-21.7-12.67-21.98-38.3 22.22 25.44 43.98 13-22.53zm-12.46-66.82l25.54 44.13 25.44-44-38.3-22.05-12.68 21.93zm51.82 89.66l38.28-22.08-12.66-21.92H103l25.44 44zm26.5-44.54l12.67 21.9 38.32-22.1-25.44-44-11 19.06-14.54 25.14zm25.82 44.68l51.08-.03-25.44-43.98-38.3 22.1 12.66 21.92zm64.96-23l12.52-21.68-12.67-22-38.3 22.23 25.43 43.98 13.02-22.53zm38.52-66.66l-38.3-22.12-12.7 21.9 25.56 44.2 25.44-44zm-26.02-45.35l-12.85-22.3-12.7-21.86-25.44 44 38.32 22.08 12.67-21.92zm26.02-45.34l-25.44-44.03-11.92 20.63-13.63 23.57 12.67 21.9 38.32-22.08zm0-90l-38.3-22.1-12.7 21.9 25.56 44.2 25.44-44zm-26.02-45.32l-12.85-22.3-12.7-21.87-25.44 44 38.32 22.1 12.67-21.92zm26.02-45.35l-25.44-44-11.92 20.6-13.63 23.58 12.67 21.92 38.32-22.1zm0-89.98l-38.3-22.14-12.7 21.93 25.56 44.2 25.44-43.98zm-26.02-45.33l-12.85-22.3L232.7 443l-25.45 44 38.32 22.08 12.65-21.86zm392.6-44.7l-12.7 21.88 38.3 22.1 25.43-44H650.8zm-235 225.8l-12.72 21.9 38.32 22.07 25.44-44H415.8zm0-1l51.13-.04-25.44-44-38.3 22.1v.1l12.6 21.83zm104.8.3l38.3 22.12 12.68-21.9-12.86-22.27-12.68-21.94-25.44 44zm37.82 22.93l-38.28-22.06-25.43 43.98h51.05l12.66-21.93zm-38.67-23.42l25.46-44h-51.1l-12.67 21.9 38.31 22.1zm-.5.84l-38.3-22.03-12.67 21.83 2.25 3.88 23.3 40.3 25.43-43.98zM482 693.42l-14.26-24.6-25.44 44 38.3 22.1 1.06-1.87 11.62-20.1-11.3-19.53zm-40.18 20.2l-25.4 44.04h51.04l12.7-21.9-38.34-22.13zm25.64 45l-51.03.04 25.43 44 38.3-22.1-12.7-21.95zm.84-.5l12.67 21.95 38.3-22.1-25.43-44-11 19-14.54 25.15zm51.47.67l-38.3 22.1 12.65 21.88h51.1l-25.45-44zm-25.08-45.35l25.4 44 38.3-22.1-12.66-21.9H494.7zm51.92-.5l25.54 44.17 25.44-44-38.3-22.08-12.68 21.92zm26.4 44.68l51.08.03 12.66-21.92-38.32-22.1-25.43 44zm63.74 22.9l-12.7-21.9H573l25.44 44 38.32-22.1zm-37.83-67.75l38.32 22.14 1.06-1.84 11.62-20.1-11.3-19.54-14.24-24.65-25.45 43.98zm-.84-.5l25.38-44h-51.04l-12.66 21.92 38.3 22.1zm-25.66-44.97l51.13-.02-25.44-44-38.3 22.1v.1l12.6 21.83zm.57-89.35l25.44 44 38.28-22.08-12.66-21.92H573zm24.6 44.5l-25.45-43.98-11.9 20.62-13.63 23.53 12.67 21.9 38.3-22.08zm-38.52-23.3l12.53-21.64-12.66-21.9-38.32 22.1 25.45 43.98 13-22.52zm-13.86 23l-25.45-44-38.3 22.1 12.65 21.9h51.1zm-51.94.5l-12.67-21.9-38.3 22.1 25.44 43.98 25.54-44.2zm-51.47-.7l38.37-22.05-12.75-21.94h-51.05l25.44 44zm-.83.5l-25.45-44.02-11.9 20.62-13.64 23.57 12.67 21.9 38.32-22.08zm-38.53-23.3l12.53-21.64-12.67-21.9-38.3 22.1 25.43 43.98 13-22.52zm-.34 46.42l-12.68-21.9-25.44 43.98 38.3 22.1 12.68-21.92-12.86-22.26zm-.3 45l-38.3-22.07-25.45 44h51.1l12.66-21.94zm.85.48l-12.67 21.88 25.54 44.2 25.45-44-38.32-22.08zm12.3 67.08l-12.65-21.87-38.3 22.1 25.43 43.98 13-22.53 12.53-21.67zm-11.34 21.6L390 803.27l12.67 21.9 38.32-22.08-25.45-44-11.9 20.63zm37.86 24.23l-38.23 22.06v.1l12.62 21.83h51.05l-25.44-44zm.84-.5l25.44 44.03 25.54-44.2-12.67-21.92-38.3 22.1zm51.82.32l-12.65 21.9 38.3 22.1 25.46-44h-51.1zm26.5-45.47l25.45 44.04 13-22.53 12.53-21.67-12.67-21.9-38.3 22.08zm39.62 21.45L546.6 803.3l12.68 21.9 38.3-22.1-25.43-43.98-11.9 20.63zm37.83 24.23l-38.2 22.06v.1l12.6 21.83h51.04l-25.43-44zm.85-.5l25.45 44.03 25.54-44.18-12.66-21.92-38.32 22.1zm39.18-22.57l12.7 21.9h51.04l-25.44-44-38.3 22.1zm-.5-.84L675.93 758l-25.44-44-11 19-14.54 25.14 12.67 21.92zM627.2 671.7l23.3 40.32 25.44-43.98-38.3-22.1-12.68 21.9 2.24 3.87zm-2.8-4.85l25.54-44.17-12.67-21.9-38.32 22.08 25.45 44zm13.72-66.6l12.7 21.9h51.04l-25.44-44-38.3 22.1zm-.5-.84l38.32-22.06-25.44-44-11 19-14.54 25.15 12.67 21.9zm-13.5-22.44l12.7-21.9L598.48 533l-25.43 43.98h51.05zm-51.94-.48l25.44-43.98-38.3-22.1-12.68 21.93 25.54 44.15zm-26.38-44.63l12.7-21.9-38.32-22.1-25.43 44h51.05zm0 1l-51.1.02 25.44 44 38.32-22.1-12.66-21.92zm-26.5 44.5l-25.44-43.97-11 19-14.54 25.14 12.67 21.92 38.3-22.1zm-51.82-.4l12.7-21.86-38.3-22.13-25.44 44h51.04zm-51.94-.47l25.45-43.98-38.32-22.1-12.67 21.93 25.54 44.15zm-26.38-44.63l12.66-21.9-38.3-22.1-25.45 44h51.1zm0 1l-51.1-.03 25.46 44 38.3-22.06-12.66-21.9zm-.56 89.35l-25.44-44.04-38.31 22.1 12.7 21.94h51.05zm-51.04 1l-12.72 21.9 38.32 22.1 25.44-44h-51.04zm25.15 44.85l-38.37-22.1-12.66 21.88 2.25 3.88 23.34 40.33 25.43-43.98zm26.48 45.48l-51.13-.05 25.5 44.05 38.3-22.1-12.67-21.9zm-.56 89.35l-25.48-44.07-38.31 22.1 12.75 21.98h51.04zm-51.04 1l-12.7 21.9 38.3 22.1 25.44-44h-51.04zm25.15 44.86l-38.4-22.18-12.66 21.92 2.25 3.9 23.38 40.35 25.43-44zm-24.68 44.4l51.08.03 12.67-21.9-38.3-22.1-25.45 44zm63.74 22.9l-12.7-21.9h-51.05l25.44 44 38.3-22.1zm-37.82-67.73l38.3 22.1 12.68-21.92-12.86-22.25-12.68-21.9-25.44 43.98zm51.83.67l-12.7 21.9 38.32 22.1 25.44-44H415.8zm26.04 45.35l-25.42 44h51.04l12.7-21.9-38.32-22.1zm.48-.86l38.3 22.12 1.06-1.82 11.62-20.1-11.3-19.53-14.24-24.65-25.44 44zm28.25-41.1l23.3 40.28 25.43-43.98-38.3-22.1-12.68 21.92 2.25 3.9zm24.14 40.8h51.1l12.66-21.9-38.32-22.1-25.43 44zm63.76 22.9l-12.7-21.9H494.7l25.44 43.98 38.32-22.1zm-37.83-67.75l38.32 22.13 12.67-21.92-12.86-22.24-12.68-21.94-25.45 44zm51.83.67l-12.68 21.9 38.3 22.1 25.42-44h-51.04zm26.02 45.35l-25.43 44h51.05l12.7-21.9-38.32-22.1zm.5-.86l38.28 22.1 1.05-1.82 11.66-20.08-11.3-19.53-14.24-24.65-25.45 44zm28.24-41.1l23.3 40.28 25.44-43.98-38.3-22.1-12.68 21.92 2.24 3.9zm24.1 40.8h51.04l12.72-21.9-38.32-22.1-25.44 44zm63.75 22.9l-12.7-21.9H651.3l25.44 43.98 38.32-22.1zM676.4 847.8l25.4-44.02h-51.04l-12.66 21.92 38.3 22.1zm.85-89.5l25.45 44.02 13.02-22.53 12.52-21.65-12.67-21.9-38.32 22.08zm-.5-.84l38.28-22.07-12.67-21.9h-51.04l25.44 43.98zm-25.43-45l51.04.02 12.72-21.9-38.32-22.1-25.44 44zm25.08-45.33l25.4-44h-51.04l-12.66 21.9 38.3 22.1zm.85-89.5l25.45 44.03 13.02-22.52 12.52-21.68-12.67-21.9-38.32 22.08zm-.5-.83l38.28-22.1-12.67-21.9h-51.04l25.44 44zm-25.43-44.98h51.04l12.72-21.9-38.32-22.08-25.44 44zm-13.7-66.6l-12.68 21.93 2.24 3.88 23.3 40.3 25.44-44-38.3-22.1zm-13.24 22.9l-25.45 44 38.33 22.1 1.05-1.82 11.62-20.1-11.3-19.53-14.24-24.66zm-26.3 43.52l25.4-44h-51.04l-12.66 21.9 38.3 22.1zm0-88.97l-38.2 22.06v.1l12.6 21.82h51.05l-25.44-44zm-39.34 22.2L546.06 443l-25.44 44 38.3 22.08 12.68-21.9-12.86-22.27zm-64.62-22.4l-12.65 21.88 38.3 22.1 25.46-44h-51.1zm-13.15 22.74l-12.67 21.93 2.25 3.88 23.3 40.3 25.43-44-38.3-22.1zm-13.23 22.9l-25.44 44 38.3 22.1 1.06-1.82 11.62-20.1-11.3-19.53-14.24-24.66zm-26.28 43.52l25.4-44H415.8l-12.7 21.9 38.36 22.1zm0-88.97l-38.27 22.06v.1l12.65 21.82h51.05l-25.44-44zm-39.36 22.2L389.42 443l-25.44 44 38.3 22.08 12.68-21.9-12.86-22.27zm-64.6-22.4l-12.68 21.9 38.28 22.08 25.44-44H337.5zm-13.17 22.74l-12.66 21.93 2.25 3.88 23.3 40.3 25.43-44-38.32-22.1zm-38.66 66.9l38.36 22.1 1-1.82 11.62-20.1-11.3-19.53-14.25-24.64-25.43 43.98zm26.02 45.35l12.63 21.9 38.33-22.06-25.43-44-11 19-14.54 25.15zm-26.03 45.34l25.43 44 25.54-44.18-12.6-21.9-38.37 22.08zm0 89.98l38.36 22.1 1-1.84 11.62-20.1-11.3-19.5-14.25-24.65-25.43 44zm26.02 45.34l12.63 21.9 38.33-22.05-25.43-43.98-11 19-14.54 25.14zm-26.03 45.34l25.43 44 25.54-44.18-12.6-21.92-38.37 22.1zm0 89.98l38.36 22.08 1-1.82 11.62-20.1-11.3-19.5-14.25-24.65-25.43 43.98zm26.02 45.34l12.63 21.9 38.3-22.1-25.42-44-11 19.05-14.5 25.15zm25.82 44.68l51.06-.04-25.44-44-38.31 22.12 12.7 21.92zm64.94-23l12.5-21.64-12.67-22-38.3 22.2 25.45 43.98 13-22.53zM390 893.7l25.52 44.18 25.45-44-38.3-22.1L390 893.7zm51.83 89.67l38.34-22.13-12.73-21.86H416.4l25.43 44zm26.47-44.5l12.67 21.9 38.3-22.1-25.43-43.98-11 19.05-14.54 25.14zm25.82 44.7l51.1-.04-25.45-43.98-38.3 22.1 12.65 21.92zm64.96-23l12.52-21.7-12.67-21.98-38.3 22.22 25.44 43.98 13-22.53zm-12.46-66.82l25.54 44.13 25.44-44-38.3-22.05-12.68 21.93zm51.82 89.66l38.28-22.08-12.66-21.92H573l25.44 44zm26.5-44.54l12.67 21.9 38.32-22.1-25.44-44-11 19.06-14.54 25.14zm25.82 44.68l51.08-.03-25.44-43.98-38.3 22.1 12.66 21.92zm64.96-23l12.52-21.68-12.67-22-38.3 22.23 25.43 43.98 13.02-22.53zm38.52-66.66l-38.3-22.12-12.7 21.9 25.56 44.2 25.44-44zm-26.02-45.35l-12.85-22.3-12.7-21.86-25.44 44 38.32 22.08 12.67-21.92zm26.02-45.34l-25.44-44.03-11.92 20.63-13.63 23.57 12.67 21.9 38.32-22.08zm0-90l-38.3-22.1-12.7 21.9 25.56 44.2 25.44-44zm-26.02-45.32l-12.85-22.3-12.7-21.87-25.44 44 38.32 22.1 12.67-21.92zm26.02-45.35l-25.44-44-11.92 20.6-13.63 23.58 12.67 21.92 38.32-22.1zm0-89.98l-38.3-22.14-12.7 21.93 25.56 44.2 25.44-43.98zm-26.02-45.33l-12.85-22.3L702.7 443l-25.45 44 38.32 22.08 12.65-21.86zm392.6-44.7l-12.7 21.88 38.3 22.1 25.43-44h-51.04zm-235 225.8l-12.72 21.9 38.32 22.07 25.44-44H885.8zm0-1l51.13-.04-25.44-44-38.3 22.1v.1l12.6 21.83zm104.8.3l38.3 22.12 12.68-21.9-12.86-22.27-12.68-21.94-25.44 44zm37.82 22.93l-38.28-22.06-25.43 43.98h51.05l12.66-21.93zm-38.67-23.42l25.46-44h-51.1l-12.67 21.9 38.3 22.1zm-.5.84l-38.3-22.03-12.67 21.83 2.25 3.88 23.3 40.3 25.43-43.98zM952 693.42l-14.26-24.6-25.44 44 38.3 22.1 1.06-1.87 11.62-20.1-11.3-19.53zm-40.18 20.2l-25.4 44.04h51.04l12.7-21.9-38.34-22.13zm25.64 45l-51.04.04 25.44 44 38.3-22.1-12.7-21.95zm.84-.5l12.67 21.95 38.3-22.1-25.43-44-11 19-14.54 25.15zm51.48.67l-38.32 22.1 12.66 21.88h51.1l-25.45-44zm-25.1-45.35l25.4 44 38.32-22.1-12.66-21.9H964.7zm51.94-.5l25.54 44.17 25.44-44-38.3-22.08-12.68 21.92zm26.4 44.68l51.08.03 12.66-21.92-38.32-22.1-25.43 44zm63.74 22.9l-12.7-21.9H1043l25.44 44 38.32-22.1zm-37.83-67.75l38.32 22.14 1.06-1.84 11.62-20.1-11.3-19.54-14.24-24.65-25.45 43.98zm-.84-.5l25.38-44h-51.04l-12.66 21.92 38.3 22.1zm-25.66-44.97l51.13-.02-25.44-44-38.3 22.1v.1l12.6 21.83zm.57-89.35l25.44 44 38.28-22.08-12.66-21.92H1043zm24.6 44.5l-25.45-43.98-11.9 20.62-13.63 23.53 12.67 21.9 38.3-22.08zm-38.52-23.3l12.53-21.64-12.66-21.9-38.32 22.1 25.45 43.98 13-22.52zm-13.86 23l-25.45-44-38.3 22.1 12.65 21.9h51.1zm-51.94.5l-12.67-21.9-38.3 22.1 25.44 43.98 25.54-44.2zm-51.47-.7l38.37-22.05-12.75-21.94h-51.04l25.43 44zm-.83.5l-25.45-44.02-11.9 20.62-13.64 23.57 12.67 21.9 38.32-22.08zm-38.53-23.3l12.53-21.64-12.67-21.9-38.3 22.1 25.43 43.98 13-22.52zm-.34 46.42l-12.68-21.9-25.44 43.98 38.3 22.1 12.68-21.92-12.86-22.26zm-.3 45l-38.3-22.07-25.45 44h51.1l12.66-21.94zm.85.48l-12.67 21.88 25.54 44.2 25.45-44-38.32-22.08zm12.3 67.08l-12.65-21.87-38.3 22.1 25.43 43.98 13-22.53 12.53-21.67zm-11.34 21.6L860 803.27l12.67 21.9 38.32-22.08-25.45-44-11.9 20.63zm37.86 24.23l-38.23 22.06v.1l12.62 21.83h51.05l-25.44-44zm.84-.5l25.44 44.03 25.54-44.2-12.67-21.92-38.3 22.1zm51.82.32l-12.65 21.9 38.3 22.1 25.46-44h-51.1zm26.5-45.47l25.45 44.04 13-22.53 12.53-21.67-12.67-21.9-38.32 22.08zm39.62 21.45l-13.63 23.54 12.68 21.9 38.3-22.1-25.43-43.98-11.9 20.63zm37.83 24.23l-38.2 22.06v.1l12.6 21.83h51.05l-25.45-44zm.85-.5l25.45 44.03 25.54-44.18-12.66-21.92-38.32 22.1zm39.18-22.57l12.7 21.9h51.04l-25.44-44-38.3 22.1zm-.5-.84l38.32-22.07-25.44-44-11 19-14.54 25.14 12.67 21.92zM1097.2 671.7l23.3 40.32 25.44-43.98-38.3-22.1-12.68 21.9 2.24 3.87zm-2.8-4.85l25.54-44.17-12.67-21.9-38.32 22.08 25.45 44zm13.72-66.6l12.7 21.9h51.04l-25.44-44-38.3 22.1zm-.5-.84l38.32-22.06-25.44-44-11 19-14.54 25.15 12.67 21.9zm-13.5-22.44l12.7-21.9-38.32-22.08-25.43 43.98h51.05zm-51.94-.48l25.44-43.98-38.3-22.1-12.68 21.93 25.54 44.15zm-26.38-44.63l12.7-21.9-38.32-22.1-25.43 44h51.05zm0 1l-51.1.02 25.45 44 38.3-22.1-12.65-21.92zm-26.5 44.5l-25.44-43.97-11 19-14.54 25.14 12.67 21.92 38.3-22.1zm-51.82-.4l12.7-21.86-38.3-22.13-25.45 44h51.06zm-51.94-.47l25.45-43.98-38.32-22.1-12.67 21.93 25.54 44.15zm-26.38-44.63l12.66-21.9-38.3-22.1-25.45 44h51.1zm0 1l-51.1-.03 25.46 44 38.3-22.06-12.66-21.9zm-.56 89.35l-25.44-44.04-38.3 22.1 12.7 21.94h51.04zm-51.04 1l-12.7 21.9 38.3 22.1 25.44-44h-51.04zm25.15 44.85l-38.37-22.1-12.66 21.88 2.25 3.88 23.34 40.33 25.43-43.98zm26.48 45.48l-51.13-.05 25.5 44.05 38.3-22.1-12.67-21.9zm-.56 89.35l-25.48-44.07-38.3 22.1 12.74 21.98h51.04zm-51.04 1l-12.72 21.9 38.32 22.1 25.44-44h-51.04zm25.15 44.86l-38.4-22.18-12.66 21.92 2.25 3.9 23.38 40.35 25.43-44zm-24.68 44.4l51.08.03 12.67-21.9-38.3-22.1-25.45 44zm63.74 22.9l-12.7-21.9h-51.05l25.44 44 38.3-22.1zm-37.82-67.73l38.3 22.1 12.68-21.92-12.86-22.25-12.68-21.9-25.44 43.98zm51.83.67l-12.7 21.9 38.32 22.1 25.44-44H885.8zm26.04 45.35l-25.43 44h51.06l12.7-21.9-38.32-22.1zm.48-.86l38.3 22.12 1.06-1.82 11.62-20.1-11.3-19.53-14.24-24.65-25.44 44zm28.25-41.1l23.3 40.28 25.43-43.98-38.3-22.1-12.68 21.92 2.25 3.9zm24.14 40.8h51.1l12.66-21.9-38.32-22.1-25.43 44zm63.76 22.9l-12.7-21.9H964.7l25.44 43.98 38.32-22.1zm-37.83-67.75l38.32 22.13 12.67-21.92-12.86-22.24-12.68-21.94-25.45 44zm51.83.67l-12.68 21.9 38.3 22.1 25.43-44h-51.04zm26.02 45.35l-25.43 44h51.05l12.7-21.9-38.32-22.1zm.5-.86l38.28 22.1 1.05-1.82 11.66-20.08-11.3-19.53-14.24-24.65-25.45 44zm28.24-41.1l23.3 40.28 25.44-43.98-38.3-22.1-12.68 21.92 2.24 3.9zm24.1 40.8h51.04l12.7-21.9-38.3-22.1-25.44 44zm63.75 22.9l-12.7-21.9h-51.05l25.44 43.98 38.3-22.1zm-38.67-68.24l25.4-44.02h-51.04l-12.66 21.92 38.3 22.1zm.85-89.5l25.45 44.02 13.02-22.53 12.52-21.65-12.67-21.9-38.32 22.08zm-.5-.84l38.3-22.07-12.7-21.9h-51.03l25.44 43.98zm-25.43-45l51.04.02 12.7-21.9-38.3-22.1-25.44 44zm25.08-45.33l25.4-44h-51.04l-12.66 21.9 38.3 22.1zm.85-89.5l25.45 44.03 13.02-22.52 12.52-21.68-12.67-21.9-38.32 22.08zm-.5-.83l38.3-22.1-12.7-21.9h-51.03l25.44 44zm-25.43-44.98h51.04l12.7-21.9-38.3-22.08-25.44 44zm-13.7-66.6l-12.68 21.93 2.24 3.88 23.3 40.3 25.44-44-38.3-22.1zm-13.24 22.9l-25.45 44 38.33 22.1 1.05-1.82 11.62-20.1-11.3-19.53-14.24-24.66zm-26.3 43.52l25.4-44h-51.04l-12.66 21.9 38.3 22.1zm0-88.97l-38.2 22.06v.1l12.6 21.82h51.06l-25.45-44zm-39.34 22.2l-12.68-21.9-25.44 44 38.3 22.08 12.68-21.9-12.86-22.27zm-64.62-22.4l-12.65 21.88 38.3 22.1 25.46-44h-51.1zm-13.15 22.74l-12.67 21.93 2.25 3.88 23.3 40.3 25.43-44-38.3-22.1zm-13.23 22.9l-25.44 44 38.3 22.1 1.06-1.82 11.62-20.1-11.3-19.53-14.24-24.66zm-26.28 43.52l25.4-44H885.8l-12.7 21.9 38.36 22.1zm0-88.97l-38.27 22.06v.1l12.65 21.82h51.05l-25.44-44zm-39.36 22.2L859.42 443l-25.44 44 38.3 22.08 12.68-21.9-12.86-22.27zm-64.6-22.4l-12.67 21.9 38.27 22.08 25.44-44H807.5zm-13.17 22.74l-12.66 21.93 2.25 3.88 23.3 40.3 25.43-44-38.32-22.1zm-38.66 66.9l38.36 22.1 1-1.82 11.62-20.1-11.3-19.53-14.25-24.64-25.43 43.98zm26.02 45.35l12.63 21.9 38.33-22.06-25.43-44-11 19-14.54 25.15zm-26.03 45.34l25.43 44 25.54-44.18-12.6-21.9-38.37 22.08zm0 89.98l38.36 22.1 1-1.84 11.62-20.1-11.3-19.5-14.25-24.65-25.43 44zm26.02 45.34l12.63 21.9 38.33-22.05-25.43-43.98-11 19-14.54 25.14zm-26.03 45.34l25.43 44 25.54-44.18-12.6-21.92-38.37 22.1zm0 89.98l38.36 22.08 1-1.82 11.62-20.1-11.3-19.5-14.25-24.65-25.43 43.98zm26.02 45.34l12.63 21.9 38.3-22.1-25.42-44-11 19.05-14.5 25.15zm25.82 44.68l51.06-.04-25.44-44-38.3 22.12 12.68 21.92zm64.94-23l12.5-21.64-12.67-22-38.3 22.2 25.45 43.98 13-22.53zM860 893.7l25.52 44.18 25.45-44-38.3-22.1L860 893.7zm51.83 89.67l38.34-22.13-12.73-21.86H886.4l25.43 44zm26.47-44.5l12.67 21.9 38.3-22.1-25.43-43.98-11 19.05-14.54 25.14zm25.82 44.7l51.1-.04-25.45-43.98-38.3 22.1 12.65 21.92zm64.96-23l12.52-21.7-12.67-21.98-38.3 22.22 25.44 43.98 13-22.53zm-12.46-66.82l25.54 44.13 25.44-44-38.3-22.05-12.68 21.93zm51.82 89.66l38.28-22.08-12.66-21.92H1043l25.44 44zm26.5-44.54l12.67 21.9 38.32-22.1-25.44-44-11 19.06-14.54 25.14zm25.82 44.68l51.08-.03-25.44-43.98-38.3 22.1 12.66 21.92zm64.96-23l12.52-21.68-12.67-22-38.3 22.23 25.43 43.98 13.02-22.53zm38.52-66.66l-38.3-22.12-12.68 21.9 25.54 44.2 25.44-44zm-26.02-45.35l-12.84-22.3-12.7-21.86-25.45 44 38.32 22.08 12.67-21.92zm26.02-45.34l-25.44-44.03-11.92 20.63-13.62 23.57 12.66 21.9 38.32-22.08zm0-90l-38.3-22.1-12.68 21.9 25.54 44.2 25.44-44zm-26.02-45.32l-12.84-22.3-12.7-21.87-25.45 44 38.32 22.1 12.67-21.92zm26.02-45.35l-25.44-44-11.92 20.6-13.62 23.58 12.66 21.92 38.32-22.1zm0-89.98l-38.3-22.14-12.68 21.93 25.54 44.2 25.44-43.98zm-26.02-45.33l-12.84-22.3-12.7-21.92-25.43 44 38.32 22.08 12.65-21.86zm392.6-44.7l-12.7 21.88 38.3 22.1 25.43-44h-51.04zm-235 225.8l-12.72 21.9 38.32 22.07 25.44-44h-51.05zm0-1l51.13-.04-25.44-44-38.3 22.1v.1l12.6 21.83zm104.8.3l38.3 22.12 12.68-21.9-12.86-22.27-12.68-21.94-25.44 44zm37.82 22.93l-38.27-22.06-25.44 43.98h51.05l12.66-21.93zm-38.67-23.42l25.46-44h-51.1l-12.67 21.9 38.3 22.1zm-.5.84l-38.3-22.03-12.67 21.83 2.25 3.88 23.3 40.3 25.43-43.98zM1422 693.42l-14.26-24.6-25.44 44 38.3 22.1 1.06-1.87 11.62-20.1-11.3-19.53zm-40.18 20.2l-25.4 44.04h51.04l12.7-21.9-38.34-22.13zm25.64 45l-51.04.04 25.44 44 38.3-22.1-12.7-21.95zm.84-.5l12.67 21.95 38.3-22.1-25.43-44-11 19-14.54 25.15zm51.47.67l-38.3 22.1 12.65 21.88h51.1l-25.45-44zm-25.08-45.35l25.4 44 38.3-22.1-12.66-21.9h-51.05zm51.92-.5l25.54 44.17 25.44-44-38.3-22.08-12.68 21.92zm26.4 44.68l51.08.03 12.66-21.92-38.32-22.1-25.43 44zm63.74 22.9l-12.7-21.9H1513l25.44 44 38.32-22.1zm-37.83-67.75l38.32 22.14 1.06-1.84 11.62-20.1-11.3-19.54-14.24-24.65-25.45 43.98zm-.84-.5l25.38-44h-51.04l-12.66 21.92 38.3 22.1zm-25.66-44.97l51.13-.02-25.44-44-38.3 22.1v.1l12.6 21.83zm.57-89.35l25.44 44 38.28-22.08-12.66-21.92H1513zm24.6 44.5l-25.45-43.98-11.9 20.62-13.63 23.53 12.67 21.9 38.3-22.08zm-38.52-23.3l12.53-21.64-12.66-21.9-38.3 22.1 25.43 43.98 13-22.52zm-13.86 23l-25.45-44-38.3 22.1 12.65 21.9h51.1zm-51.94.5l-12.67-21.9-38.3 22.1 25.44 43.98 25.54-44.2zm-51.47-.7l38.37-22.05-12.75-21.94h-51.05l25.44 44zm-.83.5l-25.45-44.02-11.9 20.62-13.64 23.57 12.67 21.9 38.32-22.08zm-38.53-23.3l12.53-21.64-12.67-21.9-38.3 22.1 25.43 43.98 13-22.52zm-.34 46.42l-12.68-21.9-25.44 43.98 38.3 22.1 12.68-21.92-12.86-22.26zm-.3 45l-38.3-22.07-25.45 44h51.1l12.66-21.94zm.85.48l-12.67 21.88 25.54 44.2 25.45-44-38.32-22.08zm12.3 67.08l-12.65-21.87-38.3 22.1 25.43 43.98 13-22.53 12.53-21.67zm-11.34 21.6L1330 803.27l12.67 21.9 38.32-22.08-25.45-44-11.9 20.63zm37.86 24.23l-38.23 22.06v.1l12.62 21.83h51.05l-25.44-44zm.84-.5l25.44 44.03 25.54-44.2-12.67-21.92-38.3 22.1zm51.82.32l-12.65 21.9 38.3 22.1 25.46-44h-51.1zm26.5-45.47l25.45 44.04 13-22.53 12.53-21.67-12.67-21.9-38.3 22.08zm39.62 21.45l-13.63 23.54 12.68 21.9 38.3-22.1-25.43-43.98-11.9 20.63zm37.83 24.23l-38.2 22.06v.1l12.6 21.83h51.05l-25.45-44zm.85-.5l25.45 44.03 25.54-44.18-12.66-21.92-38.32 22.1zm39.18-22.57l12.7 21.9h51.04l-25.44-44-38.3 22.1zm-.5-.84l38.32-22.07-25.44-44-11 19-14.54 25.14 12.67 21.92zM1567.2 671.7l23.3 40.32 25.44-43.98-38.3-22.1-12.68 21.9 2.24 3.87zm-2.8-4.85l25.54-44.17-12.67-21.9-38.32 22.08 25.45 44zm13.72-66.6l12.7 21.9h51.04l-25.44-44-38.3 22.1zm-.5-.84l38.32-22.06-25.44-44-11 19-14.54 25.15 12.67 21.9zm-13.5-22.44l12.7-21.9-38.32-22.08-25.43 43.98h51.05zm-51.94-.48l25.44-43.98-38.3-22.1-12.68 21.93 25.54 44.15zm-26.38-44.63l12.7-21.9-38.3-22.1-25.45 44h51.05zm0 1l-51.1.02 25.45 44 38.3-22.1-12.65-21.92zm-26.5 44.5l-25.44-43.97-11 19-14.54 25.14 12.67 21.92 38.3-22.1zm-51.82-.4l12.7-21.86-38.3-22.13-25.45 44h51.06zm-51.94-.47l25.45-43.98-38.32-22.1-12.67 21.93 25.54 44.15zm-26.38-44.63l12.66-21.9-38.3-22.1-25.45 44h51.1zm0 1l-51.1-.03 25.46 44 38.3-22.06-12.66-21.9zm-.56 89.35l-25.44-44.04-38.32 22.1 12.72 21.94h51.04zm-51.04 1l-12.72 21.9 38.32 22.1 25.44-44h-51.04zm25.15 44.85l-38.37-22.1-12.66 21.88 2.25 3.88 23.34 40.33 25.43-43.98zm26.48 45.48l-51.13-.05 25.5 44.05 38.3-22.1-12.67-21.9zm-.56 89.35l-25.48-44.07-38.32 22.1 12.76 21.98h51.04zm-51.04 1l-12.72 21.9 38.32 22.1 25.44-44h-51.04zm25.15 44.86l-38.4-22.18-12.66 21.92 2.25 3.9 23.38 40.35 25.43-44zm-24.68 44.4l51.08.03 12.67-21.9-38.3-22.1-25.45 44zm63.74 22.9l-12.7-21.9h-51.05l25.44 44 38.3-22.1zm-37.82-67.73l38.3 22.1 12.68-21.92-12.86-22.25-12.68-21.9-25.44 43.98zm51.83.67l-12.7 21.9 38.32 22.1 25.44-44h-51.05zm26.04 45.35l-25.43 44h51.06l12.7-21.9-38.32-22.1zm.48-.86l38.3 22.12 1.06-1.82 11.62-20.1-11.3-19.53-14.24-24.65-25.44 44zm28.25-41.1l23.3 40.28 25.43-43.98-38.3-22.1-12.68 21.92 2.25 3.9zm24.14 40.8h51.1l12.66-21.9-38.3-22.1-25.45 44zm63.76 22.9l-12.7-21.9h-51.05l25.45 43.98 38.3-22.1zm-37.82-67.75l38.3 22.13 12.68-21.92-12.86-22.24-12.68-21.94-25.44 44zm51.82.67l-12.68 21.9 38.3 22.1 25.43-44h-51.04zm26.02 45.35l-25.43 44h51.05l12.7-21.9-38.32-22.1zm.5-.86l38.28 22.1 1.05-1.82 11.66-20.08-11.3-19.53-14.24-24.65-25.45 44zm28.24-41.1l23.3 40.28 25.44-43.98-38.3-22.1-12.68 21.92 2.24 3.9zm24.1 40.8h51.04l12.7-21.9-38.3-22.1-25.44 44zm63.75 22.9l-12.7-21.9h-51.05l25.44 43.98 38.3-22.1zm-38.67-68.24l25.4-44.02h-51.04l-12.66 21.92 38.3 22.1zm.85-89.5l25.45 44.02 13.02-22.53 12.52-21.65-12.67-21.9-38.32 22.08zm-.5-.84l38.3-22.07-12.7-21.9h-51.03l25.44 43.98zm-25.43-45l51.04.02 12.7-21.9-38.3-22.1-25.44 44zm25.08-45.33l25.4-44h-51.04l-12.66 21.9 38.3 22.1zm.85-89.5l25.45 44.03 13.02-22.52 12.52-21.68-12.67-21.9-38.32 22.08zm-.5-.83l38.3-22.1-12.7-21.9h-51.03l25.44 44zm-25.43-44.98h51.04l12.7-21.9-38.3-22.08-25.44 44zm-13.7-66.6l-12.68 21.93 2.24 3.88 23.3 40.3 25.44-44-38.3-22.1zm-13.24 22.9l-25.45 44 38.33 22.1 1.05-1.82 11.62-20.1-11.3-19.53-14.24-24.66zm-26.3 43.52l25.4-44h-51.04l-12.66 21.9 38.3 22.1zm0-88.97l-38.2 22.06v.1l12.6 21.82h51.06l-25.45-44zm-39.34 22.2l-12.68-21.9-25.44 44 38.3 22.08 12.68-21.9-12.86-22.27zm-64.62-22.4l-12.65 21.88 38.3 22.1 25.46-44h-51.1zm-13.15 22.74l-12.67 21.93 2.25 3.88 23.3 40.3 25.43-44-38.3-22.1zm-13.23 22.9l-25.44 44 38.3 22.1 1.06-1.82 11.62-20.1-11.3-19.53-14.24-24.66zm-26.28 43.52l25.4-44h-51.05l-12.7 21.9 38.36 22.1zm0-88.97l-38.27 22.06v.1l12.65 21.82h51.05l-25.44-44zm-39.36 22.2l-12.68-21.9-25.44 44 38.3 22.08 12.68-21.9-12.86-22.27zm-64.6-22.4l-12.68 21.9 38.28 22.08 25.44-44h-51.04zm-13.17 22.74l-12.66 21.93 2.25 3.88 23.3 40.3 25.43-44-38.32-22.1zm-38.66 66.9l38.36 22.1 1-1.82 11.62-20.1-11.3-19.53-14.25-24.64-25.43 43.98zm26.02 45.35l12.63 21.9 38.33-22.06-25.43-44-11 19-14.54 25.15zm-26.03 45.34l25.43 44 25.55-44.18-12.62-21.9-38.36 22.08zm0 89.98l38.36 22.1 1-1.84 11.62-20.1-11.3-19.5-14.25-24.65-25.43 44zm26.02 45.34l12.63 21.9 38.33-22.05-25.43-43.98-11 19-14.54 25.14zm-26.03 45.34l25.43 44 25.55-44.18-12.62-21.92-38.36 22.1zm0 89.98l38.36 22.08 1-1.82 11.62-20.1-11.3-19.5-14.25-24.65-25.43 43.98zm26.02 45.34l12.63 21.9 38.3-22.1-25.42-44-11 19.05-14.5 25.15zm25.82 44.68l51.06-.04-25.44-44-38.32 22.12 12.7 21.92zm64.94-23l12.5-21.64-12.67-22-38.3 22.2 25.45 43.98 13-22.53zM1330 893.7l25.52 44.18 25.45-44-38.3-22.1L1330 893.7zm51.83 89.67l38.34-22.13-12.73-21.86h-51.05l25.43 44zm26.47-44.5l12.67 21.9 38.3-22.1-25.43-43.98-11 19.05-14.54 25.14zm25.82 44.7l51.1-.04-25.45-43.98-38.3 22.1 12.65 21.92zm64.96-23l12.52-21.7-12.67-21.98-38.3 22.22 25.44 43.98 13-22.53zm-12.46-66.82l25.54 44.13 25.44-44-38.3-22.05-12.68 21.93zm51.82 89.66l38.28-22.08-12.66-21.92H1513l25.44 44zm26.5-44.54l12.67 21.9 38.32-22.1-25.44-44-11 19.06-14.54 25.14zm25.82 44.68l51.08-.03-25.44-43.98-38.3 22.1 12.66 21.92zm64.96-23l12.52-21.68-12.67-22-38.3 22.23 25.43 43.98 13.02-22.53zm38.52-66.66l-38.3-22.12-12.68 21.9 25.54 44.2 25.44-44zm-26.02-45.35l-12.84-22.3-12.7-21.86-25.45 44 38.32 22.08 12.67-21.92zm26.02-45.34l-25.44-44.03-11.92 20.63-13.62 23.57 12.66 21.9 38.32-22.08zm0-90l-38.3-22.1-12.68 21.9 25.54 44.2 25.44-44zm-26.02-45.32l-12.84-22.3-12.7-21.87-25.45 44 38.32 22.1 12.67-21.92zm26.02-45.35l-25.44-44-11.92 20.6-13.62 23.58 12.66 21.92 38.32-22.1zm0-89.98l-38.3-22.14-12.68 21.93 25.54 44.2 25.44-43.98zm-26.02-45.33l-12.84-22.3-12.7-21.92-25.43 44 38.32 22.08 12.65-21.86zm392.6-44.7l-12.7 21.88 38.3 22.1 25.43-44h-51.04zm-235 225.8l-12.72 21.9 38.32 22.07 25.44-44h-51.05zm0-1l51.13-.04-25.44-44-38.3 22.1v.1l12.6 21.83zm104.8.3l38.3 22.12 12.68-21.9-12.86-22.27-12.68-21.94-25.44 44zm37.82 22.93l-38.27-22.06-25.44 43.98h51.05l12.66-21.93zm-38.67-23.42l25.46-44h-51.1l-12.67 21.9 38.3 22.1zm-.5.84l-38.3-22.03-12.67 21.83 2.25 3.88 23.3 40.3 25.43-43.98zM1892 693.42l-14.26-24.6-25.44 44 38.3 22.1 1.06-1.87 11.62-20.1-11.3-19.53zm-40.18 20.2l-25.4 44.04h51.04l12.7-21.9-38.34-22.13zm25.64 45l-51.04.04 25.44 44 38.3-22.1-12.7-21.95zm.84-.5l12.67 21.95 38.3-22.1-25.43-44-11 19-14.54 25.15zm51.47.67l-38.3 22.1 12.65 21.88h51.1l-25.45-44zm-25.08-45.35l25.4 44 38.3-22.1-12.66-21.9h-51.05zm51.92-.5l25.54 44.17 25.44-44-38.3-22.08-12.68 21.92zm26.4 44.68l51.08.03 12.66-21.92-38.32-22.1-25.43 44zm63.74 22.9l-12.7-21.9H1983l25.44 44 38.32-22.1zm-37.83-67.75l38.32 22.14 1.06-1.84 11.62-20.1-11.3-19.54-14.24-24.65-25.45 43.98zm-.84-.5l25.4-44h-51.06l-12.66 21.92 38.3 22.1zm-25.66-44.97l51.13-.02-25.44-44-38.3 22.1v.1l12.6 21.83zm.57-89.35l25.44 44 38.28-22.08-12.66-21.92H1983zm24.6 44.5l-25.45-43.98-11.9 20.62-13.63 23.53 12.67 21.9 38.3-22.08zm-38.52-23.3l12.53-21.64-12.66-21.9-38.3 22.1 25.43 43.98 13-22.52zm-13.86 23l-25.45-44-38.3 22.1 12.65 21.9h51.1zm-51.94.5l-12.67-21.9-38.3 22.1 25.44 43.98 25.54-44.2zm-51.47-.7l38.37-22.05-12.75-21.94h-51.05l25.44 44zm-.83.5l-25.45-44.02-11.9 20.62-13.64 23.57 12.67 21.9 38.32-22.08zm-38.53-23.3l12.53-21.64-12.67-21.9-38.3 22.1 25.43 43.98 13-22.52zm-.34 46.42l-12.68-21.9-25.44 43.98 38.3 22.1 12.68-21.92-12.86-22.26zm-.3 45l-38.3-22.07-25.45 44h51.1l12.66-21.94zm.85.48l-12.67 21.88 25.54 44.2 25.45-44-38.32-22.08zm12.3 67.08l-12.65-21.87-38.3 22.1 25.43 43.98 13-22.53 12.53-21.67zm-11.34 21.6L1800 803.27l12.67 21.9 38.32-22.08-25.45-44-11.9 20.63zm37.86 24.23l-38.23 22.06v.1l12.62 21.83h51.05l-25.44-44zm.84-.5l25.44 44.03 25.54-44.2-12.67-21.92-38.3 22.1zm51.82.32l-12.65 21.9 38.3 22.1 25.46-44h-51.1zm26.5-45.47l25.45 44.04 13-22.53 12.53-21.67-12.67-21.9-38.3 22.08zm39.62 21.45l-13.63 23.54 12.68 21.9 38.3-22.1-25.43-43.98-11.9 20.63zm37.83 24.23l-38.2 22.06v.1l12.6 21.83h51.04l-25.43-44zm.85-.5l25.45 44.03 25.54-44.18-12.66-21.92-38.32 22.1zm39.18-22.57l12.7 21.9h51.04l-25.44-44-38.3 22.1zm-.5-.84l38.32-22.07-25.44-44-11 19-14.54 25.14 12.67 21.92zM2037.2 671.7l23.3 40.32 25.44-43.98-38.3-22.1-12.68 21.9 2.24 3.87zm-2.8-4.85l25.54-44.17-12.67-21.9-38.32 22.08 25.45 44zm13.72-66.6l12.7 21.9h51.04l-25.44-44-38.3 22.1zm-.5-.84l38.32-22.06-25.44-44-11 19-14.54 25.15 12.67 21.9zm-13.5-22.44l12.7-21.9-38.32-22.08-25.43 43.98h51.05zm-51.94-.48l25.44-43.98-38.3-22.1-12.68 21.93 25.54 44.15zm-26.38-44.63l12.7-21.9-38.3-22.1-25.45 44h51.05zm0 1l-51.1.02 25.44 44 38.32-22.1-12.66-21.92zm-26.5 44.5l-25.44-43.97-11 19-14.54 25.14 12.67 21.92 38.3-22.1zm-51.82-.4l12.7-21.86-38.3-22.13-25.45 44h51.06zm-51.94-.47l25.45-43.98-38.32-22.1-12.67 21.93 25.54 44.15zm-26.38-44.63l12.66-21.9-38.3-22.1-25.45 44h51.1zm0 1l-51.1-.03 25.46 44 38.3-22.06-12.66-21.9zm-.56 89.35l-25.44-44.04-38.32 22.1 12.72 21.94h51.04zm-51.04 1l-12.72 21.9 38.32 22.1 25.44-44h-51.04zm25.15 44.85l-38.37-22.1-12.66 21.88 2.25 3.88 23.34 40.33 25.43-43.98zm26.48 45.48l-51.13-.05 25.5 44.05 38.3-22.1-12.67-21.9zm-.56 89.35l-25.48-44.07-38.32 22.1 12.76 21.98h51.04zm-51.04 1l-12.72 21.9 38.32 22.1 25.44-44h-51.04zm25.15 44.86l-38.4-22.18-12.66 21.92 2.25 3.9 23.38 40.35 25.43-44zm-24.68 44.4l51.08.03 12.67-21.9-38.3-22.1-25.45 44zm63.74 22.9l-12.7-21.9h-51.05l25.44 44 38.3-22.1zm-37.82-67.73l38.3 22.1 12.68-21.92-12.86-22.25-12.68-21.9-25.44 43.98zm51.83.67l-12.7 21.9 38.32 22.1 25.44-44h-51.05zm26.04 45.35l-25.43 44h51.06l12.7-21.9-38.32-22.1zm.48-.86l38.3 22.12 1.06-1.82 11.62-20.1-11.3-19.53-14.24-24.65-25.44 44zm28.25-41.1l23.3 40.28 25.43-43.98-38.3-22.1-12.68 21.92 2.25 3.9zm24.14 40.8h51.1l12.66-21.9-38.3-22.1-25.45 44zm63.76 22.9l-12.7-21.9h-51.05l25.45 43.98 38.3-22.1zm-37.82-67.75l38.3 22.13 12.68-21.92-12.86-22.24-12.68-21.94-25.44 44zm51.82.67l-12.68 21.9 38.3 22.1 25.42-44h-51.04zm26.02 45.35l-25.43 44h51.05l12.7-21.9-38.32-22.1zm.5-.86l38.28 22.1 1.05-1.82 11.66-20.08-11.3-19.53-14.24-24.65-25.45 44zm28.24-41.1l23.3 40.28 25.44-43.98-38.3-22.1-12.68 21.92 2.24 3.9zm24.1 40.8h51.04l12.7-21.9-38.3-22.1-25.44 44zm63.75 22.9l-12.7-21.9h-51.05l25.44 43.98 38.3-22.1zm-38.67-68.24l25.4-44.02h-51.04l-12.66 21.92 38.3 22.1zm.85-89.5l25.45 44.02 13.02-22.53 12.52-21.65-12.67-21.9-38.32 22.08zm-.5-.84l38.28-22.07-12.67-21.9h-51.04l25.44 43.98zm-25.43-45l51.04.02 12.7-21.9-38.3-22.1-25.44 44zm25.08-45.33l25.4-44h-51.04l-12.66 21.9 38.3 22.1zm.85-89.5l25.45 44.03 13.02-22.52 12.52-21.68-12.67-21.9-38.32 22.08zm-.5-.83l38.28-22.1-12.67-21.9h-51.04l25.44 44zm-25.43-44.98h51.04l12.7-21.9-38.3-22.08-25.44 44zm-13.7-66.6l-12.68 21.93 2.24 3.88 23.3 40.3 25.44-44-38.3-22.1zm-13.24 22.9l-25.45 44 38.33 22.1 1.05-1.82 11.62-20.1-11.3-19.53-14.24-24.66zm-26.3 43.52l25.4-44h-51.04l-12.66 21.9 38.3 22.1zm0-88.97l-38.2 22.06v.1l12.6 21.82h51.05l-25.44-44zm-39.34 22.2l-12.68-21.9-25.44 44 38.3 22.08 12.68-21.9-12.86-22.27zm-64.62-22.4l-12.65 21.88 38.3 22.1 25.46-44h-51.1zm-13.15 22.74l-12.67 21.93 2.25 3.88 23.3 40.3 25.43-44-38.3-22.1zm-13.23 22.9l-25.44 44 38.3 22.1 1.06-1.82 11.62-20.1-11.3-19.53-14.24-24.66zm-26.28 43.52l25.4-44h-51.05l-12.7 21.9 38.36 22.1zm0-88.97l-38.27 22.06v.1l12.65 21.82h51.05l-25.44-44zm-39.36 22.2l-12.68-21.9-25.44 44 38.3 22.08 12.68-21.9-12.86-22.27zm-64.6-22.4l-12.68 21.9 38.28 22.08 25.44-44h-51.04zm-13.17 22.74l-12.66 21.93 2.25 3.88 23.3 40.3 25.43-44-38.32-22.1zm-38.66 66.9l38.36 22.1 1-1.82 11.62-20.1-11.3-19.53-14.25-24.64-25.43 43.98zm26.02 45.35l12.63 21.9 38.33-22.06-25.43-44-11 19-14.54 25.15zm-26.03 45.34l25.43 44 25.55-44.18-12.62-21.9-38.36 22.08zm0 89.98l38.36 22.1 1-1.84 11.62-20.1-11.3-19.5-14.25-24.65-25.43 44zm26.02 45.34l12.63 21.9 38.33-22.05-25.43-43.98-11 19-14.54 25.14zm-26.03 45.34l25.43 44 25.55-44.18-12.62-21.92-38.36 22.1zm0 89.98l38.36 22.08 1-1.82 11.62-20.1-11.3-19.5-14.25-24.65-25.43 43.98zm26.02 45.34l12.63 21.9 38.3-22.1-25.42-44-11 19.05-14.5 25.15zm25.82 44.68l51.06-.04-25.44-44-38.32 22.12 12.7 21.92zm64.94-23l12.5-21.64-12.67-22-38.3 22.2 25.45 43.98 13-22.53zM1800 893.7l25.52 44.18 25.45-44-38.3-22.1L1800 893.7zm51.83 89.67l38.34-22.13-12.73-21.86h-51.05l25.43 44zm26.47-44.5l12.67 21.9 38.3-22.1-25.43-43.98-11 19.05-14.54 25.14zm25.82 44.7l51.1-.04-25.45-43.98-38.3 22.1 12.65 21.92zm64.96-23l12.52-21.7-12.67-21.98-38.3 22.22 25.44 43.98 13-22.53zm-12.46-66.82l25.54 44.13 25.44-44-38.3-22.05-12.68 21.93zm51.82 89.66l38.28-22.08-12.66-21.92H1983l25.44 44zm26.5-44.54l12.67 21.9 38.32-22.1-25.44-44-11 19.06-14.54 25.14zm25.82 44.68l51.08-.03-25.44-43.98-38.3 22.1 12.66 21.92zm64.96-23l12.52-21.68-12.67-22-38.3 22.23 25.43 43.98 13.02-22.53zm38.52-66.66l-38.3-22.12-12.7 21.9 25.56 44.2 25.44-44zm-26.02-45.35l-12.84-22.3-12.7-21.86-25.45 44 38.32 22.08 12.67-21.92zm26.02-45.34l-25.44-44.03-11.92 20.63-13.63 23.57 12.67 21.9 38.32-22.08zm0-90l-38.3-22.1-12.7 21.9 25.56 44.2 25.44-44zm-26.02-45.32l-12.84-22.3-12.7-21.87-25.45 44 38.32 22.1 12.67-21.92zm26.02-45.35l-25.44-44-11.92 20.6-13.63 23.58 12.67 21.92 38.32-22.1zm0-89.98l-38.3-22.14-12.7 21.93 25.56 44.2 25.44-43.98zm-26.02-45.33l-12.84-22.3-12.7-21.92-25.43 44 38.32 22.08 12.65-21.86z" clip-path="url(#d)"/></g><defs><linearGradient id="a" x2="1" gradientUnits="userSpaceOnUse" gradientTransform="matrix(2025.51 228.616 -228.616 2025.51 30 0)"><stop offset="0" stop-color="#f02828"/><stop offset=".49" stop-color="#f02828"/><stop offset="1" stop-color="#ff5a23"/></linearGradient><linearGradient id="b" x2="1" gradientUnits="userSpaceOnUse" gradientTransform="matrix(179.671 -534.055 534.055 179.671 464 733)"><stop offset="0" stop-color="#f02d28" stop-opacity=".4"/><stop offset="1" stop-color="#282037" stop-opacity="0"/></linearGradient><linearGradient id="c" x2="1" gradientUnits="userSpaceOnUse" gradientTransform="matrix(-178.22 533.259 -533.259 -178.22 1568 143)"><stop offset="0" stop-color="#f03d28" stop-opacity=".4"/><stop offset="1" stop-color="#201e37" stop-opacity="0"/></linearGradient></defs></svg>