<svg xmlns="http://www.w3.org/2000/svg" width="377" height="238" fill="none"><path fill="#fff" fill-rule="evenodd" d="M304.3 3H374v1h-69.3l-63.85 62.86-.7-.72L304.3 3z" opacity=".25" clip-rule="evenodd"/><circle cx="373.5" cy="3.5" r="3.5" fill="#F02828" transform="rotate(90 373.5 3.5)"/><path fill="#fff" fill-rule="evenodd" d="M304.3 235.5H374v-1h-69.3l-63.34-63.85-.7.7 63.63 64.15z" opacity=".25" clip-rule="evenodd"/><circle cx="373.5" cy="234.5" r="3.5" fill="#F02828" transform="rotate(90 373.5 234.5)"/><path fill="#fff" fill-rule="evenodd" d="M72.7 2H3v1h69.3l68.34 69.35.72-.7L72.7 2z" opacity=".25" clip-rule="evenodd"/><circle cx="3" cy="3" r="3" fill="#F02828" transform="rotate(90 3 3)"/><path fill="#fff" fill-rule="evenodd" d="M73.7 235.5H4v-1h69.3l63.85-64.35.7.7L73.7 235.5z" opacity=".25" clip-rule="evenodd"/><circle cx="3.5" cy="234.5" r="3.5" fill="#F02828" transform="rotate(90 3.5 234.5)"/><path fill="url(#a)" fill-rule="evenodd" d="M154 119c0-19.3 15.7-35 35-35s35 15.7 35 35-15.7 35-35 35-35-15.7-35-35zm7.24 0c0 15.3 12.47 27.75 27.76 27.75 15.3 0 27.76-12.44 27.76-27.75 0-15.3-12.47-27.76-27.76-27.76-15.3 0-27.76 12.45-27.76 27.76zm36.04-11.87h-25.04v6.84h25.04v3.94h6.83v-15.3h-6.82v4.53zm-25.04 21.36h10.78v5.98h6.83v-6h7.43v6h6.83v-12.82h-31.86v6.83z" clip-rule="evenodd" filter="url(#b)"/><path fill="#fff" fill-rule="evenodd" d="M194.7 63.8c.35.02.7.06 1.04.1l-.12 1c-.34-.04-.68-.07-1.02-.1l.1-1zm6.2.98c.34.07.68.15 1.02.23l-.23 1c-.35-.1-.68-.17-1.02-.24l.22-.98zm6.04 1.67c.33.1.66.23 1 .35l-.35.95c-.34-.12-.66-.23-.98-.34l.32-.95zm5.82 2.35c.3.15.63.3.94.45l-.45.9c-.3-.14-.6-.3-.92-.44l.43-.9zm5.5 3c.3.17.6.36.9.55l-.54.84c-.3-.2-.58-.37-.88-.55l.53-.86zm5.16 3.57c.28.22.55.44.82.66l-.64.78c-.26-.2-.53-.42-.8-.63l.62-.8zm4.72 4.14c.24.26.5.5.74.75l-.72.7c-.24-.24-.5-.48-.73-.72l.7-.72zm4.22 4.65c.22.27.44.54.65.82l-.78.62c-.2-.28-.43-.55-.64-.82l.78-.63zm3.68 5.08c.2.3.38.6.56.88l-.86.54c-.18-.3-.36-.58-.55-.87l.84-.54zm3.1 5.46c.15.3.3.6.45.93l-.92.43c-.15-.3-.3-.62-.45-.93l.9-.44zm2.45 5.76c.1.33.22.65.33.98l-.95.33c-.1-.33-.22-.65-.34-.97l.95-.34zm1.78 6c.08.35.16.7.23 1.03l-.97.2c-.08-.33-.15-.67-.23-1l.98-.23zm1.1 6.18c.04.35.08.7.12 1.05l-1 .1c-.04-.35-.08-.7-.12-1.03l1-.13zM133.9 125.74c-.04-.34-.08-.7-.1-1.04l1-.1c.03.34.06.68.1 1.02l-1 .12zm1.1 6.18c-.07-.34-.15-.68-.22-1.02l.98-.22c.07.34.15.67.23 1l-1 .24zm1.8 6c-.12-.32-.24-.65-.35-.98l.96-.32c.12.32.23.64.35.97l-.95.33zm2.45 5.78c-.15-.3-.3-.63-.45-.94l.9-.43c.16.3.3.62.46.92l-.9.45zm3.1 5.46c-.2-.3-.38-.6-.56-.9l.85-.5c.18.28.36.57.54.85l-.85.56zm3.68 5.08c-.22-.27-.44-.55-.66-.82l.8-.62c.2.27.42.54.64.8l-.77.64zm4.22 4.63c-.25-.24-.5-.5-.74-.74l.73-.7c.24.24.48.48.73.72l-.7.72zm4.72 4.14c-.28-.2-.55-.42-.82-.64l.63-.78c.27.2.54.43.8.64l-.6.8zm5.14 3.6c-.28-.2-.58-.37-.87-.56l.54-.85c.3.18.58.36.87.54l-.53.86zm5.53 3c-.32-.16-.63-.3-.94-.47l.43-.9c.3.15.62.3.93.44l-.43.92zm5.8 2.33c-.32-.1-.64-.22-.97-.34l.34-.96c.32.12.64.23.97.34l-.33.95zm6.06 1.68c-.35-.06-.7-.14-1.03-.22l.23-.98c.34.08.67.15 1 .23l-.2.98zm6.2 1c-.36-.04-.7-.08-1.06-.12l.13-1c.34.04.68.08 1.02.12l-.1 1z" clip-rule="evenodd"/><path fill="#FD5224" fill-rule="evenodd" d="M231.63 67.3C220.05 57.76 205.2 52 189 52v-2c16.64 0 31.9 5.9 43.82 15.7 1.08-1.05 2.55-1.7 4.18-1.7 3.3 0 6 2.7 6 6 0 1.58-.6 3.02-1.6 4.1C251.73 86.15 258 101.84 258 119h-2c0-16.7-6.1-31.96-16.2-43.7-.84.45-1.8.7-2.8.7-3.3 0-6-2.7-6-6 0-.97.23-1.88.63-2.7zM122 119c0 16.38 5.88 31.4 15.64 43.03.96-.65 2.12-1.03 3.36-1.03 3.3 0 6 2.7 6 6 0 1.25-.38 2.4-1.03 3.36C157.6 180.12 172.62 186 189 186v2c-16.9 0-32.4-6.1-44.4-16.2-1 .76-2.25 1.2-3.6 1.2-3.3 0-6-2.7-6-6 0-1.34.44-2.6 1.2-3.6-10.1-12-16.2-27.5-16.2-44.4h2zm19 44c-2.2 0-4 1.8-4 4s1.8 4 4 4 4-1.8 4-4-1.8-4-4-4zm92-93c0-2.2 1.8-4 4-4s4 1.8 4 4-1.8 4-4 4-4-1.8-4-4z" clip-rule="evenodd"/><path fill="#F02828" fill-rule="evenodd" d="M129 120c0-33.14 26.86-60 60-60v-4c-15.88 0-30.4 5.78-41.6 15.35-1.95-1.77-4.97-1.7-6.86.2-1.9 1.87-1.95 4.9-.2 6.86C130.8 89.6 125 104.13 125 120h4z" clip-rule="evenodd"/><path fill="#fff" fill-rule="evenodd" d="M248.97 121h8c0 .36-.02.73-.04 1.1-.04.94-.1 1.88-.18 2.82l-8.02-.7-.17 2 8 .7c-.17 1.3-.35 2.58-.58 3.86l-7.9-1.4-.35 1.98 7.88 1.38c-.25 1.28-.55 2.55-.88 3.8l-7.76-2.08-.52 1.93 7.73 2.06c-.37 1.25-.77 2.48-1.2 3.7l-7.56-2.76-.67 1.88 7.52 2.74c-.3.74-.6 1.47-.9 2.2-.2.45-.42.9-.63 1.35l-7.28-3.4-.84 1.82 7.25 3.38c-.57 1.15-1.18 2.28-1.82 3.4l-6.95-4.02-1 1.73 6.93 4c-.66 1.1-1.36 2.16-2.1 3.2l-6.56-4.6-1.15 1.65 6.55 4.6c-.76 1-1.54 2.02-2.36 3l-6.15-5.16-1.3 1.53 6.14 5.14c-.4.45-.8.9-1.2 1.33-.47.5-.93 1-1.4 1.47l-5.67-5.67-1.42 1.42 5.67 5.65c-.9.88-1.85 1.73-2.8 2.56l-5.17-6.14-1.53 1.28 5.15 6.13c-.64.53-1.3 1.03-1.95 1.53-.35.26-.7.52-1.07.78l-4.6-6.56-1.64 1.15 4.6 6.56c-1.04.7-2.1 1.38-3.2 2.03l-4-6.94-1.73 1 4 6.93c-1.1.6-2.2 1.2-3.34 1.75l-3.4-7.27-1.8.85 3.38 7.27c-1.15.5-2.3 1-3.48 1.45l-2.74-7.52-1.88.7 2.74 7.52c-.7.25-1.42.5-2.14.7-.48.16-.96.3-1.45.45l-2.07-7.74-1.94.52 2.08 7.75c-1.2.3-2.43.6-3.67.84l-1.4-7.9-1.96.36 1.4 7.9c-.7.13-1.42.24-2.14.34-.52.07-1.05.13-1.6.2l-.68-7.98-2 .16.7 8c-1.24.1-2.5.18-3.75.2v-8.02h-2V191c18.1 0 34.62-6.67 47.26-17.68 1.97 1.7 4.94 1.62 6.8-.25 1.88-1.87 1.96-4.84.26-6.8C254.32 153.6 261 137.08 261 119h-12.03v2z" clip-rule="evenodd"/><defs><filter id="b" width="130" height="130" x="124" y="84" filterUnits="userSpaceOnUse" color-interpolation-filters="sRGB"><feFlood flood-opacity="0" result="BackgroundImageFix"/><feColorMatrix in="SourceAlpha" values="0 0 0 0 0 0 0 0 0 0 0 0 0 0 0 0 0 0 127 0"/><feOffset dy="30"/><feGaussianBlur stdDeviation="15"/><feColorMatrix values="0 0 0 0 0 0 0 0 0 0 0 0 0 0 0 0 0 0 0.05 0"/><feBlend in2="BackgroundImageFix" result="effect1_dropShadow"/><feBlend in="SourceGraphic" in2="effect1_dropShadow" result="shape"/></filter><linearGradient id="a" x1="170" x2="198.566" y1="107" y2="112.45" gradientUnits="userSpaceOnUse"><stop stop-color="#F02828"/><stop offset=".488" stop-color="#F02828"/><stop offset="1" stop-color="#FF5A23"/></linearGradient></defs></svg>